<?xml version="1.0" encoding="utf-8"?>
<!-- Generator: Adobe Illustrator 24.3.0, SVG Export Plug-In . SVG Version: 6.00 Build 0)  -->
<svg version="1.1" id="Layer_1" xmlns="http://www.w3.org/2000/svg" xmlns:xlink="http://www.w3.org/1999/xlink" x="0px" y="0px"
	 viewBox="0 0 670.5 444.6" style="enable-background:new 0 0 670.5 444.6;" xml:space="preserve">
<style type="text/css">
	.st0{fill:#FEC22C;}
	.st1{fill:#FE962C;}
	.st2{fill:#0B62F6;}
	.st3{fill:#94F80D;}
	.st4{fill:#FE982B;}
	.st5{fill:#FBF7DF;}
	.st6{fill:#FE962D;}
	.st7{fill:#0B62F5;}
	.st8{fill:#95F80E;}
	.st9{fill:#FE972B;}
	.st10{fill:#FCFAEC;}
	.st11{fill:#FEC32C;}
	.st12{fill:#FE972D;}
	.st13{fill:#0C62F5;}
	.st14{fill:#FEBD2E;}
	.st15{fill:#FE912E;}
	.st16{fill:#0A61F6;}
	.st17{fill:#94F40F;}
	.st18{fill:#FED886;}
	.st19{fill:#FEEFD0;}
	.st20{fill:#FEE7B5;}
	.st21{fill:#FEECC6;}
	.st22{fill:#FEE09F;}
	.st23{fill:#FEE2A4;}
	.st24{fill:#FEE9BC;}
	.st25{fill:#467BD0;}
	.st26{fill:#FEE6B2;}
	.st27{fill:#FEBB7F;}
	.st28{fill:#FED584;}
	.st29{fill:#FEE5AE;}
	.st30{fill:#FE932D;}
	.st31{fill:#1163EF;}
	.st32{fill:#FAFBEC;}
	.st33{fill:#95F80D;}
	.st34{fill:#1967E9;}
	.st35{fill:#F9F2CA;}
	.st36{fill:#1D68E5;}
	.st37{fill:#FEC52A;}
	.st38{fill:#FE982E;}
	.st39{fill:#FEDE90;}
	.st40{fill:#FEE8B4;}
	.st41{fill:#FEC993;}
	.st42{fill:#FEE5A6;}
	.st43{fill:#FEEAB8;}
	.st44{fill:#FEE3A2;}
	.st45{fill:#FEE4A5;}
	.st46{fill:#FEF0CD;}
	.st47{fill:#FEDB87;}
	.st48{fill:#1164EE;}
	.st49{fill:#FBF9E7;}
	.st50{fill:#FEC22B;}
	.st51{fill:#FEC184;}
	.st52{fill:#FEBD7B;}
	.st53{fill:#FEDE8C;}
	.st54{fill:#FEE29A;}
	.st55{fill:#FEDC86;}
	.st56{fill:#FEE7AC;}
	.st57{fill:#FEF0CC;}
	.st58{fill:#FEE4A1;}
	.st59{fill:#FEE8B0;}
	.st60{fill:#FECE9C;}
	.st61{fill:#0C62F2;}
	.st62{fill:#FBFAEB;}
</style>
<g>
	<path class="st14" d="M196.4,121.1c0.9-0.1,1.7-0.1,2.6-0.2c1.4,0.4,2.7,0.3,4.1,0c0.9,0.1,1.7,0.1,2.6,0.2c0.4,0.5,1,0.6,1.7,0.6
		c3.3,0.5,6.6,1.2,9.5,2.8c2,1.1,4,1.3,6.3,0.5c7-2.7,13.1-0.5,18.7,3.8c3,2.3,4.5,5.7,5.8,9c1.6,4.2,5,5.9,8.6,7.1
		c2,0.7,4.4,1.1,6.7,0.7c0.7,0.6,1.5,0.6,2.3,0.3c6.9,0.7,13.8-0.5,20.6,0.3c5.9,0.7,11.2-1.7,16.9-1.7c0.6,0.1,1.2-0.1,1.7-0.5
		c2.7,0,5.5,0,8.2,0c0.3,0.4,0.6,0.6,1.1,0.5c3.3-0.1,6.5,0.8,9.7,1.2c0.1,0.3,0.3,0.5,0.7,0.4c2.4,0.4,4.6,1.5,6.7,2.6
		c2,1,4.1,1.9,6.4,1.7c1.6,0.7,3.3,0.5,5,0.3c0.9,0.1,1.8,0.2,2.7,0.3c0.3,0.4,0.7,0.5,1.2,0.2c0.9,0.1,1.8,0.2,2.7,0.3
		c0.3,0.4,0.7,0.5,1.2,0.2c1.4,0.4,2.8,0.9,4.3,0.8c1.2,0.7,2.6,0.5,3.9,0.4c1.8,0.4,3.6,0.3,5.4,0.2c1.4,0.6,2.9,0.7,4.3,0
		c4.1,0.1,8.3,0.3,12.4,0.4c3.2,0.2,6.3,0.6,9.4-0.4c0.8-0.1,1.7-0.2,2.5-0.2c0.5,0.3,0.9,0.2,1.3-0.2c1.1,0,2.2,0,3.3-0.1
		c1.1,0,2.3,0.2,3.3-0.6c1.4-0.1,2.8-0.1,4.2-0.2c1.8,0.2,3.6,0.8,5.1-0.7c8.1-2.8,16.1-0.7,24.1,0.5c9.8,1.4,19.3,4.1,28,8.8
		c7.5,4.1,15.6,5.8,23.7,7.3c3.9,0.7,8,0.4,11.7,2.2c1.1,0.5,2.1,1,3.1,1.7c2.3,1.5,4.2,3.4,3.8,6.4c-0.4,3.1-2.4,5.1-5.2,6.1
		c-3.9,1.4-7.8,2.3-11.9,2.8c-4.1,0.4-4,0.4-4.3,4.4c-0.3,4.3-1.6,8.3-4.2,11.9c-1.6,2.2-2,5-3,7.5c-2,5-4.7,9.6-7,14.4
		c-0.2,0.5-0.3,1-0.5,1.6c-2.4,3.3-2.5,7.2-1.4,10.8c1.6,5.2,4.2,9.9,8.5,13.6c1.6,1.4,3.1,2.8,4,4.7c2.6,5.2,7.3,8.2,11.9,11
		c3.6,2.2,5.6,5.2,4.5,9.2c-1,3.4-0.8,6.8-1,10.2c-0.7,0.6-0.6,1.3-0.1,2.1c0.1,3.8,0.1,7.7,0.2,11.5c-1.1,2.3-0.3,4.7-0.5,7.1
		c-0.1,2.4-0.2,4.9-0.3,7.3c0,5.7-3.6,9.6-6.9,13.6c-1.8,2.2-3.4,4.4-5.2,6.6c-0.6,0.7-0.8,1.6-0.9,2.5c-1.2,8.6-3.8,11.2-13,11.9
		c-1.6-0.7-3.3-0.7-4.9,0c-2,0.1-3.9,0.2-5.9,0.3c-1.1-0.4-2.1-0.4-2.9,0.7c-7.1,0.7-11.8-3.1-15.7-8.3c-1.1-1.4-0.9-3-0.4-4.4
		c2.4-7.6,11.4-13.7,19.4-13.3c1.1,0.1,2.1,0.4,3.2,0.5c5,0.7,6.8-1.6,6.9-5.5c0.2-7.9,1.9-15.9,0-23.8c0.3-0.5,0.2-0.9-0.3-1.2
		c-0.9-6.3-4.9-10.8-9.5-14.4c-6.8-5.4-13.2-11.4-20.7-15.9c-2.6-1.6-3.9-4.5-6.1-6.5c-3.1-3-6.2-6.1-9.2-9.3
		c-7.8-8.2-11.6-18.5-15.5-28.8c-1.3-3.3-1.1-3.3-3.7-0.9c-3.4,3.2-7.6,5.3-11.5,7.7c-11.2,6.9-23.3,11.9-36.2,14.8
		c-5.3,1.2-10.8,0.4-16.2,0.5c-4.1,0.8-8.3,0.9-12.3-0.8c-2.2-0.9-2.9-0.1-3.7,1.9c-2.3,5.8-5.3,11.1-11.9,13.2
		c-1.9,0.6-4,0.4-5.5,1.9c-4.8,0.7-9.4,2.1-13.8,4c-5.9,2.6-12.3,2.7-18.2,4.7c-6.8,2.4-14,4.4-19.1,9.8c-3.2,3.4-5.2,7.4-5,12.2
		c0,0.6,0,1.3,0.3,1.8c5.2,9.9,2.8,19.2-2.3,28.4c-3.4,6-8.6,9.3-15,11.1c-2.5,0.7-4.7,0.4-7.1-0.5c-9.6-3.9-12.7-14.4-6.9-22.9
		c1.4-2,3.7-3.7,3.2-6.6c1.2-0.4,1.1-1.3,0.8-2.3c0.1-1.1,0.1-2.1,0.2-3.2c0.7-1.3,0.7-2.5,0-3.8c-0.1-0.5-0.1-1-0.2-1.6
		c0.3-0.9,0.3-1.8-0.8-2.3c0-2.2-0.1-4.3-0.5-6.5c-1.2-7.5,5.7-18.9,12.8-21.5c4.3-1.6,7.5-4.8,10.9-7.5c3.5-2.8,7-5.4,11.4-6.6
		c3.6-1,6.2-3.6,9.1-5.8c2.1-1.6,3.8-3.6,6.1-5c1.8-1.1,1.9-3.1,1.1-4.9c-1.8-4-3.8-7.4-8.2-9.7c-6.3-3.3-11.1-8.7-16.3-13.5
		c-8.4-7.7-16.5-15.9-27.5-20.1c-4.9-1.8-9.8-2.3-14.8-0.2c-5.2,2.2-10.6,4-16.1,5.1c-3.8,0.7-7.4-0.6-9.7-3.8c-0.2-2,0.9-3.5,1.8-5
		c1.4-2.1,2.1-4.4,2-6.9c0.4-2.5,1.1-5,0.3-7.8c-1.4,1.1-2.8,1.7-3.5,3.2c-0.9,0.5-1.8,0.9-2.5,1.5c-5,3.9-10.1,7.6-16.5,9
		c-7.9,0.5-13.9-2.5-17.7-9.5c-0.5-0.9-0.6-1.9-0.8-2.8c3.4-0.7,6.8-1.5,9.3-4.2c3-3.3,6.1-6.6,8-10.8c1.5-3.5,0.6-6.1-3-7.6
		c-0.3-0.5-0.8-0.6-1.3-0.4c-1.9-0.7-4-0.3-6-0.6c-0.2-0.2-0.3-0.4-0.5-0.5c2.6-2.4,6-2.1,9.1-2.6c4.8-0.7,9.5-1.9,14.1-3.6
		c4-1.4,7.2-4,9.5-7.8c3-4.8,7.6-7.3,13-8.5C195.3,121.6,196,121.7,196.4,121.1z M247.6,183.8c4.8,0.1,11.3-5.6,12-10.2
		c0.2-1.1,0.9-2.2,0.3-3.4c-0.6-1.2-0.5-3.1-2.2-3c-1.6,0.1-1.2,1.9-1.4,3.1c-0.5,4.1-4.5,9.4-7.5,9.7c-4.1,0.4-9.2-1.6-11.5-5.7
		c-2.5-4.6-2.1-9.7-2.7-14.5c-0.9-7-3.4-13.1-8.9-17.7c-1.3-1.1-2.7-2.1-4.5-2.4c-0.8-0.1-1.5,0.1-1.8,0.9c-0.2,0.6,0.1,0.9,0.7,1.2
		c5.6,3.8,8.8,9.2,10,15.8c0.8,4.3,1,8.8,1.8,13.1c0.6,3.2,1.6,6.5,4.1,8.6C239.4,182.2,243.4,184,247.6,183.8z M191.6,134.2
		c0.2-1.9-1.6-2.4-3.1-2.6c-1.4-0.2-3.7,2.4-3.5,3.8c0.2,1.7,1.4,2.6,3.1,2.7C190.1,138.2,191.6,136.7,191.6,134.2z"/>
	<path class="st15" d="M304.9,257.4c1.6-1.5,3.7-1.3,5.5-1.9c6.6-2,9.6-7.3,11.9-13.2c0.8-2,1.5-2.8,3.7-1.9c4,1.6,8.1,1.5,12.3,0.8
		c-0.3,3.6,0.4,6.9,1.8,10.2c1.9,4.6,2.4,9.7,3.2,14.6c0.9,5.8,3.5,11.1,4.7,16.8c0.9,4.1,0.9,8.3,1.5,12.4c0.6,4.3,0.4,8.7,0.7,13
		c0.1,2.1-0.7,3.9-2,5.5c-2.4,2.8-5.4,4.9-8.4,6.8c-2.9,1.9-5,4.1-4.3,7.9c0.3,2-0.2,4-0.6,5.9c-0.5,2.5-2.1,4-4.8,4
		c-3.1,0-6.2-0.1-9.3-0.1c-4.3,0.1-8.5,0.4-12.8,0.5c-5.4,0.2-9.4-2-12.1-6.8c-0.9-1.6-1.3-3.3-0.6-5c2.1-5.2,5.2-9.7,10.2-12.8
		c2.5-1.5,5.2-1.2,7.9-1.3c5.4,0,6.3-1.2,8.5-6.1c2.8-6.1,1-11.7-1-17.3c-3.6-10.1-8.6-19.5-13.9-28.7
		C306.5,259.6,305.7,258.5,304.9,257.4z"/>
	<path class="st15" d="M494.2,286.4c0.2-3.4,0-6.8,1-10.2c1.1-4-0.9-7-4.5-9.2c-4.7-2.9-9.4-5.8-11.9-11c-0.9-1.9-2.4-3.4-4-4.7
		c-4.3-3.6-6.9-8.4-8.5-13.6c-1.1-3.6-0.9-7.5,1.4-10.8c4.2,6,10.6,9.2,17.3,10.5c4.8,0.9,10.4,2.3,15.3-1.1
		c1.9-1.3,4.1-1.8,6.4-1.8c4.2-0.1,6.3,1.7,6.6,6c0.1,1.6,0,3.3,0,4.9c-0.5,0.4-0.5,0.8-0.2,1.3c-0.5,1.7-0.9,3.5-1.4,5.2
		c-0.6,0.5-0.7,1-0.2,1.6c0,1.8-0.1,3.5-0.1,5.3c-0.3,0.8-0.5,1.6,0.2,2.4c0.2,3.6,1,7.1,2.2,10.6c1.5,4.4,2.3,9,3.4,13.5
		c0.9,3.8,2.4,7.4,4.7,10.5c3.8,5.1,7.1,10.5,11.1,15.5c1.7,2,1.5,6.6,0,8.7c-4.9,6.7-11.7,7.7-18.6,2.5c-2.1-1.6-4.3-2.9-6.2-4.8
		c-3.2-3.3-4.4-7.5-5-11.7c-1-6.8-4.7-12.1-8.3-17.5C494.9,287.6,494.5,287,494.2,286.4z"/>
	<path class="st16" d="M156.8,145.5c3.6,1.5,4.6,4.1,3,7.6c-1.9,4.2-5,7.5-8,10.8c-2.5,2.7-5.8,3.6-9.3,4.2
		c-5.1-2.5-6.8-8.4-6.1-13.5c0.6-4.2,1.9-7.6,6.3-9.1c1.4-0.5,2.8-0.3,4.1-0.8c0.9,0.6,1.8,0.7,2.7-0.2c2,0.3,4-0.1,6,0.6
		C155.8,145.6,156.3,145.7,156.8,145.5z"/>
	<path class="st17" d="M161.1,180.5c6.4-1.4,11.5-5.1,16.5-9c0.8-0.6,1.7-1,2.5-1.5c1.6,1.2,1.8,3.2,3.1,4.6c0.2,2.5-0.6,4.8-2,6.9
		c-1,1.5-2.1,3-1.8,5c-0.2,0.1-0.3,0.2-0.5,0.3C171.3,191.5,164.2,189.1,161.1,180.5z"/>
	<path class="st18" d="M389.5,153.3c-3.1,1-6.3,0.6-9.4,0.4C383.1,152.3,386.3,152.8,389.5,153.3z"/>
	<path class="st19" d="M493.7,307c0.1-2.4-0.7-4.8,0.5-7.1C494.8,302.4,495.6,304.8,493.7,307z"/>
	<path class="st20" d="M462.6,349.1c1.6-0.7,3.3-0.7,4.9,0C465.8,349.8,464.2,349.7,462.6,349.1z"/>
	<path class="st21" d="M342.1,150.8c-1.7,0.2-3.3,0.4-5-0.3C338.8,149.9,340.5,149.5,342.1,150.8z"/>
	<path class="st22" d="M409.2,151.2c-1.5,1.5-3.3,1-5.1,0.7C405.6,150.5,407.5,151.5,409.2,151.2z"/>
	<path class="st21" d="M367.6,153.2c-1.4,0.7-2.9,0.6-4.3,0C364.8,152.5,366.2,152.5,367.6,153.2z"/>
	<path class="st23" d="M203.1,120.9c-1.4,0.3-2.7,0.4-4.1,0C200.4,119.8,201.7,119.8,203.1,120.9z"/>
	<path class="st24" d="M221.9,290.1c0.7,1.3,0.7,2.5,0,3.8C221.3,292.7,221.3,291.4,221.9,290.1z"/>
	<path class="st21" d="M357.9,153c-1.3,0.1-2.6,0.4-3.9-0.4C355.4,152.1,356.7,151.7,357.9,153z"/>
	<path class="st22" d="M399.8,152.2c-1,0.8-2.2,0.6-3.3,0.6C397.4,151.1,398.6,151.7,399.8,152.2z"/>
	<path class="st25" d="M149.5,144.6c-0.8,0.9-1.7,0.7-2.7,0.2c0.7-0.2,1.4-0.5,2.1-0.7C149.2,144.2,149.3,144.4,149.5,144.6z"/>
	<path class="st20" d="M453.7,350c0.8-1,1.8-1.1,2.9-0.7C455.9,350.5,454.7,349.9,453.7,350z"/>
	<path class="st26" d="M265.2,145.9c-0.8,0.3-1.6,0.4-2.3-0.3C263.8,144.9,264.6,145,265.2,145.9z"/>
	<path class="st27" d="M511.6,261.2c-0.7-0.7-0.5-1.6-0.2-2.4C512.1,259.6,512.2,260.4,511.6,261.2z"/>
	<path class="st24" d="M221,286.3c1.1,0.5,1.1,1.3,0.8,2.3C220.8,288.1,220.9,287.2,221,286.3z"/>
	<path class="st24" d="M221.8,297.1c0.3,1,0.4,1.8-0.8,2.3C221,298.6,220.7,297.6,221.8,297.1z"/>
	<path class="st28" d="M494.2,286.4c0.4,0.6,0.8,1.2,0.7,2c-0.3,0-0.5,0.1-0.8,0.1C493.5,287.7,493.5,287,494.2,286.4z"/>
	<path class="st24" d="M304.4,144c-0.5,0.5-1,0.6-1.7,0.5C303,143.5,303.5,143.2,304.4,144z"/>
	<path class="st27" d="M511.5,253.6c-0.5-0.6-0.4-1.1,0.2-1.6C512.1,252.6,512.1,253.1,511.5,253.6z"/>
	<path class="st23" d="M207.3,121.7c-0.6,0.1-1.2,0-1.7-0.6C206.6,120.4,207,120.7,207.3,121.7z"/>
	<path class="st23" d="M196.4,121.1c-0.4,0.6-1.1,0.5-1.7,0.5C195,120.6,195.6,120.4,196.4,121.1z"/>
	<path class="st21" d="M349.7,151.9c-0.5,0.3-0.8,0.2-1.2-0.2C349.1,151,349.4,151.3,349.7,151.9z"/>
	<path class="st21" d="M345.9,151.3c-0.5,0.3-0.8,0.2-1.2-0.2C345.3,150.4,345.6,150.8,345.9,151.3z"/>
	<path class="st24" d="M313.7,144.5c-0.5,0.1-0.8-0.2-1.1-0.5C313.4,143.2,313.5,143.9,313.7,144.5z"/>
	<path class="st27" d="M513,246.7c-0.3-0.5-0.2-0.9,0.2-1.3C513.8,246,513.5,246.4,513,246.7z"/>
	<path class="st29" d="M466.8,293.9c0.4,0.3,0.5,0.7,0.3,1.2C466.6,294.8,466.2,294.5,466.8,293.9z"/>
	<path class="st18" d="M393.3,152.8c-0.4,0.4-0.8,0.5-1.3,0.2C392.4,152.6,392.8,152.2,393.3,152.8z"/>
	<path class="st21" d="M324,146.1c-0.3,0.1-0.5-0.1-0.7-0.4C323.6,145.9,323.8,146,324,146.1z"/>
	<path class="st30" d="M247.6,183.8c-4.1,0.1-8.1-1.6-11.5-4.4c-2.6-2.1-3.5-5.5-4.1-8.6c-0.8-4.3-1-8.8-1.8-13.1
		c-1.2-6.5-4.5-12-10-15.8c-0.5-0.4-0.9-0.6-0.7-1.2c0.3-0.8,1-1,1.8-0.9c1.8,0.2,3.2,1.3,4.5,2.4c5.5,4.6,8,10.7,8.9,17.7
		c0.6,4.9,0.2,9.9,2.7,14.5c2.2,4.1,7.4,6.1,11.5,5.7c3-0.3,7-5.6,7.5-9.7c0.2-1.2-0.2-3,1.4-3.1c1.7-0.1,1.6,1.9,2.2,3
		c0.6,1.2-0.2,2.3-0.3,3.4C258.9,178.3,252.4,183.9,247.6,183.8z"/>
	<path class="st31" d="M191.6,134.2c0,2.5-1.5,4-3.5,3.9c-1.7-0.1-2.9-1-3.1-2.7c-0.2-1.5,2.1-4,3.5-3.8
		C190.1,131.8,191.8,132.3,191.6,134.2z"/>
	<path class="st32" d="M183.3,174.6c-1.3-1.3-1.6-3.4-3.1-4.6c0.6-1.5,2.1-2.1,3.5-3.2C184.4,169.6,183.7,172.1,183.3,174.6z"/>
	<path class="st25" d="M156.8,145.5c-0.5,0.2-1,0.1-1.3-0.4C156.1,144.9,156.5,145,156.8,145.5z"/>
</g>
</svg>
