<?xml version="1.0" encoding="utf-8"?>
<!-- Generator: Adobe Illustrator 24.3.0, SVG Export Plug-In . SVG Version: 6.00 Build 0)  -->
<svg version="1.1" id="Layer_1" xmlns="http://www.w3.org/2000/svg" xmlns:xlink="http://www.w3.org/1999/xlink" x="0px" y="0px"
	 viewBox="0 0 670.5 444.6" style="enable-background:new 0 0 670.5 444.6;" xml:space="preserve">
<style type="text/css">
	.st0{fill:#FEC22C;}
	.st1{fill:#FE962C;}
	.st2{fill:#0B62F6;}
	.st3{fill:#94F80D;}
	.st4{fill:#FE982B;}
	.st5{fill:#FBF7DF;}
	.st6{fill:#FE962D;}
	.st7{fill:#0B62F5;}
	.st8{fill:#95F80E;}
	.st9{fill:#FE972B;}
	.st10{fill:#FCFAEC;}
	.st11{fill:#FEC32C;}
	.st12{fill:#FE972D;}
	.st13{fill:#0C62F5;}
	.st14{fill:#FEBD2E;}
	.st15{fill:#FE912E;}
	.st16{fill:#0A61F6;}
	.st17{fill:#94F40F;}
	.st18{fill:#FED886;}
	.st19{fill:#FEEFD0;}
	.st20{fill:#FEE7B5;}
	.st21{fill:#FEECC6;}
	.st22{fill:#FEE09F;}
	.st23{fill:#FEE2A4;}
	.st24{fill:#FEE9BC;}
	.st25{fill:#467BD0;}
	.st26{fill:#FEE6B2;}
	.st27{fill:#FEBB7F;}
	.st28{fill:#FED584;}
	.st29{fill:#FEE5AE;}
	.st30{fill:#FE932D;}
	.st31{fill:#1163EF;}
	.st32{fill:#FAFBEC;}
	.st33{fill:#95F80D;}
	.st34{fill:#1967E9;}
	.st35{fill:#F9F2CA;}
	.st36{fill:#1D68E5;}
	.st37{fill:#FEC52A;}
	.st38{fill:#FE982E;}
	.st39{fill:#FEDE90;}
	.st40{fill:#FEE8B4;}
	.st41{fill:#FEC993;}
	.st42{fill:#FEE5A6;}
	.st43{fill:#FEEAB8;}
	.st44{fill:#FEE3A2;}
	.st45{fill:#FEE4A5;}
	.st46{fill:#FEF0CD;}
	.st47{fill:#FEDB87;}
	.st48{fill:#1164EE;}
	.st49{fill:#FBF9E7;}
	.st50{fill:#FEC22B;}
	.st51{fill:#FEC184;}
	.st52{fill:#FEBD7B;}
	.st53{fill:#FEDE8C;}
	.st54{fill:#FEE29A;}
	.st55{fill:#FEDC86;}
	.st56{fill:#FEE7AC;}
	.st57{fill:#FEF0CC;}
	.st58{fill:#FEE4A1;}
	.st59{fill:#FEE8B0;}
	.st60{fill:#FECE9C;}
	.st61{fill:#0C62F2;}
	.st62{fill:#FBFAEB;}
</style>
<g>
	<path class="st0" d="M379.4,221.1c-9.6,4.9-18.7,10.6-28,16c-7.6,4.4-15.7,7.9-24.4,9.6c-5.4,0.7-10.9,1.8-16.3,2
		c-5.1,0.2-10.3,1-15.4-0.7c-1.1-0.4-1.8,0.1-2.3,0.9c-0.7,1-1.3,2.2-1.9,3.3c-4.3,7.8-5.8,16.4-6.6,25.1
		c-0.9,11.2-3.3,22.1-7.4,32.5c-1.4,3.6-2.6,7.4-3.9,11c-1.9,5.1-4.9,9.3-9.9,11.8c-4.1,2.1-7.5,5.1-10,9c-2.7,4.1-7.1,4.5-11.3,4.7
		c-5.9,0.4-11.8,0-17.7-0.6c-7.7-0.8-12.2-8.7-7.1-15.7c3.6-4.9,8.6-7.6,14.1-9.7c4.6-1.8,9.1-3.6,13.7-5.3c2.1-0.8,3.1-2.3,3.5-4.4
		c1.7-9.8,3.1-19.5,2.7-29.5c-0.3-6.8,1.7-13.1,3.7-19.4c2.2-6.9,3.7-13.9,2.3-21.1c-1-5.6-4.4-10.1-7-15c-0.8-1.6-3.3-2.2-4.8-3.5
		c-6.6-5.7-13-11.7-19.8-17.1c-5.5-4.4-10.9-9-16.7-13.1c-4.8-3.5-10.5-4.2-16.3-4.7c-3.8-0.3-6.7,0.5-9.3,3.6
		c-6.6,8-15.3,9.8-25.1,7.9c-1.6-0.3-3.2-0.8-4.6-1.7c-4.2-2.4-5.3-5.1-3.8-9.8c2.6-2.1,5.4-3.8,8.3-5.4c2.2-1.2,4.4-2.4,5.9-4.5
		c4.3-2.5,6.1-6.5,6.3-11.3c0-0.8,0.1-2-1.2-1.4c-2.3,1.1-5,1.5-7,3.4c-1.6,0.1-3,0.8-4.4,1.3c-5.6,2.1-11.2,4.2-17.3,2.7
		c-4.8-1.1-9.4-2.4-12.7-6.4c5.6-0.9,9.8-4.2,12.9-8.7c3.1-4.4,1.9-9.5-2.4-12.5c2.5-0.7,5.1-1.4,7.6-2c6.3-1.5,11.5-5.2,16.1-9.3
		c8.5-7.6,18.3-9.2,29.1-7.8c2.3,0.3,4.5,0.9,6.3,2.4c1,0.8,1.9,0.7,3,0.2c9.2-3.6,17.5-0.6,22.5,7.9c1.7,2.8,3.2,5.7,4.4,8.8
		c0.4,1,1,1.8,2.1,2.3c9.1,4.6,18.9,7.5,28.8,9.7c5.7,1.2,11.5,0.3,16.6-2.6c5.5-3.2,11.3-4.4,17.5-3.3c6.5,1.1,12.9,2.9,19.5,3.8
		c10.7,1.4,21.4,0.2,32.1-0.2c6.6-0.2,13.3-1.2,19.8-0.7c5.1,0.4,9.5-0.6,14.3-2.2c16.9-5.6,34-5.6,51.3-1.4
		c7.4,1.8,14.8,3.5,21.7,7.1c2,1,4.1,2,5.8,3.5c3.7,3.3,7.7,2.8,11.6,0.7c2.3-1.2,4.5-2.8,6.6-4.3c1.7-1.2,3.6-2.1,5.6-2.7
		c3.3-1,6.3-1,8.8,1.7c2.8,2.9,4.2,6.3,2.8,10.4c-2.1,6.2-6.3,10.7-11.9,13.9c-0.6,0.4-1.3,0.7-1.9,1c-1.8,0.8-2.4,1.8-1.2,3.7
		c4.2,7.1,5.4,15.2,7.1,23c2.4,10.9,7.2,20.2,17.2,26c4.4,2.6,9,4.6,13.8,6.4c6.2,2.3,11.8,5.5,16,10.8c2.9,3.6,3.8,8,5.1,12.2
		c1.4,4.7,2.4,9.5,3.8,14.2c1.9,6.4,4.2,12.5,8.1,18c3.2,4.6,3.7,9.5,0.9,14.6c-3.1,5.8-4.4,12.1-4.5,18.6c0,3.3-0.4,6.5-1,9.7
		c-1,5-4.3,8.6-9,9.5c-5.8,1.2-11.9,1.5-17.8,1.6c-4.2,0.1-8.5-1.1-10.1-5.6c-1.6-4.6-0.1-8.9,3-12.6c1.3-1.5,2.4-3.2,4-4.5
		c4.3-3.5,5.1-8.3,4.9-13.3c-0.3-6.1-0.7-12.1-2.3-18.1c-0.6-2.1-1.2-4.2-2.4-6c-4-5.6-8-11.2-12-16.8c-2.2-3-5.2-4.8-8.7-5.6
		c-14.9-3.3-29-8.6-43-14.6c-7.1-3.1-12.9-8-18.7-13c-1.3-1.1-2.3-2.6-2.9-4.2c-5.9-8.6-12.2-16.8-19.9-23.9
		c-1.2-1.1-2.4-1.8-4.1-1.5C395.5,212,387.4,216.4,379.4,221.1z M222.6,171.6c-0.5,0-1.1,0-1.6,0c-7.4,0-11.7-5.3-10.9-12.7
		c1-9-1.6-15.1-10-19c-0.6-0.3-1.2-0.7-1.6,0.1c-0.3,0.6-0.2,1.3,0.3,1.7c0.4,0.3,0.9,0.5,1.4,0.9c2.8,2.1,5.3,4.3,6.3,7.9
		c1,3.7,0.5,7.4,0.5,11.1c-0.1,5.7,3,9.3,7.4,12.1c4.6,2.9,9.7,1.8,14.5,0.9c8-1.6,10.6-8.8,6-15.4c-0.8-1.1-1.8-2.5-2.9-1.8
		c-1.1,0.7,0.2,2.1,0.6,3.1c0.2,0.4,0.4,0.8,0.6,1.2c1.9,3.8,0.3,7.8-3.8,9.4C227.2,171.8,224.9,171.5,222.6,171.6z M171,142.1
		c1.1-0.2,2.4-0.4,2.3-2c-0.1-1.5-1.3-2.1-2.6-2.2c-1.3-0.1-2,0.7-2,2C168.8,141.4,169.6,142,171,142.1z"/>
	<path class="st1" d="M379.4,221.1c8-4.8,16.2-9.1,25.5-10.8c1.7-0.3,2.8,0.3,4.1,1.5c7.7,7.1,14,15.3,19.9,23.9
		c-1-0.2-1.4,0.6-2,1.2c-4.6,5.7-5.9,12-3.4,18.9c1.4,3.9,3.3,7.7,4.9,11.5c5,11.5,2.8,21.4-5.8,30.5c-7.6,8.1-14.5,16.6-17.9,27.6
		c-2.4,7.9-8.3,11.3-16.7,11.4c-4.2,0-8.5-0.5-12.8,0.4c-1.7,0.3-3.5-0.1-5.1-0.5c-4.8-1.3-6.8-5.2-5.1-9.9c1.5-4.1,4.3-7.1,8.5-8.7
		c1.7-0.6,3.5-1,5.2-1.5c6.4-1.9,12.2-4.6,15.9-10.6c0.3-0.5,0.7-1.1,1.1-1.5c9.6-10.8,8.2-22.6,2.9-34.6
		c-3.7-8.4-8.2-16.4-12.8-24.3c-3.3-5.8-4.2-12.3-5.6-18.7C380,224.9,379.7,223,379.4,221.1z"/>
	<path class="st6" d="M291,252.2c0.6-1.1,1.2-2.2,1.9-3.3c0.5-0.8,1.2-1.2,2.3-0.9c5,1.7,10.3,0.9,15.4,0.7c5.5-0.2,10.9-1.3,16.3-2
		c1,7.1,3.3,13.9,6,20.6c1.7,4.3,3.4,8.6,5,13c1.2,3.2,3.1,6,5,8.7c1.5,2.1,3.5,2.7,6,1.5c2.6-1.3,5.1-2.7,7.3-4.8
		c5.3-4.9,14-6,20.3-2.6c4.6,2.5,6.5,6.1,5.9,11.5c-1,8.8-5.9,14.7-13.9,17.9c-14.6,5.8-30.8,1.6-42.5-10.5
		c-4.5-4.7-8.5-9.6-11.6-15.4c-3.7-6.8-8.1-13.1-13-19.1C297.3,262.9,294.9,257.1,291,252.2z"/>
	<path class="st13" d="M138.4,144.6c4.3,3,5.5,8.1,2.4,12.5c-3.1,4.5-7.3,7.8-12.9,8.7c-4.1-1-8.1-4.7-8.6-7.8
		c-0.6-4,1.8-8.1,6.2-10.3C129.5,145.7,133.6,143.7,138.4,144.6z"/>
	<path class="st3" d="M140.5,172.2c6.2,1.5,11.8-0.6,17.3-2.7c1.4-0.5,2.8-1.3,4.4-1.3c1.9,2.8,2.6,5.9,1.9,9.3
		c-1.5,2.1-3.8,3.3-5.9,4.5c-2.9,1.6-5.7,3.4-8.3,5.4C142.2,185.5,139,180.3,140.5,172.2z"/>
	<path class="st4" d="M222.6,171.6c2.2-0.1,4.5,0.2,6.7-0.6c4.1-1.5,5.7-5.5,3.8-9.4c-0.2-0.4-0.4-0.8-0.6-1.2
		c-0.4-1-1.7-2.4-0.6-3.1c1.1-0.7,2.2,0.7,2.9,1.8c4.6,6.6,2,13.8-6,15.4c-4.8,0.9-9.9,2-14.5-0.9c-4.4-2.8-7.5-6.4-7.4-12.1
		c0.1-3.7,0.5-7.4-0.5-11.1c-1-3.6-3.5-5.8-6.3-7.9c-0.4-0.3-1-0.5-1.4-0.9c-0.5-0.5-0.6-1.2-0.3-1.7c0.4-0.8,1-0.4,1.6-0.1
		c8.4,3.9,11,10,10,19c-0.8,7.4,3.5,12.7,10.9,12.7C221.6,171.6,222.1,171.6,222.6,171.6z"/>
	<path class="st10" d="M164.2,177.5c0.7-3.4,0-6.4-1.9-9.3c2-1.9,4.6-2.3,7-3.4c1.3-0.6,1.2,0.7,1.2,1.4
		C170.2,171,168.4,174.9,164.2,177.5z"/>
	<path class="st36" d="M171,142.1c-1.4-0.1-2.3-0.8-2.3-2.2c0-1.3,0.7-2.1,2-2c1.3,0.1,2.5,0.7,2.6,2.2
		C173.5,141.7,172.2,141.9,171,142.1z"/>
</g>
</svg>
