<?xml version="1.0" encoding="utf-8"?>
<!-- Generator: Adobe Illustrator 24.3.0, SVG Export Plug-In . SVG Version: 6.00 Build 0)  -->
<svg version="1.1" id="Layer_1" xmlns="http://www.w3.org/2000/svg" xmlns:xlink="http://www.w3.org/1999/xlink" x="0px" y="0px"
	 viewBox="0 0 670.5 444.6" style="enable-background:new 0 0 670.5 444.6;" xml:space="preserve">
<style type="text/css">
	.st0{fill:#FEC22C;}
	.st1{fill:#FE962C;}
	.st2{fill:#0B62F6;}
	.st3{fill:#94F80D;}
	.st4{fill:#FE982B;}
	.st5{fill:#FBF7DF;}
	.st6{fill:#FE962D;}
	.st7{fill:#0B62F5;}
	.st8{fill:#95F80E;}
	.st9{fill:#FE972B;}
	.st10{fill:#FCFAEC;}
	.st11{fill:#FEC32C;}
	.st12{fill:#FE972D;}
	.st13{fill:#0C62F5;}
	.st14{fill:#FEBD2E;}
	.st15{fill:#FE912E;}
	.st16{fill:#0A61F6;}
	.st17{fill:#94F40F;}
	.st18{fill:#FED886;}
	.st19{fill:#FEEFD0;}
	.st20{fill:#FEE7B5;}
	.st21{fill:#FEECC6;}
	.st22{fill:#FEE09F;}
	.st23{fill:#FEE2A4;}
	.st24{fill:#FEE9BC;}
	.st25{fill:#467BD0;}
	.st26{fill:#FEE6B2;}
	.st27{fill:#FEBB7F;}
	.st28{fill:#FED584;}
	.st29{fill:#FEE5AE;}
	.st30{fill:#FE932D;}
	.st31{fill:#1163EF;}
	.st32{fill:#FAFBEC;}
	.st33{fill:#95F80D;}
	.st34{fill:#1967E9;}
	.st35{fill:#F9F2CA;}
	.st36{fill:#1D68E5;}
	.st37{fill:#FEC52A;}
	.st38{fill:#FE982E;}
	.st39{fill:#FEDE90;}
	.st40{fill:#FEE8B4;}
	.st41{fill:#FEC993;}
	.st42{fill:#FEE5A6;}
	.st43{fill:#FEEAB8;}
	.st44{fill:#FEE3A2;}
	.st45{fill:#FEE4A5;}
	.st46{fill:#FEF0CD;}
	.st47{fill:#FEDB87;}
	.st48{fill:#1164EE;}
	.st49{fill:#FBF9E7;}
	.st50{fill:#FEC22B;}
	.st51{fill:#FEC184;}
	.st52{fill:#FEBD7B;}
	.st53{fill:#FEDE8C;}
	.st54{fill:#FEE29A;}
	.st55{fill:#FEDC86;}
	.st56{fill:#FEE7AC;}
	.st57{fill:#FEF0CC;}
	.st58{fill:#FEE4A1;}
	.st59{fill:#FEE8B0;}
	.st60{fill:#FECE9C;}
	.st61{fill:#0C62F2;}
	.st62{fill:#FBFAEB;}
</style>
<g>
	<path class="st11" d="M254.2,237.5c-7.5-4.4-14.3-9.6-20.4-15.7c-7.3-7.4-15.3-13.9-23.1-20.5c-4.3-3.7-9.3-6.6-15.1-7.7
		c-5.8-1-10.4,1.2-14.2,5c-4,3.9-8.4,6.2-14.1,5.7c-2.5-0.2-4.1-1.3-4.6-3.8c-0.1-1.6,0.4-2.9,1.1-4.4c1.3-2.8,3.5-5.2,4.1-8.4
		c1.3-3.2,2.2-6.5,3-10.4c-2.6,1.5-4.4,3-5.9,4.9c-6,4.4-12.8,6-20.2,5.7c-4.9-0.9-9.7-1.7-13-6.2c-1.7-2.4-2.9-4.9-3.4-7.8
		c6.7,2,18.8-3.7,21.2-10c1.7-4.3,0.7-7.9-3.5-10c-2.6-1.3-5.4-1.4-8.2-1.7c4-1.6,7.9-0.1,11.8,0.4c3.8,0.5,5.2,0,7.2-3.2
		c2.7-4.3,6.2-8,9.5-11.9c0.8-1,1.9-1.7,3.2-2c4.9-1.4,9.6-3.3,14.6-4.4c7.1-1.6,13,0.2,17.9,5.3c2,2.1,3.9,2.5,6.5,1.4
		c3.9-1.7,7.5-0.8,10.6,1.9c2.8,2.4,5.5,5.1,7.1,8.5c1.3,2.8,3.5,4.2,6.3,4.7c3.2,0.5,6.5,1,9.7,0.5c3-0.5,6-0.3,8.9,0.6
		c2.5,0.8,5,0.5,7.5,1.1c0.4,0.1,0.9-0.1,1.3-0.3c9.1-4.2,18.7-5.4,28.6-4.8c10.1,0.6,19.7,3,29,6.9c5.4,2.3,11.2,3.2,17.1,2.8
		c10.6-0.7,21.4,0.3,31.8-3.5c3.5-1.3,7.2-1.9,10.8-2.9c13.9-3.5,27.7-2.2,41.4,1.1c6.7,1.6,13.3,3.7,20.1,4.7
		c5.2,0.8,10,2.9,13.8,7c2,2.1,4,4.3,6.8,5.6c4.4,2.1,8.8,0.8,13.1,0.4c4.3-0.4,8.5-1.8,12.8-2.6c3.6-0.7,7-0.2,9.6,2.6
		c4.5,4.7,4.4,8.2-2.2,14.5c-5.1,4.8-11.6,6.5-18.3,7.6c-1.6,0.3-2.3,0.9-3.1,2.3c-3.1,5.9-7.1,11.2-12.3,15.5
		c-0.6,0.5-1.1,0.9-1.7,1.4c-3.8,1.9-6.4,5.3-9.4,8c-4.4,3.9-9.2,7.6-12.2,12.9c-2.2,3.9-3.4,7.7-1.7,12.1c0.8,2.1,1.3,4.3,2.3,6.3
		c3.2,5.2,7.2,9.8,11.1,14.4c2.5,3,3.1,6.9,5.1,10.1c0.5,0.8,0.1,1.8-0.3,2.6c-3.2,6.5-5.2,13.3-6.3,20.5
		c-0.9,6.4-3.8,11.9-7.7,16.9c-6.1,7.9-10.8,16.5-14,26c-2,5.9-4.8,7.1-11.1,6.6c-5.6-0.4-11.2-0.3-16.9-0.3c-0.9,0-1.8,0.1-2.7,0.1
		c-6.5-0.1-8.6-2.7-7.5-9.1c1-5.8,3.7-10.8,7.8-15c3-3.1,6.6-4.4,10.9-3.5c3.9,0.8,7.7-1.3,8.5-5.1c1-5.2,3-10.1,4.7-15
		c1.8-5.3,1.9-10.9,3.1-16.3c0.7-3.2-1.3-5.8-3.6-7.8c-5.8-5.3-11.9-10.3-17.9-15.4c-4.9-4.1-9.9-8.6-12.9-14.5
		c-1.4-2.8-3.6-5-4.8-7.9c-2-5.3-2.3-10.8-1.4-16.3c0.1-0.7,0.5-1.6-0.1-2.1c-0.6-0.5-1.4,0.1-2,0.4c-7.4,3.3-14.2,7.6-21.3,11.4
		c-10.3,5.5-21.3,8.7-32.3,12c-4,1.2-8.1,2.3-12.3,1.6c-1.1-0.2-1.6,0.4-2.2,1.2c-3.4,5.2-8.1,8.9-13.8,11.4c-2.8,1.2-5.8,2-8.4,3.8
		c-1.2-0.1-2.3,0.4-3.4,0.9c-2.9,1.3-5.7,2.7-8.5,4c-5.6,2.7-11.6,4.4-16.6,8.2c-3.7,2.9-3.6,6.5,0.2,8.7c1.9,2.1,4.1,3.1,7,2.6
		c5.3-0.9,10.6-0.8,15.9,0.6c1.5,1.2,3.2,2.3,4.5,3.8c6.6,7.2,0.7,18.4-6.5,20.7c-1,0.3-2,0.7-3.1,1.1c-7.4,1.2-14.8,0.5-22.1-0.5
		c-8.2-2.4-14.9-7.3-21.1-12.9c-2.6-2.4-4.1-5.4-5.3-8.4c-3.1-7.5-2.5-14.8,1.9-21.8c4.2-6.9,10.3-11.8,16.2-17.1
		c3.4-3,7-5.7,9.6-9.5c1.7-1.1,3.3-2.2,5.3-3.5c-2.5-1-4.7-1.9-6.8-2.8C255,237.6,254.6,237.6,254.2,237.5z M233.5,158.8
		c-1.6,6.3-1.5,7.1,1.9,11.4c1.6,2,1.8,3.8,0.6,6.2c-1.2,2.2-2.8,4-4.2,6c-3.5,4.7-14,4.4-16.7-2.3c-2.2-5.6-4.9-10.9-5.5-17.1
		c-0.5-5.5-3.5-9.9-8.8-12.2c-0.8-0.4-2.1-1.2-2.7-0.2c-0.8,1.3,0.8,1.7,1.5,2.1c4.2,2.9,6.2,6.9,6.4,11.9c0.1,1.9,0.6,3.7,0.7,5.6
		c0.4,4.6,3.4,8.1,5.3,12.1c1.7,3.8,4.3,6.2,8.9,7c5.3,0.9,9.9,0.2,13.6-3.7c2.1-2.2,3.9-4.8,5.4-7.5c2.1-3.8,1.7-7.3-1.2-10.8
		C236.6,165,234,162.9,233.5,158.8z M171.2,153.3c1.9-0.1,3.3-0.7,3.3-2.9c0-1.6-0.9-2.6-2.5-2.6c-1.8,0.1-3.5,1-3.6,3
		C168.1,152.8,169.7,153.1,171.2,153.3z"/>
	<path class="st1" d="M436.4,252.8c-1.1-2-1.5-4.2-2.3-6.3c-1.7-4.4-0.4-8.2,1.7-12.1c3-5.4,7.8-9,12.2-12.9c3.1-2.7,5.7-6.1,9.4-8
		c3,5.3,6.7,10,11.7,13.4c4.9,3.4,10.1,6.4,15.8,8.4c5.1,1.8,9.4,5,13.8,8.2c3.2,2.3,4.4,6.2,5.1,9.7c1.8,8.5,5.6,16.3,8,24.5
		c3,10.2,9.9,16.6,20.4,19.1c4.4,1,8.9,1.6,12.8,4.3c3.4,2.4,4.3,5.9,2.1,9.5c-3.4,5.6-9,8.3-15,10.2c-4.2,1.3-8.6,1.3-12.9,1.3
		c-2.9,0-5.3-1.8-7.7-3.2c-7.8-4.5-14.4-10.4-18.7-18.6c-2-3.8-3.1-8-3.9-12.1c-1-5.7-3.6-10.1-7.3-14.3c-3.9-4.4-7.6-9-13-11.7
		c-4-2-8.2-3.6-12.6-4.1c-4.4-0.6-8.5-1.7-12.6-3.4C441.2,253.7,438.9,252.9,436.4,252.8z"/>
	<path class="st12" d="M255.6,313.8c7.4,1.1,14.7,1.8,22.1,0.5c0.5,8-3,14.8-7.2,21c-3.3,4.8-7.9,8.3-14.9,7.7
		c-5.2-0.4-10.5-0.1-15.7-0.6c-1.6-0.1-3.3-0.2-4.7-1.1c-6.2-3.4-7-9.6-1.9-14.5c3.2-3,7.1-5.1,11.5-5.1c5,0.1,7.7-2.5,9.9-6.3
		C254.9,314.8,255.2,314.3,255.6,313.8z"/>
	<path class="st13" d="M138.1,152.3c2.8,0.3,5.6,0.4,8.2,1.7c4.2,2.1,5.2,5.7,3.5,10c-2.5,6.3-14.5,11.9-21.2,10
		c-4.9-2.3-5.3-7.2-6.3-11.5c-0.4-1.6,0.7-2.9,1.8-4.1C127.9,154.3,132.6,152.5,138.1,152.3z"/>
	<path class="st1" d="M259.7,276.8c5-3.8,11-5.6,16.6-8.2c2.8-1.3,5.7-2.7,8.5-4c1.1-0.5,2.1-1,3.4-0.9c-0.9,5.8-2.6,11.4-4,17.1
		c-0.7,2.6-0.8,5.4-1.5,8c-5.2-1.4-10.5-1.5-15.9-0.6c-2.9,0.5-5.1-0.5-7-2.6C259.8,282.6,259.7,279.7,259.7,276.8z"/>
	<path class="st3" d="M144.9,188c7.4,0.4,14.2-1.3,20.2-5.7c1.4,1.6,2.4,3.4,2.8,5.5c-0.6,3.2-2.8,5.6-4.1,8.4
		c-0.7,1.4-1.2,2.8-1.1,4.4c-1.7,0.6-3.4,1.4-5.2,1.5C150.2,202.9,143.3,196.6,144.9,188z"/>
	<path class="st12" d="M254.2,237.5c0.3,0.1,0.7,0.1,1,0.2c2.1,0.9,4.3,1.7,6.8,2.8c-2,1.3-3.6,2.4-5.3,3.5
		C256.1,241.8,254.6,239.9,254.2,237.5z"/>
	<path class="st9" d="M233.5,158.8c0.5,4.1,3.1,6.2,5.2,8.6c2.9,3.4,3.3,6.9,1.2,10.8c-1.5,2.7-3.2,5.2-5.4,7.5
		c-3.8,3.9-8.3,4.6-13.6,3.7c-4.5-0.8-7.1-3.2-8.9-7c-1.8-4-4.9-7.5-5.3-12.1c-0.2-1.9-0.6-3.7-0.7-5.6c-0.2-5-2.2-9-6.4-11.9
		c-0.6-0.4-2.3-0.8-1.5-2.1c0.7-1,1.9-0.2,2.7,0.2c5.3,2.3,8.2,6.6,8.8,12.2c0.6,6.2,3.3,11.5,5.5,17.1c2.6,6.7,13.2,7,16.7,2.3
		c1.4-2,3-3.8,4.2-6c1.3-2.4,1.1-4.2-0.6-6.2C232,165.9,231.9,165.2,233.5,158.8z"/>
	<path class="st13" d="M171.2,153.3c-1.5-0.1-3-0.5-2.9-2.4c0.2-2,1.8-2.9,3.6-3c1.6-0.1,2.5,0.9,2.5,2.6
		C174.5,152.5,173.1,153.2,171.2,153.3z"/>
	<path class="st5" d="M167.9,187.8c-0.4-2.1-1.4-3.9-2.8-5.5c1.5-1.9,3.3-3.4,5.9-4.9C170.1,181.3,169.2,184.6,167.9,187.8z"/>
	<path class="st5" d="M259.7,276.8c0.1,2.9,0.1,5.8,0.2,8.7C256,283.2,256,279.6,259.7,276.8z"/>
</g>
</svg>
