<?xml version="1.0" encoding="utf-8"?>
<!-- Generator: Adobe Illustrator 24.3.0, SVG Export Plug-In . SVG Version: 6.00 Build 0)  -->
<svg version="1.1" id="Layer_1" xmlns="http://www.w3.org/2000/svg" xmlns:xlink="http://www.w3.org/1999/xlink" x="0px" y="0px"
	 viewBox="0 0 670.5 444.6" style="enable-background:new 0 0 670.5 444.6;" xml:space="preserve">
<style type="text/css">
	.st0{fill:#FEC22C;}
	.st1{fill:#FE962C;}
	.st2{fill:#0B62F6;}
	.st3{fill:#94F80D;}
	.st4{fill:#FE982B;}
	.st5{fill:#FBF7DF;}
	.st6{fill:#FE962D;}
	.st7{fill:#0B62F5;}
	.st8{fill:#95F80E;}
	.st9{fill:#FE972B;}
	.st10{fill:#FCFAEC;}
	.st11{fill:#FEC32C;}
	.st12{fill:#FE972D;}
	.st13{fill:#0C62F5;}
	.st14{fill:#FEBD2E;}
	.st15{fill:#FE912E;}
	.st16{fill:#0A61F6;}
	.st17{fill:#94F40F;}
	.st18{fill:#FED886;}
	.st19{fill:#FEEFD0;}
	.st20{fill:#FEE7B5;}
	.st21{fill:#FEECC6;}
	.st22{fill:#FEE09F;}
	.st23{fill:#FEE2A4;}
	.st24{fill:#FEE9BC;}
	.st25{fill:#467BD0;}
	.st26{fill:#FEE6B2;}
	.st27{fill:#FEBB7F;}
	.st28{fill:#FED584;}
	.st29{fill:#FEE5AE;}
	.st30{fill:#FE932D;}
	.st31{fill:#1163EF;}
	.st32{fill:#FAFBEC;}
	.st33{fill:#95F80D;}
	.st34{fill:#1967E9;}
	.st35{fill:#F9F2CA;}
	.st36{fill:#1D68E5;}
	.st37{fill:#FEC52A;}
	.st38{fill:#FE982E;}
	.st39{fill:#FEDE90;}
	.st40{fill:#FEE8B4;}
	.st41{fill:#FEC993;}
	.st42{fill:#FEE5A6;}
	.st43{fill:#FEEAB8;}
	.st44{fill:#FEE3A2;}
	.st45{fill:#FEE4A5;}
	.st46{fill:#FEF0CD;}
	.st47{fill:#FEDB87;}
	.st48{fill:#1164EE;}
	.st49{fill:#FBF9E7;}
	.st50{fill:#FEC22B;}
	.st51{fill:#FEC184;}
	.st52{fill:#FEBD7B;}
	.st53{fill:#FEDE8C;}
	.st54{fill:#FEE29A;}
	.st55{fill:#FEDC86;}
	.st56{fill:#FEE7AC;}
	.st57{fill:#FEF0CC;}
	.st58{fill:#FEE4A1;}
	.st59{fill:#FEE8B0;}
	.st60{fill:#FECE9C;}
	.st61{fill:#0C62F2;}
	.st62{fill:#FBFAEB;}
</style>
<g>
	<path class="st0" d="M157.8,168.6c-5.3-1.6-9.2-4.7-10.7-10.2c6.1,0.7,14.1-4.3,16.3-10.2c1.9-5.2,0.1-9.5-5-11.7
		c-1.1-0.5-2.2-0.9-3.2-1.4c4.1-1.4,8.2-1.3,12.3-0.3c2.7,0.7,4.5,0.1,6.3-2.3c2.9-3.8,6-7.5,9.4-10.9c4.6-4.6,10.8-5.9,16.8-7.8
		c10-3.2,17.7,0.2,24.6,7.1c0.6,0.6,1.9,0.9,2.8,0.8c9-1.4,16.3,4.3,16.6,13.4c0.1,2.9,1.3,4.6,4,5.8c4.3,2,8.4,4.7,12.7,6.7
		c8.9,4.1,17.8,4.8,27,0.3c5.8-2.8,11.9-5.1,18.6-4.4c1.8,0.2,3.6,0.5,5.3,1c8.1,2.5,16.1,5.6,24.4,7.4c10.9,2.3,22,1.9,33-0.3
		c12.5-2.4,25.3-4.3,37.5-7.9c10.6-3.1,21-1.9,31.5-1.2c5.1,0.3,10.2,0.8,15.1,1.9c11.1,2.5,22.3,5.1,32,11.6
		c1.6,1.1,3.2,2.4,4.5,3.9c2.8,3,8.2,3.8,11.2,0.9c4.9-4.9,10.7-5.1,16.9-4c5.4,1,6.6,4.1,4.9,9.3c-3.5,10.8-12.5,15-21.9,18.6
		c-1.7,0.7-2.4,1.3-2.5,3.2c-0.2,2.4-0.9,4.8-1.4,7.2c-0.9,1.4-2,2.8-2.6,4.3c-3.8,9.2-11,15.3-19.1,20.4
		c-5.5,3.5-11.9,5.1-16.8,9.7c-4.1,3.8-5.7,9.5-3,14.4c0.7,1.3,1.4,2.5,2.2,3.8c1.6,2.6,3,5.5,5.1,7.5c2,1.9,3.6,3.7,4.5,6.2
		c0.8,2,1.5,4.1,2.5,6c3.2,6,1.4,11.8-1.1,17.3c-3,6.6-8.4,11.6-13.6,16.5c-6.3,5.9-10,12.8-9.1,21.7c0.4,4.3-0.6,8.3-2.9,12
		c-1.5,2.3-3.6,3.8-6.3,3.4c-7.1-1-13.4-3.9-18-9.7c-4.8-6-4.7-13-3.7-20c1.4-9.6,7.3-16.8,13.7-23.6c1.2-1.3,2.6-2.5,3.8-3.9
		c3.1-3.7,3-6.9-0.5-10.3c-6.3-6-12.7-11.8-19.1-17.8c-9-8.4-12.8-19.1-13-31.2c0-0.7,0-1.4,0-1.9c-13.3,6.6-26.1,14.4-40.8,18.4
		c2.7,9.2,5.4,18.5,8.3,27.8c1.9,6.2,3.8,12.3,5.9,18.4c0.7,1.9,2.1,3.7,3.5,5.3c5.7,6.5,10.2,13.4,8.3,22.5
		c-0.3,1.7-1.2,3.8-2.5,4.6c-5.5,3.4-5.9,8.7-6.2,14.2c-0.1,2.3-0.2,4.7-0.6,7c-0.9,5.1-4.1,8.5-8.9,10.1
		c-7.9,2.6-15.7,2.4-23.3-1.4c-4.1-2.1-5-4.4-4.1-8.9c1.3-7.1,5.4-11.9,11.2-15.7c0.6-0.4,1.2-0.8,1.8-1.2c6-3.9,6.8-6.9,2.8-13
		c-5.2-7.8-11-15.1-16-23c-3.5-5.6-6.4-11.6-9-17.6c-2.1-4.7-3.5-9.7-5.1-14.6c-1.3-4.1-4.2-6.7-7.4-9.2c-0.3-0.3-0.9-0.5-1.2-0.5
		c-5.6,1.2-10.4-1.8-15.7-2.5c-2.9-0.4-5.6-1.3-8.5-2c-1.3-0.5-2.6-1.2-4-1.5c-7.6-1.8-14.8-4.4-21.3-9c-4-2.9-8.6-4.9-12.9-7.4
		c-2.9-3.1-6.1-6-8.8-9.2c-2.5-3-5-6.2-6.7-9.8c-3-6.1-8.3-9.5-13.7-12.7c-9.5-5.7-19.7-5.5-30-2.7c-6.1,1.6-11.9,2.3-17.7-0.4
		c-4.1-3-4.6-4.5-2.3-8.4c1.1-1.8,2.7-3.4,4-5.1c0.7-0.9,1.2-1.9,1.8-2.9c0.9-2.2,1.8-4.4,2.8-6.6c-0.3-0.2-0.6-0.4-0.9-0.6
		c-1.8,1-3.6,1.9-5.3,2.9c-3.4,1-6.8,2.4-10.4,3C164.1,168.8,160.9,168.5,157.8,168.6z M219.8,146.7c-0.3,0-0.5,0-0.8-0.1
		c-0.2,0.3-0.6,0.7-0.6,1c-0.2,7.2-2.8,13.9-4.9,20.7c-1.4,4.5-0.3,7.7,3.5,10.4c3.8,2.6,7.9,4.1,12.5,4.8
		c10,1.5,16.7-5.5,17.7-13.8c0.3-2.1-0.2-4.2-2.7-6.1c0.1,1.9,0.1,3.3,0.2,4.5c0.6,5.3-4.2,11.6-9.3,12.7c-5,1-9.5-0.1-13.8-2.3
		c-6.3-3.2-6.9-5-5-11.7c1.1-4.1,2.4-8.2,3.1-12.3C220.2,152.1,219.8,149.4,219.8,146.7z M190.5,128.8c-1,1.7-2,2.7-2,3.6
		c0,0.7,1.3,1.5,2,2.2c0.8-0.9,1.9-1.7,2.1-2.7C192.8,131.3,191.6,130.3,190.5,128.8z"/>
	<path class="st1" d="M467.2,261.5c-0.9-2.5-2.5-4.4-4.5-6.2c-2.2-2-3.5-5-5.1-7.5c-0.8-1.2-1.5-2.5-2.2-3.8
		c-2.7-4.9-1.1-10.6,3-14.4c5-4.6,11.4-6.2,16.8-9.7c8.1-5.2,15.3-11.2,19.1-20.4c0.6-1.5,1.8-2.9,2.6-4.3c-0.1,3.7,0.2,7.4-0.4,11
		c-1.2,6.7-3.2,13.2-4.2,19.9c-0.4,2.3,0.8,5.2,1.9,7.5c5.3,10.8,14.1,17.8,24.6,23.4c4.5,2.4,8.4,6,12.2,9.5
		c3.2,3,3.5,8.3,1.3,12.1c-2.6,4.6-3.4,9.3-2.6,14.7c1.2,7.8,2,15.7,2.5,23.5c0.5,8.4-3.2,15.5-8.4,21.8c-1.3,1.5-3.6,2.6-5.6,3.1
		c-4.6,1.1-9.2,2.2-13.9,2.6c-4,0.3-8.1-0.2-12.1-0.8c-2.9-0.4-3.9-2.4-3.6-5.4c0.1-0.5,0.1-1.1,0.1-1.6
		c-0.8-11.2,7.8-17.4,15.8-19.8c2.5-0.7,3.1-1.5,2.5-4.1c-1.6-7.2-2.6-14.5-4.6-21.6c-1.1-4-3.4-7.7-5.4-11.5
		c-2.3-4.3-6.9-5.7-10.7-8c-2-1.2-4.4-2.1-6-3.6C476.5,264.2,472,262.8,467.2,261.5z"/>
	<path class="st1" d="M254.3,220.8c4.3,2.4,8.9,4.5,12.9,7.4c6.5,4.6,13.7,7.2,21.3,9c1.4,0.3,2.7,1,4,1.5
		c-1.5,5.6-3.1,11.2-4.3,16.9c-1.6,7.1-5.6,12.2-11.6,16.1c-4.8,3.1-9.4,6.5-14,9.9c-6.9,5.3-11.4,12.5-15.2,20
		c-3.9,7.8-8.5,15.1-15.2,20.7c-4.1,3.4-6.2,7.7-7.8,12.5c-0.6,1.8-1.3,3.6-2.3,5.2c-2.1,3.4-5.3,5.1-9.4,4.7
		c-5.1-0.4-10.3-0.8-15.5-1.1c-5.5-0.4-9.6-3-11.8-8c-2-4.6-1.2-9.1,2-13c4.7-5.9,10.1-10,18.2-8.1c2.1,0.5,3.5-0.4,4.5-2.2
		c3.5-6.8,6.9-13.6,10.5-20.3c3.2-6.1,6.4-12.2,9.8-18.2c6.3-11.1,13.2-21.9,18.9-33.3c2.6-5.1,3.1-11.3,4.5-17
		C254,222.5,254.2,221.6,254.3,220.8z"/>
	<path class="st2" d="M155.2,135.1c1.1,0.5,2.2,0.9,3.2,1.4c5.1,2.3,6.9,6.5,5,11.7c-2.2,5.8-10.3,10.9-16.3,10.2
		c-1.1-0.5-2.3-1.1-3.4-1.6c-6.5-2.7-8-10.3-6.2-15.8c1.5-4.4,8.2-7.5,14-6.6C152.7,134.5,154,134.8,155.2,135.1z"/>
	<path class="st3" d="M181,169.5c-0.6,1-1.2,2-1.8,2.9c-1.3,1.7-2.9,3.3-4,5.1c-2.3,3.9-1.9,5.4,2.3,8.4c-5,3.8-11.2,4-16.1,0.4
		c-4.8-3.5-6.6-9.7-4.5-15.5c0.3-0.8,0.6-1.5,0.9-2.2c3.1-0.1,6.3,0.3,9.4-0.3c3.5-0.6,6.9-2,10.4-3
		C178.7,166.7,179.8,168.1,181,169.5z"/>
	<path class="st4" d="M219.8,146.7c0,2.7,0.4,5.4-0.1,8c-0.7,4.2-2,8.2-3.1,12.3c-1.8,6.7-1.2,8.5,5,11.7c4.3,2.2,8.9,3.3,13.8,2.3
		c5.2-1.1,9.9-7.5,9.3-12.7c-0.2-1.3-0.1-2.6-0.2-4.5c2.4,1.9,2.9,4,2.7,6.1c-1,8.3-7.7,15.3-17.7,13.8c-4.5-0.7-8.7-2.2-12.5-4.8
		c-3.8-2.6-4.9-5.9-3.5-10.4c2.1-6.8,4.6-13.5,4.9-20.7c0-0.4,0.4-0.7,0.6-1C219.3,146.7,219.5,146.7,219.8,146.7z"/>
	<path class="st5" d="M181,169.5c-1.1-1.4-2.3-2.8-3.4-4.3c1.8-1,3.6-1.9,5.3-2.9c0.3,0.2,0.6,0.4,0.9,0.6
		C182.8,165.1,181.9,167.3,181,169.5z"/>
	<path class="st2" d="M190.5,128.8c1.1,1.5,2.3,2.5,2.1,3.2c-0.2,1-1.4,1.8-2.1,2.7c-0.7-0.7-2-1.5-2-2.2
		C188.5,131.4,189.5,130.5,190.5,128.8z"/>
</g>
</svg>
