<?xml version="1.0" encoding="utf-8"?>
<!-- Generator: Adobe Illustrator 24.3.0, SVG Export Plug-In . SVG Version: 6.00 Build 0)  -->
<svg version="1.1" id="Layer_1" xmlns="http://www.w3.org/2000/svg" xmlns:xlink="http://www.w3.org/1999/xlink" x="0px" y="0px"
	 viewBox="0 0 670.5 444.6" style="enable-background:new 0 0 670.5 444.6;" xml:space="preserve">
<style type="text/css">
	.st0{fill:#FEC22C;}
	.st1{fill:#FE962C;}
	.st2{fill:#0B62F6;}
	.st3{fill:#94F80D;}
	.st4{fill:#FE982B;}
	.st5{fill:#FBF7DF;}
	.st6{fill:#FE962D;}
	.st7{fill:#0B62F5;}
	.st8{fill:#95F80E;}
	.st9{fill:#FE972B;}
	.st10{fill:#FCFAEC;}
	.st11{fill:#FEC32C;}
	.st12{fill:#FE972D;}
	.st13{fill:#0C62F5;}
	.st14{fill:#FEBD2E;}
	.st15{fill:#FE912E;}
	.st16{fill:#0A61F6;}
	.st17{fill:#94F40F;}
	.st18{fill:#FED886;}
	.st19{fill:#FEEFD0;}
	.st20{fill:#FEE7B5;}
	.st21{fill:#FEECC6;}
	.st22{fill:#FEE09F;}
	.st23{fill:#FEE2A4;}
	.st24{fill:#FEE9BC;}
	.st25{fill:#467BD0;}
	.st26{fill:#FEE6B2;}
	.st27{fill:#FEBB7F;}
	.st28{fill:#FED584;}
	.st29{fill:#FEE5AE;}
	.st30{fill:#FE932D;}
	.st31{fill:#1163EF;}
	.st32{fill:#FAFBEC;}
	.st33{fill:#95F80D;}
	.st34{fill:#1967E9;}
	.st35{fill:#F9F2CA;}
	.st36{fill:#1D68E5;}
	.st37{fill:#FEC52A;}
	.st38{fill:#FE982E;}
	.st39{fill:#FEDE90;}
	.st40{fill:#FEE8B4;}
	.st41{fill:#FEC993;}
	.st42{fill:#FEE5A6;}
	.st43{fill:#FEEAB8;}
	.st44{fill:#FEE3A2;}
	.st45{fill:#FEE4A5;}
	.st46{fill:#FEF0CD;}
	.st47{fill:#FEDB87;}
	.st48{fill:#1164EE;}
	.st49{fill:#FBF9E7;}
	.st50{fill:#FEC22B;}
	.st51{fill:#FEC184;}
	.st52{fill:#FEBD7B;}
	.st53{fill:#FEDE8C;}
	.st54{fill:#FEE29A;}
	.st55{fill:#FEDC86;}
	.st56{fill:#FEE7AC;}
	.st57{fill:#FEF0CC;}
	.st58{fill:#FEE4A1;}
	.st59{fill:#FEE8B0;}
	.st60{fill:#FECE9C;}
	.st61{fill:#0C62F2;}
	.st62{fill:#FBFAEB;}
</style>
<g>
	<path class="st0" d="M401.6,217.9c-14.1,9.2-30.3,13.5-45.7,19.7c-2.3,1-4.7,1-7.1,1.4c-7.9,1.1-15.6,2.7-23.6,2.6
		c-4.3-0.1-8.5-1-12.7-0.6c-2.8-0.2-5.5-1.3-8.2-2c-2.5-0.6-4.4-0.3-6.4,1.5c-7.1,6.2-12.2,13.8-15.6,22.6
		c-3.2,8.5-6.8,16.8-10.3,25.2c-2.9,6.9-6.8,13.3-11.8,18.9c-4.6,5.2-7.4,11.2-8.5,18c-0.7,4.2-2.5,8-4.5,11.6
		c-1.3,2.3-3.2,3.9-5.7,4.8c-3.6,1.2-7.2,1.5-11,1.5c-8.2-0.1-16.3-0.4-24.5-0.2c-10.1,0.3-16.5-9.1-11.9-18.1
		c3.1-6.2,7.8-10.8,14.6-13.1c4.6-1.5,9.5-2.6,13.4-5.8c5-4.1,8.7-8.9,9.6-15.8c0.9-7.3,0.9-14.7,2.6-21.9c2.6-11.1,8-20.8,14-30.2
		c2.8-4.4,6-8.6,8.6-13.3c0.8-1.4,0.8-2.3-0.6-3.2c-0.7-0.5-1.5-1.1-2-1.8c-4.9-7.3-12.7-11.5-18.4-17.9c-4.2-4.7-8.7-9.3-12.8-14
		c-2-2.3-4.1-4.6-6.3-6.8c-1.7-1.7-3.5-2.1-5.6-0.9c-2.9,1.5-5.9,2.9-8.8,4.2c-4.8,2.1-9.8,2.4-15,2c-3.2-0.2-5.6-1.9-7.7-4.2
		c-3.1-5.6-0.8-9.9,3.1-14c1.7-1.8,3-4,4.4-6.1c2.3-1.8,2.6-4.5,3.5-7.5c-2.6,1.1-4.5,1.9-5.6,3.9c-0.6,0.2-1.2,0.3-1.8,0.5
		c-5.5,2.6-11.2,4.3-17.2,5.3c-2.7,0.5-5.4-0.3-8,0.7c-5.5-0.7-10.8-1.9-14.8-6.3c-2.6-2.9-4.2-6.2-5.2-9.9
		c5.7,2.3,11.1,2.5,15.6-2.6c1.2-1.4,2.2-2.9,3-4.5c3.1-5.9,2.2-9.4-3.4-13c9.3-1.1,16-6.9,22.8-12.6c7-5.8,15.4-7.6,24-8.6
		c3.7-0.5,7.3,1,10.8,2.3c2.3,0.9,4.2,0.9,6.5-0.1c11.6-5.2,23.4,0.9,26,13.5c0.1,0.3,0.1,0.5,0.1,0.8c0.6,3.5,1,6.6,5.7,7.4
		c3.5,0.6,6.2,3.6,9.5,5.2c10,4.8,20.5,4.8,30.8,1.8c6.8-1.9,13.4-3.6,20.5-3.8c5-0.1,9.5,1,13.5,4.1c4.8,3.8,10.4,5.6,16.4,5.6
		c16.8-0.2,33.6,0.2,50.2-2.9c10.2-1.9,20.4-4.4,30.7-5.9c12.6-1.9,24.9-0.7,37.3,2c9.7,2.1,18.7,6,27.6,9.9
		c9.1,4,18.5,4.7,28.2,3.2c3.8-0.6,7.6-0.4,11.4,0.3c4.1,0.8,6.8,3.3,8.4,7c1.4,3.4,0.9,6.5-1.7,9.3c-5.5,6.1-12.3,8-20.2,6.7
		c-2-0.3-4-0.6-5.9-0.7c-0.9-0.1-2.1,0.1-1.8,1.4c1,5.4-1.1,10.4-1.7,15.6c-0.7,5.3-2.2,10.4-4.5,15.3c-4.5,9.6-4.4,18.9,2,27.8
		c1.5,2.1,3.7,3.2,5.9,4.2c6.9,2.9,13.4,6.4,19,11.5c6.1,5.4,11.3,11.5,13.1,19.5c1.6,6.8,0,13.4-2.6,19.7
		c-4.8,12.1-8.3,24.5-10.2,37.5c-0.1,0.4-0.2,0.9-0.2,1.3c-1,13.2-10.2,19-21.3,21.4c-8.9,1.9-18.4,2.3-27.3-1.5
		c-0.2-0.1-0.3-0.2-0.5-0.2c-9.7-5.7-10-11.5-3.6-18.8c4.7-5.4,10.5-9.3,16.4-12.9c9.5-5.7,11-14.3,10.3-24.2
		c-0.6-8.3-4-15.3-9.2-21.7c-3.8-4.6-9-7-14.3-9.1c-1.4-1.2-3.1-1.8-4.7-2.6c-7.8-4-15.1-8.4-21.1-15c-3.4-3.7-5.1-8.3-7.5-12.6
		c-4.9-8.6-10.3-16.6-18.5-22.3c-1.3-0.9-2.2-1.1-3.7-0.5C413.4,209.8,407.5,213.8,401.6,217.9z M219.8,136.4c0-3.1-0.8-5.8-2.6-8.2
		c-0.4-0.6-0.7-1.9-1.6-1.4c-1,0.6-0.3,1.7,0.2,2.4c1.8,2.7,2.2,5.8,1.4,8.6c-1.2,4-1.7,8.1-2.8,12.1c-0.8,3.1-1,6,0.7,8.9
		c2.7,4.6,10,8.2,15.3,7.3c8.4-1.4,12.2-5,14-13.5c0.3-1.6,1.3-4-0.7-4.5c-1.6-0.4-2.5,1.8-3.2,3.5c-0.8,1.8-0.6,3.9-1.8,5.6
		c-3.3,5.1-9.3,6.6-14.8,5.1c-5.4-1.5-8.1-6.2-6.9-11.6C218,146,218.9,141.2,219.8,136.4z M188.5,124c-0.1-1.4-0.6-2.6-2.2-2.4
		c-1.7,0.1-2.8,1.3-2.9,3.1c-0.1,1.6,1,2.3,2.4,2.3C187.6,126.9,188.3,125.7,188.5,124z"/>
	<path class="st12" d="M312.4,240.9c4.3-0.4,8.5,0.5,12.7,0.6c8,0.2,15.8-1.5,23.6-2.6c2.4-0.3,4.9-0.4,7.1-1.4
		c3,7.9,7.7,14.8,12.4,21.7c4.2,6.3,8.2,12.7,11.4,19.5c3.3,6.8,3.9,13.9,0.7,21.1c-2.7,6.2-5.1,12.4-6.8,18.9
		c-1.8,7.1-6.4,12.1-12.6,15.7c-1.7,1-3.6,1.3-5.5,1.1c-5.6-0.7-11.2-0.5-16.8,0.3c-5.7,0.8-11.6,0.3-17.4-0.5
		c-4.3-0.6-7.2-6.4-6.1-11.5c1.4-6.3,5.5-10.3,11.4-12.5c4-1.5,8.2-2.2,12.5-2.3c5.2-0.1,8.8-3.8,9-9c0.2-4.1-0.7-8-2.5-11.6
		c-3.9-7.3-8-14.4-13.1-21c-4.3-5.6-8.1-11.6-12.4-17.2C317.8,247.1,314.4,244.6,312.4,240.9z"/>
	<path class="st12" d="M401.6,217.9c5.8-4.1,11.7-8.1,18.4-10.8c1.5-0.6,2.4-0.4,3.7,0.5c8.2,5.8,13.7,13.8,18.5,22.3
		c2.4,4.2,4.1,8.8,7.5,12.6c6,6.6,13.3,11,21.1,15c1.6,0.8,3.4,1.4,4.7,2.6c-2.5,4.8-5,9.7-7.7,14.4c-4,7.2-4.9,14.2-0.6,21.7
		c2,3.5,3.3,7.3,3.7,11.3c0.9,7.5-4.5,14.9-11.5,15.7c-2,0.2-4-0.1-5.9-0.7c-16.1-5-24.8-22.3-19-38.1c2.9-8,7.1-15.5,9.8-23.6
		c2.1-6.2,1.6-8.1-4.2-11.5c-7.3-4.3-15-8.1-21.7-13.5C411.9,230.7,406.7,224.4,401.6,217.9z"/>
	<path class="st7" d="M153.4,128.8c5.5,3.7,6.4,7.1,3.4,13c-0.8,1.6-1.8,3.1-3,4.5c-4.5,5.1-9.9,4.9-15.6,2.6
		c-3.9-2.7-7.1-5.8-5.9-11.2c0.8-3.5,2.8-6,6.1-7.5C143.1,127.9,148.2,127.7,153.4,128.8z"/>
	<path class="st33" d="M158.1,165.1c2.6-1,5.3-0.3,8-0.7c6-1,11.7-2.8,17.2-5.3c0.6-0.3,1.2-0.4,1.8-0.5c0.7,1.2,1.4,2.4,2.2,3.6
		c-1.5,2-2.7,4.3-4.4,6.1c-3.9,4.1-6.1,8.4-3.1,14c-5.7,2.6-11.2,2.2-16.1-1.7C158.6,176.6,156.7,171.4,158.1,165.1z"/>
	<path class="st4" d="M219.8,136.4c-1,4.8-1.8,9.6-2.9,14.3c-1.2,5.4,1.5,10.1,6.9,11.6c5.6,1.5,11.5,0,14.8-5.1
		c1.2-1.8,1-3.8,1.8-5.6c0.7-1.6,1.6-3.9,3.2-3.5c1.9,0.5,1,2.9,0.7,4.5c-1.8,8.5-5.5,12.1-14,13.5c-5.3,0.9-12.6-2.7-15.3-7.3
		c-1.7-2.9-1.5-5.8-0.7-8.9c1.1-4,1.6-8.1,2.8-12.1c0.9-2.8,0.4-5.9-1.4-8.6c-0.5-0.7-1.2-1.9-0.2-2.4c1-0.6,1.2,0.8,1.6,1.4
		C219,130.6,219.9,133.3,219.8,136.4z"/>
	<path class="st34" d="M188.5,124c-0.2,1.7-0.9,2.9-2.7,2.9c-1.4,0-2.5-0.7-2.4-2.3c0.1-1.8,1.1-2.9,2.9-3.1
		C187.9,121.5,188.4,122.7,188.5,124z"/>
	<path class="st35" d="M187.2,162.1c-0.7-1.2-1.4-2.4-2.2-3.6c1.2-2,3.1-2.8,5.6-3.9C189.8,157.6,189.5,160.3,187.2,162.1z"/>
</g>
</svg>
