<?xml version="1.0" encoding="utf-8"?>
<!-- Generator: Adobe Illustrator 24.3.0, SVG Export Plug-In . SVG Version: 6.00 Build 0)  -->
<svg version="1.1" id="Layer_1" xmlns="http://www.w3.org/2000/svg" xmlns:xlink="http://www.w3.org/1999/xlink" x="0px" y="0px"
	 viewBox="0 0 670.5 444.6" style="enable-background:new 0 0 670.5 444.6;" xml:space="preserve">
<style type="text/css">
	.st0{fill:#FEC22C;}
	.st1{fill:#FE962C;}
	.st2{fill:#0B62F6;}
	.st3{fill:#94F80D;}
	.st4{fill:#FE982B;}
	.st5{fill:#FBF7DF;}
	.st6{fill:#FE962D;}
	.st7{fill:#0B62F5;}
	.st8{fill:#95F80E;}
	.st9{fill:#FE972B;}
	.st10{fill:#FCFAEC;}
	.st11{fill:#FEC32C;}
	.st12{fill:#FE972D;}
	.st13{fill:#0C62F5;}
	.st14{fill:#FEBD2E;}
	.st15{fill:#FE912E;}
	.st16{fill:#0A61F6;}
	.st17{fill:#94F40F;}
	.st18{fill:#FED886;}
	.st19{fill:#FEEFD0;}
	.st20{fill:#FEE7B5;}
	.st21{fill:#FEECC6;}
	.st22{fill:#FEE09F;}
	.st23{fill:#FEE2A4;}
	.st24{fill:#FEE9BC;}
	.st25{fill:#467BD0;}
	.st26{fill:#FEE6B2;}
	.st27{fill:#FEBB7F;}
	.st28{fill:#FED584;}
	.st29{fill:#FEE5AE;}
	.st30{fill:#FE932D;}
	.st31{fill:#1163EF;}
	.st32{fill:#FAFBEC;}
	.st33{fill:#95F80D;}
	.st34{fill:#1967E9;}
	.st35{fill:#F9F2CA;}
	.st36{fill:#1D68E5;}
	.st37{fill:#FEC52A;}
	.st38{fill:#FE982E;}
	.st39{fill:#FEDE90;}
	.st40{fill:#FEE8B4;}
	.st41{fill:#FEC993;}
	.st42{fill:#FEE5A6;}
	.st43{fill:#FEEAB8;}
	.st44{fill:#FEE3A2;}
	.st45{fill:#FEE4A5;}
	.st46{fill:#FEF0CD;}
	.st47{fill:#FEDB87;}
	.st48{fill:#1164EE;}
	.st49{fill:#FBF9E7;}
	.st50{fill:#FEC22B;}
	.st51{fill:#FEC184;}
	.st52{fill:#FEBD7B;}
	.st53{fill:#FEDE8C;}
	.st54{fill:#FEE29A;}
	.st55{fill:#FEDC86;}
	.st56{fill:#FEE7AC;}
	.st57{fill:#FEF0CC;}
	.st58{fill:#FEE4A1;}
	.st59{fill:#FEE8B0;}
	.st60{fill:#FECE9C;}
	.st61{fill:#0C62F2;}
	.st62{fill:#FBFAEB;}
</style>
<g>
	<path class="st0" d="M136.1,143.3c3.4-0.8,6.8-2.4,10.3-2.3c4.2,0.1,7.3-1.4,9.8-4.2c4.3-4.8,10.2-7.2,15.3-10.7
		c0.4-0.3,0.8-0.4,1.2-0.7c7.8-6.4,15.6-4.1,23.3,0c1.9,1,3.6,1.7,5.9,1.2c3.5-0.7,7.2-1.2,10.7-1.7c2.4-0.4,4.6,0.9,5.6,3.7
		c1.4,4.1,2.5,8.3,3.8,12.4c0.3,0.8,1,1.8,1.7,2.1c4.3,2.1,8.6,4.4,13.1,6c3.1,1.1,6.6,1.1,9.9,1.6c1.7,0.3,3.3,0.6,5,0.9
		c0.6,0.1,1.3,0.3,1.8,0.1c5.6-2.9,11.8-2.6,17.8-2.9c9.2-0.5,18.3,0.6,27.3,2.7c10.7,2.5,21.5,1.9,32.2,0.9
		c6.8-0.6,13.6-1.1,20.3-2c5.6-0.7,11.1-1.6,16.6-2.9c13.8-3.3,27.7-5,41.8-2c6.6,1.4,13,4,19.4,6.1c2.1,0.7,4.1,1.4,6.2,2
		c4.6,1.2,6.7,5.6,10,8.3c5.7,4.5,11.6,7.2,19.1,6.9c7.3-0.3,14.7,0,21.8,2.2c1.3,0.4,2.6,0.7,3.9,1.3c6.1,2.7,6.8,10.1,1.3,13.8
		c-2,1.3-4.4,2.3-6.7,2.9c-3.2,0.8-6.6,1.2-9.9,1.6c-6.8,0.9-6.9,1-6.3,7.7c-2.4,4.9-4.5,9.8-7.1,14.6c-2,3.7-4,7.7-7.1,10.5
		c-5.1,4.7-11,8.4-16.5,12.7c-2.2,1.7-4.3,3.6-6.4,5.5c-2.1,2.1-4.5,3.9-6.2,6.3c-4.1,5.4-4.1,11.5-3,17.9c0.8,4.4,2.7,8.3,4.7,12.3
		c2.2,4.3,3.3,9.2,4.1,14c0.3,1.8-1.2,4.2-2.5,6c-3.7,4.9-7.7,9.6-11.4,14.5c-1.2,1.6-1.8,3.5-2.5,5.4c-2,5.6-5.6,9.7-10.6,12.7
		c-7.3,4.3-13.6,9.6-17.5,17.4c-1.1,2.2-3.2,2.2-5.2,2c-6.4-0.4-12.9-0.8-19.3-1.1c-2.4-0.1-4.9,0.2-7.3,0.1c-2.1-0.1-3.6-1-2.3-3.5
		c0.2-0.5,0.1-1.2,0.1-1.8c0.1-1.3,0-2.8,0.4-4c3.1-7.9,13.2-16.7,24.2-15c1.2,0.2,3.2-1.3,3.9-2.5c4.7-8.4,9.3-16.8,13.7-25.3
		c2.6-5.1,2-9.9-0.8-15c-6-11.2-11.6-22.6-16.9-34.1c-3-6.6-3.7-13.8-4.1-21c-0.1-1.4,0-2.9,0-4.2c-13.1-3.6-24,0.7-33.8,8.9
		c-3.5,3-6.6,6.5-10.1,9.5c-2,1.7-4.4,3.1-6.8,4.4c-1.3,0.7-2.1,1.3-1.8,2.9c2.5,13.7,2.1,27.9,5.9,41.4c1,3.7,2.2,7,5.7,9.1
		c1.9,1.2,3.6,1.6,5.6,1c2.7-0.8,5.4-1.7,8-2.6c8.5-3,18,0.9,22,8.8c2.1,4.2,0.7,8-1.6,11.5c-4.9,7.2-11.9,10.6-20.6,10.8
		c-3.6,0.1-7.4,0.8-10.8,0.2c-16.5-3.1-26.7-14-33.5-28.6c-2.7-5.8-5.3-11.5-7.6-17.4c-1.6-4.1-2.7-8.4-4-12.7
		c-2.2-7.7-5.3-15-9-21.5c-3.4,0.2-6.4,0.4-9.4,0.6c-5.8-1.9-11.8-3.5-17.4-5.9c-2.8-1.2-5.1-3.8-7.4-6c-2-1.9-3.7-4.1-5.5-6.2
		c-2-2.9-3.9-5.8-6.1-8.6c-3.9-5-8-9.9-11.8-15c-5.3-7.1-12.4-12.3-19.7-17c-3.6-2.3-8.3-3.1-12.5-4.5c-0.7-0.2-1.5-0.2-2.2-0.1
		c-6.2,1.4-12.1,2.9-17.1,7.6c-5.5,5.1-12.5,6.9-19.9,5.3c-4.1-0.9-6.6-4.4-6.8-8.4c1.3-3.2,4.1-4.9,6.9-6.5c2.2-1.2,4.2-2.6,6.3-4
		c3.2-2.2,6.3-4.5,9.5-6.7c-0.1-0.3-0.2-0.6-0.3-0.9c-4.1,0.3-8.2,0.6-12.2,0.9c-5,0.4-10,0.8-15,1.2c-5.5,1.8-9.4-1.1-13.1-4.6
		c7.8-2.3,13.8-6.7,16.3-14.8c2.1-6.7,0.5-10-6.4-11C136.6,143.5,136.3,143.4,136.1,143.3z M235.5,175.6c0.5,5.7-2,10.3-7.2,12.9
		c-4.3,2.1-8.3,1.3-12.1-1.7c-3.9-3.1-6.7-6.8-7.3-11.8c-0.4-3.4-0.4-6.9-1.4-10.1c-2.2-7.3-5.3-14.2-10.3-20.1
		c-0.5-0.6-1.4-0.9-2.2-1.3c-0.2,0.9-0.7,1.9-0.4,2.5c1.6,4.1,3.5,8.1,5.2,12.1c2.1,4.8,4.2,9.6,4.1,15c0,2.3,0.3,4.8,1.1,6.9
		c2.4,6.7,7.2,11.5,13.7,13.8c8.1,2.9,17-1.6,20.5-10.2c1.5-3.7,1.6-7.6,0.4-11.4c-0.3-0.9-1.7-1.5-2.6-2.2
		c-0.5,0.9-1.3,1.7-1.6,2.6C235.3,173.5,235.5,174.5,235.5,175.6z M167,138.2c1.6,1.4,2.9,3.1,3.5,2.9c1.3-0.4,3-1.7,3.1-2.8
		c0.1-1-1.6-3-2.7-3.1C170,135,168.8,136.7,167,138.2z"/>
	<path class="st1" d="M431.2,241.6c2.1-1.8,4.2-3.7,6.4-5.5c5.5-4.2,11.4-8,16.5-12.7c3-2.8,5-6.8,7.1-10.5
		c2.6-4.7,4.8-9.7,7.1-14.6c2.9,5.3,6.3,10.4,8.6,16c3.2,7.9,5.2,16.2,8.5,24.1c3.9,9.5,10.9,16.2,20.5,19.8
		c4.9,1.9,10.1,3.1,14.8,5.5c3.5,1.8,6.8,4.7,9.1,7.8c2.6,3.5,4,7.9,5.9,11.9c1,2.2,1.8,4.6,3.1,6.6c3.7,5.5,7.6,10.8,11.5,16.2
		c2.3,3.3,3,7.1,2.2,10.9c-1.2,5.9-2.8,11.8-4.5,17.6c-1.1,3.5-3.5,5.3-7.5,5.3c-6.5,0-13,0.7-19.5,1.1c-1.2,0.1-2.4,0.1-3.5,0
		c-5-0.4-7.5-2.4-8.5-6.6c-1.1-4.7,0.3-9,4.3-11c3.1-1.6,6.6-2.4,9.9-3.5c1.2-0.4,2.5-0.3,3.9-0.5c-3.6-7.3-7.2-14.3-10.5-21.4
		c-3.1-6.8-8.8-9.9-15.2-13c-8.3-4-17.2-5.7-26-7.7c-7.2-1.6-13-5.7-18.2-10.5C448.1,258.8,439.8,250.1,431.2,241.6z"/>
	<path class="st6" d="M240.8,230.5c1.8,2.1,3.5,4.3,5.5,6.2c2.3,2.2,4.6,4.8,7.4,6c5.6,2.4,11.6,4,17.4,5.9c-2.3,4.5-4.5,9-6.8,13.5
		c-1.8,3.5-3.9,6.9-5.5,10.6c-4.3,9.8-6.9,20-8.1,30.6c-0.6,5.1-2.5,9.7-5.6,14c-3.7,5.1-6.6,10.8-9.7,16.3
		c-1.2,2.2-2.2,4.1-5.1,4.3c-1.2,0.1-2.2,1.4-3.4,1.6c-5.1,1-10.1,2.4-15.4,1.8c-2.8-0.4-5.6-0.2-8.4-0.4c-5.9-0.5-9.2-3.9-9.4-9.8
		c-0.3-7.7,6.2-17.8,13.4-20.6c4.2-1.6,8.7-2.1,13.1-1.1c2.4,0.5,3.8-0.2,4.4-2.3c1.4-4.8,2.8-9.6,4-14.4c2.4-9.5,4.8-19,7.1-28.5
		c0.7-2.9,1-5.9,1.5-8.8C238.4,247,239.6,238.8,240.8,230.5z"/>
	<path class="st7" d="M136.1,143.3c0.3,0.1,0.5,0.2,0.8,0.2c6.9,1.1,8.4,4.3,6.4,11c-2.5,8.1-8.5,12.5-16.3,14.8
		c-4.5-0.4-7.2-2.9-8.4-7.2c-1.3-4.7-1.7-8.9,2.6-12.6C125.5,145.8,130.3,143.4,136.1,143.3z"/>
	<path class="st8" d="M158.1,179.5c-2.1,1.3-4.2,2.8-6.3,4c-2.8,1.6-5.6,3.2-6.9,6.5c-5.3-2.3-7.3-6.6-5.7-12
		c0.4-1.3,0.6-2.6,0.9-3.9c5-0.4,10-0.8,15-1.2C156.1,175,157.1,177.2,158.1,179.5z"/>
	<path class="st9" d="M235.5,175.6c0-1.1-0.2-2.1,0.1-2.9c0.3-1,1-1.8,1.6-2.6c0.9,0.7,2.3,1.3,2.6,2.2c1.1,3.8,1.1,7.7-0.4,11.4
		c-3.5,8.6-12.4,13.1-20.5,10.2c-6.5-2.3-11.3-7.2-13.7-13.8c-0.8-2.2-1.1-4.6-1.1-6.9c0.1-5.5-2-10.2-4.1-15c-1.8-4-3.6-8-5.2-12.1
		c-0.3-0.7,0.3-1.7,0.4-2.5c0.7,0.4,1.7,0.7,2.2,1.3c4.9,5.9,8.1,12.8,10.3,20.1c1,3.2,1,6.7,1.4,10.1c0.6,5.1,3.4,8.7,7.3,11.8
		c3.8,3,7.8,3.9,12.1,1.7C233.6,185.9,236,181.4,235.5,175.6z"/>
	<path class="st10" d="M158.1,179.5c-1-2.2-2-4.5-3-6.7c4.1-0.3,8.2-0.6,12.2-0.9c0.1,0.3,0.2,0.6,0.3,0.9
		C164.5,175,161.3,177.3,158.1,179.5z"/>
	<path class="st7" d="M167,138.2c1.8-1.5,3-3.2,4-3.1c1.1,0.2,2.7,2.1,2.7,3.1c-0.1,1.1-1.8,2.4-3.1,2.8
		C169.8,141.3,168.6,139.6,167,138.2z"/>
</g>
</svg>
