<?xml version="1.0" encoding="utf-8"?>
<!-- Generator: Adobe Illustrator 24.3.0, SVG Export Plug-In . SVG Version: 6.00 Build 0)  -->
<svg version="1.1" id="Layer_1" xmlns="http://www.w3.org/2000/svg" xmlns:xlink="http://www.w3.org/1999/xlink" x="0px" y="0px"
	 viewBox="0 0 670.5 444.6" style="enable-background:new 0 0 670.5 444.6;" xml:space="preserve">
<style type="text/css">
	.st0{fill:#FEC22C;}
	.st1{fill:#FE962C;}
	.st2{fill:#0B62F6;}
	.st3{fill:#94F80D;}
	.st4{fill:#FE982B;}
	.st5{fill:#FBF7DF;}
	.st6{fill:#FE962D;}
	.st7{fill:#0B62F5;}
	.st8{fill:#95F80E;}
	.st9{fill:#FE972B;}
	.st10{fill:#FCFAEC;}
	.st11{fill:#FEC32C;}
	.st12{fill:#FE972D;}
	.st13{fill:#0C62F5;}
	.st14{fill:#FEBD2E;}
	.st15{fill:#FE912E;}
	.st16{fill:#0A61F6;}
	.st17{fill:#94F40F;}
	.st18{fill:#FED886;}
	.st19{fill:#FEEFD0;}
	.st20{fill:#FEE7B5;}
	.st21{fill:#FEECC6;}
	.st22{fill:#FEE09F;}
	.st23{fill:#FEE2A4;}
	.st24{fill:#FEE9BC;}
	.st25{fill:#467BD0;}
	.st26{fill:#FEE6B2;}
	.st27{fill:#FEBB7F;}
	.st28{fill:#FED584;}
	.st29{fill:#FEE5AE;}
	.st30{fill:#FE932D;}
	.st31{fill:#1163EF;}
	.st32{fill:#FAFBEC;}
	.st33{fill:#95F80D;}
	.st34{fill:#1967E9;}
	.st35{fill:#F9F2CA;}
	.st36{fill:#1D68E5;}
	.st37{fill:#FEC52A;}
	.st38{fill:#FE982E;}
	.st39{fill:#FEDE90;}
	.st40{fill:#FEE8B4;}
	.st41{fill:#FEC993;}
	.st42{fill:#FEE5A6;}
	.st43{fill:#FEEAB8;}
	.st44{fill:#FEE3A2;}
	.st45{fill:#FEE4A5;}
	.st46{fill:#FEF0CD;}
	.st47{fill:#FEDB87;}
	.st48{fill:#1164EE;}
	.st49{fill:#FBF9E7;}
	.st50{fill:#FEC22B;}
	.st51{fill:#FEC184;}
	.st52{fill:#FEBD7B;}
	.st53{fill:#FEDE8C;}
	.st54{fill:#FEE29A;}
	.st55{fill:#FEDC86;}
	.st56{fill:#FEE7AC;}
	.st57{fill:#FEF0CC;}
	.st58{fill:#FEE4A1;}
	.st59{fill:#FEE8B0;}
	.st60{fill:#FECE9C;}
	.st61{fill:#0C62F2;}
	.st62{fill:#FBFAEB;}
</style>
<g>
	<path class="st37" d="M294.8,318.6c-0.3,0.9-0.6,1.7-0.8,2.6c-1,4-2.7,7.5-6.7,9.4c-5,2.5-7.8,7.2-10.5,11.8
		c-2.8,4.6-6.9,6.4-12,7.2c-6.1,0.9-12.3,0.4-18.4,0.4c-4.4,0-9.1-3.4-10.7-7.5c-1-2.5,0.6-7.3,3-9.3c1.7-1.4,3.6-2.5,5.5-3.5
		c5.8-3,11.1-6.9,16-11.2c0.7-0.6,1.6-1,1.7-2c3.2-2.2,5.4-5.2,6.1-8.9c0.8-4.7,0.8-9.5,0.6-14.2c-0.2-4.7-0.3-9.4-0.7-14.1
		c-0.2-2.5-0.9-5.1-1.4-7.6c0.6-1.1,0.6-2.2,0.2-3.4c-1.5-4.7-2.4-9.5-3.1-14.4c-0.6-4-1.4-8.1-3.7-11.7c-0.4-2.8-1.8-4.4-4.8-5.3
		c-9.9-3.1-18-9.2-24.9-16.9c-6.2-6.9-12.5-13.6-20.2-18.9c-10.2-7.1-21-8.2-32.5-3.8c-7,2.7-13,7.2-20.1,9.6
		c-5.4,1.7-11.8-0.2-14.5-4.5c-0.7-1.1-0.5-2-0.7-3.1c1-3.4,3.1-6,5.8-8.1c1.2-1,2.5-1.8,3.1-3.3c1.8-0.6,2.5-2.2,3.3-3.6
		c0.3-0.6,0.7-1.5,0.3-2c-0.6-0.9-1.5-0.1-2.2,0.2c-1.2,0.4-2.5,0.5-3.4,1.5c-1,0-1.9,0.4-2.9,0.7c-4.2,1.6-8.4,3.2-12.9,3.9
		c-0.4,0-0.8,0-1.1,0.4c-4.5,0.3-9,1-13.2-1.7c-3.6-2.4-6.5-5.4-7.9-9.6c1.6,0.8,3.1,1.9,4.9,2.1c4.1,0.4,12.1-4.7,13.4-8.6
		c2-5.5-0.9-9.3-5.6-13.2c3.2-1.7,6.9-1.3,10.3-1.9c4.1-0.6,6.7-2.6,8.2-6.3c2.3-5.6,6-10,10.9-13.6c3.1-2.3,6.5-3.2,10-3.4
		c4.7-0.2,9.4,0.1,14.1,0.1c0.3,0.5,0.7,0.5,1.1,0.4c2.8-0.4,5.1,0.7,7.3,2.1c2,1.3,4.1,2.1,6.6,1.8c5.3-0.7,9.4,1.9,13.2,5.2
		c0.5,0.4,1,0.8,1.3,1.4c5.5,8.9,14.3,11.2,23.9,11.7c4.1,0.2,8-0.6,11.8-2.2c0.6,0.2,1,0,1.4-0.5c1.3-0.4,2.7-0.8,4-1.2
		c0.6,0.3,1,0,1.4-0.4c1.3-0.4,2.7-0.8,4-1.2c0.5,0.2,0.9,0.1,1.3-0.4c1.6-0.4,3.2-0.9,4.7-1.3c0.5,0.3,0.9,0.1,1.3-0.3
		c0.5-0.1,1-0.2,1.5-0.3c0.5,0.3,0.9,0.2,1.3-0.2c1.3-0.1,2.6-0.2,3.8-0.3c1.8,0.5,3.6,0.5,5.4,0c2,0.1,4,0.2,6,0.3
		c1,0.8,2.2,0.4,3.3,0.6c5.8-0.1,10.8,2.7,16,4.8c1,0.4,2,0.9,3.1,0.7c1.3,0.8,2.5,0.7,3.8,0c4.5,0,9.1,0,13.6,0
		c0.3,0.4,0.6,0.7,1.1,0.6c8.5,0.3,16.4,3.2,24.4,6c2.7,1,5.5,1.5,8.3,2.2c0.5,0.6,1,0.7,1.6,0.2c4.5,0,9,0.7,13.5,0.1
		c0.5,0.3,0.9,0.2,1.2-0.2c4.9-0.7,9.3-3,14-4.1c0.5,0.3,0.9,0.1,1.2-0.3c0.5-0.1,1-0.2,1.5-0.3c0.5,0.3,0.9,0.2,1.2-0.3
		c0.5-0.1,1-0.2,1.5-0.3c0.5,0.3,0.9,0.1,1.2-0.2c4-0.5,7.9-1.8,12-1.7c6.2,0.2,12.2,1.1,18,3.1c4.4,1.5,8.9,3.2,13.5,4.2
		c5.9,1.2,12,1.7,18.1,0.6c2.1-0.4,4.3-0.2,6.5-0.2c1,0.1,1.9,0.1,2.7-0.5c6.1-0.7,12,0,17.9,2.1c5.3,2,6.9,7.8,3.2,12
		c-3.5,4-8.1,5.6-13.1,6.5c-2.1,0.4-4.2,1.1-6.7,0.5c2.3,6.5,0.9,12.7,0.5,19c-0.3,4.9-2.4,9.3-3.2,14c-1.7,10.1,5.9,17.2,16,15.3
		c6.5-1.3,13.2-1.8,19.9-1.8c4.3,0,7.3,2.4,9.4,5.9c3.8,6.2,6.1,13,8.4,19.8c2.7,8,6.9,15,14.3,19.6c5.5,3.4,11.7,4.6,18.1,4.8
		c6.7,0.2,11.8,2.7,15.7,8.3c3.9,5.5,4.4,15.3-4.7,19.2c-6.7,2.9-13.8,4.5-21.2,3.3c-11.2-1.8-17.7-9.7-23-18.7
		c-2.7-4.6-4.7-9.6-7.1-14.4c-5.2-10.1-12.8-17.5-24-20.8c-3.9-1.2-7.8-1-11.8-0.5c-3.1,0.4-6.4,0-9.2,1.8
		c-3.8,0.4-7.3,2.1-10.9,3.3c-2.6,0.9-5.1,2.4-8,2.7c-9.4,0.8-17.2-2.8-24-8.9c-5.1-4.6-7.7-10.8-10.5-17c-2.2-4.9-3.5-10.1-5-15.2
		c-0.3-1.2-0.7-2-2.3-2.1c-6.2-0.3-12.3,0.3-18,3c-2.4,1.1-5.2,1.6-6.8,4.1c-0.7-0.4-1.4-0.1-2.1,0.1c-11.4,4.7-23.3,7.3-35.2,10.1
		c-6.5,1.5-13.2,2.2-19.9,2.9c-5.2,0.6-10.5,1.1-15.8,1.6c-0.4,0-0.9,0-1.1,0.6c-0.3,0.4-0.4,0.7-0.2,1.2c-1.1,4.2-3,8.1-3.5,12.4
		c-0.4,0.3-0.5,0.7-0.2,1.2c-0.1,0.7-0.2,1.4-0.3,2.1c-0.4,0.3-0.5,0.7-0.2,1.2c-0.8,3.2-0.9,6.5-0.8,9.7c-0.6,0.6-0.7,1.4-0.6,2.2
		c0,1.4,0,2.9,0,4.3c-0.5,0.3-0.5,0.7-0.1,1.1c0.1,5.3-0.7,10.5,0.1,15.8c-0.8,0.7-0.7,1.7-0.5,2.5
		C295.2,304.1,294.5,311.4,294.8,318.6z M180.2,144.6c-1.4,0-1.6,0.9-1.6,2c0,3,0.6,5.9,2.2,8.5c2.3,3.8,6.3,5.1,10,6.5
		c3.6,1.4,5.8,3.8,7,7.4c0.8,2.7,2,5.3,3.3,7.8c2.2,4.2,5.3,6.8,10.3,6.4c1.4-0.1,2.7,0,4.1,0c5-0.2,11.6-5.5,12.6-10.1
		c1-4.8-0.9-9.4-4.5-10.7c-0.2,2.1-0.2,2.1,1.2,5.1c1,2.1,0.7,7.1-0.9,8.2c-2.6,1.9-5.1,4.3-8.5,4.6c-6,0.5-8.9,1.1-11.9-5.6
		c-0.9-2-1.9-3.9-2.6-6c-1.5-5.2-4.8-8.4-10.1-10.1C183.3,156.2,180.3,152.1,180.2,144.6z M156.1,148.9c-2.4-0.2-3.4,1.3-3.6,3.2
		c-0.1,1.5,0.8,2.3,2.3,2.3c1.8,0.1,3.7-1.9,3.7-3.6C158.4,149.2,157.4,148.7,156.1,148.9z"/>
	<path class="st1" d="M374.2,227.9c1.6-2.5,4.4-3,6.8-4.1c5.7-2.7,11.8-3.3,18-3c1.6,0.1,2,0.9,2.3,2.1c1.5,5.1,2.8,10.3,5,15.2
		c2.8,6.1,5.4,12.3,10.5,17c6.8,6.1,14.6,9.7,24,8.9c2.8-0.2,5.3-1.7,8-2.7c3.6-1.2,7-2.9,10.9-3.3c0.1,4.8-0.2,9.6-1.5,14.2
		c-3,10.7-4.8,21.7-9.2,32c-2.2,5.2-5.1,9.7-9.9,12.7c-4.9,3.1-7.9,7.7-11.2,12.1c-4.3,5.7-9.8,8.1-16.8,7.7
		c-3.4-0.2-6.8,0.2-10.2-1c-3-1.1-5.1-3.1-6.9-5.5c-2.4-3.3-1.9-6.8,1.1-10c4.8-5.1,11-7.8,17.4-10.3c0.9-0.4,1.9-0.6,2.9-0.9
		c2.9-0.9,5.3-2.6,6.7-5.2c3.4-6.1,6.3-12.3,6.1-19.7c-0.2-6.8-4-9.7-10.2-10.2c-8-0.6-15.4-2.6-21.2-8.6c-1.1-1.1-2.3-2.1-3.5-3
		c-8.4-6-12.7-15-17.2-23.7C374.6,235.3,374,231.6,374.2,227.9z"/>
	<path class="st1" d="M268.5,293.3c0.3,4.8,0.2,9.6-0.6,14.2c-0.6,3.7-2.9,6.7-6.1,8.9c-8.3-2.6-16.2-5.8-23.2-11.1
		c-4.9-3.7-7.9-8.4-8.1-14.7c0.5-0.9,0.5-1.8,0-2.7c0.1-0.9,0.2-1.8,0.3-2.7c0.5-0.3,0.5-0.7,0.1-1.1c0.5-2.5,1.7-4.7,3-6.8
		c8-12.1,17.1-23.5,25.8-35.2c2.3,3.6,3.1,7.6,3.7,11.7c0.7,4.9,1.6,9.7,3.1,14.4c0.4,1.2,0.3,2.3-0.2,3.4c-2.6,2.9-5.4,5.5-7.1,9.1
		c-0.5,1-0.8,2.1-0.4,3.1C260.7,288.3,263.8,291.6,268.5,293.3z"/>
	<path class="st16" d="M124,157.7c4.7,3.9,7.5,7.6,5.6,13.2c-1.4,3.9-9.4,9-13.4,8.6c-1.8-0.2-3.3-1.3-4.9-2.1
		c-4.6-4.5-5.4-9.7-2.4-15.2c2-3.7,5.7-3.9,9.1-4.4C120,157.4,122,157.7,124,157.7z"/>
	<path class="st38" d="M294.8,318.6c-0.2-7.2,0.4-14.5-1.1-21.7c-0.2-0.8-0.3-1.8,0.5-2.5c3.5,0.3,6.7,1.3,9.5,3.5
		c4.1,3.3,4.9,8.1,2.3,12.6C303.4,314.9,299.3,317.1,294.8,318.6z"/>
	<path class="st33" d="M133.4,188.3c4.5-0.7,8.7-2.2,12.9-3.9c0.9-0.4,1.8-0.7,2.9-0.7c0.9,1.2,1.7,2.4,1.9,4
		c-0.6,1.5-1.9,2.3-3.1,3.3c-2.7,2.2-4.8,4.7-5.8,8.1c-5.5-1.2-8.8-4.8-9.1-9.9C133.5,189.1,133.4,188.7,133.4,188.3z"/>
	<path class="st39" d="M272.9,146.9c-1.8,0.5-3.6,0.5-5.4,0C269.3,146,271.1,146,272.9,146.9z"/>
	<path class="st40" d="M305.1,153.2c-1.3,0.7-2.5,0.8-3.8,0C302.5,152.6,303.8,152.5,305.1,153.2z"/>
	<path class="st39" d="M282.2,147.8c-1.1-0.2-2.3,0.3-3.3-0.6C280.1,146.8,281.3,146.2,282.2,147.8z"/>
	<path class="st41" d="M230.6,287.9c0.5,0.9,0.5,1.8,0,2.7C229.7,289.7,229.7,288.8,230.6,287.9z"/>
	<path class="st42" d="M460.4,162c-0.8,0.6-1.8,0.7-2.7,0.5C458.3,161,459.3,161.4,460.4,162z"/>
	<path class="st43" d="M294.2,273.2c-0.2-0.8,0-1.6,0.6-2.2C295.5,272,295.5,272.8,294.2,273.2z"/>
	<path class="st44" d="M354.1,162.1c-0.6,0.5-1.2,0.4-1.6-0.2C353.1,161.4,353.6,161.4,354.1,162.1z"/>
	<path class="st39" d="M254.9,149.4c-0.3,0.4-0.7,0.6-1.3,0.4C254,149.3,254.3,148.9,254.9,149.4z"/>
	<path class="st39" d="M249.6,151c-0.4,0.4-0.8,0.7-1.4,0.4C248.6,150.9,249,150.6,249.6,151z"/>
	<path class="st39" d="M244.2,152.6c-0.4,0.5-0.8,0.7-1.4,0.5C243.1,152.5,243.5,152.2,244.2,152.6z"/>
	<path class="st40" d="M319.8,153.8c-0.5,0.1-0.8-0.2-1.1-0.6C319.5,152.5,319.6,153.2,319.8,153.8z"/>
	<path class="st44" d="M389.5,156.5c-0.4,0.3-0.8,0.5-1.2,0.2C388.7,156.3,389,155.9,389.5,156.5z"/>
	<path class="st44" d="M386.8,157c-0.3,0.4-0.7,0.6-1.2,0.3C385.9,156.8,386.3,156.4,386.8,157z"/>
	<path class="st44" d="M384.1,157.6c-0.3,0.4-0.7,0.6-1.2,0.3C383.2,157.4,383.5,157,384.1,157.6z"/>
	<path class="st39" d="M260.9,147.8c-0.3,0.4-0.7,0.6-1.3,0.3C260,147.6,260.3,147.2,260.9,147.8z"/>
	<path class="st44" d="M368.8,162c-0.3,0.4-0.7,0.5-1.2,0.2C367.9,161.7,368.3,161.4,368.8,162z"/>
	<path class="st45" d="M133.4,188.3c0,0.4,0.1,0.8-0.4,0.9c-0.2-0.2-0.5-0.4-0.7-0.5C132.6,188.3,133,188.3,133.4,188.3z"/>
	<path class="st39" d="M263.6,147.2c-0.4,0.4-0.8,0.6-1.3,0.2C262.7,147,263.1,146.7,263.6,147.2z"/>
	<path class="st43" d="M300,244.4c-0.3-0.4-0.1-0.8,0.2-1.2C300.8,243.7,300.5,244.1,300,244.4z"/>
	<path class="st43" d="M296.2,258c-0.3-0.5-0.2-0.8,0.2-1.2C297,257.4,296.7,257.7,296.2,258z"/>
	<path class="st46" d="M178.6,133.1c-0.4,0.1-0.9,0.1-1.1-0.4C178.2,131.7,178.5,132.3,178.6,133.1z"/>
	<path class="st43" d="M295.6,261.3c-0.3-0.5-0.1-0.8,0.2-1.2C296.5,260.7,296.1,261,295.6,261.3z"/>
	<path class="st47" d="M294.1,278.6c-0.5-0.4-0.4-0.8,0.1-1.1C294.6,277.9,294.6,278.3,294.1,278.6z"/>
	<path class="st41" d="M231,284.1c0.4,0.4,0.5,0.8-0.1,1.1C230.4,284.8,230.6,284.4,231,284.1z"/>
	<path class="st4" d="M180.2,144.6c0.1,7.5,3.1,11.6,10.7,14c5.2,1.7,8.5,4.9,10.1,10.1c0.6,2.1,1.7,4,2.6,6c3,6.7,5.9,6.1,11.9,5.6
		c3.4-0.3,5.9-2.7,8.5-4.6c1.6-1.1,1.9-6,0.9-8.2c-1.4-3-1.4-3-1.2-5.1c3.6,1.3,5.5,5.9,4.5,10.7c-1,4.6-7.6,9.9-12.6,10.1
		c-1.4,0.1-2.7-0.1-4.1,0c-5,0.4-8.2-2.2-10.3-6.4c-1.3-2.5-2.4-5.1-3.3-7.8c-1.1-3.6-3.4-6-7-7.4c-3.8-1.5-7.8-2.7-10-6.5
		c-1.6-2.6-2.2-5.5-2.2-8.5C178.6,145.6,178.8,144.7,180.2,144.6z"/>
	<path class="st48" d="M156.1,148.9c1.4-0.2,2.4,0.3,2.4,2c0.1,1.7-1.9,3.6-3.7,3.6c-1.5,0-2.5-0.8-2.3-2.3
		C152.7,150.2,153.6,148.7,156.1,148.9z"/>
	<path class="st49" d="M151,187.7c-0.2-1.5-1-2.8-1.9-4c0.9-1,2.2-1.1,3.4-1.5c0.7-0.2,1.5-1,2.2-0.2c0.4,0.6,0,1.4-0.3,2
		C153.5,185.6,152.8,187.1,151,187.7z"/>
</g>
</svg>
