<?xml version="1.0" encoding="utf-8"?>
<!-- Generator: Adobe Illustrator 24.3.0, SVG Export Plug-In . SVG Version: 6.00 Build 0)  -->
<svg version="1.1" id="Layer_1" xmlns="http://www.w3.org/2000/svg" xmlns:xlink="http://www.w3.org/1999/xlink" x="0px" y="0px"
	 viewBox="0 0 670.5 444.6" style="enable-background:new 0 0 670.5 444.6;" xml:space="preserve">
<style type="text/css">
	.st0{fill:#FEC22C;}
	.st1{fill:#FE962C;}
	.st2{fill:#0B62F6;}
	.st3{fill:#94F80D;}
	.st4{fill:#FE982B;}
	.st5{fill:#FBF7DF;}
	.st6{fill:#FE962D;}
	.st7{fill:#0B62F5;}
	.st8{fill:#95F80E;}
	.st9{fill:#FE972B;}
	.st10{fill:#FCFAEC;}
	.st11{fill:#FEC32C;}
	.st12{fill:#FE972D;}
	.st13{fill:#0C62F5;}
	.st14{fill:#FEBD2E;}
	.st15{fill:#FE912E;}
	.st16{fill:#0A61F6;}
	.st17{fill:#94F40F;}
	.st18{fill:#FED886;}
	.st19{fill:#FEEFD0;}
	.st20{fill:#FEE7B5;}
	.st21{fill:#FEECC6;}
	.st22{fill:#FEE09F;}
	.st23{fill:#FEE2A4;}
	.st24{fill:#FEE9BC;}
	.st25{fill:#467BD0;}
	.st26{fill:#FEE6B2;}
	.st27{fill:#FEBB7F;}
	.st28{fill:#FED584;}
	.st29{fill:#FEE5AE;}
	.st30{fill:#FE932D;}
	.st31{fill:#1163EF;}
	.st32{fill:#FAFBEC;}
	.st33{fill:#95F80D;}
	.st34{fill:#1967E9;}
	.st35{fill:#F9F2CA;}
	.st36{fill:#1D68E5;}
	.st37{fill:#FEC52A;}
	.st38{fill:#FE982E;}
	.st39{fill:#FEDE90;}
	.st40{fill:#FEE8B4;}
	.st41{fill:#FEC993;}
	.st42{fill:#FEE5A6;}
	.st43{fill:#FEEAB8;}
	.st44{fill:#FEE3A2;}
	.st45{fill:#FEE4A5;}
	.st46{fill:#FEF0CD;}
	.st47{fill:#FEDB87;}
	.st48{fill:#1164EE;}
	.st49{fill:#FBF9E7;}
	.st50{fill:#FEC22B;}
	.st51{fill:#FEC184;}
	.st52{fill:#FEBD7B;}
	.st53{fill:#FEDE8C;}
	.st54{fill:#FEE29A;}
	.st55{fill:#FEDC86;}
	.st56{fill:#FEE7AC;}
	.st57{fill:#FEF0CC;}
	.st58{fill:#FEE4A1;}
	.st59{fill:#FEE8B0;}
	.st60{fill:#FECE9C;}
	.st61{fill:#0C62F2;}
	.st62{fill:#FBFAEB;}
</style>
<g>
	<path class="st50" d="M260.5,235.1c-2.4-3-5.7-5-8.9-7c-8.2-5.3-14.2-12.4-19.4-20.6c-3.7-5.9-8.7-10.9-14.9-14.5
		c-4.8-2.7-10.1-3.5-15.3-2.4c-4.3,0.9-7.1,4.5-10.1,7.6c-3.4,3.5-5.9,8-10.4,10.2c-3.1,1.5-6.2,2.8-9.7,0.7
		c-2.3-1.4-3.3-3.3-3.3-5.8c-0.5-4.7,1.6-8.4,4.7-11.8c1.2-1.3,2.9-2.5,3.1-4.5c1.7-1.6,2.5-3.6,2-6.2c-1.8,1-3.6,1.7-4.9,3.1
		c-5.4,2.1-10.5,4.7-16.2,6.1c-3.7,0.5-7.4,0.4-11-1c-3.6-1.4-6.1-3.6-7.6-7.2c8.4-2.5,13.4-9.3,13.2-17.8c-0.1-2.4-1.3-4.1-3.5-5
		c-0.8-0.3-1.8-0.1-2.5-0.7c8-3,14.8-7.7,20.3-14.4c4.4-5.4,10-9.4,16.6-11.9c0.6,0.2,1,0,1.4-0.5c1-0.2,2-0.5,2.9-0.7
		c0.5,0.3,0.9,0.2,1.3-0.3c0.8-0.1,1.7-0.2,2.5-0.3c1.3,0.4,2.7,0.5,4-0.1c0.9,0.1,1.8,0.2,2.7,0.3c0.3,0.4,0.6,0.7,1.1,0.6
		c3.4,1.4,6.6,2.1,10.4,0.8c2.6-0.9,6-0.7,8.9,0.1c4.5,1.1,7.6,4.2,9.8,8.1c1.5,2.8,3.2,5.5,3.9,8.6c0.2,0.7,0.2,1.6,1.1,2
		c4.5,2,9,4.3,14,4.9c6,0.8,10.6-2.7,15.3-5.3c10.3-5.6,20.8-7,32.4-4c8.4,2.2,16.8,4.7,25.7,5.1c7.1,0.3,14.3,1,21.5,1.9
		c1.9,0.2,3.8,0.1,5.7,0.1c0.3,0.4,0.7,0.5,1.2,0.2c5.9,0.4,11.8,0.6,17.8,0c0.4,0.3,0.8,0.2,1.2-0.1c1.6,0,3.3,0,4.9,0
		c0.9-0.1,1.9,0.2,2.7-0.6c3-0.1,6.1-0.2,9.1-0.3c0.6,0.4,1.2,0.3,1.8-0.2c3.4-0.5,6.9-0.6,10.3-1.5c6.1-1.7,12.4-2.2,18.6-2.9
		c8.4-0.9,16.3,1.3,24.4,3c11,2.4,20.9,7.1,30.1,13.3c4.3,2.9,9.2,4.1,14.4,4c5.8-0.1,11.6,1,16.9,3.1c5.1,2.1,8.9,6.3,10.1,12
		c0.6,2.7-0.7,5-3.3,6.1c-4.1,1.8-8.3,2.1-12.7,0.9c-4-1.1-8-2.3-12.3-2.1c-1.4,0.1-2.4,0.4-2.8,2c-1.3,5.3-4,10.1-6.7,14.8
		c-2.5,4.5-5.3,8.9-8.2,13.2c-2.7,4,0.1,9,4.2,9c2.6,0,5.2,0.3,7.9-0.2c1.3,0.5,2.6,0.6,3.8-0.1c3.8-1.1,7.6-2.1,11.2-4
		c5.7-2.9,10.8-2.6,13.2,4.5c1.3,3.9,1.9,7.9,2.3,12c0.9,8.2,2.8,16.3,4.7,24.4c1.7,7.3,5.2,13.5,11,18.3c2,1.7,4,3.5,6.1,5
		c4.4,3.1,6.5,7.7,8.4,12.5c1.8,4.5-0.1,8-4.8,9.6c-6.6,2.3-12.6,1.6-17.6-3.9c-4.8-5.2-10.2-9.8-14.2-15.7
		c-2.1-3.2-3.5-6.6-4.7-10.3c-1.7-5.2-4.1-10-8.5-13.6c-4.8-5.6-11.1-8.2-18.3-8.8c-8.8-0.7-17.6-1.4-26.3-2.8
		c-8.2-1.3-16.1-3.5-22.7-8.8c-4.1-3.3-7.3-7.1-8.1-12.7c-0.8-5-1.9-9.9-3.6-14.7c-0.5-1.4-1.2-2-2.7-2c-3.3,0.1-6.4,0.8-9.5,1.8
		c-7.9,1.9-14.9,5.6-21.7,9.9c-4,2.6-8.2,4.8-12.5,6.5c-7.2,2.9-14.5,5.8-22.1,7.3c-2.5,0.5-5.2,0.5-7.7,1.2
		c-0.9,0.3-0.9,0.4-0.8,1.4c0.6,4.5,0.7,9.1,1.4,13.7c0.7,4.6,1.6,9.2,3,13.8c1.7,5.6,3.2,11.3,4.8,17c0.3,1,0.3,2.1,0.4,3.2
		c0,0.5,0.1,0.9,0.5,1.2c0.1,0.5,0.2,1,0.2,1.5c-0.3,0.5-0.2,0.9,0.3,1.3c0.1,0.5,0.2,1,0.3,1.4c-0.3,0.5-0.2,0.9,0.3,1.3
		c0.1,0.9,0.2,1.8,0.3,2.7c-0.6,1.5-0.4,3-0.1,4.5c-0.1,1.2-0.2,2.4-0.3,3.6c-0.4,0.3-0.7,0.6-0.6,1.1c0,3.3-1.2,6.2-3.1,8.8
		c-5,7.1-8.4,15-10.7,23.3c-1.1,3.8-4,4.8-7.2,5.5c-0.8,0.2-1.6,0.3-2.4,0.4c-0.4-0.3-0.8-0.2-1.1,0.2c-0.9,0-1.8,0-2.7,0
		c-0.7-0.5-1.4-0.5-2.2,0c-4.1-0.5-8,0.9-12,1.4c-3.5,0.4-6.7,0-9.6-1.7c-2.1-1.2-3.3-3.1-3-5.7c0.4-3.8,1.8-7.1,5.1-9.5
		c4.3-3,8.7-5.8,13-8.8c4.6-3.2,6.5-7,6.5-12.2c0.9-0.3,1.1-0.9,0.6-1.7c1-5.1-0.2-9.9-2.4-14.5c-1.2-2.5-2.3-5-2.9-7.6
		c-1.6-7.7-4.9-14.6-9.2-21c-2.2-3.3-3.1-7.1-4.2-10.8c-0.3-3.1-1.8-5.8-2.9-8.7c-0.5-1.3-1.6-1.6-2.8-1.7c-7.6-0.8-14.5-3.4-21.2-7
		C265.7,237.6,263.4,235.8,260.5,235.1z M231.5,176.8c1.6,0.2,3.5-0.9,5.4-1.6c6.6-2.5,8.7-10.5,4-15.8c-1.1-1.2-2.5-3.4-4.1-1.9
		c-1.5,1.4,0.5,2.8,1.5,4c2.6,3.1,2.6,5.9-0.3,8.9c-2.7,2.9-9.6,3.7-13.2,1.4c-5.3-3.5-9-8.3-10.3-14.7c-0.6-2.8-1.3-5.6-2.3-8.3
		c-0.9-2.2-2.1-4.2-3.9-5.8c-0.6-0.5-1.4-0.8-2-0.3c-0.7,0.7,0.2,1.1,0.5,1.5c1.3,2,2.1,4.2,2.8,6.4c1.7,5.3,1.8,11,5.2,15.9
		C218.7,172.3,223.5,176.5,231.5,176.8z M178.7,152.8c2.3,0.2,3-1.2,3.2-3.1c0.1-1.6-0.9-1.9-2.3-1.8c-2.1,0-3.5,1.2-3.8,3.1
		C175.7,152.5,177.3,153,178.7,152.8z"/>
	<path class="st1" d="M396.8,217.8c3.1-0.9,6.3-1.6,9.5-1.8c1.5-0.1,2.2,0.5,2.7,2c1.7,4.8,2.9,9.7,3.6,14.7c0.9,5.6,4,9.4,8.1,12.7
		c6.6,5.4,14.5,7.5,22.7,8.8c8.7,1.4,17.5,2.1,26.3,2.8c7.2,0.6,13.5,3.2,18.3,8.8c-0.5,3.1-2.4,5.9-2.3,9.2
		c-0.3,0.4-0.5,0.8-0.1,1.2c-0.6,3.4-0.1,6.7,0.4,10c0.7,3.9,1.9,7.8,1.8,11.7c-0.2,7.2,0.3,14.8-6.6,20c-2.8,2.1-4.6,5.3-6.2,8.5
		c-2.3,4.4-5.8,7.9-9.3,11.3c-1.8,1.7-4.4,2.3-6.7,2.5c-5.4,0.6-10.9,1.2-16.4,0.2c-4.7-0.8-7.9-6.8-5.5-10.7
		c2.6-4.2,5.6-7.8,9.7-10.4c3.4-2.2,6.8-4.5,10.2-6.8c1.6-1.1,3.3-2.3,4.1-4.2c0.4-0.3,0.8-0.7,0.3-1.2c0-0.6,0.1-1.1,0.1-1.7
		c0.6-1.7,0.4-3.4,0.1-5.1c0.2-5.1,1.5-10.2,1.3-15.3c-0.2-6.5-1.4-12.8-4.9-18.4c-2.6-4.1-5.7-7.2-11.1-7c-1.7,0.1-3.6-0.4-5.2-1.1
		c-4.8-2.1-10.2-1-15.1-2.6c-2.7-0.9-5.3-1.8-7.6-3.4c-8-5.6-14.2-12.7-17.8-21.8C399.6,226.4,397.9,222.2,396.8,217.8z"/>
	<path class="st1" d="M260.5,235.1c2.9,0.7,5.2,2.5,7.7,3.9c6.6,3.6,13.6,6.2,21.2,7c1.3,0.1,2.3,0.5,2.8,1.7
		c1.1,2.8,2.6,5.6,2.9,8.7c-0.9-0.1-1.6,0.3-2.3,0.8c-10.8,7.4-23.3,10.7-35.5,15c-4.6,1.6-9.2,3-13,6.1c-4,3.2-5.4,5.6-3.4,11.2
		c2.2,6.1,3.7,12.3,2.5,19c-1.4,8.2-9.6,17.9-17.7,19.2c-4.1,0.7-8.3-0.4-11.2-4c-3-3.6-2.9-7.7-1.4-11.7c2.3-6,4.3-12,4.7-18.5
		c1.7-2.1,0.8-4.5,0.7-6.8c0.1-1,0.1-2.1,0.2-3.1c0.5-0.3,0.6-0.7,0.1-1.1c0.9-4.8,2.2-9.2,6.4-12.4c4.7-3.6,9.5-7.1,13.6-11.3
		C246.4,251.2,255,244.5,260.5,235.1z"/>
	<path class="st16" d="M145.8,158.2c0.7,0.7,1.7,0.4,2.5,0.7c2.2,0.9,3.4,2.6,3.5,5c0.2,8.5-4.8,15.3-13.2,17.8
		c-5.4-2.7-6.9-7.7-6.9-13c0-2.8,2.4-5.1,4.9-6.7C139.6,160.3,142.7,159.2,145.8,158.2z"/>
	<path class="st33" d="M157.2,190c5.6-1.4,10.8-4,16.2-6.1c1.2,0.8,2.1,1.9,3,3c-0.3,2-1.9,3.2-3.1,4.5c-3.1,3.4-5.2,7-4.7,11.8
		C160.1,202.3,157.3,199,157.2,190z"/>
	<path class="st51" d="M218.6,286.7c0.1,2.3,1,4.7-0.7,6.8C218.3,291.2,217.3,288.9,218.6,286.7z"/>
	<path class="st52" d="M461.7,300.3c0.3,1.7,0.5,3.4-0.1,5.1C460.7,303.7,460.7,302,461.7,300.3z"/>
	<path class="st53" d="M343.4,305.6c-0.3-1.5-0.5-3,0.1-4.5C344.3,302.6,344.4,304.1,343.4,305.6z"/>
	<path class="st54" d="M481,226.9c-1.3,0.7-2.5,0.6-3.8,0.1C478.4,226.1,479.7,226.3,481,226.9z"/>
	<path class="st55" d="M194.9,130.1c-1.3,0.6-2.7,0.4-4,0.1C192.2,129.2,193.5,129.2,194.9,130.1z"/>
	<path class="st56" d="M375.3,152.8c-0.8,0.7-1.8,0.5-2.7,0.6C373.2,151.9,374.2,152.2,375.3,152.8z"/>
	<path class="st57" d="M313.1,348.5c0.7-0.5,1.4-0.5,2.2,0C314.6,349.2,313.9,349.2,313.1,348.5z"/>
	<path class="st56" d="M386.2,152.3c-0.5,0.5-1.1,0.5-1.8,0.2C384.9,151.8,385.5,151.5,386.2,152.3z"/>
	<path class="st58" d="M313.8,310.3c0.5,0.8,0.3,1.4-0.6,1.7C313.2,311.4,313.1,310.7,313.8,310.3z"/>
	<path class="st59" d="M348.7,153.5c-0.5,0.3-0.9,0.2-1.2-0.2C348,152.7,348.3,153,348.7,153.5z"/>
	<path class="st59" d="M367.6,153.4c-0.4,0.3-0.8,0.4-1.2,0.1C366.8,153,367.1,152.7,367.6,153.4z"/>
	<path class="st55" d="M184.1,131.4c-0.4,0.5-0.8,0.7-1.4,0.5C183,131.3,183.5,131.1,184.1,131.4z"/>
	<path class="st60" d="M485.8,276.1c-0.3-0.5-0.2-0.9,0.1-1.2C486.5,275.4,486.2,275.8,485.8,276.1z"/>
	<path class="st51" d="M218.9,282.5c0.5,0.4,0.4,0.8-0.1,1.1C218.4,283.2,218.5,282.9,218.9,282.5z"/>
	<path class="st55" d="M198.7,131c-0.6,0.2-0.9-0.2-1.1-0.6C198.4,129.8,198.5,130.5,198.7,131z"/>
	<path class="st53" d="M342.1,292.9c-0.5-0.3-0.5-0.7-0.5-1.2C342.2,291.9,342.6,292.2,342.1,292.9z"/>
	<path class="st53" d="M342.6,295.6c-0.5-0.3-0.6-0.8-0.3-1.3C342.8,294.7,343.2,295,342.6,295.6z"/>
	<path class="st53" d="M343.2,298.3c-0.4-0.3-0.6-0.8-0.3-1.3C343.3,297.4,343.7,297.8,343.2,298.3z"/>
	<path class="st55" d="M188.3,130.4c-0.4,0.5-0.8,0.6-1.3,0.3C187.4,130.3,187.8,129.9,188.3,130.4z"/>
	<path class="st52" d="M461.5,307.1c0.6,0.5,0.2,0.9-0.3,1.2C461,307.8,461.1,307.4,461.5,307.1z"/>
	<path class="st53" d="M342.6,310.3c-0.1-0.5,0.2-0.8,0.6-1.1C343.8,310.1,343,310.1,342.6,310.3z"/>
	<path class="st57" d="M318.1,348.5c0.3-0.4,0.7-0.4,1.1-0.2C318.9,348.9,318.5,349.2,318.1,348.5z"/>
	<path class="st4" d="M231.5,176.8c-8-0.3-12.8-4.5-16.8-10.3c-3.3-4.8-3.4-10.6-5.2-15.9c-0.7-2.2-1.6-4.4-2.8-6.4
		c-0.3-0.5-1.2-0.9-0.5-1.5c0.6-0.5,1.4-0.2,2,0.3c1.8,1.6,3.1,3.6,3.9,5.8c1,2.7,1.8,5.5,2.3,8.3c1.3,6.4,5,11.2,10.3,14.7
		c3.6,2.4,10.5,1.5,13.2-1.4c2.8-3,2.9-5.7,0.3-8.9c-1-1.2-3-2.7-1.5-4c1.7-1.5,3.1,0.7,4.1,1.9c4.7,5.2,2.6,13.2-4,15.8
		C235,176,233.1,177,231.5,176.8z"/>
	<path class="st61" d="M178.7,152.8c-1.5,0.1-3-0.3-2.8-1.9c0.2-1.8,1.6-3,3.8-3.1c1.4,0,2.4,0.2,2.3,1.8
		C181.8,151.6,181,153,178.7,152.8z"/>
	<path class="st62" d="M176.4,186.9c-0.9-1.1-1.8-2.2-3-3c1.4-1.4,3.2-2.2,4.9-3.1C178.9,183.3,178.1,185.2,176.4,186.9z"/>
</g>
</svg>
