<svg id="Layer_1" data-name="Layer 1" xmlns="http://www.w3.org/2000/svg" viewBox="0 0 154.71 154.7"><defs><style>.cls-1{fill:#f9fd9a;}.cls-2{fill:#92fa08;}</style></defs><path class="cls-1" d="M72,.92c.38-1.26,1.45-.86,2.28-.87,24.17-.38,44.68,8.1,60.91,26,11.05,12.19,17.25,26.74,19.06,43.2a75.29,75.29,0,0,1-8.66,44.56,75.22,75.22,0,0,1-36.12,33.91A76.27,76.27,0,0,1,82,154.55c-20.06,1.15-37.81-4.71-53.44-17.15A75.06,75.06,0,0,1,4.83,104.22,74.4,74.4,0,0,1,1.07,65.27,66,66,0,0,1,3.17,56c.2-.64.15-1.52,1.11-1.68.07.37.13.74.19,1.1A1.75,1.75,0,0,0,4,57.13a2.6,2.6,0,0,0-.57,2.14,2.92,2.92,0,0,0-.55,2.18c-.22.32-.55.62-.22,1.12l.2-1.15c.91-.54.19-1.49.54-2.17.93-.52.18-1.48.56-2.15.73-.38.3-1.12.53-1.66,1.14-1,2.23-.23,3.29.14A69.53,69.53,0,0,0,33,59.71,42.38,42.38,0,0,0,72.44,31.1,72,72,0,0,0,76.21,4.39c0-1.21-.49-2.63,1.16-3.47Zm64.29,85.27a54.87,54.87,0,0,1,13.49,1.32c2.84.62,3.31-.55,3.56-2.75a69.32,69.32,0,0,0-.82-20.29c-3.09-16.91-10.74-31.4-23.52-43.1a77.25,77.25,0,0,0-38.19-19c-2.25-.44-2.89,0-2.81,2.32A83.75,83.75,0,0,1,85.85,27C83.4,37.35,79,46.72,71.69,54.5,60.91,66,47.28,71.05,31.8,71.45a80.59,80.59,0,0,1-27.22-4.4c-2.29-.75-2.8,0-3.06,2.15a63.92,63.92,0,0,0,.67,20.57c6.3,31.9,25,52.52,56.36,61.55,4.85,1.4,4.8,1.25,5.55-3.82,2.23-15.14,8.45-28.44,19.15-39.41C97.73,93.24,115.72,86.52,136.27,86.19ZM80,153.69l0,.14c3.77-.46,7.6-.64,11.31-1.42,28.33-6,47.56-22.65,57.93-49.65.91-2.38.34-3.25-2.15-3.46-5.58-.48-11.11-1.11-16.77-.63a59.26,59.26,0,0,0-35.59,15.16c-11.18,10.06-17.18,22.88-19.05,37.72-.19,1.55.26,2.24,1.85,2.15C78.4,153.65,79.22,153.69,80,153.69Z"/><path class="cls-2" d="M72,.92h5.39c-1.65.84-1.2,2.26-1.16,3.47A72,72,0,0,1,72.44,31.1,42.38,42.38,0,0,1,33,59.71a69.53,69.53,0,0,1-25.3-4.13c-1.06-.37-2.15-1.11-3.29-.14l0,0c-.06-.36-.12-.73-.19-1.1.11-.37.22-.73.32-1.09a40.21,40.21,0,0,0,3-7.61c.18-.45.37-.9.56-1.35a3.16,3.16,0,0,0,1.24-2.37c.27-.49.54-1,.8-1.49a3.05,3.05,0,0,0,1.34-2.34l.86-1.45a1.22,1.22,0,0,0,.81-1.25,1,1,0,0,0,.26-.39,1.24,1.24,0,0,0,.84-1.22L16,31.53a2.84,2.84,0,0,0,1.62-2.09l1-1.26a2.61,2.61,0,0,0,1.71-2l6-6a2.06,2.06,0,0,0,1.71-1.47l1.55-1.26a2.69,2.69,0,0,0,1.69-.76,74.52,74.52,0,0,1,20.37-11c3.45-1.23,7-2.23,10.49-3.33l5.5-.73c1.1,0,2.23.21,3.18-.58Z"/><path class="cls-1" d="M62.17,2.31c-3.5,1.1-7,2.1-10.49,3.33a74.52,74.52,0,0,0-20.37,11,2.69,2.69,0,0,1-1.69.76c-.14-.75.31-1.16.85-1.55a83.07,83.07,0,0,1,30.07-14C61.18,1.77,61.78,1.53,62.17,2.31Z"/><path class="cls-1" d="M7.62,45.66a40.21,40.21,0,0,1-3,7.61A9.67,9.67,0,0,1,7.62,45.66Z"/><path class="cls-1" d="M70.85,1c-.95.79-2.08.58-3.18.58C68.45-.18,69.67.51,70.85,1Z"/><path class="cls-1" d="M20.33,26.19a2.61,2.61,0,0,1-1.71,2C18.62,27,18.93,26.14,20.33,26.19Z"/><path class="cls-1" d="M17.59,29.44A2.84,2.84,0,0,1,16,31.53C15.88,30.35,16.15,29.44,17.59,29.44Z"/><path class="cls-1" d="M11.56,38.11a3.05,3.05,0,0,1-1.34,2.34C10,39.26,10.24,38.39,11.56,38.11Z"/><path class="cls-1" d="M9.42,41.94a3.16,3.16,0,0,1-1.24,2.37C7.75,43.08,8,42.22,9.42,41.94Z"/><path class="cls-1" d="M28.07,18.7a2.06,2.06,0,0,1-1.71,1.47C26.35,19,26.86,18.45,28.07,18.7Z"/><path class="cls-1" d="M14.33,33.8A1.24,1.24,0,0,1,13.49,35C13.17,34.2,13.45,33.79,14.33,33.8Z"/><path class="cls-1" d="M13.23,35.41a1.22,1.22,0,0,1-.81,1.25C12.08,35.85,12.35,35.43,13.23,35.41Z"/><path class="cls-2" d="M136.27,86.19c-20.55.33-38.54,7-53,21.9-10.7,11-16.92,24.27-19.15,39.41-.75,5.07-.7,5.22-5.55,3.82-31.31-9-50.06-29.65-56.36-61.55A63.92,63.92,0,0,1,1.52,69.2c.26-2.1.77-2.9,3.06-2.15a80.59,80.59,0,0,0,27.22,4.4c15.48-.4,29.11-5.49,39.89-17C79,46.72,83.4,37.35,85.85,27A83.75,83.75,0,0,0,88,4.67c-.08-2.27.56-2.76,2.81-2.32a77.25,77.25,0,0,1,38.19,19c12.78,11.7,20.43,26.19,23.52,43.1a69.32,69.32,0,0,1,.82,20.29c-.25,2.2-.72,3.37-3.56,2.75A54.87,54.87,0,0,0,136.27,86.19Z"/><path class="cls-2" d="M80,153.69c-.81,0-1.63,0-2.44,0-1.59.09-2-.6-1.85-2.15,1.87-14.84,7.87-27.66,19.05-37.72a59.26,59.26,0,0,1,35.59-15.16c5.66-.48,11.19.15,16.77.63,2.49.21,3.06,1.08,2.15,3.46-10.37,27-29.6,43.66-57.93,49.65-3.71.78-7.54,1-11.31,1.42Z"/><path class="cls-2" d="M3.38,59.27A2.6,2.6,0,0,1,4,57.13l0,0c-.38.67.37,1.63-.56,2.15Z"/><path class="cls-2" d="M2.83,61.45a2.92,2.92,0,0,1,.55-2.18l0,0c-.35.68.37,1.63-.54,2.17Z"/><path class="cls-2" d="M4.44,55.44c-.23.54.2,1.28-.53,1.66l0,0a1.75,1.75,0,0,1,.52-1.67Z"/><path class="cls-2" d="M2.81,61.42l-.2,1.15c-.33-.5,0-.8.22-1.12Z"/></svg>