<svg id="Layer_1" data-name="Layer 1" xmlns="http://www.w3.org/2000/svg" viewBox="0 0 670.47 444.58"><defs><style>.cls-1{fill:#fec22b;}.cls-2{fill:#fe962c;}.cls-3{fill:#0c62f5;}.cls-4{fill:#fe972d;}.cls-5{fill:#fed05c;}.cls-6{fill:#fedb83;}.cls-7{fill:#fee6a9;}.cls-8{fill:#fed46c;}.cls-9{fill:#fee4a4;}.cls-10{fill:#fee8b1;}.cls-11{fill:#fed9b3;}.cls-12{fill:#feda7e;}.cls-13{fill:#fedf9e;}.cls-14{fill:#fedf93;}.cls-15{fill:#fee7ae;}.cls-16{fill:#0d62f2;}</style></defs><path class="cls-1" d="M324.9,325.56l.33-2.6a5.33,5.33,0,0,0,0-4.9c0-2.91-1.45-5.42-2.35-8.06-1.9-5.62-1.07-10.46,3.11-14.81a74.35,74.35,0,0,1,6.29-6.39,26.51,26.51,0,0,0,7.22-9.43c1.5-3.23,3.74-6,5.55-9.05,5.9-9.92,10.42-20.53,15.42-30.91.83-1.71,1.59-3.47,2.55-5.11s.34-2.73-1.15-3.17c-9.89-2.94-16.8-10.12-24.25-16.62A46.35,46.35,0,0,1,328.28,204c-2.63-4.25-6.36-7.67-9.58-11.49.63-2.68-2-2.2-3.1-3.23-5.45-5.1-12.13-8.09-18.79-11.18-1.91-.88-4.27-.68-5.78-2.11s-2.51-.86-3.71.41c-3.9,4.17-8,8.11-13.06,10.92-5.5,3.05-9.48,8.05-14.7,11.51-1.61,1.06-4,1.48-4.53,3.88-3.87,3.23-7.2,7-11.68,9.64a44.68,44.68,0,0,1-29,5.86c-1.77-.21-3.43-1.55-5.09-2.45-4.29-2.34-8.22-5.31-12.67-7.39-.11-.41-.13-1.13-.36-1.21-4.28-1.44-7.43-4.7-11.2-7-1.66-1-4-1.66-4.56-3.63s-1.53-1.84-2.92-1.13c-5.55-3.27-11.22-6.35-16.59-9.88a7.87,7.87,0,0,0-8.41-.61c-4.05,1.89-7.53,4.7-11.37,6.92-13.05,7.55-25.13,16.6-38,24.44a40.55,40.55,0,0,1-24.87,5.9c-.31-.45-.67-.58-1.08-.12-2.87.14-5.43-1.06-7.92-2.17-8-3.57-15.07-8.23-18.47-16.88-.81-2,.69-7,2.81-8.46,2.95-2,6.1-3.47,9.79-3.5,1.7,0,3.4-.28,5.1-.43a15,15,0,0,0,7.57,0c10,1.66,19.13.37,28.11-5.22,16.45-10.27,30.76-23,44.89-36.06A87.27,87.27,0,0,1,160.23,141a5.86,5.86,0,0,1,7.88,1.2c3.64,4.28,7.06,8.74,10.61,13.09A25.93,25.93,0,0,0,189,163c2.72,1.15,5.6,1.94,8.42,2.86a3.8,3.8,0,0,0,2.4-.07,29.79,29.79,0,0,0,15.51-11.73c.76-1.11.75-2.37,1-3.59,2.11-8.26,5.6-15.76,12.14-21.54.4-.36.75-.78,1.12-1.18,1.45-1.56,1.48-2.43-.88-3.26a37.89,37.89,0,0,1-16.17-11.65,15,15,0,0,1-3.48-9.82c-.05-3.86,2.38-6.06,6.25-5.69,4.51.44,8.56,2.32,12.57,4.26,5,2.41,9.93,4.88,14.94,7.25a6.2,6.2,0,0,0,6.05-.17,29.3,29.3,0,0,1,15.81-3.15,1.44,1.44,0,0,0,1.75.2l9.7.31a.8.8,0,0,0,1.2.18l2.61.37a1.05,1.05,0,0,0,1.12.52c7.67.83,15.34,1.58,22.93,3.07,5.45,1.07,11,1.65,16.43,2.9,11,2.53,21.87,5.65,32.16,10.43a39.24,39.24,0,0,1,5.08,2.61,135.82,135.82,0,0,0,26.52,13.13,25.35,25.35,0,0,1,6.91,3.76c5,4,11,4.95,17,5.93,1.68.27,3.69-.7,5.38-1.47,3.69-1.68,7.48-3,11.3-4.37a26.24,26.24,0,0,1,16-.45,21.67,21.67,0,0,0,2.13.42.87.87,0,0,0,1.26.28c6.26,2,12.78,3.13,18.9,5.65,2.88,1.19,5.39,3,8.15,4.34,8.14,4,16.41,3.74,24.72.82a15.1,15.1,0,0,1,5.75-1.23c1.76.08,2.53-.37,1.73-2.39-1.21-3-2.1-6.17-3.18-9.25-1-2.83-2.46-5.28-5.55-6.26-.3-.49-.64-.66-1.09-.16-3.24-.13-6.48.14-9.73-.35-8.66-1.3-11.17-8.74-9.53-15.54,1.39-5.77,4.8-8.81,9.89-9.2a1.19,1.19,0,0,0,1.19-.47l2.74-.39a6.87,6.87,0,0,0,4.87,0,32,32,0,0,1,7.64.33.91.91,0,0,0,1.29.3l4.71,1.34a1.18,1.18,0,0,0,1.09.58c9.22,3.79,17,9.14,20.49,19.09,1.23,3.48,2.48,7,4.71,10,.91,1.22,2,2.83,3.66,2.17,4.46-1.76,9.21-1.5,13.77-2.45l6.43,0a1.2,1.2,0,0,0,1.17.47,27.09,27.09,0,0,1,13.5,5c4.86,3.58,10,6.89,13.69,11.82,2.33,3.09,2.5,7.12,4.8,10.26,1.81,2.47,3.66,4.43,6.78,5.29a35.23,35.23,0,0,1,10.27,4.83c-2.79,1.43-4.83,3.48-5,6.78s0,6.34,0,9.51c0,2.72.08,5.38,1.84,7.65.62.79.19,1.41-.3,1.92-4.9,5.13-9.85,10-17.59,10.67-5.21.43-9.77-2.07-11.69-6.93a19.23,19.23,0,0,1-1.26-6,3.74,3.74,0,0,0-2.68,3.89c0,5.15,2.67,8.59,7,11,1.1.6,2.24,1.14,3.35,1.71-4.62,2-9,.84-13.41-.87-8.85-3.4-17.75-6.76-27.46-6.71-1.8,0-3.51-.84-5.34-.56-.63-1.38-1.67-1.1-2.75-.66a59.76,59.76,0,0,0-12.4,0,.82.82,0,0,0-1.22.21l-1.51.25a1.41,1.41,0,0,0-1.84.72c-5.7.65-11.51.3-17.08,2.22a15.17,15.17,0,0,0-6.58,4c-6.32,6.89-12.95,13.43-20.9,18.46-.08-.81,0-1.71-1.25-1.67a1.91,1.91,0,0,0-1.81,1.74c-.55,2.83-2.54,4-5,4.66q-8.59,2.4-17.16,4.86c-5.39,1.55-10.74,3.91-16.62,2.55-.57-.13-.63.51-.74.94a114.35,114.35,0,0,1-15.9-1.25c-1.75-.21-3.41-1.14-5.1-1.74a5.08,5.08,0,0,0-5.93,1.31c-5.82,6.11-11.6,12.25-17.93,17.86-3,2.66-4.84,6.35-6.95,9.72-6,9.61-14,17.8-19.42,27.88-2.82,5.27-4.64,10.72-4.48,16.73a13.4,13.4,0,0,0,5,10.69c5,4,7,9.83,9.06,15.53a5.87,5.87,0,0,1-4,7.54c-1.37-.26-2.73-.54-4,.19l-2.78-.05a2.83,2.83,0,0,0-3.24.16c-3.86-.58-7.76-.33-11.64-.38-2.73,0-4.29-2.16-6.23-3.57-1.39-1-2.57-2.33-4-3.22-3.69-2.25-5.08-5.76-5.42-9.75-.22-2.52,0-5.07,0-7.61A2.85,2.85,0,0,0,324.9,325.56Zm253.8-164c-.24-.83.78-2.3-.94-2.58-1-.16-2.27-.54-2.92.74a18.45,18.45,0,0,0-1.57,3.73c-.41,1.61.26,2.55,2.1,2.59C577.82,166.08,578.68,165,578.7,161.55Z"/><path class="cls-2" d="M427.68,248.37c.11-.43.17-1.07.74-.94,5.88,1.36,11.23-1,16.62-2.55q8.56-2.46,17.16-4.86c2.49-.7,4.48-1.83,5-4.66a1.91,1.91,0,0,1,1.81-1.74c1.21,0,1.17.86,1.25,1.67-2.28,4.11-.42,7.07,2.11,10.46,5,6.75,11.78,11.4,18.09,16.71,11.51,9.68,23.32,19.11,33.12,30.67a59.5,59.5,0,0,0,6.69,6.78A19,19,0,0,0,545,304.58c11.59-1.09,23.12-3.34,34.88-2.05,5.59.62,10.61,4.37,12.13,9.78a9.92,9.92,0,0,1-2.28,9.43c-5.41,6.14-11.88,10.23-20.5,10.69-6,.31-11-1.58-15.89-4.48a46.44,46.44,0,0,0-24-6.17,17.38,17.38,0,0,1-12.53-4.95c-6.31-6-12.07-12.61-19.25-17.65-9.51-6.67-18.83-13.58-29.85-17.8a50.39,50.39,0,0,1-16.86-11.32,97.42,97.42,0,0,0-8.44-6.88C436.89,258.85,432.34,253.57,427.68,248.37Z"/><path class="cls-2" d="M177.59,195.44c1.39-.71,2.29-1,2.92,1.13s2.9,2.63,4.56,3.63c3.77,2.26,6.92,5.52,11.2,7,.23.08.25.8.36,1.21a11.36,11.36,0,0,1-1.81,1.61c-9.91,5.72-18.51,13.41-28.63,18.83-3.12,1.67-6.16,3-9.76,2.74-7.05-.58-14.15.85-21.17-.66-4.44-.95-10.66-6.55-10.1-11.66a8.24,8.24,0,0,1,2.68-5.13,19.31,19.31,0,0,1,14.24-5.73c.59,0,1.23.08,1.7-.45l7.52-.34a.85.85,0,0,0,1.2-.2c8.93-1.53,17.28-4.38,24.08-10.72A12.12,12.12,0,0,0,177.59,195.44Z"/><path class="cls-2" d="M255,202.71c.53-2.4,2.92-2.82,4.53-3.88,5.22-3.46,9.2-8.46,14.7-11.51,5.06-2.81,9.16-6.75,13.06-10.92,1.2-1.27,2.06-2,3.71-.41s3.87,1.23,5.78,2.11c6.66,3.09,13.34,6.08,18.79,11.18,1.09,1,3.73.55,3.1,3.23-8.3,7.1-17.63,12.61-27.33,17.53a53.15,53.15,0,0,1-12.81,4.38c-4.56,1-8.71-1.06-12.53-3.34a82.75,82.75,0,0,0-7.49-4.43A6.28,6.28,0,0,1,255,202.71Z"/><path class="cls-3" d="M580.78,218.26c-1.11-.57-2.25-1.11-3.35-1.71-4.33-2.37-7-5.81-7-11a3.74,3.74,0,0,1,2.68-3.89,19.23,19.23,0,0,0,1.26,6c1.92,4.86,6.48,7.36,11.69,6.93,7.74-.65,12.69-5.54,17.59-10.67.49-.51.92-1.13.3-1.92-1.76-2.27-1.88-4.93-1.84-7.65,0-3.17-.09-6.34,0-9.51s2.17-5.35,5-6.78c3.82-1.4,12,1.38,13.76,4.47a9.18,9.18,0,0,1,.1,8.82C618.13,197,614.1,201.51,608.1,204a2.15,2.15,0,0,0-1.17,1c-4.3,7.36-10.93,11.65-19,13.83A13.45,13.45,0,0,1,580.78,218.26Z"/><path class="cls-4" d="M550.47,140.31c-4.56.95-9.31.69-13.77,2.45-1.66.66-2.75-.95-3.66-2.17-2.23-3-3.48-6.53-4.71-10-3.52-10-11.27-15.3-20.49-19.09l.06-1c4.5-3.66,12.36-2.83,17.7,1.69,4.31,3.64,8.37,7.49,10.64,12.83a19.58,19.58,0,0,0,9.58,10A9.35,9.35,0,0,1,550.47,140.31Z"/><path class="cls-5" d="M76.17,190.66a15,15,0,0,1-7.57,0A13.45,13.45,0,0,1,76.17,190.66Z"/><path class="cls-6" d="M493.11,108.94a6.87,6.87,0,0,1-4.87,0A4.94,4.94,0,0,1,493.11,108.94Z"/><path class="cls-7" d="M325.23,318.06a5.33,5.33,0,0,1,0,4.9A6.14,6.14,0,0,1,325.23,318.06Z"/><path class="cls-8" d="M358,352.83c1.31-.73,2.67-.45,4-.19A3.51,3.51,0,0,1,358,352.83Z"/><path class="cls-8" d="M352,352.94a2.83,2.83,0,0,1,3.24-.16A2.85,2.85,0,0,1,352,352.94Z"/><path class="cls-9" d="M531.82,209.46c1.08-.44,2.12-.72,2.75.66C533.63,210,532.56,210.42,531.82,209.46Z"/><path class="cls-7" d="M324.9,325.56a2.85,2.85,0,0,1-.21,2.85A2,2,0,0,1,324.9,325.56Z"/><path class="cls-10" d="M266.52,105.71a1.44,1.44,0,0,1-1.75-.2C265.44,104.77,266,104.93,266.52,105.71Z"/><path class="cls-11" d="M143.78,207.92c-.47.53-1.11.41-1.7.45C142.43,207.4,143,207.22,143.78,207.92Z"/><path class="cls-9" d="M514.85,210.6a1.41,1.41,0,0,1,1.84-.72C516.29,210.69,515.57,210.62,514.85,210.6Z"/><path class="cls-10" d="M277.42,106.2a.8.8,0,0,1-1.2-.18C276.73,105.36,277.09,105.7,277.42,106.2Z"/><path class="cls-10" d="M281.15,107.09a1.05,1.05,0,0,1-1.12-.52C280.86,105.79,281,106.54,281.15,107.09Z"/><path class="cls-6" d="M485.5,109.29a1.19,1.19,0,0,1-1.19.47C484.52,109.13,484.81,108.72,485.5,109.29Z"/><path class="cls-6" d="M502,109.57a.91.91,0,0,1-1.29-.3C501.34,108.73,501.7,109.12,502,109.57Z"/><path class="cls-6" d="M507.9,110.51l-.06,1a1.18,1.18,0,0,1-1.09-.58Z"/><path class="cls-12" d="M493.68,134.85c.45-.5.79-.33,1.09.16C494.34,135.41,494,135.32,493.68,134.85Z"/><path class="cls-13" d="M558.07,140.81a1.2,1.2,0,0,1-1.17-.47C557.61,139.69,557.87,140.17,558.07,140.81Z"/><path class="cls-14" d="M444.25,143.33a.87.87,0,0,1-1.26-.28C443.56,142.47,443.91,142.86,444.25,143.33Z"/><path class="cls-11" d="M152.5,207.38a.85.85,0,0,1-1.2.2C151.63,207.1,152,206.75,152.5,207.38Z"/><path class="cls-9" d="M518.2,209.63a.82.82,0,0,1,1.22-.21C519.09,209.91,518.73,210.27,518.2,209.63Z"/><path class="cls-15" d="M77.29,222.09c.41-.46.77-.33,1.08.12C78,222.7,77.6,222.6,77.29,222.09Z"/><path class="cls-16" d="M578.7,161.55c0,3.48-.88,4.53-3.33,4.48-1.84,0-2.51-1-2.1-2.59a18.45,18.45,0,0,1,1.57-3.73c.65-1.28,1.93-.9,2.92-.74C579.48,159.25,578.46,160.72,578.7,161.55Z"/></svg>