<svg id="Layer_1" data-name="Layer 1" xmlns="http://www.w3.org/2000/svg" viewBox="0 0 670.47 444.58"><defs><style>.cls-1{fill:#fec22c;}.cls-2{fill:#fe962c;}.cls-3{fill:#fe962d;}.cls-4{fill:#0d63f4;}.cls-5{fill:#fe982f;}.cls-6{fill:#fedeaf;}.cls-7{fill:#fefaf3;}.cls-8{fill:#1565eb;}</style></defs><path class="cls-1" d="M183.44,187.15c-1.37-4.42-1.07-8.54,2.1-12.2a47.46,47.46,0,0,1,6.51-6.17c1.28-1,1.39-1.77-.27-2.46-1.08-.45-2.1-1.08-3.17-1.56-5.28-2.37-7.72-6.93-9.29-12.1a5.12,5.12,0,0,1,2.76-6.17c3.09-1.37,6.28-2.33,9.77-1.53,8.65,2,17.43,3.21,26.07,5.35a27.32,27.32,0,0,0,15.28-.8c10.94-3.66,22-6.83,33.76-6.39a158.4,158.4,0,0,1,20.23,2.54c11.89,2,23.63,1.87,35.11-2.51,8.72-3.33,17.46-6.69,26.89-7.55a28,28,0,0,1,7.87,0,49.55,49.55,0,0,0,22.9-1.14,154.83,154.83,0,0,1,25.44-4.36c8.75-.88,16.92,1.77,25.18,4.6,17.4,6,34.36,5.93,50-6.32-5.22-2.09-10.1-1.37-14.74.51-5.92,2.41-11.52,1.87-17.08-.86a17.11,17.11,0,0,1-9.07-11.33c-1-3.45,2.5-9.09,6.44-10.69a22.68,22.68,0,0,1,11.45-1.73c1.8.76,3.74.39,5.61.71,4.95.84,9.48,0,13.21-3.6a10.68,10.68,0,0,1,7.83-3.12c11.3.07,21.47,2.69,28.54,12.48.57.8,1.44,1.7,2.48.76s2.56-1.43,3.25-2.81c2.44-.94,4.86-2,7.33-2.8,5.43-1.86,10.62.08,15.75,1.38a56.82,56.82,0,0,1,27.23,16.16,13.2,13.2,0,0,0,7.09,3.75q8.25,1.71,16.48,3.46c-5.17,1.74-7.69,6.83-5.79,12.29A31.84,31.84,0,0,0,596,157.33c1.73,1.44,1.8,2.78.56,4.4-1.72,2.23-3.35,4.54-5.24,6.61-4.72,5.17-10.05,5.93-16.21,2.59-2.48-1.34-3.86-3.17-3.63-6.1a6,6,0,0,0-.6-4,1.89,1.89,0,0,0-1.79-1c-.92.07-1.13.79-1.34,1.5a11,11,0,0,0,5.41,13.21c3.26,1.81,6.83,2.37,10.45,2.79-7.13,2.53-14.2,3.29-21.51.4a52.93,52.93,0,0,0-26.47-3.31c-3,.38-6,.16-9,.37-6.09.45-11.17,3.55-16.32,6.44-6.8,3.83-13.49,7.85-20.68,10.95-4.16,1.8-6,5.28-6.5,9.61a4.31,4.31,0,0,0,1.46,3.66,18.27,18.27,0,0,0,3.9,2.93,3.25,3.25,0,0,0,1.52,1.5,167,167,0,0,1,18.66,10.43,72.09,72.09,0,0,0,13.19,6.93c2.62,1,5.48,1.44,7.78,3.1a12.21,12.21,0,0,0,6.34,2c6.12,3.61,12.9,5.64,19.49,8.08,5.29,2,11.19,1.37,16.54,3a71.43,71.43,0,0,0,20.59,3.21l1.63.28a.79.79,0,0,0,1.08.21h1.07a.8.8,0,0,0,1.08-.22l7.69,0a.86.86,0,0,0,1.06.27c7.24,3.11,8.83,9.08,5.46,16.38-3.87,8.39-10.49,10.4-18.9,10.94-9,.58-17.25-1.42-25.59-4.06-4-1.26-8.12-.78-12.13-.08-3.58.62-7.11,1.45-10.78,1.26A18.88,18.88,0,0,1,532.1,267c-4.44-4-9.71-6.72-15.08-9.17-16.08-7.34-33.07-12-50.12-16.42-3.5-.91-7.14-1.25-10.7-2a11.71,11.71,0,0,1-6.69-3.9c-3-3.42-6.65-6.17-10-9.21-.71-.65-1.4-1.35-2.63-.9-11,4-22.57,5.39-33.78,8.34-12.23,3.21-24.62,3-37,3.44a17.25,17.25,0,0,1-6.93-1.22c-8.62-3.39-17.55-5.85-26.26-9a128.27,128.27,0,0,0-42.38-7.83c-4.54,0-9-.34-13.57-.79-4.27-.42-8.56,1.15-12.92,1.13-1,0-1.43,1-1.95,1.74-6.3,8.89-12.09,18.13-18.74,26.78-1.31,1.71-2.11,3.81-3.25,5.66-8.37,13.49-20.15,22.44-35.51,26.56a200.55,200.55,0,0,1-23.39,5.1c-6.85,1-13.34,3.3-19.8,5.84a23.56,23.56,0,0,0-12.08,10.47c-3.27,5.66-6,11.61-7.24,18.13-.17.89-.21,1.8-.32,2.7-.71,5.62,1.14,9.68,6.31,12.6s9.81,6.85,11.07,13.42c1.11,5.73-.78,9.06-6.51,10.1a57.56,57.56,0,0,1-20.61,0c-8.45-1.54-14.93-11.39-13.12-19.74,1.09-5,.55-9.23-2.75-13.71-5-6.79-3.58-14.25.4-21.27a14.65,14.65,0,0,1,2.18-3.12c5.78-5.76,8.29-13,9.94-20.78,1.92-9,7.13-15.54,16-18.76a22.6,22.6,0,0,0,7.42-2.14c2-.31,4.6.83,5.74-.56a7.14,7.14,0,0,1,4.25-2.46c5.7-1.32,10.43-4.6,15.09-7.79,2.39-1.64,5.3-3.53,5.58-7,.47-5.85,2-11.54,2.5-17.36.29-3.54,2.49-6.87,1.76-10.32a39.13,39.13,0,0,1-.37-12.06c.46-4.54-1.65-8.8-1.18-13.32C185.57,186.86,184.3,187.19,183.44,187.15Zm372.12-67.23c-.32-1.4-.33-3.23-2.42-3.22s-2.62,1.58-2.68,3.34c-.06,1.58.33,3.1,2.15,3.15S555.37,121.82,555.56,119.92Z"/><path class="cls-2" d="M183.44,187.15c.86,0,2.13-.29,2,1.11-.47,4.52,1.64,8.78,1.18,13.32a39.13,39.13,0,0,0,.37,12.06c.73,3.45-1.47,6.78-1.76,10.32-.47,5.82-2,11.51-2.5,17.36-.28,3.47-3.19,5.36-5.58,7-4.66,3.19-9.39,6.47-15.09,7.79a7.14,7.14,0,0,0-4.25,2.46c-1.14,1.39-3.78.25-5.74.56-2.61-.36-5,.56-7.51,1.14-6.91.44-12.29,4-17.11,8.56a247.45,247.45,0,0,0-21.92,23.75,35.52,35.52,0,0,1-25,13.32c-8.47.88-16.82,3-25.42,2.47q-3.8-.22-7.58-.65c-8.52-1-13.51-6.49-17.07-13.62-1.83-3.68-.59-7.61,2.92-10.37a21.6,21.6,0,0,1,9.8-4.48,82,82,0,0,1,15.15-1.47A73.46,73.46,0,0,0,70,276.92,23.12,23.12,0,0,0,81.32,272c6.83-5.41,11.45-12.41,15.71-19.87s9.7-13.5,19.68-12.78c6.65.49,12.77-2.46,19-4.19,9.33-2.58,18.19-6.31,26-12.11a27.21,27.21,0,0,0,8.89-11.44,27.82,27.82,0,0,1,2.76-5,44,44,0,0,0,5.93-12.76,5.31,5.31,0,0,1,2.07-3.34A4.29,4.29,0,0,0,183.44,187.15Z"/><path class="cls-3" d="M536,232.4a12.21,12.21,0,0,1-6.34-2c-2.3-1.66-5.16-2.14-7.78-3.1a72.09,72.09,0,0,1-13.19-6.93A167,167,0,0,0,490,209.9a3.25,3.25,0,0,1-1.52-1.5c1.39-1,3-.56,4.47-.52,16.9.45,33.74-.69,50.56-2.08a58.1,58.1,0,0,0,7.47-1.4c10.65-2.33,20,.25,28.55,6.91a49.48,49.48,0,0,0,21.58,9.85,18.27,18.27,0,0,1,6.31,2.43c3.4,2.11,5.83,5,5.18,9.15-.7,4.38-3,7.95-7.61,9.44a94.24,94.24,0,0,1-12.4,3c-5.57,1.13-10.47-.43-15-3.68-3.08-2.22-6.24-4.33-9.23-6.66a20.41,20.41,0,0,0-14.13-4.57C548.17,230.67,542,230.89,536,232.4Z"/><path class="cls-4" d="M583.61,177.35c-3.62-.42-7.19-1-10.45-2.79a11,11,0,0,1-5.41-13.21c.21-.71.42-1.43,1.34-1.5a1.89,1.89,0,0,1,1.79,1,6,6,0,0,1,.6,4c-.23,2.93,1.15,4.76,3.63,6.1,6.16,3.34,11.49,2.58,16.21-2.59,1.89-2.07,3.52-4.38,5.24-6.61,1.24-1.62,1.17-3-.56-4.4a31.84,31.84,0,0,1-9.44-14.39c-1.9-5.46.62-10.55,5.79-12.29A21,21,0,0,1,605,134.11a8,8,0,0,1,4,8.25c-.78,6.51-3.48,12.17-7.07,17.66-2,3.06-3.54,6.42-5.86,9.32C592.82,173.45,588.9,176.45,583.61,177.35Z"/><path class="cls-5" d="M518.47,108.7c-.69,1.38-2.19,1.84-3.25,2.81s-1.91,0-2.48-.76C505.67,101,495.5,98.34,484.2,98.27a10.68,10.68,0,0,0-7.83,3.12c-3.73,3.63-8.26,4.44-13.21,3.6-1.87-.32-3.81.05-5.61-.71,0-4.29.44-8.66,4.65-10.85,4.41-2.3,9.17-2.63,13.7.19,4.35,2.7,8.46,2.87,12.81-.38,5.5-4.11,15.39-2.11,20,4.07a42.19,42.19,0,0,0,7.87,8.51A5.51,5.51,0,0,1,518.47,108.7Z"/><path class="cls-6" d="M144.55,260.27c2.48-.58,4.9-1.5,7.51-1.14a22.6,22.6,0,0,1-7.42,2.14Z"/><path class="cls-7" d="M595.34,247.22a.79.79,0,0,1-1.08-.21C594.77,246.35,595.09,246.59,595.34,247.22Z"/><path class="cls-7" d="M597.49,247a.8.8,0,0,1-1.08.22C596.66,246.6,597,246.34,597.49,247Z"/><path class="cls-7" d="M606.24,247.23a.86.86,0,0,1-1.06-.27C605.72,246.33,606,246.63,606.24,247.23Z"/><path class="cls-8" d="M555.56,119.92c-.19,1.9-1,3.32-2.95,3.27s-2.21-1.57-2.15-3.15c.06-1.76.61-3.34,2.68-3.34S555.24,118.52,555.56,119.92Z"/></svg>