<svg id="Layer_1" data-name="Layer 1" xmlns="http://www.w3.org/2000/svg" viewBox="0 0 670.47 444.58"><defs><style>.cls-1{fill:#fec22c;}.cls-2{fill:#fe962c;}.cls-3{fill:#0e63f3;}</style></defs><path class="cls-1" d="M334.68,308.23c6.09,5.75,6,13.08-.3,18.38-7.65,6.41-16.5,7.95-26.08,6.07-2.78-.54-4.82-2.48-6.78-4.37-3.79-3.66-7.52-7.37-11.37-11a46.85,46.85,0,0,0-16.49-9.68,176.89,176.89,0,0,0-26.93-7.23c-4.77-.94-8.09-4.77-9.62-9.55a33.45,33.45,0,0,1-1.2-10.51,64.7,64.7,0,0,0-1.7-15.93,11.9,11.9,0,0,0-2.65-5.59,11.3,11.3,0,0,0-4.29-4c-5.78-3.66-12.36-5-18.85-6.4a118.14,118.14,0,0,0-18.08-3c-2.72-.17-5.88.1-8.16-2.33-.74-.78-1.18.37-1.7.76a21.41,21.41,0,0,0-6.16-1c-4.22-.08-7.57-2.83-11.5-3.88-1.19-.32-1.74-1.81-2.21-3-1.22-3.1-3.57-5.44-5.41-8.13a2.53,2.53,0,0,0-3.72-.91c-2.89,1.5-5.9,2.79-8.85,4.18a30.63,30.63,0,0,1-15.32,3.08c-2.55-.17-4.82-.83-6.1-3.35s-.86-5,.82-7.39c1.55-2.16,3.72-3.38,6-4.59a65.73,65.73,0,0,0,17.63-13.44,32.75,32.75,0,0,1,6.38-5.9,3.62,3.62,0,0,0,1.55-1.84c2.15-5.77,6.06-10.52,9.18-15.73a29.25,29.25,0,0,0,2-3.24c4.14-9.56,11.19-16.85,19.36-22.77,8.42-6.1,17.06-12.08,26.89-15.88a185.6,185.6,0,0,1,28.92-8.67,47.51,47.51,0,0,1,13.54-.41,9.06,9.06,0,0,0,1.63.11c11.16-1.06,21.94,2.09,32.92,2.88,8,.58,15.68,3.35,23.93,3,5.18-.22,10.48,1.91,15.7,3,2,.43,3.61.38,5.26-1.11,1.84-1.66,4.28-2.32,6.68-2.92a183.63,183.63,0,0,0,17.82-4.93,22.88,22.88,0,0,1,11.32-.79c7.14,1.12,14.49,1.34,21.3,4.2a11.56,11.56,0,0,0,2.09.58c5.54,1.2,6,1,6.66-4.49.58-4.9,3.16-8,7.65-9.63a34.28,34.28,0,0,1,10.88-2.25c2.62-.09,5.23-.43,7.85-.66a17.15,17.15,0,0,0,8.84-6.32c4-5.53,9.06-9.21,16.15-10.22,5.67-.81,10.9.26,16.18,1.85.72.21,1.64,1,2.21.07,1.47-2.49,4.36-3.15,6.23-5.08,1.18-.07,2.35-.11,3.52-.23,12.94-1.33,24.65,1.34,34.5,10.39,4.87,4.48,10.57,7,17.33,6.19a38,38,0,0,1,15.81,1.7c-2.57,1.11-5,2.53-5.61,5.47A25.6,25.6,0,0,0,545.9,144c1.06,1.28,1.06,2,.29,3.19a24.73,24.73,0,0,1-12.82,10.42c-8.64,3-13.35,1.07-17-6.09a18.76,18.76,0,0,1-1.9-6.47c-.16-1.28-.55-2.68-2.25-2.51s-1.63,1.67-1.63,2.94c0,4.29,1.92,7.87,4.24,11.29,3.18,4.69,7.58,6.74,13.26,6.41,4.16-.24,7.76-2.11,11.55-3.44-1.64,2.56-4.38,3.64-6.91,4.91-7.41,3.72-15.17,3.16-22.88,1.34a51.65,51.65,0,0,0-14.33-1.12c-6.52.29-13,.73-19.54,1.08a9.49,9.49,0,0,0-4.41,1.23,107.21,107.21,0,0,0-24.87,19.63c-7.58,8.16-14.86,16.67-23.23,24.08A10.46,10.46,0,0,1,420.6,213c-2.87,1.11-1.91,2.26-.32,3.72a20,20,0,0,0,3.83,2.57c10.76,6,22.12,11,32.53,17.66,3.59,2.3,7.12,4.7,10.69,7a31.17,31.17,0,0,1,8.14,8.29,10.78,10.78,0,0,1,1.64,10.27,90.69,90.69,0,0,1-4.29,10.88c-3.7,7.77-7.58,15.46-10.76,23.48-2.54,6.4-6.8,11.26-13.44,13.86a23.22,23.22,0,0,1-7.68,1.6c-7.88.26-15.41-1.21-21.94-5.88-5.64-4-5.48-10.94.26-14.79,4-2.68,8.25-5,13.11-5.79a23,23,0,0,0,15.21-9.64c1.66-2.25,3.68-4.17,4.64-6.95.71-2.07.27-3.25-1.35-4.66-7.07-6.15-15.73-9.18-24.08-12.94-11.45-5.16-23.63-6.08-35.82-7.05-5.45-.44-10.68-1.17-14.88-5-1.28-1.18-2.84-.26-4.12-.91s-2.14.06-3,.68a5.72,5.72,0,0,1-3.5,1.25c-2.5-.12-4.79.74-7.17,1.17-5,.91-10,.44-15.08.29-2.37-.07-4.44-2.14-6.92-.88a54.33,54.33,0,0,1-7.46-1.45c-10.06-3.37-20-7.15-29.3-12.27-10.08-5.57-21.23-7.75-31.86-11.54-1.51-.54-1.76.06-1.34,1.45a21.89,21.89,0,0,1,1.27,5.27c.48,11.62.35,23.23-2,34.67-1.53,7.33.77,13.17,6,18.14a163.6,163.6,0,0,0,18.25,14.56c5.49,3.88,11.44,7,18.41,7.53a37.21,37.21,0,0,1,10.06,2.2A91.36,91.36,0,0,0,334.68,308.23Zm171.54-197c0-1.91-2.09-4.19-3.73-4.15s-2.14,1.17-2.22,2.52c-.11,1.83,1.94,4.24,3.52,4.19S506,112.54,506.22,111.25Z"/><path class="cls-2" d="M180.48,244c.52-.39,1-1.54,1.7-.76,2.28,2.43,5.44,2.16,8.16,2.33a118.14,118.14,0,0,1,18.08,3c6.49,1.4,13.07,2.74,18.85,6.4a11.3,11.3,0,0,1,4.29,4,5.21,5.21,0,0,0-3.29,4.26c-.56,3.59-2.82,6.22-5.31,8.66a15.87,15.87,0,0,0-3.71,5.31,8.35,8.35,0,0,1-1.38,2.34c-5.62,6.36-9.84,13.68-14.47,20.73-3.62,5.5-4.21,10.54-.48,16.59,6.79,11,16.4,18.32,28.17,22.84,4.17,1.6,8.65,2.56,12.86,4.25a10.07,10.07,0,0,1,5.11,3.84,49.85,49.85,0,0,0,4.52,5.43c2.17,2.52,1.25,5.82-2,6.2-9.28,1.09-18.3,4-27.56,4.58s-17.4-2.46-22.83-10.93A90.36,90.36,0,0,0,181,331.11a163.23,163.23,0,0,1-14.82-13.63,25.69,25.69,0,0,1-2.58-3.5c-1.8-2.59-1.48-5,.45-7.45,4.47-5.84,8.92-11.66,14.36-16.68,3.53-3.25,4.42-7.92,5-12.37a90.2,90.2,0,0,0,.44-19c-.29-4-2.1-7.68-2.95-11.58A7.67,7.67,0,0,1,180.48,244Z"/><path class="cls-2" d="M336.28,241.28c2.48-1.26,4.55.81,6.92.88,5,.15,10.07.62,15.08-.29,2.38-.43,4.67-1.29,7.17-1.17a5.72,5.72,0,0,0,3.5-1.25c.88-.62,1.84-1.21,3-.68-.66,2.95-.17,6-.07,8.9.3,8,1.68,15.81,1.42,23.83-.13,4.09,1.31,8.21,1.74,12.35.66,6.32-.25,11.95-6.43,15.73a99.4,99.4,0,0,0-11.43,7.8,10.41,10.41,0,0,1-9.59,1.63c-4.29-1.18-8.62-.5-12.93-.78a91.36,91.36,0,0,1-16.38-8.39,6.55,6.55,0,0,0-2.27-2.29c-3.78-3-3.88-6.54-.48-9.91,3.92-3.87,8.67-4.92,14-4.6,6.34.38,12.56,1.66,18.87,2.32,2.8.3,4.91-1.46,4.85-4.17a12.77,12.77,0,0,0-1.49-6.27c-5.5-9.44-11-18.89-14.91-29.16A7.46,7.46,0,0,1,336.28,241.28Z"/><path class="cls-2" d="M474.74,98.4c-1.87,1.93-4.76,2.59-6.23,5.08-.57,1-1.49.14-2.21-.07-5.28-1.59-10.51-2.66-16.18-1.85-7.09,1-12.1,4.69-16.15,10.22a17.15,17.15,0,0,1-8.84,6.32c-.43-1.09-1.45-.9-2.3-1.08A15.43,15.43,0,0,1,412.31,110a10.25,10.25,0,0,1,.4-11.29,8.28,8.28,0,0,1,9.46-3.11c6.88,2.16,12.38-.1,17.5-4.52s11.3-5.39,17.82-3.12a7.29,7.29,0,0,1,3.16,2,15.26,15.26,0,0,0,9,5.11A6.93,6.93,0,0,1,474.74,98.4Z"/><path class="cls-3" d="M539.59,159.78c-3.79,1.33-7.39,3.2-11.55,3.44-5.68.33-10.08-1.72-13.26-6.41-2.32-3.42-4.24-7-4.24-11.29,0-1.27-.13-2.76,1.63-2.94s2.09,1.23,2.25,2.51a18.76,18.76,0,0,0,1.9,6.47c3.7,7.16,8.41,9.09,17,6.09a24.73,24.73,0,0,0,12.82-10.42c.77-1.19.77-1.91-.29-3.19a25.6,25.6,0,0,1-5.61-22.12c.56-2.94,3-4.36,5.61-5.47a22.15,22.15,0,0,1,11.08,2c4.21,1.94,5.63,5.13,5.14,9.71-.8,7.53-5.53,12.53-10.75,17.24a4.66,4.66,0,0,0-1.39,1.9C548,152.74,544.2,156.58,539.59,159.78Z"/><path class="cls-3" d="M506.22,111.25c-.22,1.29-.74,2.49-2.43,2.56s-3.63-2.36-3.52-4.19c.08-1.35.58-2.49,2.22-2.52S506.25,109.34,506.22,111.25Z"/></svg>