<svg id="Layer_1" data-name="Layer 1" xmlns="http://www.w3.org/2000/svg" viewBox="0 0 670.47 444.58"><defs><style>.cls-1{fill:#fec32d;}.cls-2{fill:#fe972d;}.cls-3{fill:#fe982d;}.cls-4{fill:#0d63f4;}.cls-5{fill:#fe982f;}.cls-6{fill:#1465ec;}</style></defs><g id="_3uKY2m" data-name="3uKY2m"><path class="cls-1" d="M191.77,191c5.15-4.59,7.38-11.1,11-16.68,6.22-9.54,10.67-20,15.33-30.26,1.46-3.21,2.27-6.71,4-9.82.88-1.6-.49-1.88-1.34-2.36a85.71,85.71,0,0,1-19.12-14.76c-2.57-2.59-5-5.57-3.22-9.38,1.65-3.64,5.44-3.18,8.64-3a22.76,22.76,0,0,1,10.67,3.81c5.87,3.65,12,6.87,18,10.13a32.51,32.51,0,0,0,7.92,2.81,5,5,0,0,0,3.44-.39c5.42-2.61,11.27-3.58,17.15-4,8.6-.57,17-3.21,25.68-2.71,2.72.16,5.42.47,8.13.66,3.59.25,7.15,1,10.82.16,2.43-.58,5,.22,7.16,1.21,6.88,3.11,14.31,4.8,20.78,9,4.21,2.76,9.43,3.47,14.44,3.12,8.55-.59,17.05.15,25.57.21,11.08.06,22.16-.06,33.24-.13a17.49,17.49,0,0,0,7.28-2.1c8.6-4.06,17.12-3.31,26-.6,6,1.82,11.38,4.66,17.06,7a51.56,51.56,0,0,0,24.25,3.76,45.27,45.27,0,0,1,5.69-.35c7.65.31,15-1.44,22.27-3.34,3.61-.95,3.75-1.41,2.45-4.92-2.37-6.37-5.53-8.14-12.52-6.83-3.56.67-7.07,1.65-10.63,2.3a13.54,13.54,0,0,1-9.47-1.57,9.21,9.21,0,0,1-2.31-14.45,19.25,19.25,0,0,1,14.65-6.67c5.48.24,10.82.12,15.61-3.3A9.52,9.52,0,0,1,516.09,96c7.94.14,13.77,4.11,18.13,10.34a47.61,47.61,0,0,0,9.65,10.52c1,.78,2.17,1.71,3.72,1a11,11,0,0,1,4.81-.61c1.08,0,2.24.18,2.87-1a60.67,60.67,0,0,1,17.32,1.13c9.44,2,15.88,8.16,20.28,16.06,3.48,6.24,8.57,8.68,14.92,10,3.73.75,7.43,1.69,11.14,2.54-3.27,2.25-4.62,6.2-3.54,10.86a82,82,0,0,0,3.49,11.44c.36.93.73,1.77,0,2.79-3.26,4.72-6.6,9.35-11.46,12.61-3.06,2.06-6.23,2.74-9.77,1.23s-4.57-4.67-5.32-8c-.19-.84-.38-1.74-1.4-1.67s-1.19,1-1.24,1.83a13.2,13.2,0,0,0,.7,5.35c1.72,4.88,5.82,6.4,10.25,7.52-6.41,3.73-12.67,2.47-19-.33-8.54-3.77-17-7.71-26.63-8.07a18.48,18.48,0,0,0-7.78.9c-11.76,4.81-24,8.45-35.43,14-7.19,3.47-14.36,7-20.21,12.66-2.62,1.14-3.63,3.69-5,5.88-7.36,11.62-10.13,24.37-9.2,38,.09,1.36.46,2.71,2,3.31.16.31.27.7.76.59h-.05A41.19,41.19,0,0,0,485.52,269a176.91,176.91,0,0,1,12.73,22.77,124.6,124.6,0,0,0,7.55,14.15c2.57,3.95,5,8,7.2,12.18,2.67,5,6.32,8.59,12.09,9.6,7.64,1.34,14.77,4.34,22,6.86,3.59,1.25,7.35,1.87,10.83,3.57,7.34,3.59,9.61,9.77,6,17.1a4.89,4.89,0,0,1-5,3c-8.56-.35-16.94,1.38-25.37,2.45a19.91,19.91,0,0,1-9.26-1.26,28,28,0,0,1-14.67-11.89c-.2-.31-.46-.57-.68-.85a3.41,3.41,0,0,0-2-1.31c-4.78-.92-7.9-4.66-11.86-7a5.66,5.66,0,0,1-2.41-3.23c-2.75-9-8.59-16.09-14.69-23-4.21-4.74-7.9-10.06-13.32-13.54a100.92,100.92,0,0,1-29.23-30c-3.06-4.74-2.89-10.4-3.2-15.81-.31-5.24.51-10.52-1-15.71A2.6,2.6,0,0,0,428.8,235c-6.12-1.14-12.31-.72-18.46-.93-5.1-.17-10.13-.37-15.1-1.66a113.17,113.17,0,0,0-14.62-3.14c-6.89-.86-12.12-5-17.23-9.3-8.44-7.09-17.92-12.64-27.19-18.52a74.05,74.05,0,0,0-19.48-8.86c-1.13-.32-2.2-.9-3.43-.7-.17-.21-.31-.56-.52-.61-5.89-1.28-11.47-3.58-17.26-5.19a4.91,4.91,0,0,0-4.2.41c-3.62,2.52-7.26,5-10.85,7.58-1.53,1.1-2.48,2.92-4.34,3.65a50.59,50.59,0,0,0-18.42,12.47,22.49,22.49,0,0,1-8.4,5.83,40.55,40.55,0,0,0-7.64,4.06,29,29,0,0,1-8.5,4.14c-1.14.29-2.28.81-2.16,2.36a24.73,24.73,0,0,0-8,5.47c-3.54,3.32-7.56,5.94-11.36,8.87a14.58,14.58,0,0,1-8.87,3,250.56,250.56,0,0,1-29.87-1.62,46.24,46.24,0,0,0-19.64,1.82c-4.13,1.39-8.37,2.41-12.53,3.72-6.22,2-11.53,5.69-17,9.15a75.73,75.73,0,0,1-7.31,4.22c-6,2.91-10.84,7.27-15.42,12-5.35,5.49-11.76,9.39-18.57,12.68-4,1.93-8.43,2.35-12.74,2.59a110.63,110.63,0,0,0-17.53,2c-6.89,1.51-12.29-1.3-17.06-5.65-3.69-3.37-3.3-8.89.53-12.6s8.66-5.56,13.55-7.3C58.5,261.55,68,258.63,77,254.67a46.18,46.18,0,0,0,9.76-5.89c3.66-2.82,7.49-5.42,11.24-8.11,7.3-7.49,14.3-15.27,21.88-22.5,6.1-5.81,12.83-8,20.94-5.16a9.63,9.63,0,0,0,2.42.18,16.27,16.27,0,0,0,8.53.6c3.19-.64,6.39-1.24,9.58-1.85a10.72,10.72,0,0,0,4-.21c5.49-1.31,9.94-4.57,14.71-7.32,4.93-2.85,7.7-7.54,11.17-11.65C191.65,192.34,191.62,191.58,191.77,191Zm391.7-59.91c-.19-1.84-.7-3.55-2.77-3.39-2.32.18-2.54,2.23-2.59,4.06s.63,3.55,2.55,3.47C583.1,135.11,583.14,132.8,583.47,131.06Z"/><path class="cls-2" d="M479.34,256.21c-1.5-.6-1.87-1.95-2-3.31-.93-13.62,1.84-26.37,9.2-38,1.39-2.19,2.4-4.74,5-5.88l2.24.66c-2.45.51-2.64,1.33-2.07,3.91,1.44,6.61,6.23,9.47,11.48,12.12,5.75,2.9,11.93,4.87,17.52,8.12,10.14,5.89,20.89,10.56,31.32,15.85,5.9,3,11.64,6.33,17.35,9.67,7.54,4.41,15.61,4.94,24,3.78a115.41,115.41,0,0,0,13.05-2.74c6.47-1.69,12.72-.17,18.69,1.89s6.81,6.67,3.39,12c-4.68,7.25-11.15,12.64-18,17.55-4.53,3.25-9.91,4.05-14.52.48-7.82-6.07-16.42-5.32-25.2-3.91A19.15,19.15,0,0,1,555,284.23c-6.42-5.26-13.95-8.09-21.8-10.11A283.08,283.08,0,0,1,501,264.26c-5.5-2.13-11.09-4-16.47-6.43a11.13,11.13,0,0,0-4.48-1h.05Z"/><path class="cls-2" d="M143.28,213.19a9.63,9.63,0,0,1-2.42-.18c-8.11-2.81-14.84-.65-20.94,5.16-7.58,7.23-14.58,15-21.88,22.5a2.59,2.59,0,0,0-.8.09c-5.64,2.72-10.65-.26-15.65-2-5.21-1.79-8-6.34-10.37-11a25,25,0,0,1-2.79-7.64c-1-6.82,4.37-11.1,10.94-8.76,3.32,1.18,6.36,3,9.89,3.72,8,1.71,14.92,0,20.2-6.19,4.29-5,8.32-10.3,12.81-15.16,3.75-4.06,7.79-7.85,11.79-11.67,2.23-2.13,4.74-4,7-6.1a13.2,13.2,0,0,1,8.86-3.6,7.48,7.48,0,0,1,6.4,3A36.39,36.39,0,0,0,171,185.81c2.69,1.1,5.24,2.5,7.86,3.75a15.11,15.11,0,0,0,10.84,1.25,2.37,2.37,0,0,1,2.09.16c-.15.61-.12,1.37-.48,1.79-3.47,4.11-6.24,8.8-11.17,11.65-4.77,2.75-9.22,6-14.71,7.32a10.72,10.72,0,0,1-4,.21c-2.4-2.18-5.7-3-8-5.42-1.26-1.34-2.47-1-3.67.21C147.62,208.91,145.44,211,143.28,213.19Z"/><path class="cls-3" d="M231,226.55c-.12-1.55,1-2.07,2.16-2.36a29,29,0,0,0,8.5-4.14A40.55,40.55,0,0,1,249.3,216a22.49,22.49,0,0,0,8.4-5.83,50.59,50.59,0,0,1,18.42-12.47c1.86-.73,2.81-2.55,4.34-3.65,3.59-2.57,7.23-5.06,10.85-7.58a4.91,4.91,0,0,1,4.2-.41c5.79,1.61,11.37,3.91,17.26,5.19.21,0,.35.4.52.61-9.72,6.61-19.11,13.71-29.2,19.78a6.42,6.42,0,0,0-1.37.88c-7.76,7.79-17.94,9.82-28.13,11.65-6.68,1.2-13.44,1.94-20.17,2.88A5.14,5.14,0,0,1,231,226.55Z"/><path class="cls-4" d="M600.66,189.88c-4.43-1.12-8.53-2.64-10.25-7.52a13.2,13.2,0,0,1-.7-5.35c0-.83.23-1.77,1.24-1.83s1.21.83,1.4,1.67c.75,3.34,1.73,6.49,5.32,8s6.71.83,9.77-1.23c4.86-3.26,8.2-7.89,11.46-12.61.71-1,.34-1.86,0-2.79a82,82,0,0,1-3.49-11.44c-1.08-4.66.27-8.61,3.54-10.86,7-1.17,13,1.47,16.26,7.12,2.9,5,2.06,10.18-2.39,13.89-2.88,2.39-5.33,5.53-9.64,5.59-1.16,0-1.54,1.43-2.15,2.3a51.92,51.92,0,0,1-9.43,10.81A17.56,17.56,0,0,1,600.66,189.88Z"/><path class="cls-5" d="M555.27,116.23c-.63,1.22-1.79,1.06-2.87,1a11,11,0,0,0-4.81.61c-1.55.7-2.72-.23-3.72-1a47.61,47.61,0,0,1-9.65-10.52C529.86,100.12,524,96.15,516.09,96a9.52,9.52,0,0,0-5.68,1.58c-4.79,3.42-10.13,3.54-15.61,3.3a3.28,3.28,0,0,0,.13-1c-1.33-6.25,3.74-11.51,9.91-9.67a28,28,0,0,0,14.7.53,7.49,7.49,0,0,1,4,.31c7.74,2.57,14.25,6.69,17.94,14.34a10.65,10.65,0,0,0,4.88,5c1.77.9,3.64,1.61,5.43,2.49C553.34,113.54,555,114.17,555.27,116.23Z"/><path class="cls-6" d="M583.47,131.06c-.33,1.74-.37,4.05-2.81,4.14-1.92.08-2.59-1.71-2.55-3.47s.27-3.88,2.59-4.06C582.77,127.51,583.28,129.22,583.47,131.06Z"/></g></svg>