<svg id="Layer_1" data-name="Layer 1" xmlns="http://www.w3.org/2000/svg" viewBox="0 0 670.47 444.58"><defs><style>.cls-1{fill:#fec22b;}.cls-2{fill:#fe962c;}.cls-3{fill:#fe962d;}.cls-4{fill:#fe972c;}.cls-5{fill:#0c62f4;}.cls-6{fill:#fed5ab;}.cls-7{fill:#feca96;}.cls-8{fill:#fee095;}.cls-9{fill:#fee5a7;}.cls-10{fill:#fee3a1;}.cls-11{fill:#fee199;}.cls-12{fill:#fedd89;}.cls-13{fill:#fed1a3;}.cls-14{fill:#1a67e7;}.cls-15{fill:#4f7cbb;}</style></defs><path class="cls-1" d="M382.67,146.15a45.89,45.89,0,0,0,16.09-1.52,46.31,46.31,0,0,1,20.64-.72c4.49.76,9,1.71,13.39,2.79,5,1.22,8.82,4.15,12.79,7a3.81,3.81,0,0,0,3.64.69,139.1,139.1,0,0,1,19.59-4,6.32,6.32,0,0,0,3.4-1.47,60.5,60.5,0,0,1-24.09-6.17,23.66,23.66,0,0,1-13.07-16.24c-2-9,4.5-18.72,13.64-18.64.81,0,1.63,0,2.45,0,.58.37.93,1,1.74,1.15,4.05,1,8,2.34,11.2,5.12,2.46,2.12,4.75,4.43,7.23,6.52,3.95,3.33,7.92,6.43,13.61,6.39,5.89,0,11.53-2,17.43-1.91a5,5,0,0,0,4.49-2.08,9,9,0,0,0,2.13.11c9.52-1.68,18,1,25.89,6.14A78.66,78.66,0,0,1,548,139.64c2.18,2.21,4.41,4.35,5.61,7.25,3,7.15,8.78,11.83,14.3,16.78.58.51,1.5.77,1.42,1.81-.45,0-.9.08-1.35.09a4.59,4.59,0,0,0-4.06,7c2.9,4.86,5.49,9.94,9.46,14.12,2,2.15,1.61,4.09-1.06,5.31a10.13,10.13,0,0,1-2.91.39c-1.3,0-2.69-.66-3.84.5-7.7.76-13.61-4.53-13.63-12.19,0-.64.22-1.41-.06-1.88-.45-.76.09-2.28-1.27-2.25a2.91,2.91,0,0,0-2.52,1.7,6.66,6.66,0,0,0-.5,2.32c-1,7.47,8.84,17.46,16,16.37a76.2,76.2,0,0,1,9-.33c-4,3.28-8.73,3.06-13.42,2.61-9.58-.93-18.62-4.07-27.54-7.44-7.56-2.85-14.67-1.24-22,.87-9.66,2.78-18.57,7.16-27.41,11.77a19.78,19.78,0,0,0-4,2.76c-3.58,3.19-8,5-12.07,7.28a28.22,28.22,0,0,0-9.07,7.62c-1.51,2-4,2.46-5.73,4-7.15,6.4-14.57,12.49-22.13,18.4-2.3,1.8-5.47,2.18-7.45,4.52-.67-1.2-1.57-1.61-2.53-.42-.6.75-1.34.71-2.11.93-4.88,1.42-9.95,1.6-14.94,2-3.76.31-7.56,1.28-11.31.53a6.52,6.52,0,0,0-5.15.7c-6-1-12.1-1.5-18-3.19-4.3-1.23-8.22-3.36-12.51-4.57a6.89,6.89,0,0,0-6.88,1.38c-8.88,6.81-15.43,15.81-23.14,23.69a187.92,187.92,0,0,1-29.72,24.58c-3.32,2.23-7.18,3.23-11.15,4-4.47.86-8.33,3.51-12.59,5.08-6.22,2.29-12.09,5.33-18.08,8.13-7,3.27-13.77,1-19.67-2.84-4.39-2.86-7.26-7.44-9.05-12.59a7.64,7.64,0,0,1,.67-6.38c3.43-6.58,9.31-9.94,16.11-12a.87.87,0,0,0,1.26-.24l1.63,0a1.55,1.55,0,0,0,2.18.18c5-.12,10.06.72,15.09,0l2.93.33c5.16-.25,9.51-2.72,13.75-5.3,7.84-4.78,14-11.43,19.79-18.44,4.33-5.22,9-10.16,13.31-15.41,3.43-4.2,6.53-8.67,9.75-13,.65-.87.62-1.18-.61-1.85-5.6-3-10.89-6.59-15-11.52-6.34-7.56-14.43-12.87-22.62-18.09a6.14,6.14,0,0,0-1.52-.48c.07-1-.27-1.83-1.43-1.91a6.24,6.24,0,0,1-2.75-1.08c-6.39-3.85-13.61-5.91-20.15-9.4-2.74-1.46-3.78-.17-4.52,2-2,5.79-5.07,11-7.87,16.38-1.84,3.51-3.5,7.18-6,10.33-1.28,1.63-2.84,3-3.53,5.09-1,2.9-1.69,6-4.6,7.74-.31.19-.25,1-.37,1.5-7,9.8-17.27,10.56-28,9.83-1.83-.13-3.61-1.12-5.41-1.72-1-.34-2-.93-3.14-.49,0-1.58-.58-2.47-2.32-1.77a2.55,2.55,0,0,1-1.82-.17c-6.6-2-13.35-3.56-18.56-8.57-.36-.35-1.19-.22-1.8-.31-4.73-4.37-9.38-8.81-14.92-12.21-2-1.24-3.76-1.24-5.51.14-3.74,3-7.73,5.72-8.8,10.87a6.59,6.59,0,0,1-1.1,2.18c-8.88,13.15-17.24,26.68-28.5,38.07-5.2,5.26-10.92,9.59-18.17,11.41-4.17,1-7.33-1.61-10.26-3.9a17.61,17.61,0,0,1-6.38-10.49,7.69,7.69,0,0,1,.81-5.75c4.22-7,10.13-12.28,16.94-16.64a62.93,62.93,0,0,0,19.85-19.46c1.94-3.07,4.1-6,6.15-9a38.45,38.45,0,0,0,6.19-16.61c.27-1.91,1.29-3.34,2-4.94,2.74-6,6-11.78,8.43-18,1.77-4.63,7-7.39,11.94-6.73,2.15.3,3.41,1.86,4.69,3.42,3.07,3.74,5.21,8.06,7.79,12.11,3.33,5.25,8.12,9,13.2,12.29,1.43.93,2.89-.3,3.39-1.89a21.59,21.59,0,0,0,.29-12.85,86.94,86.94,0,0,0-4.2-11.21c-2-4.33-.89-8.42.48-12.5.55-1.62.51-2.2-1.33-2.47-5.41-.79-10.32-3.08-15-5.71-3.81-2.15-5.81-7.68-4.87-11.84,1.1-4.81,5.25-7,10.53-5.46,4.92,1.45,9.75,3.31,15,2.85a.83.83,0,0,0,1.25.17c3.24.6,6.5,0,9.75.18a2.62,2.62,0,0,0,1.7-.71c10.69-8,23.24-11.87,35.67-16,.77-.26,1.78-.17,2.33-.65,2.91-2.51,6.39-2.08,9.8-2.12a2,2,0,0,0,2.3.29l2.61.21a1,1,0,0,0,1.62,0l2.07-.23a.87.87,0,0,0,1.21-.28l1.51-.29a.93.93,0,0,0,1.21-.24,74.65,74.65,0,0,0,8.19-1.12c3.78-.92,7.46.28,11.19.06,1-.06,2,0,3,0a1.33,1.33,0,0,0,1.77.24l7.5.29a1.05,1.05,0,0,0,1.11.56c4,.21,7.83.68,11.3,3,5.68,3.85,12.45,4.5,18.85,6.35,8.78,2.52,17.24,6,24.13,12.43,2.16,2,5,2.92,7.58,4.21a157.12,157.12,0,0,0,32.7,12,15.37,15.37,0,0,0,3,.15A.86.86,0,0,0,382.67,146.15Zm156.23-3c-.2,1.07.48,1.7,1.64,1.7,1.78,0,2.2-1.26,2.24-2.75,0-1.28-.53-2.23-1.85-2.12C539.22,140.15,538.93,141.53,538.9,143.18Z"/><path class="cls-2" d="M385.74,252.79a6.52,6.52,0,0,1,5.15-.7c3.75.75,7.55-.22,11.31-.53,5-.42,10.06-.6,14.94-2,.77-.22,1.51-.18,2.11-.93,1-1.19,1.86-.78,2.53.42.1,5.08-1.71,9.84-2.53,14.76-1.68,10.16-4.72,20.09-5.19,30.46a32.77,32.77,0,0,1-1.21,5.52,11.16,11.16,0,0,0,.67,7,103,103,0,0,0,13.29,23.65,11.77,11.77,0,0,0,6,4.44c3.71,1.17,7.39,2.47,11.12,3.62a8.9,8.9,0,0,1,6.39,6.78,9.68,9.68,0,0,0,0,3.56,5.87,5.87,0,0,1-5,3.89,2.12,2.12,0,0,0-2.31.41l-4.22.17c-1.52-.19-3.06-.62-4.5.32-6.3,2.3-12.33,1.59-18.56-.77a20.42,20.42,0,0,1-10.59-9.23c-1.7-2.87-3-6-4.43-9a13.76,13.76,0,0,0-7.36-7.2c-6.49-2.63-8.78-6-8.72-12.52a.82.82,0,0,0,.19-1.23c.65-6.3-.09-12.63.37-18.94a2,2,0,0,0,.25-2.3,110.9,110.9,0,0,0,0-14.47,12.54,12.54,0,0,0,0-5.14l.25-13.51a1,1,0,0,0,.05-1.63C385.75,256.05,385.75,254.42,385.74,252.79Z"/><path class="cls-3" d="M169.41,221.71c.61.09,1.44,0,1.8.31,5.21,5,12,6.61,18.56,8.57a2.55,2.55,0,0,0,1.82.17c1.74-.7,2.31.19,2.32,1.77-1.15,3.15-3.2,5.83-4.69,8.82-3.11,6.23-5.94,12.61-9.78,18.47-6.79,10.38-16.66,14.06-28.53,13.11-5.08-.4-8.44-5.23-9.34-10.31-.76-4.34,1.38-7.57,4.33-10.28,5.15-4.73,10.11-9.59,14.1-15.41a76.24,76.24,0,0,0,6.24-10.18A16.9,16.9,0,0,1,169.41,221.71Z"/><path class="cls-2" d="M230.43,224.91c.12-.51.06-1.31.37-1.5,2.91-1.79,3.63-4.84,4.6-7.74.69-2.06,2.25-3.46,3.53-5.09,2.48-3.15,4.14-6.82,6-10.33,2.8-5.37,5.91-10.59,7.87-16.38.74-2.2,1.78-3.49,4.52-2,6.54,3.49,13.76,5.55,20.15,9.4a6.24,6.24,0,0,0,2.75,1.08c1.16.08,1.5.87,1.43,1.91a125.51,125.51,0,0,1-24.8,25.88c-4.79,3.82-10.67,5.26-16.73,5.36C236.89,225.52,233.57,226.37,230.43,224.91Z"/><path class="cls-4" d="M506.84,123a5,5,0,0,1-4.49,2.08c-5.9,0-11.54,1.86-17.43,1.91-5.69,0-9.66-3.06-13.61-6.39-2.48-2.09-4.77-4.4-7.23-6.52-3.23-2.78-7.15-4.14-11.2-5.12-.81-.2-1.16-.78-1.74-1.15-1.39-4.2.53-7.47,3.38-10.08s6.51-2.49,10-1.12c3.67,1.45,6.31,4.28,8.63,7.3a36.14,36.14,0,0,0,10.93,9.22,3.67,3.67,0,0,0,2.83.58c6.47-1.66,12,.19,16.51,4.88C504.7,119.89,506.5,120.89,506.84,123Z"/><path class="cls-5" d="M569.45,192.36a10.13,10.13,0,0,0,2.91-.39c2.67-1.22,3.1-3.16,1.06-5.31-4-4.18-6.56-9.26-9.46-14.12a4.59,4.59,0,0,1,4.06-7c.45,0,.9-.06,1.35-.09,3.41.23,6.81.43,10.21.68,6.94.51,11,6.69,8.7,13.25-1.14,3.26-2.27,7-5.31,8.5-4.31,2.09-6.47,6.35-10.36,8.69a76.2,76.2,0,0,0-9,.33c-7.18,1.09-17-8.9-16-16.37a6.66,6.66,0,0,1,.5-2.32,2.91,2.91,0,0,1,2.52-1.7c1.36,0,.82,1.49,1.27,2.25.28.47.06,1.24.06,1.88,0,7.66,5.93,13,13.63,12.19C567,193.53,568.35,194,569.45,192.36Z"/><path class="cls-6" d="M385.45,272.83a12.54,12.54,0,0,1,0,5.14A4.5,4.5,0,0,1,385.45,272.83Z"/><path class="cls-7" d="M434.26,353.64c1.44-.94,3-.51,4.5-.32C437.34,354.49,435.8,354.15,434.26,353.64Z"/><path class="cls-7" d="M450.3,348.85a9.68,9.68,0,0,1,0-3.56A2.27,2.27,0,0,1,450.3,348.85Z"/><path class="cls-8" d="M264.79,278.36l-2.93-.33C262.94,277.22,264,276.83,264.79,278.36Z"/><path class="cls-9" d="M240.9,108.59a2,2,0,0,1-2.3-.29A1.44,1.44,0,0,1,240.9,108.59Z"/><path class="cls-8" d="M246.77,278a1.55,1.55,0,0,1-2.18-.18A1.42,1.42,0,0,1,246.77,278Z"/><path class="cls-6" d="M385.41,292.44a2,2,0,0,1-.25,2.3A1.44,1.44,0,0,1,385.41,292.44Z"/><path class="cls-7" d="M443,353.15a2.12,2.12,0,0,1,2.31-.41A1.49,1.49,0,0,1,443,353.15Z"/><path class="cls-10" d="M275.25,106.92a1.33,1.33,0,0,1-1.77-.24C274.18,106,274.74,106.23,275.25,106.92Z"/><path class="cls-9" d="M245.13,108.82a1,1,0,0,1-1.62,0A1,1,0,0,1,245.13,108.82Z"/><path class="cls-6" d="M385.75,257.69a1,1,0,0,1-.05,1.63C385.09,258.75,385.22,258.21,385.75,257.69Z"/><path class="cls-10" d="M283.86,107.77a1.05,1.05,0,0,1-1.11-.56C283.58,106.47,283.64,107.28,283.86,107.77Z"/><path class="cls-9" d="M251.13,107.78a.93.93,0,0,1-1.21.24C250.24,107.5,250.59,107.13,251.13,107.78Z"/><path class="cls-9" d="M248.41,108.31a.87.87,0,0,1-1.21.28C247.5,108.08,247.83,107.67,248.41,108.31Z"/><path class="cls-11" d="M179.35,127.58a.83.83,0,0,1-1.25-.17C178.61,126.78,179,127.12,179.35,127.58Z"/><path class="cls-12" d="M382.67,146.15a.86.86,0,0,1-1.28-.2C381.92,145.34,382.3,145.71,382.67,146.15Z"/><path class="cls-8" d="M243,277.82a.87.87,0,0,1-1.26.24C242.05,277.6,242.41,277.21,243,277.82Z"/><path class="cls-13" d="M384.79,313.68a.82.82,0,0,1-.19,1.23C384,314.4,384.34,314,384.79,313.68Z"/><path class="cls-14" d="M538.9,143.18c0-1.65.32-3,2-3.17,1.32-.11,1.89.84,1.85,2.12,0,1.49-.46,2.75-2.24,2.75C539.38,144.88,538.7,144.25,538.9,143.18Z"/><path class="cls-15" d="M569.45,192.36c-1.1,1.6-2.45,1.17-3.84.5C566.76,191.7,568.15,192.4,569.45,192.36Z"/></svg>