<svg id="Layer_1" data-name="Layer 1" xmlns="http://www.w3.org/2000/svg" viewBox="0 0 670.47 444.58"><defs><style>.cls-1{fill:#fec02f;}.cls-2{fill:#fe962d;}.cls-3{fill:#0d62f4;}</style></defs><path class="cls-1" d="M553.21,182.27c-7.72,5.12-16.13,5.59-24.81,3.45-6.87-1.69-13.7-3.49-20.76-4.28-2.19-.25-4.43.12-6.62-.92-1.24-.59-2.89.18-4.13.94-10,6.11-21.07,10.28-30.13,17.92-7.14,6-15.06,11.07-21.39,18.07-4.15,4.6-7.55,9.75-11.47,14.52-5,6.09-11.7,9.64-18.44,13.22a52,52,0,0,1-12.7,4.79c-1.65.39-2.19,1.18-1.83,2.63,1.66,6.71,3.76,13.14,8.27,18.69,8.32,10.23,14.91,21.4,16.62,34.83.89,7-3.18,11.67-7.77,15.95-5.76,5.36-12.47,9.13-19.6,12.52a61,61,0,0,1-14.18,4.87c-5.2,1.07-10,3.67-15.53,3.77a32.38,32.38,0,0,1-7.31-.44c-3.28-.68-6-2.37-7-5.77-1.28-4.46-.62-8.72,2.55-12.23a22.34,22.34,0,0,1,8.7-5.89c6.08-2.32,12.43-4,18-7.63,4.6-3,6.85-7.67,9.25-12.2,1.16-2.17.14-4.75-.77-6.86-2.47-5.71-4.36-11.75-8.6-16.58a46.14,46.14,0,0,0-5-5.33A53.3,53.3,0,0,1,367.86,258c-1.34-2.06-2.75-2.38-4.69-.94-3.12,2.32-6.58,1.36-10,.94a9.5,9.5,0,0,0-5.49-3.21,73.52,73.52,0,0,1-18.4-8.19c-1.85-1.11-3.66-2.77-6.15-2.36a1.39,1.39,0,0,0-.74-1.35c-4.91-3.58-8.6-8.26-12.07-13.17-2.93-4.13-5.79-8.36-9.57-11.81a3.65,3.65,0,0,0-.47-1.25,72.31,72.31,0,0,1-8.86-11.87c-.83-1.34-2.43-1.28-3.56-.16-5.23,5.2-12.21,8.07-17.44,13.21-2.17,2.13-5.16,3.26-6.85,5.91-5.19,2.92-10.5,5.66-15.54,8.83-2.68,1.69-2.44,3.82.12,6,.69.59,1.47,1.07,2.19,1.62,4.7,3.56,10.39,4,15.89,5.06,2.95,2,6.46,2.13,9.81,2.71,5,.86,8.81,4.62,13.76,5.57,7.76,5.41,12.45,12.48,12.08,22.29-.85,1.43-.49,3-.59,4.52a5,5,0,0,1-5.08,4.83,13.24,13.24,0,0,1-5.51-1.21c-3.65-1.46-6-4.64-9.09-6.77-5.19-3.55-10-7.75-16.51-8.93-5-3.16-10.57-5.18-16.12-7.09a98.67,98.67,0,0,0-29.15-4.92,58,58,0,0,1-17.63-3.18c-9.16-3.27-10.73-12.71-3.22-19,2.51-2.11,5.5-3.52,8.36-5.1l17.18-9.45a10.61,10.61,0,0,0,4.65-4.81c.8-1.73.46-3-1.41-3.68a15.05,15.05,0,0,0-6.42-.83c-8.22.57-16.25,0-24.15-2.8-7.63-2.73-11.51-8.54-13.89-15.62-.77-2.31-1.28-2.21-3-1.14a29.48,29.48,0,0,1-11,3.91c-5.63.95-9.24-2.7-7.79-8.15,1.09-4.09,2.74-8,7-10.22,3.59-1.86,6.19-5,8.88-8C183.2,162,189,155.87,195.1,150a15.15,15.15,0,0,0,2.16-2.78c10-15.52,24-25.93,40.9-32.93,3.22-1.34,6.76-2.1,9.45-4.6a4,4,0,0,1,1.77-.62,67.5,67.5,0,0,1,48.39,7.12c12.41,6.82,23.5,15.41,34.49,24.21A95,95,0,0,0,351.6,152c4,1.86,8.16,1.59,12.31,1.07a74.32,74.32,0,0,0,13.95-3.54,34.72,34.72,0,0,1,20.63-.63c4.16,1.19,8.23,2.75,12.86,2.76-.63-1.91-1.26-3.57-1.72-5.28a14.26,14.26,0,0,1,1.41-10.8c2.06-3.88,5.64-5,11.4-3.47.7.65,1.07,2.21,2.09,1.88,2.93-.94,5.05.91,7.44,1.78,5.86,2.11,11.4,1.21,14.68-3.43s7.65-5.65,12.7-5.74c4.61-.07,8.84,1.64,13.2,2.72a11.42,11.42,0,0,0,14.07-9.3c4.65-6.22,11.19-7.92,18.36-6.83,12.88,2,24.06,7.47,33,17.19,3.58,3.91,8,5.18,13.27,4.59a85,85,0,0,1,14.62-.53,16.39,16.39,0,0,0-7.65,5.44c-3.19,4.25-2.92,7.56.87,11.3a53.45,53.45,0,0,0,11.15,8.6c1.3.73,1.29,1.38.6,2.52a46.58,46.58,0,0,1-12.57,13.4,9,9,0,0,1-6.31,1.9,10.48,10.48,0,0,1-9.18-9.64,29.23,29.23,0,0,0-.2-3c-.19-1.13-.68-2.18-2-2.16s-1.85,1-2,2.17a14.3,14.3,0,0,0,.68,7C541.57,178.5,546.52,181.57,553.21,182.27Zm-29.67-52.62c.32,1.46.8,3.24,2.79,3.2s2.08-1.94,2.21-3.45a2.18,2.18,0,0,0-2.32-2.65C524.54,126.76,523.56,127.69,523.54,129.65Z"/><path class="cls-2" d="M265.13,268.28c6.47,1.18,11.32,5.38,16.51,8.93,3.12,2.13,5.44,5.31,9.09,6.77a13.24,13.24,0,0,0,5.51,1.21,5,5,0,0,0,5.08-4.83c.1-1.52-.26-3.09.59-4.52a3.53,3.53,0,0,1,2.46.92c1,.64,1.75.67,2.34-.61q6-13,12.05-26c1.05-2.24,1.73-4.81,4.4-5.87,2.49-.41,4.3,1.25,6.15,2.36a73.52,73.52,0,0,0,18.4,8.19A9.5,9.5,0,0,1,353.2,258a6.89,6.89,0,0,1-3.45,3.63c-7.85,4.52-12.69,11.79-17.65,18.94a62.42,62.42,0,0,1-4.86,5.86c-.94,1.05-.91,1.58.49,2.07,7.2,2.54,14.36,5.16,22.26,4,3-.42,6,.41,8.9,1,2.57.54,5.13,1.16,7.71,1.67,6.74,1.32,8.52,5,5.26,10.95a26.6,26.6,0,0,1-11,11c-5.65,3-11.64,2.32-17.41.07a23.44,23.44,0,0,1-7.29-4.72,21.58,21.58,0,0,0-12.78-5.51,27,27,0,0,1-9.34-2.74,2.33,2.33,0,0,0-2.51-.22,75.65,75.65,0,0,1-26.13,9.62c-7.27,1.15-14,4-20.48,7.21A18.34,18.34,0,0,1,246,320c-5.66-3.52-11-7.37-13.29-14.18-1.18-3.57-.59-5.13,2.9-6.66,4.36-1.92,9-1.5,13.42-.95A31.57,31.57,0,0,0,263.5,297a12.13,12.13,0,0,1,4-.59c7.09.11,13.86-1.61,20.62-3.41.83-.22,2-.24,2.24-1.18s-1-1.17-1.63-1.58q-11.13-7.1-22.31-14.12C261.73,273.13,261.69,272.92,265.13,268.28Z"/><path class="cls-3" d="M553.21,182.27c-6.69-.7-11.64-3.77-14-10.32a14.3,14.3,0,0,1-.68-7c.16-1.15.67-2.16,2-2.17s1.85,1,2,2.16a29.23,29.23,0,0,1,.2,3,10.48,10.48,0,0,0,9.18,9.64,9,9,0,0,0,6.31-1.9,46.58,46.58,0,0,0,12.57-13.4c.69-1.14.7-1.79-.6-2.52a53.45,53.45,0,0,1-11.15-8.6c-3.79-3.74-4.06-7.05-.87-11.3a16.39,16.39,0,0,1,7.65-5.44c4.64-.57,9.13-2.15,14-.94,5.71,1.42,9,6.19,6.81,11.61a42.56,42.56,0,0,1-9.72,15.14,4.19,4.19,0,0,0-.91,1.3c-2.63,5.82-6.93,10.33-11.47,14.65A22,22,0,0,1,553.21,182.27Z"/><path class="cls-2" d="M486.62,120a11.42,11.42,0,0,1-14.07,9.3c-4.36-1.08-8.59-2.79-13.2-2.72-5.05.09-9.44,1.13-12.7,5.74s-8.82,5.54-14.68,3.43c-2.39-.87-4.51-2.72-7.44-1.78-1,.33-1.39-1.23-2.09-1.88a14.86,14.86,0,0,0-.09-1.89c-1-6.38,3.5-11.3,10-11a20.64,20.64,0,0,1,8.25,2.58c3.83,2,7.11,1.36,10.22-1.49a29.32,29.32,0,0,1,9.43-5.82c5.59-2.12,11.11-2,16.3.89C479.78,117.22,483.36,118.22,486.62,120Z"/><path class="cls-2" d="M263.6,223.78c1.69-2.65,4.68-3.78,6.85-5.91,5.23-5.14,12.21-8,17.44-13.21,1.13-1.12,2.73-1.18,3.56.16a72.31,72.31,0,0,0,8.86,11.87,3.65,3.65,0,0,1,.47,1.25,152.17,152.17,0,0,0-7.58,28,15.73,15.73,0,0,1-3.37,7.62c-4.95-1-8.76-4.71-13.76-5.57-3.35-.58-6.86-.66-9.81-2.71-.83-3.92-.26-7.93-.94-11.89C264.78,230.17,263.55,227.08,263.6,223.78Z"/><path class="cls-3" d="M523.54,129.65c0-2,1-2.89,2.68-2.9a2.18,2.18,0,0,1,2.32,2.65c-.13,1.51-.19,3.42-2.21,3.45S523.86,131.11,523.54,129.65Z"/></svg>