<svg id="Layer_1" data-name="Layer 1" xmlns="http://www.w3.org/2000/svg" viewBox="0 0 670.47 444.58"><defs><style>.cls-1{fill:#fefefe;}.cls-2{fill:#fec22c;}.cls-3{fill:#fe962d;}.cls-4{fill:#0e63f4;}</style></defs><path class="cls-1" d="M422.23,96.1c-8.33-3.66-16.66-2.5-25-.09a20.3,20.3,0,0,0-11.61,8.46c-3.24,4.78-2.94,8.71,1.14,12.91,4.75,4.87,10.72,6.58,17.26,6.88s12,3,15.71,8.43c3.13,4.52,5.1,9.83,9.91,13.69-5.8,1.8-10.81,3.91-16.46,4.36-8.32.67-16,.09-22.82-5.52-4.37-3.59-9.75-4.9-15.45-5.35-7.57-.59-15.06.48-22.5,1.16-8.19.74-14.86-1.66-20.31-7.09-5.77-5.75-13-9.23-19.49-13.8-11-7.79-23.94-11.58-36.79-15.22a50.17,50.17,0,0,0-14-1.71c-13,.1-25.94,1-38.51,4.68a132.28,132.28,0,0,0-23.75,10c-10.48,5.5-18,14.93-28.15,21.07-3.82,2.32-7.35,5.5-11,8.25-4.07,3-8.33,3.79-13,1.54a17.93,17.93,0,0,0-8.7-1.81c-2.82.12-4.53,1.45-4.89,4.14-.85,6.14.77,12.22,6.44,15.54,6.79,4,13.93,3.45,21.16,2.14,1.74-.31,2.17-.16,2.58,1.7,2.41,11.13,7.56,20.28,18.45,25.42a43.64,43.64,0,0,1,13.07,9.67c2.78,2.93,2.81,3.58-.29,6.25-4.37,3.76-15.52,4.92-21,2.06a35.36,35.36,0,0,0-9.67-3.55c-5.06-1-8.15,1.77-7.11,6.79,1.66,8,2.82,16.08,4.78,24,3.49,14.08,6.27,28.33,9.15,42.56A16.58,16.58,0,0,1,169.58,295a66.39,66.39,0,0,0-4.84,12.11c-2.34,8.22,3.45,15.36,12,14.66a21.6,21.6,0,0,0,13.93-6.67c5.92-6,7.6-13.68,8.3-21.63a12.46,12.46,0,0,0-2.71-8.94,11.28,11.28,0,0,1-2.62-7c-.28-11.35-.77-22.69-.32-34,.19-5,.92-5.51,6-5.12.18,0,.36.07.54.07l17.15.19c-.25,1.56.69,2.6,1.65,3.55,3.23,3.18,6.43,6.39,9.79,9.42a30.52,30.52,0,0,1,6.91,8.33,49.55,49.55,0,0,0,7.39,11c3.19,3.42,3.68,7.54,2.53,12-.62,2.37-1.22,4.75-1.67,7.15a11.52,11.52,0,0,0,5.29,11.42c7.26,4.22,17.59,1.39,22.26-5.95,3.45-5.42,3.9-11.43,3.81-17.56a14.44,14.44,0,0,0-5.47-11.1A118.3,118.3,0,0,1,250,245.32c-2.66-3.78-5.06-7.72-8.38-11,2.09-.46,3.73-1.85,5.6-2.75,1.21,1.64,3.14,1.84,4.84,1.89,6.25.17,12.48-.17,18.41-2.45,2.1-.8,4.38-1.18,6.24-2.59a35,35,0,0,0,13-19.13c.73-.11,1.17.38,1.65.8a110.49,110.49,0,0,1,10,9.6c2.29,2.57,4.64,5.16,8,6.34,1.33.46,1.35,1,.85,2.2a38.32,38.32,0,0,0-3,16.43c.18,6.57-.5,13.05-1,19.53-.83,12-2.41,24-3.65,35.92a9.69,9.69,0,0,1-2.7,6.35,15.51,15.51,0,0,1-17.83,2.84,30.17,30.17,0,0,0-7.09-2.71c-6.17-1.29-11.38.35-15.19,5.44-3.59,4.8-5,9.88-.85,15.19a5.59,5.59,0,0,1,.38.73c3.06,5.57,7.56,8.83,14.12,8.93a37.45,37.45,0,0,0,7-.68c-1.17,3.75-2.29,7.56-.74,11.42a10.7,10.7,0,0,1,.76,5.82,8.57,8.57,0,0,0,1.07,6.28,14.67,14.67,0,0,0,10.25,7c5.23.83,10.5.45,15.75.3a12,12,0,0,0,6.34-2.26c5.58-3.83,5.57-8.53,0-12.31a33.74,33.74,0,0,1-8.86-8.73,11.38,11.38,0,0,1-2.34-7.88c.17-1.85.44-3.83-.7-5.56,5.44-1.82,10.94-3.61,15.46-7.25,4.74-3.82,7.78-8.79,6.77-15.14-.88-5.57.54-10.49,3-15.29,2.28,2.41,3.75.3,5.15-1C338.17,286,343,279.6,349,274.3c8-7.11,15-15.2,21.88-23.33,1.43-1.68,1.55-3.17-.18-4.66a71.1,71.1,0,0,0,15.82-5.73,169.5,169.5,0,0,1,23.23-9.25c6.68-2,12.46-5.26,17-10.71a29.82,29.82,0,0,1,11.87-8.85,66.47,66.47,0,0,0,12.57-6.49c7.72-5.3,15.57-10.11,24.68-13,8.62-2.7,16.8-2.83,24.82,1.17,9.61,4.78,19.43,6.3,29.8,3.06a20.89,20.89,0,0,0,12-2.37c9.25-4.73,13.92-12.86,17.52-22a4.1,4.1,0,0,0,.27-1.87,4.85,4.85,0,0,1,1.4-3.67,18.09,18.09,0,0,0,4-12.14,7.16,7.16,0,0,0-4.65-7c-3.15-1.4-6.55-1.35-9.78-2.18A16.26,16.26,0,0,0,538.36,147c-1-.17-2-.38-2.94-.5-7.21-.88-13.81-2.65-18-9.51-3.14-5.13-7.48-9.17-13.52-10.72-5.75-1.48-11.7-1.09-17.56-1.51a9.7,9.7,0,0,0-2.09-7.48,19.5,19.5,0,0,0-14.09-7.18,21.19,21.19,0,0,1-12.86-5.8c-3.25-3-5.23-6.93-7.86-10.37-2.83-3.72-5.87-7.18-10.14-9.25a11.87,11.87,0,0,0-12.38,1C423.26,88.17,421.1,91.43,422.23,96.1Z"/><path class="cls-2" d="M530.46,196.54c-10.37,3.24-20.19,1.72-29.8-3.06-8-4-16.2-3.87-24.82-1.17-9.11,2.86-17,7.67-24.68,13a66.47,66.47,0,0,1-12.57,6.49,29.82,29.82,0,0,0-11.87,8.85c-4.52,5.45-10.3,8.7-17,10.71a169.5,169.5,0,0,0-23.23,9.25,71.1,71.1,0,0,1-15.82,5.73c-3,0-6-.15-9,.17-4.07.44-8.09,1-12-.6a3.12,3.12,0,0,0-4.07,1.2c-1.13,2.17-2.77,4-3.72,6.28-4.19,10.08-8,20.34-11.76,30.57-1.06,2.84-3.08,5.39-2.85,8.66-2.49,4.8-3.91,9.72-3,15.29,1,6.35-2,11.32-6.77,15.14-4.52,3.64-10,5.43-15.45,7.25-2-.43-3.71.62-5.5,1.13-5.35,1.55-10.67,3.2-16,4.82a37.45,37.45,0,0,1-7,.68c-6.56-.1-11.06-3.36-14.12-8.93a5.59,5.59,0,0,0-.38-.73c-4.18-5.31-2.74-10.39.85-15.19,3.81-5.09,9-6.73,15.19-5.44a30.17,30.17,0,0,1,7.09,2.71A15.51,15.51,0,0,0,300,306.48a9.69,9.69,0,0,0,2.7-6.35c1.24-12,2.82-23.92,3.65-35.92.45-6.48,1.13-13,1-19.53a38.32,38.32,0,0,1,3-16.43c.5-1.17.48-1.74-.85-2.2-3.38-1.18-5.73-3.77-8-6.34a110.49,110.49,0,0,0-10-9.6c-.48-.42-.92-.91-1.65-.8.18-1.76-.8-2.8-2.1-3.82-3.68-2.9-7.41-5.78-10.86-9a26.54,26.54,0,0,0-9.69-5.79c-5.25-1.73-7.16-.06-6.17,5.41a42.8,42.8,0,0,1,.47,15.06c-.69,4-1.15,8-4.46,11s-6.89,5.8-9.67,9.38c-1.87.9-3.51,2.29-5.6,2.75a4,4,0,0,0-2.34.5,19.79,19.79,0,0,1-7.27,2.84c-5,1.2-10.1-.19-15.07,1l-17.15-.19c-.18,0-.36-.06-.54-.07-5.07-.39-5.8.16-6,5.12-.45,11.34,0,22.68.32,34a11.28,11.28,0,0,0,2.62,7,12.46,12.46,0,0,1,2.71,8.94c-.7,7.95-2.38,15.63-8.3,21.63a21.6,21.6,0,0,1-13.93,6.67c-8.53.7-14.32-6.44-12-14.66A66.39,66.39,0,0,1,169.58,295a16.58,16.58,0,0,0,1.71-11.28c-2.88-14.23-5.66-28.48-9.15-42.56-2-7.94-3.12-16-4.78-24-1-5,2-7.77,7.11-6.79a35.36,35.36,0,0,1,9.67,3.55c5.48,2.86,16.63,1.7,21-2.06,3.1-2.67,3.07-3.32.29-6.25a43.64,43.64,0,0,0-13.07-9.67c-10.89-5.14-16-14.29-18.45-25.42-.41-1.86-.84-2-2.58-1.7-7.23,1.31-14.37,1.84-21.16-2.14-5.67-3.32-7.29-9.4-6.44-15.54.36-2.69,2.07-4,4.89-4.14a17.93,17.93,0,0,1,8.7,1.81c4.67,2.25,8.93,1.49,13-1.54,3.69-2.75,7.22-5.93,11-8.25,10.1-6.14,17.67-15.57,28.15-21.07a132.28,132.28,0,0,1,23.75-10c12.57-3.72,25.5-4.58,38.51-4.68a50.17,50.17,0,0,1,14,1.71c12.85,3.64,25.76,7.43,36.79,15.22,6.49,4.57,13.72,8,19.49,13.8,5.45,5.43,12.12,7.83,20.31,7.09,7.44-.68,14.93-1.75,22.5-1.16,5.7.45,11.08,1.76,15.45,5.35,6.83,5.61,14.5,6.19,22.82,5.52,5.65-.45,10.66-2.56,16.46-4.36-4.81-3.86-6.78-9.17-9.91-13.69-3.75-5.43-9.12-8.12-15.71-8.43s-12.51-2-17.26-6.88c-4.08-4.2-4.38-8.13-1.14-12.91A20.3,20.3,0,0,1,397.2,96c8.37-2.41,16.7-3.57,25,.09a21.52,21.52,0,0,0,2.91,3.55,114.32,114.32,0,0,1,16.4,16.88,14.2,14.2,0,0,0,12.8,5.35c7-.89,13.32-.31,18.92,4.27.65.54,1.36,1.09,2.21.73,3.48-1.49,7.28-1.23,10.87-2.08,5.86.42,11.81,0,17.56,1.51,6,1.55,10.38,5.59,13.52,10.72,4.19,6.86,10.79,8.63,18,9.51,1,.12,2,.33,2.94.5-2.45,3.9-2.23,7.41,1,10.89,3.9,4.22,8.73,7.32,13.43,10.55a4.11,4.11,0,0,0,2,.72c1.72.09,2,.85,1.25,2.23-3.93,7.79-8,15.23-16.49,19.43-5,2.49-11.75,1.06-15.41-2.13-3.13-2.72-3.71-6.43-2-10.94.4-1,.93-2.15-.29-2.9s-2.27,0-3.06.94a6.71,6.71,0,0,0-1.08,1.87,13.4,13.4,0,0,0,5.52,15.67A27.07,27.07,0,0,0,530.46,196.54ZM505,138.14c.23,1.34.28,3,2.24,3.07s2.83-1.39,2.89-3.2-.51-3.19-2.5-3.15S505.15,136.38,505,138.14Z"/><path class="cls-3" d="M217,238.65c5-1.16,10.1.23,15.07-1a19.79,19.79,0,0,0,7.27-2.84,4,4,0,0,1,2.34-.5c3.32,3.26,5.72,7.2,8.38,11a118.3,118.3,0,0,0,19.43,21.6,14.44,14.44,0,0,1,5.47,11.1c.09,6.13-.36,12.14-3.81,17.56-4.67,7.34-15,10.17-22.26,5.95a11.52,11.52,0,0,1-5.29-11.42c.45-2.4,1-4.78,1.67-7.15,1.15-4.43.66-8.55-2.53-12a49.55,49.55,0,0,1-7.39-11,30.52,30.52,0,0,0-6.91-8.33c-3.36-3-6.56-6.24-9.79-9.42C217.67,241.25,216.73,240.21,217,238.65Z"/><path class="cls-3" d="M486.34,124.8c-3.59.85-7.39.59-10.87,2.08-.85.36-1.56-.19-2.21-.73-5.6-4.58-11.91-5.16-18.92-4.27a14.2,14.2,0,0,1-12.8-5.35,114.32,114.32,0,0,0-16.4-16.88,21.52,21.52,0,0,1-2.91-3.55c-1.13-4.67,1-7.93,4.69-10.37a11.87,11.87,0,0,1,12.38-1c4.27,2.07,7.31,5.53,10.14,9.25,2.63,3.44,4.61,7.36,7.86,10.37a21.19,21.19,0,0,0,12.86,5.8,19.5,19.5,0,0,1,14.09,7.18A9.7,9.7,0,0,1,486.34,124.8Z"/><path class="cls-3" d="M280.55,336.22c5.33-1.62,10.65-3.27,16-4.82,1.79-.51,3.5-1.56,5.5-1.13,1.13,1.73.86,3.71.69,5.56a11.38,11.38,0,0,0,2.34,7.88,33.74,33.74,0,0,0,8.86,8.73c5.61,3.78,5.62,8.48,0,12.31a12,12,0,0,1-6.34,2.26c-5.25.15-10.52.53-15.75-.3a14.67,14.67,0,0,1-10.25-7,8.57,8.57,0,0,1-1.07-6.28,10.7,10.7,0,0,0-.76-5.82C278.26,343.78,279.38,340,280.55,336.22Z"/><path class="cls-3" d="M247.26,231.59c2.78-3.58,6.36-6.35,9.67-9.38s3.77-7,4.46-11a42.8,42.8,0,0,0-.47-15.06c-1-5.47.92-7.14,6.17-5.41a26.54,26.54,0,0,1,9.69,5.79c3.45,3.17,7.18,6.05,10.86,9,1.3,1,2.28,2.06,2.1,3.82a35,35,0,0,1-13,19.13c-1.86,1.41-4.14,1.79-6.24,2.59-5.93,2.28-12.16,2.62-18.41,2.45C250.4,233.43,248.47,233.23,247.26,231.59Z"/><path class="cls-4" d="M530.46,196.54a27.07,27.07,0,0,1-7.19-3.17,13.4,13.4,0,0,1-5.52-15.67,6.71,6.71,0,0,1,1.08-1.87c.79-1,1.81-1.7,3.06-.94s.69,1.87.29,2.9c-1.75,4.51-1.17,8.22,2,10.94,3.66,3.19,10.38,4.62,15.41,2.13,8.52-4.2,12.56-11.64,16.49-19.43.7-1.38.47-2.14-1.25-2.23a4.11,4.11,0,0,1-2-.72c-4.7-3.23-9.53-6.33-13.43-10.55-3.21-3.48-3.43-7-1-10.89a16.26,16.26,0,0,1,12.84-1.68c3.23.83,6.63.78,9.78,2.18a7.16,7.16,0,0,1,4.65,7,18.09,18.09,0,0,1-4,12.14,4.85,4.85,0,0,0-1.4,3.67,4.1,4.1,0,0,1-.27,1.87c-3.6,9.1-8.27,17.23-17.52,22A20.89,20.89,0,0,1,530.46,196.54Z"/><path class="cls-3" d="M327.3,292.59c-.23-3.27,1.79-5.82,2.85-8.66,3.8-10.23,7.57-20.49,11.76-30.57.95-2.3,2.59-4.11,3.72-6.28a3.12,3.12,0,0,1,4.07-1.2c3.94,1.55,8,1,12,.6,3-.32,6-.13,9-.17,1.73,1.49,1.61,3,.18,4.66C364,259.1,357,267.19,349,274.3c-6,5.3-10.82,11.69-16.54,17.24C331.05,292.89,329.58,295,327.3,292.59Z"/><path class="cls-4" d="M505,138.14c.16-1.76.71-3.24,2.63-3.28s2.56,1.46,2.5,3.15-.82,3.26-2.89,3.2S505.22,139.48,505,138.14Z"/></svg>