<svg id="Layer_1" data-name="Layer 1" xmlns="http://www.w3.org/2000/svg" viewBox="0 0 670.47 444.58"><defs><style>.cls-1{fill:#fec22c;}.cls-2{fill:#fe962c;}.cls-3{fill:#fe962d;}.cls-4{fill:#0c62f5;}.cls-5{fill:#fe972d;}.cls-6{fill:#1364ed;}</style></defs><path class="cls-1" d="M132.51,221.81a31.62,31.62,0,0,0-1.33-3,22.48,22.48,0,0,1-1.64-19.17c.6-1.8.17-2.31-1.51-2.75a70.87,70.87,0,0,1-13.29-4.82c-4.49-2.19-6.1-6-4.78-11.15,1-4,4-5.91,9.06-5.5a31.76,31.76,0,0,1,6.41,1.19,60.29,60.29,0,0,0,14.72,2.52,6.44,6.44,0,0,0,4-1.16c5-3.21,9.12-7.52,14.06-10.71,12.22-7.9,25.24-14.13,39.81-16.11a38.86,38.86,0,0,1,22.88,3.41c8.22,4.13,16.7,6.24,25.79,4.51,13.19-2.51,26.58-3.7,39.73-6.46a38.89,38.89,0,0,0,9.35-3.68,83,83,0,0,1,21.53-7.44c2.7-.52,4-2.79,6.42-3.73a41.38,41.38,0,0,1,22.47-2.24c11.28,2,22.42,1.28,33.5-.66,5.15-.9,10-3.35,14.59-5.89a52.89,52.89,0,0,1,14.77-5.37c.43-.09.9-.13,1.12-.61-3.69-.65-6-.48-12.56,1.72a83.74,83.74,0,0,1-17.85,3.53c-6.2.68-11.44-2.45-13.45-7.9-2.27-6.16-.58-12.05,4.62-15.65,2.63-1.81,5.42-3.34,8.75-3.39,6-1.15,12-.23,18,.5,3.88.48,7.73,1.82,11.4-1a44,44,0,0,1,6.9-4.26c5.53-2.76,14.75-3,18.83,2.92a6.55,6.55,0,0,0,2.9,2c.51.24,1.12.5,1.46-.07,1.06-1.84,3.36-2.48,4.24-4.47,3.1-1.22,5.89-3.12,9.27-3.78,7.9-1.52,15,.76,21.55,4.71,5.8,3.47,12.06,6.25,16.82,11.37,2.21,2.38,5.41,3.26,8.72,3.15,2.72-.09,5.44-.27,8.15-.41-5.48,9-2,23.21,7.18,28.58,1.81,1.05,2,2,1.19,3.61-3,6.25-7.73,10.17-14.77,11a4.52,4.52,0,0,1-3.76-1.25c-2.35-2.25-4.88-4.35-6.69-7.12-.36-.56-.54-1.53-1.47-1.29a1.77,1.77,0,0,0-1.17,2,5.87,5.87,0,0,0,.51,2.35c3.22,6.44,8.93,9.56,16.06,8.85-6.18,5.51-13.4,6.7-21.1,4.48-5.46-1.58-11-1.88-16.58-2.43-10.12-1-18.7,2.29-27.18,7.45a71.46,71.46,0,0,0-17.75,15.41,116.71,116.71,0,0,1-13.37,13.12c-3.74,3.22-7.23,6.78-11,10-1.46,1.25-.9,3.06,1.2,4.09a27.85,27.85,0,0,0,11.57,2.72c10.71.28,21.4.11,32-1.94a37.25,37.25,0,0,1,6.52-.26c8.71-.12,17.43.29,26.13-.41,7.35-.6,13.37,2.49,18.9,6.95,7.42,6,15.11,11.49,24.37,14.52,8.64,2.83,13.5,9.45,16.17,17.83,1.28,4-.38,7.64-4.76,9.87-8.19,4.19-16.35,5-24.38-.71a57.78,57.78,0,0,1-12.46-11.67,21.08,21.08,0,0,0-16.63-8.51,100.83,100.83,0,0,0-27.78,3c-1.32.33-2.65.57-4,.85-3.23-.79-5.71,1.58-8.6,2.07a153.56,153.56,0,0,0-28.85,8.24,7.78,7.78,0,0,1-5.31.35c-1.38-.45-2.1-.05-2.3,1.36-4.15,1.07-8.54.79-12.57.33-4.59-.52-9-3-12.65-6.17-.55-.75-.28-2.18-1.61-2.26s-2.18-1.14-3.11-2c-2.56-2.28-4-5.34-5.62-8.23-1-1.8-2.08-2.27-3.75-.76-2.52,2.29-5.78,3.32-8.71,4.91-.64.35-1.29.69-2,.22-2.35-1.51-2.52.24-2.78,1.86-8.09,2.69-15.59,6.88-23.82,9.28a57.39,57.39,0,0,1-31.64.38A151.27,151.27,0,0,1,266.41,244c-6-2.82-11.8-6-17.72-9-4.87-2.44-10.21-3.74-15.09-6.2-2.43-1.22-5.22-.21-7.76.34-1.72.38-.51,1.63-.16,2.38a79.93,79.93,0,0,1,5.89,18.07,26,26,0,0,1-1.4,14.72c-2.13,5.5-4.58,11-8.78,15.27-5.9,6-7.18,13.69-8.87,21.27-1.17,5.29-.38,10.66.42,15.93a15.79,15.79,0,0,0,5.15,9.36c3.92,3.65,7.7,7.46,11.47,11.26,2.11,2.13,4.71,2.18,7.35,1.94a58.22,58.22,0,0,1,12.24.07c9.08,1.06,15.41,6,19.16,14.2,1.93,4.22.79,6.8-3.37,8.86-3,1.5-6.3,1.59-9.53,2-9.77,1.4-19.58.94-29.31,0-7.12-.73-13.73-3.75-18.08-9.59-6-8-13.66-14.3-20.48-21.44-4-4.17-6.74-9.22-9.38-14.28-1.46-2.79-.78-5.86.16-8.77a145,145,0,0,1,7.21-17.59c4.88-10.36,3.45-15.47-2.88-23.29-4.47-5.53-10.31-9.4-15.52-14,.39-2.29-1.85-2.22-2.92-3-8.38-6-15.41-13.64-24-19.4-3.18-2.13-5.87-5.18-5.24-9.76C135.23,221.42,133.61,221.9,132.51,221.81ZM473.78,106.63c0,1.59.55,2.89,2.36,3,2,.15,2.34-1.28,2.38-2.84s-.61-2.83-2.44-2.87S473.85,105.13,473.78,106.63Z"/><path class="cls-2" d="M132.51,221.81c1.1.09,2.72-.39,2.46,1.54-.63,4.58,2.06,7.63,5.24,9.76,8.59,5.76,15.62,13.4,24,19.4,1.07.77,3.31.7,2.92,3-2.73,2.52-6.06,4-9.46,5.26a36,36,0,0,0-8.55,4.71,34.91,34.91,0,0,1-9.37,4.86c-3.48,1.2-6.42,3.6-9.87,5.08q-10.62,4.53-20.87,9.94c-8.74,4.61-15.18,11.37-20.33,19.58-2.5,4-4.62,8.23-6.94,12.33-5.11,9-4.76,18.41-2.55,28,.66,2.84,1.32,5.69.94,8.61-.7,5.54-4.72,8.64-10.24,8.09a14.13,14.13,0,0,1-9.53-4.64c-8.24-9.09-13.78-19.3-13.67-31.92,0-5,1.91-9.15,6.28-12a18.43,18.43,0,0,0,5.58-5.84c5.15-8.29,9-17.17,12.58-26.21,1.82-4.6,4.89-8.47,8.19-12.12a4.49,4.49,0,0,1,3.42-1.47c11.23,0,19.53-5.71,26.82-13.55,2.59-2.79,5.47-5.31,8.3-7.87,6.52-5.91,10-13.69,13.39-21.54C131.69,223.82,132.09,222.82,132.51,221.81Z"/><path class="cls-3" d="M399.85,255.07c.2-1.41.92-1.81,2.3-1.36a7.78,7.78,0,0,0,5.31-.35,153.56,153.56,0,0,1,28.85-8.24c2.89-.49,5.37-2.86,8.6-2.07.28,1.52,1.78,1.19,2.63,1.42a22.63,22.63,0,0,1,8.84,5.15,51.41,51.41,0,0,0,6.42,5c4.87,3,10.12,11.73,7.64,19.43a122.29,122.29,0,0,1-15,31,12.66,12.66,0,0,1-7.37,5.28c-6.48,1.76-12.92,3.7-19.75,3.42A27,27,0,0,1,415.38,310a6.14,6.14,0,0,1-2.78-3.89c-1.24-4.63,2.14-11.6,6.59-13.35s8.95-3.53,13.51-5c5.59-1.85,9.07-5.91,11.61-10.84,2.91-5.64,2.75-5.7-3.26-7.79-6.59-2.29-13-5.12-20-6.19-1.81-.27-3.5-1.45-5.22-2.25-4.07-1.9-8.6-2.1-12.82-3.45C401.77,256.83,400.29,256.7,399.85,255.07Z"/><path class="cls-4" d="M505,158.68c-7.13.71-12.84-2.41-16.06-8.85a5.87,5.87,0,0,1-.51-2.35,1.77,1.77,0,0,1,1.17-2c.93-.24,1.11.73,1.47,1.29,1.81,2.77,4.34,4.87,6.69,7.12a4.52,4.52,0,0,0,3.76,1.25c7-.84,11.77-4.76,14.77-11,.78-1.61.62-2.56-1.19-3.61C505.94,135.19,502.47,121,508,112c6.21-1,12.39-3,18.64,0,5.74,2.75,8.27,8.52,6.08,14.49-1.95,5.29-5.62,9.27-9.89,12.75a5.19,5.19,0,0,0-2.12,3C518.9,151.05,513.24,156.08,505,158.68Z"/><path class="cls-5" d="M443.44,96.94c-.88,2-3.18,2.63-4.24,4.47-.34.57-.95.31-1.46.07a6.55,6.55,0,0,1-2.9-2c-4.08-5.94-13.3-5.68-18.83-2.92a44,44,0,0,0-6.9,4.26c-3.67,2.78-7.52,1.44-11.4,1-6-.73-12-1.65-18-.5.37-.76,0-1.41-.28-2.08a9.31,9.31,0,0,1,9.17-12.59,28.33,28.33,0,0,1,11.8,2.94c3.83,1.81,7.3,1.32,10.77-1a18.12,18.12,0,0,1,19.15-1.11C435,89.88,438.71,94.23,443.44,96.94Z"/><path class="cls-5" d="M347,243c.26-1.62.43-3.37,2.78-1.86.74.47,1.39.13,2-.22,2.93-1.59,6.19-2.62,8.71-4.91,1.67-1.51,2.73-1,3.75.76,1.65,2.89,3.06,5.95,5.62,8.23.93.83,1.65,1.89,3.11,2s1.06,1.51,1.61,2.26A71.23,71.23,0,0,1,358,251C351.55,250.9,349,249.18,347,243Z"/><path class="cls-6" d="M473.78,106.62c.07-1.49.51-2.72,2.3-2.68s2.48,1.2,2.44,2.87-.39,3-2.38,2.84C474.33,109.52,473.81,108.22,473.78,106.62Z"/></svg>