<?xml version="1.0" encoding="utf-8"?>
<!-- Generator: Adobe Illustrator 24.3.0, SVG Export Plug-In . SVG Version: 6.00 Build 0)  -->
<svg version="1.1" id="Layer_2_1_" xmlns="http://www.w3.org/2000/svg" xmlns:xlink="http://www.w3.org/1999/xlink" x="0px" y="0px"
	 viewBox="0 0 960.3 947.6" style="enable-background:new 0 0 960.3 947.6;" xml:space="preserve">
<style type="text/css">
	.st0{fill:#FFFFFF;}
</style>
<g>
	<path class="st0" d="M84.1,380.9c-2.2,8.1,3.3,12.2,6.4,17.4c3.2,5.4,6.8,10.6,9.9,16c2.1,3.6-1.4,8.8-6.6,8.7
		c-3.9-0.1-7.8-2.2-11.5-3.6c-2.7-1-5.2-3.3-7.8-3.4c-5.4-0.2-9.3-2.7-13.3-5.9c-2.6-2-5.7-3.7-8.8-4.7c-6-1.8-11.6-4.1-15.5-9.3
		c-3.9-5.2-3.6-10.2,0-15.6c1.5-2.2,1.8-5.2,3.1-7.6c1.7-3.2,3.1-7.5,5.9-9.1c4.6-2.6,10.2-3.4,15.4-4.8c2.5-0.7,5.3-0.5,7.7-1.5
		c5.4-2.1,8.9-1.2,10.6,4.2C81.6,368.2,82.8,375,84.1,380.9z"/>
	<g>
		<path class="st0" d="M142.4,436.4c5.2-3.1,10.4-6.3,15.7-9.3c0.9-0.5,2.5-0.1,3.6,0.5c3.7,1.8,7.2,4.1,10.9,5.8
			c8.1,3.8,16.1,1.8,23.7-1.5c12.6-5.4,21.8-14.4,28.7-26.4c5.7-9.8,10-20,11.9-30.9c0.9-5.1-1.1-11.2-3.3-16.2
			c-2.9-6.5-7.5-12.1-14.1-15.5c-3.7-1.9-10.3-0.2-13.2,3.3c-3.6,4.6-3.4,11.4,0.4,16.2c2.8,3.5,7.5,6.6,5.9,11.9
			c-4.3,14.4-10.4,27.7-24.5,35.3c-6,3.2-11.3,1.2-13.8-5.3c-2.1-5.6-6.2-9.5-11.2-10.2c-6.2-0.8-12,2.1-15.3,8.3
			c-7.3,13.8-29.7,15-37.7,5.8c-0.4-0.5-1.3-0.7-1.5-1.3c-4.9-11.4-12.6-22-9.3-35.7c1.1-4.6,0.6-9.6,0.7-14.4
			c0-2.6,0.6-4.5,3.5-5.1c1.8-0.3,3.5-1.2,5.2-1.7c7.7-2.2,14.5-5.5,19.1-12.6c1.4-2.1,4.6-4,7.1-4.2c9.4-0.8,17.1-5.3,23.2-11.6
			c12.5-13,14.7-28.7,8.9-45.4c-1.5-4.2-5-7.8-8.1-11.2c-6.3-7.2-14.8-11.9-20.7-20.1c-5.8-8.1-16.4-9.5-26.1-10.8
			c-3.1-0.4-6.3-0.2-9.5,0c-10.1,0.6-15.6,5.1-19.2,14.7c-0.5,1.4-2.5,2.9-4.1,3.3c-14,3.1-22.8,17-22.8,30.3
			c0,8.7,4.1,14.9,11.3,19.2c3.3,2,4.5,4,4.1,8c-0.4,4.7,0,9.7,1.1,14.3c1.4,6.2-0.4,10.9-4.8,14.8c-13.1,11.2-29.1,15.2-44.6,2.5
			c-2.1-1.7-4.3-4.1-5.2-6.6c-3-8.2-7.3-16-6.9-25.2c0.2-4.4-1.9-8.9-1.6-13.2c0.6-8.5,1.9-17,3.5-25.4c1-5.4,2.3-11,4.7-16
			c5-10.3,11.2-20.1,20.9-26.6c8.1-5.5,17.1-9.6,25.2-15c2.6-1.8,4.2-5.6,5.5-8.8c2-4.9,2.6-10.4,5-15.1
			c6.1-11.7,16.2-18.4,29.3-18.8c10.4-0.3,20.9,1.2,31.3,2c1.3,0.1,2.7,0.5,3.8,1.1c8.5,5.3,15.9,1.9,23.3-2.5
			c3.2-1.9,6.5-3.9,10-5.1c9.9-3.2,20-4.5,30.5-2.7c6.8,1.2,8.1-0.7,9.3-7.2c1.1-6.1,4.2-11.8,5.8-17.9c0.8-3.1,1.6-7.3,0.2-9.8
			c-7.1-12.7-7.4-26.3-6.2-40c0.4-4.9,2.7-10,5.3-14.3c5.3-8.7,12.9-14.8,22.6-18.4c2.5-0.9,4.9-4.1,5.8-6.8
			c2.5-7.3,3.3-15.3,6.4-22.3c3.4-7.8,9.2-14,16.6-19c10.2-7,21.2-8,32.8-7.4c3.1,0.2,6.1,1.3,9.1,2c4.1,1,8.4,1.5,12.1,3.3
			c6.8,3.3,13.1,7.5,19.7,11.4c1.3,0.8,2.3,2.2,3.6,2.5c6,1.5,12.2,2.7,18.2,4.2c1.4,0.3,2.8,1.1,4,1.8c14,7.5,24.5,18.1,32.5,32.2
			c6.4,11.4,9.4,22.9,8.9,35.6c-0.5,11.9-5.5,21.8-14.3,29.6c-4.4,4-4.3,8.6-3.3,13.2c2.8,12.3,2.1,24.6-0.9,36.6
			c-2.9,11.2-9.1,20.8-17.9,28.8c-5.5,4.9-5.5,7.4-2,12.4c2,2.7,3.8,2.4,5.7,0.4c1.4-1.6,2.1-3.8,3.6-5.3
			c5.3-5.4,10.2-11.8,16.5-15.7c5.5-3.4,12.7-4.2,19.2-6c1.4-0.4,3-0.3,4.5,0c6.5,1,10.3-1.7,14-7.4c4.8-7.4,10.4-15.4,17.6-20.1
			c9.9-6.4,21.4-10.9,34-8.2c1.9,0.4,4,0.3,5.9,0.7c6.3,1,9.8-1.8,13.3-7c4.2-6.1,10-10.8,17.4-13.3c5-1.7,9.5-4,15.1-3.8
			c22.8,0.8,40.8,10,54.2,28.5c6.8,9.4,12.1,19.4,14.5,30.8c2.5,11.7-1.1,21.5-8.5,30.5c-1.5,1.9-2.7,4.6-2.7,7
			c-0.2,12.9-2.7,25.3-8.3,36.7c-5.1,10.4-12.6,19-21.7,26.7c-13.7,11.7-29.4,13.5-46.2,12.5c-1.8-0.1-3.6-0.7-5.3-1.3
			c-4.9-1.8-8.4,0.8-9.6,5.9c-1.9,8-4.7,15.7-7,23.5c-0.4,1.5-0.8,3.5-0.1,4.6c0.5,0.8,2.8,1.1,4.2,0.8c13-3,25.8-1.5,38.4,2
			c3.6,1,7.3,2.3,10.6,4.1c10,5.6,20.2,3.5,30.7,2.2c11.1-1.4,22.2-1.6,32.6,3.9c6.2,3.3,12.8,5.9,18.9,9.3
			c5.9,3.2,10.9,1.6,15.3-2.5c6.1-5.7,13.9-7.3,21.6-9.4c8.2-2.3,16.3-2.3,24.6-0.1c3.7,1,12.2-5.4,12.8-10
			c0.9-6.6,6.2-9.6,10.2-13.5c2.7-2.7,6.6-4.3,10.2-5.8c5.8-2.5,7.9-5.6,7.2-12c-1.3-12.7,0.4-25.5,5.8-36.5
			c4.2-8.6,12.9-15.2,20.2-22c6.5-6.1,15.1-4.1,23.1-4.2c10.3-0.1,20.6-0.7,30.9-0.9c5.3-0.1,10.6,0,15.8,0.6
			c5.9,0.7,12,1.4,17.3,3.6c6.8,2.8,13.1,6.9,19.3,10.9c7.3,4.7,11.9,11.9,16.4,19c4.8,7.6,8.5,15.8,8.1,25.2
			c-0.5,10.3,3.8,18.7,9.5,27c11.3,16.6,19.4,34.6,20.5,55.1c0.3,4.8,2.1,9.6,1.7,14.2c-1.4,14.1-3.5,28.1-9.8,41.3
			c-6.1,12.5-13.9,23.1-26,29.9c-3.7,2.1-8,3.7-12.1,4c-6.9,0.5-14,0.2-20.9-0.6c-6-0.7-8.6,0.4-10.7,6.1c-0.9,2.2-2,4.5-3.4,6.4
			c-3.6,4.9-3.4,8.2,1.5,11.8c4.7,3.5,9.9,6.2,14.2,10c6.3,5.5,13,10.7,16.8,18.5c1.5,3.1,3.7,5.9,5.6,8.7
			c8.8,12.9,13.5,27.2,13.7,42.8c0,5,2.9,7.4,7.4,8.6c8.1,2.2,14,8.1,20.4,12.9c4.2,3.2,7.1,8,10.8,11.9c3.8,4,8.6,7.2,11.8,11.6
			c8,10.8,14.7,22.7,16.8,36c1.4,8.3,1.1,17.4-0.8,25.6c-3.6,16-12.6,29.4-25.2,40.1c-1.3,1.1-1.9,3.9-1.8,5.8
			c0.5,9.9,1.6,19.8,1.9,29.7c0.3,9.2-2.2,17.5-6.4,26.1c-4,8.1-8.7,15-15.9,19.6c-16.9,10.7-34.8,18.4-55.3,9.5
			c-4.6-2-7.1,0-9.1,6.1c-2.4,7.4-4.6,14.9-7.7,22c-3.9,9.2-9.9,16.8-18.1,22.7c-5.7,4.2-11.1,9.1-16,14.3
			c-6.9,7.3-16.1,10.2-25.1,13.3c-13.5,4.7-27.6,3.3-41.6,2.9c-12.4-0.3-23.7-4.7-34.9-9.4c-4.2-1.8-8.4-4.3-11.6-7.5
			c-5.9-5.7-11.1-12-16.6-18.1c-1.7-1.9-3.6-3.9-4.9-6.1c-3.6-6.1-7.3-12.1-10.2-18.5c-2.1-4.6-3.3-9.6-4.7-14.5
			c-4.2-14.2-1.4-27.9,2.5-41.7c0.9-3.1,1.5-6.5,1.6-9.7c0.2-6.3,0.2-12.7,0-19c-0.4-9.6,3-17.9,7.3-26.5
			c6-12.1,13.6-22.8,24.1-31.2c6.4-5.1,13.3-9.8,20.2-14.2c3.8-2.4,6.5-4.8,6.6-9.7c0-4.5,1.5-9,0.9-13.4
			c-1.7-11.2-12.7-16.9-23.3-12.4c-11.4,4.9-23.1,4.3-34.8,2.4c-4.1-0.7-8.1-2.9-11.8-4.9c-3.7-2-6.7-1.4-10.2,0.8
			c-6.3,3.9-12.6,8.8-19.5,10.5c-9.9,2.4-20.3,2.7-30.6,3.1c-9.9,0.4-11,0.9-10.8,10.9c0.2,8.6-1,16.5-6.5,23.5
			c-3.7,4.7-2.8,9-0.6,14.7c3.5,8.6,7.5,17,9.5,26.4c2.2,10,4.5,19.8,4.2,29.9c-0.5,18.5-6.1,34.8-22.4,45.8
			c-4.4,2.9-5.1,7.7-2.6,12.7c0.4,0.9,0.9,1.8,1,2.8c1.3,15.6-0.5,30.9-5.4,45.7c-2.2,6.6-4.4,13.2-7.5,19.3
			c-2.7,5.4-6.4,10.2-9.9,15.1c-2.2,3.1-4.6,6.1-7.3,8.7c-10.4,10.4-23.4,13-37.3,11.2c-7.4-1-12.2,1.7-16.8,6.8
			c-16.7,18.5-37.7,24.4-61.8,20.4c-2.7-0.5-5.4-1.7-7.9-2.8c-11.6-4.9-23.1-10-31.8-19.6c-3.6-4-6.2-9.1-10.2-12.7
			c-2.7-2.4-6.9-4.5-10.4-4.5c-12.1,0.1-23.5-2.4-34.2-7.6c-9.9-4.8-17.9-12.1-24.4-21.2c-6.3-8.7-9.7-18.4-12.3-28.6
			c-2.8-10.9-2.1-21.8,0.9-32.5c2.3-8.1,4.3-16.5,7.7-24.2c3.9-9,9.6-16.9,18-22.5c2.8-1.8,5.8-3.4,8-5.9c1.7-1.8,2.9-4.7,3-7.2
			c0.7-11.3,0.3-22.6,1.4-33.9c1.3-13.8,8.6-25.3,16-36.5c4.3-6.4,9.2-12.6,15-17.6c4.8-4.2,11-6.7,16.8-9.6c5-2.5,9.1-5.2,10-11.4
			c0.4-2.8,2.5-5.4,3.3-8.2c0.4-1.5,0.4-3.7-0.5-4.9c-0.7-0.9-3.4-1.4-4.4-0.7c-8.3,5.6-19,6.7-26.3,14.1c-1.6,1.6-2.6,3.8-4.2,5.5
			c-5.2,5.8-10.3,11.8-15.9,17.2c-2.3,2.2-5.9,2.9-8.7,4.6c-7.5,4.4-15.6,4.1-23.8,3.6c-3.9-0.2-6.8,1.1-8.8,4.4
			c-2.4,3.8-5,7.4-7.3,11.2c-13.4,22-33.3,31.3-58.6,30.3c-1.3-0.1-2.6-0.4-3.9-0.7c-8.9-2.5-13.2-1.5-18.7,5.9
			c-6.7,8.8-14.9,16-25.1,19.6c-11.1,3.9-22.8,7.6-34.9,2.1c-4.9-2.3-10.5-3.1-15.2-5.7c-4.3-2.4-8-6.1-11.7-9.5
			c-3.7-3.2-7.2-6.6-10.6-10c-2.4-2.5-4.8-5.1-6.7-7.9c-4.1-6.3-6.9-7.5-13.8-5.2c-9.6,3.2-19,1.7-28.4-1
			c-13.3-3.8-23.4-12-31.7-22.7c-8.5-11-13.4-23.4-17.9-36.5c-4.4-12.7-5.9-25.5-6.3-38.5c-0.3-10.3,3.1-20,6.4-29.8
			c3.6-10.7,11.4-17.1,18.6-24.6c2.4-2.4,4.5-6.3,4.6-9.5c0.1-13.8,4-26.9,9.9-38.8c6.7-13.5,13.3-27.8,26.6-36.9
			c5-3.4,9.2-8.2,14.5-10.9c13.9-7.2,28.4-12.4,44.5-7.3c6.4,2,13.3,3.2,19.2,6.1c6.9,3.4,13.2,8,19.4,12.6
			c4.7,3.5,9.5,5.6,15.5,5.8c9.1,0.3,18.3,0.8,27.3,2.2c5,0.8,9.9,3.3,14.4,5.9c6.9,3.9,10.7,2.7,16.1-2.9
			c5.6-5.9,12.5-10.5,18.9-15.6c0.9-0.7,2.2-1,3-1.7c1.2-1,2.1-2.3,3.1-3.4c-1.5-0.9-2.9-1.9-4.5-2.5c-6.3-2.3-12.6-4.6-18.9-6.8
			c-2.1-0.8-4.6-1-6.4-2.2c-6-4.1-11.9-8.3-17.6-12.9c-3.1-2.5-5.8-2.7-9-0.5c-14.8,9.8-30.6,13.7-47.6,6.2
			c-5.6-2.5-10.8-6.1-16.2-9.1C142.1,437.7,142.3,437,142.4,436.4z M263.3,241.1c10.8-0.9,11.9-1.4,20.3-7.9c1.5-1.2,3.3-2.2,5.1-3
			c9.1-4.2,12.3-10.2,10.6-19.9c-1.1-6.2-2.6-12-7.7-16.3c-1-0.8-1.4-2.6-1.8-4c-2-7.5-6.6-11.9-14.4-12.8c-1.7-0.2-3.3-0.5-4.9-0.7
			c-6.1-0.9-13.1,2.8-16.5,7.9c-1.8,2.7-4.4,5.4-7.3,6.7c-13,5.7-17.2,18.5-7.4,30.4c2.1,2.5,3.2,5.7,5.1,8.4c1.8,2.6,3.4,6,6,7.4
			C254.1,239.3,258.9,239.9,263.3,241.1z M362,267c-0.1-1.5,0.1-3.1-0.3-4.5c-1.5-6.1-4-11.5-9.9-14.7c-2.2-1.2-4.6-2.6-5.9-4.6
			c-4.2-6.1-13.1-8.6-19.7-5.3c-4.7,2.3-9.5,4.4-14.2,6.5c-13.3,6.1-21.2,22.3-6.7,34.3c1.8,1.5,3.4,3.2,4.8,5
			c5.4,7.1,12.9,8.8,20.9,7.5c6.1-1,12.3-2.9,18-5.6C356.7,282.2,362.6,276.7,362,267z"/>
		<path class="st0" d="M267.2,196.9c5.6,0,11.1,4.7,11.1,9.4c0,5.4-7.9,14.1-12.8,14.3c-4,0.1-9.3-5.8-9.5-10.5
			C255.9,204.3,262.1,196.9,267.2,196.9z"/>
		<path class="st0" d="M317.6,265.4c0.4-2.6,0-5.8,1.3-7.7c1.6-2.4,4.9-5.4,7.1-5.2c4.1,0.4,9.7,1.5,10.7,6.6
			c0.8,4.2,0.6,9.1-0.7,13.1c-2.1,6.2-9.2,7.9-14.7,4.5C317,273.9,317.7,269.6,317.6,265.4z"/>
	</g>
</g>
</svg>
