<?xml version="1.0" encoding="utf-8"?>
<!-- Generator: Adobe Illustrator 24.3.0, SVG Export Plug-In . SVG Version: 6.00 Build 0)  -->
<svg version="1.1" id="Layer_2_1_" xmlns="http://www.w3.org/2000/svg" xmlns:xlink="http://www.w3.org/1999/xlink" x="0px" y="0px"
	 viewBox="0 0 251 156.6" style="enable-background:new 0 0 251 156.6;" xml:space="preserve">
<style type="text/css">
	.st0{fill:#97CAFF;}
</style>
<path class="st0" d="M110.6,134.3c14.8-9.9,37.4,5.3,53.8,11.8c28.5,11.3,45.3,16.2,55.1,0.9c4-6.2,4.9-19.4,9.5-25.1
	c7.4-9.1,21.2-15,22-41.3c0.8-24.8-8.9-41.4-22-49.3c-7.5-4.5-20.4-11.2-56.1,2.5c-32.1,12.2,1.7-13.4-27-25.1
	C119.9-2,55.2-5.7,34.6,14.5c-4,3.9-7.5,16.3-7.2,22.1C28.3,51.3,10,51.9,3.6,68.9c-6.3,16.5-5.5,54.8,12.5,63.9
	C53.1,151.7,86.2,150.6,110.6,134.3z"/>
</svg>
