<?xml version="1.0" encoding="utf-8"?>
<!-- Generator: Adobe Illustrator 24.3.0, SVG Export Plug-In . SVG Version: 6.00 Build 0)  -->
<svg version="1.1" id="Layer_2_1_" xmlns="http://www.w3.org/2000/svg" xmlns:xlink="http://www.w3.org/1999/xlink" x="0px" y="0px"
	 viewBox="0 0 1143.4 961.2" style="enable-background:new 0 0 1143.4 961.2;" xml:space="preserve">
<style type="text/css">
	.st0{fill:#FFFFFF;}
</style>
<g>
	<path class="st0" d="M858.2,626.4c0,0.9-0.2,1.8,0,2.6c6.7,20.3,5.1,40.6,0.3,61.1c-2.4,10.3-6,19.8-15.2,26
		c-2.7,1.8-5.9,2.9-9,3.8c-3,0.9-4,2.5-3.6,5.5c1.7,12.8-1.7,24.9-6.9,36.3c-4.2,9.2-8.6,18.6-14.8,26.4
		c-16.8,21.2-41.1,34.6-72.7,27.2c-13.2-3.1-25.6-8.2-36.3-16.8c-0.4-0.3-0.9-0.5-1.3-0.8c-7.3-6.1-7.6-6.2-10.8,2.4
		c-5.1,13.4-11.9,25.7-21.8,36c-15.5,16.1-29.3,19.1-49,9.9c-17.3-8-29.1-21.9-36.1-39.6c-4-10-3.7-20.3-2.4-30.9
		c0.8-6.4-0.7-13.1-1.2-19.6c-1.7-21.3,4.1-39.9,19.5-55.4c7.4-7.4,15.3-13.9,25.5-16.8c5.5-1.6,11.4-1.8,17.2-2.3
		c3.1-0.3,5-1.2,5.5-4.5c2-11.8,4.5-23.5,12.8-34.1c-2.7-0.7-4.5-1.4-6.3-1.5c-11.8-0.3-23-3.4-31.8-11.3
		c-6-5.3-10.6-12.2-15.5-18.7c-3.2-4.3-3.9-4.6-7.2-0.4c-6.5,8.3-13.9,15.6-23.3,20.6c-5.4,2.9-10.9,3.3-16.4,2.2
		c-9.4-1.9-17.9-5.8-24.8-12.9c-4.5-4.6-5.5-4.2-8.4,1.6c-5.4,10.8-10.6,21.8-16.8,32.1c-2.5,4.1-7.2,7.1-11.3,10.1
		c-2.7,2-4.4,3.9-4.6,7.6c-0.5,12.4-1.6,24.8-2.1,37.3c-0.1,2.6,0.9,6.2,2.7,7.8c7.6,6.7,12.7,14.9,16.6,24
		c8.9,21.3,14.7,43.4,14.9,66.7c0,1.7,0.2,3.5-0.4,5c-3.8,9-0.6,16.5,3.9,24.4c6.1,10.7,10.1,22.6,8.1,34.9
		c-1.7,10.7-5.4,21.2-8.9,31.6c-3.4,9.9-8.7,18.8-15.6,26.9c-6.3,7.4-14.3,11.6-23.4,14.3c-20.1,5.9-38.9,2-56.7-7.8
		c-3.9-2.2-5.9-1.3-8.1,2.1c-14.9,23.6-32.1,25.2-55.1,17.8c-25-8-41.9-25.4-55.1-47.2c-8.8-14.5-17.5-29-25.8-43.8
		c-9.1-16.3-14.3-33.8-15.1-52.7c-0.6-13.9-1.2-27.6,2.3-41.2c2-7.7,4.1-15.5,7.5-22.6c2.2-4.7,7-8,10.5-12.2
		c1.6-1.9,3.6-4.1,3.9-6.3c1.7-16.4,4.3-32.7,10-48.2c6-16.3,15.1-30.5,30.1-39.8c3.6-2.2,8.5-2.5,12.9-3c3-0.4,4.8-0.9,5.7-4.2
		c2.1-8.2,4.5-16.3,7.1-25.3c-1.9,0.5-3.4,0.8-4.8,1.4c-13.6,5.6-26.7,3.6-39.3-3c-4.8-2.5-5.8-4.3-9.7,2.8
		c-3.8,7-8.8,13.7-14.5,19.4c-13.1,13.1-28.9,11-43.3,1.8c-3.1-2-6.1-4.1-8.8-6.5c-3.2-2.9-5.1-1.7-6.4,1.5
		c-3.2,7.6-8.6,13.1-16.1,16.1c-3.1,1.3-6.7,1.9-10.1,1.9c-4.5,0-5.8,1.7-6.6,6c-3.2,17.6-11.6,31.5-29.9,36.9
		c-8.8,2.6-17.5,1.1-26-1.4c-1.8-0.5-3.6-0.9-5.3-1.6c-4-1.7-6.4,0-8,3.4c-5.5,11.8-22,15.8-34.3,11.7c-2.7-0.9-5.3-2.1-8.1-2.4
		c-1.7-0.2-4.1,0.3-5.3,1.4c-13.2,11.4-30.9,10.9-44,0c-12.9-10.8-21.2-24.5-27.6-39.7c-2.4-5.6-4-11.6-5.7-17.4
		c-2.1-7-0.7-13.7,1.7-20.5c1.1-3.2,1.1-7.3,0.2-10.6c-1.7-6.1-4.4-11.8-6.6-17.7c-5.2-14.2-2.8-28,2.6-41.4
		c4.6-11.4,11.8-21,22.7-27c4.3-2.4,9.7-3.3,14.7-3.6c4.7-0.3,7.3-1.8,8.8-6.3c1.6-4.9,3.5-9.7,5.8-14.3
		c8.5-16.8,38.9-35.2,62.4-23.3c1,0.5,2.1,1,3,1.7c3,2.5,5.2,1.5,6.9-1.5c14.9-27,54-35.8,79.9-19.9c10.8,6.6,18.6,16.2,24.2,27.2
		c2.9,5.6,7.2,7.6,12.7,8c1.1,0.1,2.8-1.8,3.3-3.1c0.5-1.2-0.3-2.9-0.3-4.4c-0.1-7.2,0-14.5-0.3-21.7c-0.1-2.8-0.2-6.1-1.7-8.3
		c-7.5-11-7.8-22.7-4.6-34.9c5.5-20.8,18.1-36.6,35.1-49.4c1.1-0.8,1.1-2.9,1.7-4.4c-1.6,0.4-3.8,0.2-4.8,1.2
		c-8.6,8.4-18.1,15.3-30.4,16.7c-7.7,0.9-14.9-0.7-21.4-5c-5.5-3.7-6.4-3.6-9,2.6c-5.8,13.7-16.9,20.1-31,21.9
		c-9.1,1.1-15.2-5.3-21-10.9c-12.3-12.1-18.6-27.2-21.9-43.9c-1.6-8.2,4.8-19.8,10.2-22.4c3.5-1.7,8.6-1.5,12.6-0.5
		c13.4,3.2,25.1,0.1,35.4-8.6c2.4-2,4.6-4.4,6.3-7c2-2.9,4.3-4.3,7.8-4.3c25.2-0.1,47.3-24.4,40.6-53.2c-4.6-19.8-13.4-37.2-30-49.8
		c-3.5-2.6-7.8-4.2-11.8-6.2c-2.3-1.2-5-2.1-7-3.7c-15-12.4-31.4-12.8-48-0.7c-2.5,1.9-4.1,1.9-6.5,0c-17.2-14-38.9-4.3-46.8,12.1
		c-2.1,4.3-0.7,10.3-1.2,15.5c-0.2,2.6-0.2,5.9-1.7,7.7c-13,14.7-17.5,34.3-5.5,52.2c2,3,3.5,6.4,5.6,9.3c6.4,8.9,4.2,18.5-5.7,23.6
		c-18.1,9.4-40.4-2.9-41.6-23.2c-0.3-4.4,0.8-8.9,1.1-13.3c0.2-3,1-6.2,0.1-8.8c-4.9-14.3-2.3-28.2,2.3-41.6
		c5.1-14.9,11.2-29.5,18.1-43.5c3.9-7.9,9.8-15.1,15.9-21.6c6.8-7.2,17.7-7.8,26.1-2.2c4.5,3,8.2,3.9,13.7,1.3
		c12.9-5.9,25.9-4.9,38.3,2.1c3.9,2.2,6.6,2.1,9.3-1.7c4.9-6.8,12.2-9.5,20.1-10.9c2.9-0.5,4.5-1.4,3.1-4.5
		c-4.8-10.9-4-22.1-1.2-33.3c2.8-11.3,7.8-21.4,16.5-29.6c6.7-6.3,14.2-8.9,23.3-6.5c7,1.9,6.6,1.5,10.6-4.7
		c4.1-6.4,10.5-10.2,17.8-12.7c13.8-4.8,26.6-2.2,38.7,4.8c3.9,2.3,6.4,1.9,8.5-2c1-1.7,2.4-3.3,3.1-5.1
		c6.1-15.1,18.5-21.5,33.4-24.4c12.3-2.4,23.4,0.6,33.5,7.9c5.2,3.7,5.1,3.5,9.3-1.7c2.2-2.7,4.6-5.5,7.6-7.1
		c4.5-2.4,5.9-6.5,7.6-10.6c4.5-11.1,11.6-19.3,24.2-21c2.6-0.4,5.3-0.4,7.9,0c13.1,2.1,24.6,8.2,35.3,15.6
		c6.4,4.4,11.4,10.4,13.3,18.2c1.8,7.3,7.9,10.9,12.3,16c8.1,9.4,12,20.2,10.9,32.6c-0.6,6.7-6.6,12.6-13.4,11.9
		c-5.9-0.6-8.2,1.8-10,6.9c-3,8.4-6.7,16.5-13.7,22.8c-6.6,5.9-13.7,6.4-21.3,4.3c-4.3-1.2-8.3-3.3-12.3-5.4
		c-2.6-1.4-4.1-0.9-4.9,1.8c-2.7,9.4-4.6,19.1-11.2,26.9c-0.4,0.4,1.6,4.1,2.8,4.3c7.2,1.3,13.7,3.7,19.1,8.8
		c2.6,2.5,3.9,0.6,5.1-1.9c4.2-8.9,9.4-17,19.2-20.7c3.8-1.4,8-2.4,12-2.6c18.9-1.2,36.9,1.5,52.4,13.5c2.7,2.1,4.9,1.6,6.5-1.5
		c8.5-16.3,28-23.3,44.7-17.9c5.2,1.7,10.1,4.1,15.4,5.5c3,0.8,6.9,1.3,9.4,0c20.5-10,40.5-5.7,59.7,3c10.1,4.6,15.9,14,18.7,25.2
		c3.5,14.3,0.1,27.6-4,41.1c-3.1,10.5-7,20.6-14.1,29c-8.8,10.4-15.7,16.2-32.2,11.5c-6-1.7-7.2-0.7-10,5.6
		c-7.7,17.2-17.2,33-34,43.2c-19,11.5-37.9,7.2-54.2-5.3c-3.4-2.6-5-2.2-6.6,1.6c-3.8,8.7-9.5,15.9-18,20.7
		c-11.1,6.3-21.9,4.8-32.1-1.2c-5.2-3-9.6-7.5-14.2-11.6c-2.5-2.2-4.2-2.9-6.4,0.3c-2.5,3.7-5.4,7.2-8.2,10.7
		c-2.1,2.7-2.1,5.2,1,7.1c8.7,5.2,14.9,12.7,19.8,21.3c2.4,4.2,5.6,4.3,9.3,2.8c12.9-5.4,25.9-5.9,39.6-3c11.3,2.4,21.4,7.1,31,13.1
		c4.2,2.6,7,2,10.2-1.9c13.5-16.5,37.7-27,60.3-18.9c12.9,4.7,25.4,10.6,37.8,16.6c3.9,1.9,5.8,1.2,8.6-1.3
		c6.3-5.5,12.4-11.6,19.6-15.9c16.5-9.7,29.8-9.5,45.3,3.6c3,2.5,5.1,1.4,7.4-0.7c9.9-9,21.4-12.9,34.5-9.4
		c7.5,2,15.1,4.1,20.6,10.4c2.5,2.9,5.1,2.5,7.6-0.3c3.2-3.6,6.8-6.9,9.6-10.7c1-1.4,1.3-4.3,0.6-5.9c-6.9-16.6-3.7-32.2,3.6-47.7
		c4.4-9.4,3.6-9.4-3.6-16.8c-11.2-11.6-17.4-29-9.9-45.4c10.5-22.9,27.7-39,50.7-49.1c9.3-4,18.6-5.7,28.6-2.5c3.2,1,7,1.2,10.3,0.5
		c23.2-4.8,41.9,3,56.9,20.4c8.1,9.4,13.1,20.6,13.7,33c0.3,6.2-1.5,12.8-3.6,18.8c-2.1,6.1-5.9,11.5-8.5,17.4
		c-0.5,1.2,0.3,4.1,1.4,4.9c13.1,9.8,11.8,18.8,7.8,32.4c-4.2,14.5-12.6,26.2-25.2,34.8c-4.6,3.1-4,4.6,0.9,8.5
		c6.7,5.3,13.1,11.1,19.7,16.6c8.5,7.2,12.6,17,15.9,27.2c1.3,4,3.1,5.7,7.5,5.4c21.4-1.2,37.8,8,50.6,24.7
		c6.8,8.9,10.8,18.6,10,29.9c-0.2,2.9-1.1,5.9-2,8.7c-1.2,3.7,0.2,6.1,3.5,7.7c21,10.4,34.9,27.4,43.4,48.7
		c7.2,18,6.4,36.5,0.4,54.8c-1.9,5.6-4.5,11-6.3,16.7c-0.5,1.6-0.3,4.2,0.7,5.5c14.6,19,18.4,40.5,15,63.7c-0.6,4.3,1.4,5.7,4.8,7.4
		c5.1,2.6,10.4,5.4,14.3,9.4c13.3,13.6,19.1,30.7,21.3,49.4c2.4,20.2,0.5,39.9-5.5,59.2c-1.6,5.2-5.9,9.6-8.4,14.6
		c-1.1,2.3-2.1,5.8-1.1,7.7c9.5,17.9,4.8,34.3-6,49.1c-5.3,7.3-13.2,13.2-20.9,18.3c-13,8.7-26.2,17-40.2,24
		c-14.6,7.3-30.2,6.7-45.7,1.6c-11.9-3.9-20.5-11.3-26.8-21.8c-2.6-4.3-3.7-4.3-6.8-0.4c-5.3,6.6-10.1,13.6-15.9,19.7
		c-9.1,9.5-16.9,14-29.7,9c-7.4-2.9-13.3-8-18.3-14.2c-11.9-14.6-19.9-31-22.8-49.7c-1.6-10.6,1.8-20.8,4.6-30.9
		c1.2-4.3,3-8.5,4.7-12.6c2.5-5.9,2.2-11.9,1-18.1c-4.2-23.6-5.4-47.2,0-70.9c0.8-3.7,1.4-7.5,1.9-11.3c0.5-3.6-2.3-4.1-4.7-4.5
		c-8.2-1.4-15.4-5.1-20.5-11.4c-5.3-6.5-9.4-14-13.8-21.2c-2.3-3.8-3.9-8.1-5.9-12.1c-0.6-1.2-1.5-2.2-2.3-3.3
		C859,626.1,858.6,626.2,858.2,626.4z M333,245.8c1.3,3.2,2.3,7.5,4.6,10.9c5.6,8.2,14.1,8.4,22.8,6.7c5-1,9.7-1.6,14.6,0.5
		c2,0.8,4.6,0.4,6.8,0.2c14.6-1,27.2-21.9,23.7-36.1c-0.7-2.9-1.5-5.8-2.3-8.6c-4.8-15.9-11.4-20.3-28.1-19.2
		c-2.1,0.1-4.7-0.7-6.5-1.9c-5.4-3.7-11.3-4.3-17.2-3.1c-15.2,3.1-24.6,11.1-19.9,27.3C333.7,229.9,335.8,237,333,245.8z
		 M318.2,153.4c-1-2.3-2.2-7.4-5.1-11c-5.6-7-14.6-8.4-23.2-4.8c-5.3,2.2-11,3.4-15.9,0.6c-13.1-7.4-29.9,4.7-31.8,16.8
		c-0.4,3,0.5,6.2,1,9.2c0.4,2.8,1.8,5.6,1.6,8.4c-0.9,13.3,4.5,21.8,17,25.9c1.2,0.4,2.6,0.9,3.5,1.7c6.4,6.2,13.5,7.5,21.2,3.5
		c8.8-4.5,15.7-10.9,20.6-19.7C312,175.2,317.3,166.6,318.2,153.4z"/>
	<path class="st0" d="M30.5,405.1c2.3-5.5,4.4-10.2,6.1-15.1c0.9-2.6,2.3-5.9,1.6-8.3c-5.1-16.8,5.7-27.5,18.8-31.5
		c5-1.5,9.6-3.2,13.5-7.6c8.8-9.8,23-13,33.1-8.2c4.7,2.2,9.3,5.2,13.2,8.7c2.2,2,3.4,5.7,4,8.8c1,4.6,1.3,9.5,1.5,14.2
		c0.2,5.7-0.3,11.5,0,17.2c0.2,3.9,0.5,8,1.8,11.6c2.8,7.5,1.7,14.5-2.3,21c-1.7,2.8-4.6,5.4-7.6,6.8c-7.2,3.4-14.6,6.4-22.1,9
		c-6.7,2.3-13.6,2.8-20.3-0.6c-2-1-4.9-1.1-7.2-0.9c-11.2,1.4-21-1.1-27.7-10.6C34.1,415.5,32.8,410.2,30.5,405.1z"/>
	<path class="st0" d="M396.9,230.2c0,9.2-4,14.3-11.7,16.4c-1.6,0.4-3,1.5-4.5,2c-1.8,0.6-3.8,1.5-5.7,1.5
		c-8-0.3-16.8-14.1-13.5-21.5c2.2-4.9,4.7-9.9,7.8-14.3c2.8-4,7-4.9,11.4-1.9c1,0.6,2.1,1,3.1,1.5c2.9,1.3,7,1.9,8.5,4.2
		C394.9,222,395.7,226.9,396.9,230.2z"/>
	<path class="st0" d="M272.9,165.2c0.1-7,10.4-17.7,17-17.6c5.9,0.1,17.7,10.9,17.7,16.3c0,7.9-9,19.5-15.1,19.5
		C283.6,183.3,272.8,173.3,272.9,165.2z"/>
</g>
</svg>
