<svg id="Layer_2" data-name="Layer 2" xmlns="http://www.w3.org/2000/svg" viewBox="0 0 251.03 156.65"><defs><style>.cls-1{fill:#97caff;}</style></defs><title>images</title><path class="cls-1" d="M196,49.46c13.66,2,25,1.78,34.89,5.51,14.15,5.34,20.58,18,20.09,32.9-.5,15.46-8.6,26.33-22.75,33.37-5.64,2.81-11.42,7.56-14.48,12.94-11.45,20.13-32.79,26.61-54.85,19.95-14.34-4.33-30.78-5.06-45.71-3.09-15.16,2-27.87,1.24-40.1-8.23-3.35-2.59-8.91-4.75-12.77-3.92-31.43,6.8-54-5.53-59.42-33.32C-4.21,79.49,12.43,58.91,44,53.26c.79-3.49,1.68-7.34,2.55-11.18,9.1-40.28,52.57-55.4,83.81-28.67,6.24,5.34,11.07,7.83,19.78,6.58C169.22,17.26,184.34,28.31,196,49.46Z"/></svg>