<?xml version="1.0" encoding="utf-8"?>
<!-- Generator: Adobe Illustrator 24.3.0, SVG Export Plug-In . SVG Version: 6.00 Build 0)  -->
<svg version="1.1" id="Layer_2_1_" xmlns="http://www.w3.org/2000/svg" xmlns:xlink="http://www.w3.org/1999/xlink" x="0px" y="0px"
	 viewBox="0 0 1236.7 990.2" style="enable-background:new 0 0 1236.7 990.2;" xml:space="preserve">
<style type="text/css">
	.st0{fill:#FFFFFF;}
</style>
<g>
	<path class="st0" d="M898.4,451.9c4.4-7.8,7.9-15.6,12.8-22.4c3.7-5.1,8.9-9.2,14-13.1c2.8-2.1,4.6-4,4.6-7.6
		c0-11.7,2.2-23.1,7.6-33.3c5.7-10.7,13.6-20,23.6-27.2c11-7.9,23.2-11.2,36.7-10.3c14.8,1,26.5,7.9,35.3,19.6
		c2.1,2.8,4.1,4.4,7.7,4.4c13.3,0,24.3,5.7,32.9,15.4c7.8,8.8,15,18.2,21.5,27.9c3.2,4.8,4.4,11,6.3,16.7
		c4.7,14.4,5.2,29.2,0.9,43.6c-4,13.7-12,25-26.6,29.3c-4.4,1.3-9.6,0.4-14.3,0.1c-2.8-0.2-4,0.3-5,3.2c-4.3,12-8.2,24.3-13.9,35.6
		c-5.8,11.3-13.3,22-24.7,28.9c-12.5,7.6-25.3,6.6-38.1,0.6c-1.5-0.7-2.9-1.6-4.3-2.5c-3.1-1.9-5-0.7-6.3,2.3
		c-0.9,2.3-1.8,4.6-2.9,7.5c2.3,1.5,4.7,3.3,7.3,4.6c11.1,5.4,18.1,14.7,23.9,25.3c4.8,8.9,6.5,18.4,5.6,28.4
		c-0.5,5.3-0.7,10.6-1.2,15.9c-0.2,2.8,0.8,4.2,3.7,4.8c17.5,3.7,29.4,15.1,38.3,29.6c4.2,6.8,6.8,14.7,9.6,22.3
		c1.4,3.7,3.1,5.4,7.3,4.7c3.7-0.7,7.6-0.7,11.4-0.6c3.8,0.1,5.8-1.2,6.7-5.1c4.5-18.6,15.9-31.9,32.2-41.3
		c15.2-8.8,37.7-5.1,50.6,6.8c8.9,8.3,13.8,18,15.3,29.9c0.2,1.6,1.9,3.4,3.3,4.3c5.5,3.1,11.6,5.1,16.6,8.8
		c13.7,9.9,25,22.1,33.1,37.1c6.8,12.6,7.9,25.9,6,39.7c-1.5,11.1-4.3,22-11.1,31.2c-5.5,7.4-11.4,14.7-18.1,20.9
		c-17.2,15.8-36.9,27.7-59.5,34.6c-2,0.6-4,3.1-4.8,5.2c-6.3,15.6-16.6,28.1-30.1,37.7c-18.1,12.9-39,9.9-52.6-7.7
		c-6.2-8.1-5.3-10.7-14.7-1.2c-12.6,12.8-28.2,15.6-45.2,11.2c-20.3-5.2-33.7-23.3-34.2-43.9c-0.2-6.5-0.7-6.9-7.4-6.4
		c-18.9,1.6-36.9-15.3-37.5-35c-0.4-12.8,2.9-24.7,7.5-36.4c1.2-3.1,2.5-6.1,3.8-9.2c1.7-4.3,1-5-3.8-5.2
		c-4.9-0.1-10.7,0.8-14.7-1.3c-8.6-4.6-12.4-0.1-17.7,5.5c-5.3,5.7-12,10.8-19,14c-14.1,6.5-31.4,1.9-41.9-9.6c-1.8-2-3.5-4-5-6.2
		c-3.6-5.3-3.8-5.7-8.6-1.8c-21.8,17.6-50.6,11.9-67.8-2.4c-15.2-12.7-25.5-28.9-25.8-49.8c0-1-0.1-2-0.3-3c-0.1-0.5-0.4-0.9-1-1.9
		c-1.8,1.1-3.7,2.1-5.3,3.3c-19.4,14.2-41.4,18.9-64.8,15.8c-13.7-1.8-25.3-8.2-31.5-21.5c-1.9-4-4.6-2.8-7-1.6
		c-10.3,5.1-21.3,5.8-32.1,3.3c-11.1-2.6-19.6-9.3-25.3-19.3c-2-3.5-3.8-7.3-6-11.6c-3.1,3.4-5.6,6.1-8,8.8
		c-13.4,15.2-30.1,22.4-51.4,13.3c-4-1.7-5.1,0.4-5.4,3.8c-0.9,9.3-2.7,18.4-6.9,26.8c-1.9,3.8-4.8,7.2-6.7,11
		c-1.1,2.2-1.9,4.9-1.8,7.3c0.7,9.4,2,18.7,2.8,28.1c0.3,3.2,1.9,4.6,4.7,4.8c13.7,0.8,25.9,5.9,37,13.6
		c6.4,4.4,11.5,10.1,14.4,17.4c1.9,4.7,4.6,7.5,9.8,8.8c3.9,0.9,7.4,3.7,10.7,6.2c14.4,10.8,22,25.5,22.5,43.2
		c0.7,21.7-4.1,42.1-19,58.8c-8,8.9-18.4,12.9-30.6,10.1c-6.8-1.6-7.4-1-9.5,6.8c-3.3,12.5-10.2,22.3-22.9,26.1
		c-9.9,3-20.2,2-30.1-0.7c-14.5-3.9-26.2-11.9-34.1-25.1c-2-3.3-4-4.1-7.6-1.6c-10.2,7.2-21.8,7.1-33.5,5.1
		c-21.1-3.5-34.2-17.1-44.2-34.7c-1.2-2.1-3.6-4.4-5.7-4.7c-9.4-1.5-17.3-6-24.7-11.3c-12.8-9.4-21.7-21.9-26.3-37.1
		c-1.4-4.7-1.1-9.9-2.2-14.7c-0.7-3.2-1.7-6.9-3.9-9.1c-13.3-13.2-21.1-28.6-20.2-47.6c0.5-10.4,0.5-21.3,3.4-31.1
		c6.2-20.4,17.3-37.8,38.7-45.9c1.8-0.7,3.9-0.9,5.8-1.1c6.1-0.5,6.9-1.1,7-7.2c0.2-9.4,3.3-17.7,9.5-24.6
		c10.1-11.2,23.6-14.9,38-16.2c2-0.2,4.1,0,6.1,0c0.1-0.6,0.1-1.2,0.2-1.8c-2.1-0.4-4.2-1.1-6.3-1.1c-17.1,0.2-30.2-7-39.5-21.2
		c-2.3-3.5-4.4-4.3-8.6-2.3c-12.1,5.8-24.7,4.6-36.9,0c-9.8-3.7-16.4-11-19.9-20.9c-1.1-3.1-3-4.3-6.5-4c-10,0.9-20,0.5-29.4-3.7
		c-3.1-1.4-6-3.5-9.1-5.1c-1.4-0.7-3.1-1.4-4.5-1.1c-0.7,0.2-1,2.5-1.4,3.8c-1.5,5.1-2.4,10.4-4.6,15.1c-1.8,3.9-2.2,7.1-0.2,10.8
		c7.4,13.2,9.9,27.4,8.9,42.4c-1,14.4-4.7,28.3-13,39.8c-12.6,17.5-29.9,26.1-52.1,21c-3.1-0.7-6-1.9-9-2.9
		c-3.4-1.2-5.1-0.3-5.9,3.5c-3.9,18.7-15.4,31-33.8,34.6c-19,3.7-37.7,1.7-52.7-12.9c-11.7-11.3-18.6-24.9-18.6-41.5
		c0-2.8-0.1-5.7,0-8.5c0.2-3.9-1.3-6.3-4.8-8.5c-9.4-6-14.9-14.9-18.2-25.4c-6.4-20.7-5.4-41.7-1.3-62.6c1.6-7.9,4.1-15.8,7.3-23.2
		c4.9-11.1,11.8-20.9,23.8-25.5c4.5-1.8,6.2-4.7,6.2-9.5c-0.4-25.8,8.7-48.1,26.2-66.9c11.1-11.9,24.5-19.5,41.7-16.7
		c4.3,0.7,5-2.4,5.7-5.3c2.1-9.3,6.1-17.5,12-24.9c8.6-10.9,19.6-17.3,33.5-18.3c17.3-1.2,34,1,48.6,11.4c2.8,2,5.5,4.3,8,6.7
		c3.7,3.4,5.5,3.4,7.9-1.3c3.6-7.1,8.6-12.3,16.1-15.6c8-3.5,16.1-3,24-1.5c18.2,3.4,33.2,13.4,46.7,25.5
		c5.2,4.7,9.4,10.6,13.9,16.1c2.1,2.6,4.3,3.3,6.7,0.8c9.3-9.5,20.4-8.2,31.7-5.3c13.4,3.5,25.4,9.6,34.9,20.1
		c2.4,2.7,3.9,1.1,5.4-1.2c2.2-3.3,4.3-6.8,7.1-9.5c4.8-4.6,11-6.1,17.6-5.4c5,0.5,7.1-1.1,7.3-6.5c0.4-10.2,2.4-20.1,6.7-29.5
		c0.6-1.4,0.2-4.3-0.9-5.3c-6.4-6.5-11.6-13.6-14.8-22.3c-1.6-4.2-4.4-1.9-6.2,0.1c-7,7.9-15.5,13.6-25.2,17.4
		c-17.5,6.9-41.2,3.5-49.9-20.8c-1.5-4.3-0.7-9.6-0.9-14.4c-0.2-5.3-1.3-6-6-3.9c-8.2,3.6-16.5,5.8-25.7,4.3c-12-1.9-20-8.7-25.2-19
		c-6.3-12.5-7.5-25.9-7.1-39.8c0.3-11.1,2.4-21.8,5.2-32.4c0.7-2.6,2.5-5.1,4.4-7c14.3-13.5,24.1-29.6,28.9-48.7
		c1-3.9,2.4-6.8,7.2-6.4c1.6,0.1,3.3-0.5,4.9-1c3.7-1.3,6.6-0.6,9.6,2c5.4,4.6,12.9,4.9,19,1.2c6.5-3.9,13.4-7.3,19.5-11.9
		c7.9-5.9,13.2-13.6,11.7-24.3c-0.2-1.2,0.4-2.7,1-3.7c5.9-9.2,5.9-18.4,1.6-28.4c-3.6-8.4-8.5-15.1-17-18.5c-3-1.2-6.5-1.8-9.7-1.5
		c-4,0.3-6-0.8-8.5-4.1c-3.5-4.6-8-8.9-13-11.6c-7.9-4.3-15.4-0.5-22.6,3.6c-2.3,1.3-5.1,2.3-7.8,2.5c-14.5,0.9-26,6.6-33.3,19.6
		c-6,10.7-3.7,29.9,8.5,35.1c1.2,0.5,2.5,3.2,2.3,4.6c-1.9,9.3-0.7,17.9,4.2,26c3.9,6.3,1,12.6-1.2,18.2
		c-4.4,11.3-10.8,21.5-19.9,30.1c-9.7,9.3-20.7,7.5-29.4,1.3c-7-5-10.5-12.2-13.7-19.8c-5.3-12.6-6.9-26.1-4.5-39.2
		c1.6-9.1-0.9-16.4-2.6-24.8c-1.6-8.1-0.5-17.3,1.6-25.5c3.6-14.3,10-27.4,22-37.1c9.6-7.8,20.3-12.4,32.8-12.4
		c8.4,0,8.5,0,11.2-7.8c4.8-13.8,12.7-24.8,26.6-30.6c2.6-1.1,5.4-1.9,8.1-2.1c13.2-0.8,26,0.7,37.5,7.9c9.6,6,16.2,14.6,20.8,24.8
		c2.8,6.1,2.9,6.1,7.9,1.6c11.3-10.3,28.6-9.9,41.3-3.8c0.9,0.4,1.7,1.1,2.6,1.5c4.3,2.1,6.2,1,6.5-3.7c0.6-8.9,3.4-16.6,9.5-23.5
		c5.6-6.3,12.5-7.8,20.1-7.7c3.8,0.1,7.5,1.2,11.2,2.1c5.2,1.3,6,0.7,6.2-4.9c0.3-6.8,0.4-13.6,1.1-20.4c1.6-15,16-23.7,27.7-24.2
		c8.1-0.4,16.3,0.2,24.4,1.2c4.7,0.6,6.4-0.6,6.8-5c0.7-7.8,3.3-14.8,8.5-20.8c8.3-9.7,19.3-10.4,30.7-9.1
		c10.9,1.2,21.3,3.8,29.2,12.3c2.6,2.7,5.7,2.9,9.2,1.9c14.7-4.4,28.8-3.9,41,6.4c4,3.4,7.6,8.1,9.8,13c8.2,17.6,9.3,36,3,54.4
		c-4.3,12.6-19,22.6-32.4,22.7c-7.4,0.1-7.6,0-8.3,7.1c-1,10.4-3.2,20.6-8.8,29.3c-11,16.9-21.5,25-41.2,20.5
		c-3.8-0.9-4.2,1.4-4.7,4c-1.5,8-4.2,15.4-9.6,21.6c-1.9,2.2-4.2,4.3-6.6,6c-3.3,2.4-3.2,5-1.8,8.3c1.5,3.6,4,3,7,2.5
		c21-4.1,40.4-1.3,56.5,14.3c1.1,1.1,3.4,2.5,4,2.1c1.3-0.8,2.1-2.7,2.6-4.3c4.8-16.1,11.2-31.2,23.8-43.1
		c7.8-7.4,16.8-10.4,27.3-9.3c6,0.6,7.2-0.5,7.6-6.6c0.9-16.4,5.4-31.9,13.8-45.9c3.8-6.4,9.7-11.6,15.4-16.7
		c5.1-4.5,11.8-5.7,18.4-4.7c5.2,0.8,6.8-1.4,7.8-5.8c2.5-11.1,6.6-21.5,14.4-30.3c12.5-14.1,33.5-15.9,48-3.8
		c1.2,1,2.7,1.7,3.4,2.9c4.3,7.5,11.2,9.5,19.2,11.5c15.1,3.9,25.4,15,33.3,27.8c5.3,8.6,10.2,17.9,12.6,27.5
		c3.3,13.4,0.5,26.6-8.4,37.7c-8.1,10.1-17.5,18.7-29.6,23.7c-1.2,0.5-2.5,1.2-3.7,1.3c-3.4,0.4-4.4,2.6-4.4,5.6c0,4-0.1,8,0.1,12
		c0.6,17.7-4.2,34.1-13.9,48.7c-7,10.5-16.2,19.3-28.4,23.4c-10.8,3.7-21.8,2-31.9-3.2c-6.2-3.2-7.3-2.9-8.1,4
		c-2.1,19.5-8.5,37.5-19.5,53.9c-8.8,13.1-20.3,19.9-36.5,16.3c-3.2-0.7-4.8,0.4-4.8,3.8c0,1,0.1,2-0.1,3c-1.6,8.9,1.8,14,10.2,18.2
		c15.3,7.7,24.9,21.2,31.4,36.8c0.5,1.2,0.9,2.5,1.4,3.7c2.6,6.7,2.7,6.8,9.1,3.3c11.8-6.6,23.8-5.1,35.6-0.2
		c8,3.3,14.3,8.9,19.3,15.9c1.8,2.5,3.3,3.6,6.3,1c21.1-18.1,51-15.9,70.3-1.5c6.3,4.7,11.4,11,17.1,16.6
		C897,450.6,897.7,451.2,898.4,451.9z M471.6,151.9c-0.1,0.4-0.3,0.8-0.4,1.1c-1.2,0-2.4-0.1-3.5,0c-9.2,1.3-17.8,4.1-22.1,13.2
		c-4.2,8.9-3.5,18.1,3.6,25c5.3,5.1,7.3,10.3,7.8,17.5c0.6,8.2,11.5,16.5,19.8,16.1c13-0.7,25.4-8,28-23c0.4-2,2-4.1,3.4-5.7
		c3.9-4.3,7.9-8.6,8.3-14.9c1.1-16.8-9.1-26.2-26-24.2c-2.3,0.3-4.8-0.2-7.1-0.9C479.5,155,475.6,153.4,471.6,151.9z M541.6,310.1
		c6.3-0.1,14.1-2.5,19.9-9.4c3.5-4.1,6.9-8.4,10.3-12.7c7.9-10.3,6.2-24.7-3.8-32.6c-4.7-3.7-9.6-7.3-14.3-10.9
		c-1.6-1.2-2.9-3-4.7-3.6c-11.7-3.8-23.5-6.1-35.3,0.3c-8.4,4.5-15.8,17.3-9.8,26c0.8,1.2,0.4,3.8-0.3,5.4
		c-4.1,10.3-2.7,20.3,9.8,25.1c1.6,0.6,3.4,1.7,4.4,3.1C523.1,308.2,530.8,310,541.6,310.1z"/>
	<path class="st0" d="M501.6,180.5c-0.1,0.7,0.1,1.9-0.3,2.7c-5.3,9.2-8.8,19.6-19.5,24.7c-9.6,4.6-24.5-1.7-22.1-13.7
		c0.2-1.1,0.3-2.7-0.4-3.4c-5.6-5.5-3.5-12.2-3.1-18.7c0.3-4.7,3.3-7.5,7.4-9.1c5.2-2,10.9-3.7,15.5,0.7c2.7,2.6,5.4,3.2,8.9,3.3
		C496.2,167.2,501.9,172.8,501.6,180.5z"/>
	<path class="st0" d="M534.8,245c6.7,2.8,16.3,3.6,19.8,13.9c0.4,1.2,1.3,2.3,2.1,3.4c6.3,8,7.2,14.1,1.1,22.1
		c-5.5,7.3-11.7,14.7-21.5,16.8c-9.9,2.1-18.7-3.4-18.8-13.1c0-1.6-1.4-3.7-2.8-4.8c-7.3-5.9-7.9-13.2-1.1-19.5
		c3.2-3,6-5.7,6.9-10.4C521.4,248.3,527.5,244.9,534.8,245z"/>
</g>
</svg>
