<?xml version="1.0" encoding="utf-8"?>
<!-- Generator: Adobe Illustrator 24.3.0, SVG Export Plug-In . SVG Version: 6.00 Build 0)  -->
<svg version="1.1" id="Layer_1" xmlns="http://www.w3.org/2000/svg" xmlns:xlink="http://www.w3.org/1999/xlink" x="0px" y="0px"
	 viewBox="0 0 798.1 108" style="enable-background:new 0 0 798.1 108;" xml:space="preserve">
<style type="text/css">
	.st0{fill:#FFC0CB;stroke:#212667;stroke-width:1.25;stroke-miterlimit:10;}
</style>
<g>
	<path class="st0" d="M221.9,42.6c-1.6,0.2-4.2-0.4-5.5-1.2c-5.6-3.5-7.2-10.5-8.5-16.8s-3.3-13.3-9.2-16.3c-1.9-1-4.1-1.4-6.3-1.8
		c-4.1-0.6-8.3-0.8-12.5-0.6c-1.3,0.1-2.7,0.2-3.9,0.7c-2.6,1.3-3.6,4.5-3,7.2c0.5,2.7,2.3,5.1,4.1,7.3c7.3,9,16.1,17,22.8,26.5
		s11.3,21.2,8.9,32.4c-1.4,6.6-5,12.4-8.4,18.3c-0.7,1.3-1.5,2.8-0.9,4.2c0.8,1.9,3.3,2.2,5.4,2.2c5.8,0.1,11.5,0.2,17.3,0.3
		c5.8-0.1,11.5-0.2,17.3-0.3c2.1,0,4.6-0.4,5.4-2.2c0.6-1.4-0.2-2.9-0.9-4.2c-3.3-5.9-7-11.7-8.4-18.3c-2.4-11.3,2.2-22.9,8.9-32.4
		s15.4-17.5,22.8-26.5c1.8-2.2,3.5-4.5,4.1-7.3c0.5-2.7-0.5-5.9-3-7.2c-1.2-0.6-2.5-0.7-3.9-0.7c-4.2-0.2-8.4,0-12.5,0.6
		c-2.2,0.3-4.3,0.8-6.3,1.8c-5.9,3-7.9,10.1-9.2,16.3c-1.3,6.3-2.9,13.3-8.5,16.8c-1.3,0.8-3.9,1.4-5.5,1.2H221.9z"/>
	<path class="st0" d="M40.1,18.7c-1.2,6.1-3.2,12.2-5.5,18c-2.4,5.8-4.7,11.4-4.9,17.7c-0.3,8-2.4,19.3,4.8,22.8
		c7.1,3.5,15.3-4.1,23-5.7s16.3-1.8,23,2.5c1.7,1.1,3.2,2.5,4.2,4.2c1.8,3.2,1.5,7.2,0.2,10.6c-0.8,2-1.9,9.1-3.1,10.9
		c-1.4,2.2-3.9,3.5-6.5,3.5c-16.4-0.3-32.8-0.2-49.1,2c-7,0.9-14.1,2.2-20.9,0.1c-0.6-0.2-1.3-0.5-1.8-0.9
		c-4.1-2.9-2.1-13.5-0.3-17.8c4.1-10,8.3-20.1,9.3-30.9c0.5-5.2,0.2-10.5-0.2-15.8c-0.7-9.3-4-18.6-5.6-27.8C6.5,11,6.3,9.8,6.3,8.6
		c0-2.8,2-5.2,4.7-5.6C18.9,1.9,43.8,0.1,40.1,18.7z"/>
	<path class="st0" d="M407.9,18.7c-1.2,6.1-3.2,12.2-5.5,18c-2.4,5.8-4.7,11.4-4.9,17.7c-0.3,8-2.4,19.3,4.8,22.8
		c7.1,3.5,15.3-4.1,23-5.7c7.7-1.7,16.3-1.8,23,2.5c1.7,1.1,3.2,2.5,4.2,4.2c1.8,3.2,1.5,7.2,0.2,10.6c-0.8,2-1.9,9.1-3.1,10.9
		c-1.4,2.2-3.9,3.5-6.5,3.5c-16.4-0.3-32.8-0.2-49.1,2c-7,0.9-14.1,2.2-20.9,0.1c-0.6-0.2-1.3-0.5-1.8-0.9
		c-4.1-2.9-2.1-13.5-0.3-17.8c4.1-10,8.3-20.1,9.3-30.9c0.5-5.2,0.2-10.5-0.2-15.8c-0.7-9.3-4-18.6-5.6-27.8
		c-0.2-1.1-0.4-2.3-0.4-3.5c0-2.8,2-5.2,4.7-5.6C386.6,1.9,411.5,0.1,407.9,18.7z"/>
	<path class="st0" d="M363,97.6C358,85.8,348.1,72,341.5,61c-5.7-9.5-8.8-20.6-8.8-31.7c0-4.6,0.6-9.4,3.1-13.3
		c0.8-1.3,1.9-2.7,1.6-4.2c-0.2-0.7-0.6-1.3-1.1-1.8c-2.1-2.3-5.1-3.2-8.2-3.8c-6-1.1-11.7-1.8-17.7-1.6c-6.1,0-12.1,0.6-17.7,1.6
		c-3.1,0.6-6.1,1.5-8.2,3.8c-0.5,0.5-0.9,1.1-1.1,1.8c-0.3,1.5,0.8,2.9,1.6,4.2c2.5,3.9,3.1,8.7,3.1,13.3c0,11.1-3.1,22.2-8.8,31.7
		c-6.6,10.9-16.5,24.8-21.5,36.6c-0.6,1.3-0.3,3.3,0.8,4.3c1.3,1.2,3.1,1.5,4.9,1.7c11.5,1.5,23,2.1,34.6,2c1.1,0,2.1-0.3,3-0.9
		c2.9-2.1,0.9-6-1.7-7.8c-1.8-1.3-3.1-5.3-3.3-7.6c-0.1-1,0.1-5.1,0.8-5.8c0.6-0.6,1.4-0.8,2.3-1H322c0.8,0.2,1.7,0.4,2.3,1
		c0.7,0.7,0.8,4.8,0.8,5.8c-0.2,2.4-1.7,6.7-3.8,7.9c-1.9,1.1-3.1,3.3-2.5,5.5c0.8,2.6,3.5,2.9,5.8,2.9c11.1,0.1,22.2-0.5,33.1-2
		c1.7-0.2,3.6-0.5,4.9-1.7C363.3,100.9,363.6,98.9,363,97.6z M318.7,62.1h-16.6c-2.5-0.6-5.1-2.6-4.9-5.2c0.1-1.6,1.3-3,2.2-4.3
		c3.8-5.3,4.9-12.3,2.9-18.5c-0.3-1-0.7-1.9-0.7-2.9c0.1-2.1,2-3.6,4.1-4c1.6-0.3,3.1-0.7,4.7-0.7s3.2,0.4,4.7,0.7c2,0.4,4,2,4.1,4
		c0,1-0.3,2-0.7,2.9c-2,6.2-0.9,13.2,2.9,18.5c1,1.3,2.1,2.7,2.2,4.3C323.8,59.5,321.2,61.5,318.7,62.1z"/>
	<path class="st0" d="M641.3,105.6c8.7,0,25.6-2.1,33.6-5c6.6-2.4,12.5-8.5,14.1-16.2c1.8-8.3-3.4-15.8-6.6-23.5
		c-2.8-6.8-3.3-14.8-1.9-22.3c1.4-7.4,4.5-14.3,8.5-20.4c1.9-3,5.6-7.5,3.3-10.1C689,4.4,679.2,3.3,674.6,3
		c-6.7-0.4-18.1,3.9-24.2,7.3c-0.8,0.4-1.5,1.1-2,1.8s-0.9,2-1.1,2.8c-1.2,6,0.2,12.3,3.4,17.3l3.4,5.4c3.6,5.6,6.3,11.4,8.7,17.8
		s2.5,13.8,0.8,20.6c-2.3,9-9.8,12.8-17.8,13c-2.2,0.1-6.7,0.1-8.9,0c-8.1-0.2-15.6-4-17.8-13c-1.7-6.8-1.6-14.1,0.8-20.6
		s4.1-12.2,7.7-17.8l3.4-5.4c3.3-5.2,4.7-12,3.1-18.2c-0.1-0.3-0.2-0.7-0.3-1c-0.6-1.2-1.5-2.2-2.5-2.8c-6.1-3.4-16.5-7.6-23.2-7.3
		c-4.6,0.2-14.5,1.4-17.8,5.1c-2.3,2.6,1.4,7.1,3.3,10.1c3.9,6.1,7.1,12.9,8.5,20.4s1,15.4-1.9,22.3c-3.2,7.7-8.4,15.2-6.6,23.5
		c1.7,7.7,7.5,13.8,14.1,16.2C615.7,103.5,632.7,105.6,641.3,105.6z"/>
	<path class="st0" d="M524.7,67.6c1-1.7,2.6-3,4.3-4.1c15.3-9.7,37.8-1.9,50.3-15.4c7.1-7.7,8-19.8,6.5-30.4c-0.4-3.2-1.1-6.4-2.9-9
		c-2.9-4.2-8.1-5.6-13-5.5c-17.7,0.4-53.2,1.4-70.8-0.8c-4.4-0.5-7.7,3.6-5.8,7.8c5.4,12,6.9,33.6,5,47.1
		c-1.3,8.7-3.3,17.2-6.2,25.5c-1.5,4.5-9.7,18.4-6.7,21.2c0,0,33-0.6,44.1-0.5c1.8,0,2.7-2.2,1.5-3.6c-6.2-7.2-9.3-17.3-8-27
		C523.3,71.1,523.7,69.2,524.7,67.6z M519.7,47.2c-0.7-0.4-1.1-1.2-1.4-2c-1.5-4.5,1.4-6.9,2.5-10.9c1.1-3.7,0.1-8.1-2.6-10.9
		c-0.9-0.9-2-2.1-1.4-3.2c0.3-0.5,0.8-0.7,1.3-0.9c4.7-1.6,9.7-1.5,14.7-1.4c6.7,0.1,13.4,0.2,20.2,0.4c1.7,0,3.6,0.1,5.1,0.9
		c1.7,0.9,2.9,2.7,3.5,4.5c0.6,1.9,0.7,3.9,0.8,5.8c0.1,2,0.1,4.1-0.8,5.8c-1.3,2.4-4.3,3.4-7,3.6c-4,0.4-8.1-0.5-12.1-0.4
		c-6.3,0.1-12.6,2.5-17.4,6.7C523.5,46.6,521.5,48.2,519.7,47.2z"/>
	<path class="st0" d="M735.4,67.6c1-1.7,2.6-3,4.3-4.1c15.3-9.7,37.8-1.9,50.3-15.4c7.1-7.7,8-19.8,6.5-30.4c-0.4-3.2-1.1-6.4-2.9-9
		c-2.9-4.2-8.1-5.6-13-5.5c-17.7,0.4-53.2,1.4-70.8-0.8c-4.4-0.5-7.7,3.6-5.8,7.8c5.4,12,6.9,33.6,5,47.1
		c-1.3,8.7-3.3,17.2-6.2,25.5c-1.5,4.5-9.7,18.4-6.7,21.2c0,0,33-0.6,44.1-0.5c1.8,0,2.7-2.2,1.5-3.6c-6.2-7.2-9.3-17.3-8-27
		C734,71.1,734.4,69.2,735.4,67.6z M730.4,47.2c-0.7-0.4-1.1-1.2-1.4-2c-1.5-4.5,1.4-6.9,2.5-10.9c1.1-3.7,0.1-8.1-2.6-10.9
		c-0.9-0.9-2-2.1-1.4-3.2c0.3-0.5,0.8-0.7,1.3-0.9c4.7-1.6,9.7-1.5,14.7-1.4c6.7,0.1,13.4,0.2,20.2,0.4c1.7,0,3.6,0.1,5.1,0.9
		c1.7,0.9,2.9,2.7,3.5,4.5c0.6,1.9,0.7,3.9,0.8,5.8c0.1,2,0.1,4.1-0.8,5.8c-1.3,2.4-4.3,3.4-7,3.6c-4,0.4-8.1-0.5-12.1-0.4
		c-6.3,0.1-12.6,2.5-17.4,6.7C734.2,46.6,732.2,48.2,730.4,47.2z"/>
	<path class="st0" d="M162.7,54c0-29.3,26.8-53-32.6-53c-58.6,0-32,23.7-32,53s-34.2,53,32,53C200.5,107,162.7,83.2,162.7,54z
		 M146.6,78.2c-0.1,1.2-0.3,2.4-1.2,3.2c-1,0.9-2.6,1.1-4,1.2c-6.6,0.3-17.5,0.3-24.1,0c-1.5-0.1-3-0.3-4-1.2
		c-0.9-0.8-1.1-2.1-1.2-3.2c-0.2-4.5,0.9-9,3.2-13c1.6-2.7,3.7-5.3,5.2-8.1c3.8-7.5,2.3-16.4-2.3-23.6c-1.4-2.1-3.1-4.4-2.5-6.8
		c0.5-2.4,3.2-4.4,6.1-4.6c4.4-0.4,11-0.4,15.4,0c2.8,0.2,5.5,2.2,6.1,4.6c0.5,2.4-1.2,4.7-2.5,6.8c-4.6,7.2-6.1,16.1-2.3,23.6
		c1.4,2.8,3.6,5.3,5.2,8.1C145.7,69.2,146.8,73.7,146.6,78.2z"/>
</g>
</svg>
