<?xml version="1.0" encoding="utf-8"?>
<!-- Generator: Adobe Illustrator 24.3.0, SVG Export Plug-In . SVG Version: 6.00 Build 0)  -->
<svg version="1.1" id="Layer_1" xmlns="http://www.w3.org/2000/svg" xmlns:xlink="http://www.w3.org/1999/xlink" x="0px" y="0px"
	 viewBox="0 0 668.1 487.8" style="enable-background:new 0 0 668.1 487.8;" xml:space="preserve">
<style type="text/css">
	.st0{fill:#FFFFFF;}
</style>
<path class="st0" d="M499.7,395c-1.7,2.9-3.2,5.1-4.4,7.3c-9,17-19.6,32.8-32.6,47.1c-10,11.1-21.2,20.7-34.2,27.9
	c-15.3,8.5-31.7,12.3-49.1,9.6c-8.8-1.4-16.6-5.7-23.8-10.9c-13.9-10-23.5-23.3-29.8-39c-2.5-6.3-4.9-12.7-7.4-19
	c-0.5-1.2-1.2-2.4-1.8-3.6c-0.4-0.3-0.9-0.6-1.3-0.9c-0.5,1-0.8,2.1-1.4,2.9c-5.2,6.4-10,13.2-15.8,19.1c-6.4,6.5-14,11.9-23,14.5
	c-12.4,3.6-20.3,1.6-28.5-9.1c-5.8-7.6-9.8-16.1-12.4-25.3c-1-3.4-1.2-3.7-4.8-2.8c-11.8,2.8-23.8,3.5-35.9,3.9
	c-7.9,0.3-15.3-1.8-22.6-4.3c-10.7-3.6-20.8-8.6-29.9-15.4c-12.1-9.2-18.5-21.6-20.4-36.5c-1.3-10.5-1-21,2-31.3
	c0.2-0.8,0.2-1.7,0.5-3.2c-1.3,0.7-2,1.1-2.6,1.5c-9.3,7.2-20.1,9.3-31.6,10.3c-9.8,0.8-19-0.5-27.9-4.2
	c-11.8-4.9-22.3-11.9-31.6-20.4c-5.9-5.4-11.9-11-16.8-17.3c-6.9-8.7-10.6-19.1-11.7-30.1c-0.8-7.4-1-15-0.6-22.5
	c0.4-8.9,3.7-17.2,7.2-25.3c5.8-13.6,14-25.5,24.9-35.3c12.8-11.5,27.3-19.5,45.1-19.9c8.6-0.2,15.8,3.8,22.3,8.9
	c3.7,2.8,7,6,10.8,9.2c0.4-0.5,1-1.1,1.6-1.7c6-7.6,13.4-13.6,21.7-18.3c15.2-8.5,30.8-9.8,46.9-2.1c11,5.2,20.9,12.1,29.6,20.5
	c5.2,5.1,9.4,11,12.9,17.4c0.4,0.7,0.9,1.3,1.3,1.9c0.2-0.1,0.5-0.1,0.7-0.2c-0.2-2.5-0.4-4.9-0.7-7.4c-2.3-15.6-4.1-31.3-3.6-47.2
	c0.4-13.9,3-27.4,6.9-40.7c3.7-12.4,8.8-24.3,15.7-35.2c6.8-10.9,15.1-20.6,26.4-26.9c13.9-7.8,28.7-9.7,44.2-5.4
	c9.7,2.7,18.4,7.1,25.5,14.4c3.7,3.8,3.7,3.8,5.8-1.2c4.3-10.1,11.3-18.2,19.4-25.3c8.6-7.6,18.4-13.6,29.2-17.7
	c13.9-5.3,28.3-7.3,43-4.4c10.3,2.1,19.3,7,27.3,14.1c14.5,12.8,20.9,29.5,23.1,48.2c1.9,16.6,0.2,33-4.5,49
	c-4.4,15-10.4,29.4-17.5,43.4c-3.4,6.8-6.8,13.6-10.2,20.5c-0.4,0.8-0.6,1.6-0.9,2.4c0.2,0.2,0.4,0.3,0.5,0.5
	c0.8-0.4,1.7-0.8,2.5-1.3c9.1-5.5,18.8-9.5,29.3-11.1c18.3-2.9,28.5,5.4,33.2,21.7c4.7,16.5,3.8,33-1.1,49.4
	c-2.9,9.8-5.7,19.5-8.5,29.3c-0.1,0.5-0.1,1-0.3,2.2c1.3-0.8,2.2-1.2,3-1.9c8.7-6.9,18.2-11.9,29.3-13.6c12.8-2,24.2,1,34.3,9.4
	c11.7,9.8,17.7,22.3,18.8,37.3c0.2,3.3,0.3,6.7,0.5,10c0.1,1.1,0.1,2.1,0.3,3.7c3.3-1.6,6.3-3.1,9.2-4.4c8.5-3.8,17.4-5.2,26.6-3.8
	c12.1,2,20.1,9.5,26,19.7c7,12.2,9.5,25.5,10,39.4c0.3,8.9,0.2,17.7-1.7,26.5c-2.4,11.3-6.2,22.1-12.3,31.9
	c-5.4,8.8-10.9,17.6-17.4,25.6c-11.3,13.9-24.2,26.3-41.4,32.7c-11.7,4.4-23.8,5.2-35.6,0.2c-5.8-2.4-10.7-6.5-15.2-10.9
	c-9.1-9.1-16-19.7-21.7-31.1c-6.5-12.9-12.8-25.9-19.2-38.8C502.5,399.6,501.3,397.7,499.7,395z"/>
</svg>
