<?xml version="1.0" encoding="utf-8"?>
<!-- Generator: Adobe Illustrator 24.3.0, SVG Export Plug-In . SVG Version: 6.00 Build 0)  -->
<svg version="1.1" id="Layer_1" xmlns="http://www.w3.org/2000/svg" xmlns:xlink="http://www.w3.org/1999/xlink" x="0px" y="0px"
	 viewBox="0 0 649.5 544.1" style="enable-background:new 0 0 649.5 544.1;" xml:space="preserve">
<style type="text/css">
	.st0{fill:#FFFFFF;}
</style>
<path class="st0" d="M544.9,409.1c-0.5,1.5-1.2,2.9-1.6,4.4c-3.3,12.1-9.9,22.3-17.6,32c-8.6,10.7-19.2,19.1-31,25.7
	c-14.7,8.2-30.4,13.9-47.2,16c-17.5,2.1-34.3-0.8-50.6-7.4c-14.8-6-27.8-14.6-38.6-26.2c-2.1-2.3-4-4.9-6.5-8
	c-0.4,2.6-0.8,4.5-1,6.4c-1.5,16.5-7.4,31.2-17.8,44.3c-13.8,17.3-31.6,28.7-51.6,37.1c-11,4.6-22.4,8-34.2,9.7
	c-15.5,2.3-30.4,0.3-44.8-5.8c-12.4-5.3-24.3-11.5-35.1-19.6c-15.9-11.9-28.7-26.5-36.3-45c-6.9-16.9-7.1-34.3-2.1-51.8
	c0.2-0.7,0.1-1.5,0.2-2.3c-0.9,0-1.7-0.2-2.6,0c-7.9,1.7-15.7,4.1-23.7,5c-23.7,2.7-46.2-0.7-65.9-15.4c-10.4-7.8-18.2-18-24.4-29.3
	c-6-11-10.6-22.6-11.8-35.1c-0.8-8-1.3-16.2,2.8-23.7c3.1-5.8,7.1-10.9,12.5-14.8c7.6-5.5,15.9-9.5,25.3-10.7
	c3.6-0.5,7.2-0.3,10.9-0.3c2.3,0,2.8-0.8,2-3c-4.5-12.2-5-24.8-3.8-37.6c0.9-9.7,3.3-19.1,7.2-28.1c4.3-9.9,10.6-18.3,18.6-25.5
	c9-8.1,19.3-13.2,31-15.5c10.3-2,20.4-1.1,30.4,2c1.3,0.4,2.6,0.9,3.9,1.3c1.6,0.5,2.2-0.2,2.1-1.8c-0.3-9.1-0.7-18.1-1-27.2
	c-0.4-12.2,2.4-24,5.7-35.6c4.8-16.8,11.7-32.7,21.1-47.4c5.8-9.1,12.6-17.5,19.4-25.9c10.4-12.8,23.2-23,37.1-31.7
	C241,9,257.5,2.6,275.5,1.1c9.1-0.8,18.3-1.2,27.4-1C313,0.2,323,2.2,332.7,5c15.1,4.3,29.2,10.6,41.6,20.3
	c14.1,11.1,25.2,24.7,32.3,41.4c7.4,17.2,11.3,35.2,12.9,53.8c1.8,21.7,0.8,43.4,0.9,65.1c0,5.2-0.7,10.5-1.1,15.7
	c0,0.7,0,1.4,0,2.9c2.4-2,4.2-3.5,6.1-5c11.9-9.6,25.1-16.7,40.2-19.5c10.8-2,21.6-1.5,31.8,2.9c18.4,8.1,29.3,22.1,32,42.2
	c2.1,15.6,0.6,31-4.7,45.9c-0.5,1.3-0.8,2.7-1.1,4c0.2,0.2,0.4,0.3,0.6,0.5c1.2-0.6,2.4-1.1,3.4-1.8c10.7-6.7,22.4-10.9,34.9-12.2
	c9-1,18.1-1.5,27.1,0.4c12,2.5,22.6,7.9,32,15.7c16.8,13.9,24.4,32.7,27.1,53.6c3,22.7-3.6,43.3-14.9,62.7
	c-5.3,9.2-11.6,17.6-19.3,24.9c-8.6,8.1-18.3,14.1-30.2,15.8c-5.4,0.8-11.2,0.9-16.5,0c-3.4-0.6-6.6-3.3-9.4-5.5
	c-4.3-3.4-6.7-8.2-9-13.1c-1-2.2-2.3-4.3-3.4-6.5C545.7,409,545.3,409.1,544.9,409.1z"/>
</svg>
