<?xml version="1.0" encoding="utf-8"?>
<!-- Generator: Adobe Illustrator 24.3.0, SVG Export Plug-In . SVG Version: 6.00 Build 0)  -->
<svg version="1.1" id="Layer_1" xmlns="http://www.w3.org/2000/svg" xmlns:xlink="http://www.w3.org/1999/xlink" x="0px" y="0px"
	 viewBox="0 0 989.9 1288.2" style="enable-background:new 0 0 989.9 1288.2;" xml:space="preserve">
<style type="text/css">
	.st0{fill:#FFE422;}
	.st1{fill:#FF9100;}
	.st2{fill:#0030B5;}
</style>
<g>
	<path class="st0" d="M431.6,830.3c-0.3,2-0.7,4.8-1.1,7.6c-0.9,6.3-1.9,12.6-2.9,18.9c-0.8,5.4-1.6,10.8-2.5,16.2
		c-1.3,8.4-2.7,16.9-4,25.3c-0.9,5.7-1.7,11.5-2.6,17.3c-1.3,7.6-2.7,15.2-4,22.8c-1.3,7.6-2.4,15.3-3.6,22.9
		c-0.8,5.1-1.8,10.2-2.7,15.3c-1,5.8-1.8,11.7-2.8,17.5c-1.2,6.8-2.5,13.6-3.7,20.4c-1.4,7.8-2.6,15.6-3.9,23.4
		c-1.3,7.7-2.7,15.4-4.1,23.1c-0.5,2.7-0.9,5.4-1.3,8.1c-0.9,5.3-1.7,10.6-2.6,15.8c-0.7,4.6-1.2,9.2-2,13.8
		c-1.1,6.2-2.5,12.3-3.5,18.5c-1.8,10.5-3.4,21-5.2,31.5c-1.2,7.3-2.7,14.6-4,22c-0.9,4.8-1.6,9.7-2.5,14.5
		c-0.4,2.1-0.8,4.4-1.7,6.3c-0.6,1.3-2.2,2.2-3.4,3c-5.7,3.7-10.2-0.2-14.7-2.8c-7.8-4.5-15.4-9.3-23.1-13.9
		c-10.1-6.2-20.1-12.3-30.2-18.5c-1.8-1.1-3.5-2.3-5.2-3.5c-4.7-3.2-6.4-10.4-3.8-16.8c2.2-5.5,4.5-10.9,6.8-16.4
		c3.8-9.1,7.5-18.3,11.3-27.4c3.3-7.9,6.5-15.8,9.8-23.7c4.9-11.8,9.8-23.7,14.7-35.6c4.3-10.4,8.8-20.8,13.1-31.2
		c2.4-5.9,4.6-11.8,7-17.7c2.5-6.1,5.2-12.2,7.8-18.3c2.5-5.8,5.1-11.6,7.5-17.4c2.1-5.2,4-10.5,6.2-15.7
		c4.2-10.1,8.5-20.1,12.7-30.1c5.9-14.3,11.5-28.7,17.6-42.9c5-11.9,10.5-23.6,15.8-35.3c1.6-3.6,3.8-4.7,6.5-4
		C430.4,823.6,431.6,825.4,431.6,830.3z"/>
	<path class="st0" d="M432.8,207.2c-0.1-5.4,1.5-6.6,6.8-6c7.1,0.7,14.3,1.3,21.4,2c8.3,0.9,16.7,1.8,25,2.8
		c8.1,0.9,16.3,1.7,24.4,2.8c3.1,0.4,6.4,1.1,9.2,2.5c1.7,0.9,3.2,3.1,3.8,5.1c0.7,2.3,0.7,4.9,0.5,7.3c-0.7,6.8-1.5,13.6-2.5,20.3
		c-1.1,7.7-2.6,15.4-3.8,23.1c-1,6.1-1.8,12.3-2.7,18.4c-0.9,6-2,12-3,18c-0.4,2.5-0.8,5-1.2,7.5c-1.2,8.5-2.3,16.9-3.6,25.4
		c-1.2,7.8-2.6,15.6-3.9,23.4c-0.6,3.6-0.9,7.2-1.5,10.8c-0.8,5.4-1.8,10.8-2.6,16.1c-0.9,5.9-1.9,11.8-2.8,17.7
		c-0.9,5.9-1.8,11.9-2.7,17.8c-1.7,10.6-3.4,21.2-5,31.8c-0.3,1.8-3.5,5.1-5.7,5.6c-7.3,1.7-12-1.6-13.8-9.8
		c-1.9-9.1-3.9-18.1-5.6-27.2c-1.3-6.8-2.2-13.6-3.3-20.4c-1.4-8.4-2.9-16.8-4.1-25.2c-1.3-8.8-2.3-17.6-3.6-26.5
		c-0.8-5.8-2-11.5-2.9-17.2c-0.5-3.2-0.9-6.5-1.3-9.7c-1.2-9.8-2.2-19.7-3.5-29.5c-1.2-8.6-2.7-17.2-3.9-25.9
		c-1.7-12.8-3.2-25.7-4.8-38.5c-0.9-6.6-2-13.2-3-19.9C432.8,208.7,432.8,207.6,432.8,207.2z"/>
	<path class="st0" d="M98.8,399.1c0-9-0.3-18.1,0.1-27.1c0.4-8.4,5.5-11.2,13.2-9.5c4.7,1,7.6,4.6,11.1,7.4
		c7.9,6.2,15.6,12.5,23.3,18.8c6.5,5.4,13,10.8,19.5,16.2c7.6,6.2,15.4,12.3,23,18.5c6.5,5.3,12.8,10.7,19.3,15.9
		c7,5.7,14.1,11.4,21.1,17.1c5.1,4.1,10.1,8.3,15.1,12.4c6.6,5.4,13.2,10.7,19.8,16.1c5.4,4.5,10.8,9.2,16.2,13.7
		c7.6,6.3,15.4,12.4,23,18.7c6.8,5.6,13.2,11.6,20.3,16.8c4,2.9,4.7,6.9,5.6,10.9c0.6,2.4-1.1,3.8-3.3,4.3c-4.3,1-8.4,0.7-12.5-1.3
		c-9.2-4.5-18.5-8.7-27.8-12.9c-6.7-3-13.4-6-20.2-8.9c-6.9-3-13.9-5.8-20.8-8.9c-7.8-3.5-15.5-7.3-23.2-10.8
		c-5-2.3-10.2-4.3-15.3-6.5c-2.7-1.2-5.4-2.5-8.1-3.8c-8.2-3.8-16.5-7.6-24.7-11.4c-7.3-3.4-14.5-6.8-21.8-10.1
		c-4-1.8-8.1-3.5-12.1-5.3c-5-2.3-9.9-4.9-15-7.1c-5.1-2.2-10.2-4.4-15.4-6.1c-4.5-1.5-9.3-7-9.5-11.8c0-1.8,0-3.7-0.1-5.5
		c-0.5-13.3-1-26.5-1.4-39.8C98.6,399.1,98.7,399.1,98.8,399.1z"/>
	<path class="st0" d="M662.2,1117.7c0.3,6.6-3.3,11.5-6.8,16.5c-5.7,8.2-11.3,16.5-17.1,24.5c-2.4,3.4-5.2,6.6-8.1,9.5
		c-2.9,2.9-6.6,2.5-8.7-1.2c-1.9-3.3-3.4-6.9-4.4-10.5c-2.3-8.3-4.4-16.7-6.4-25.1c-2.5-10.5-4.7-21.1-7.1-31.6
		c-1.7-7.3-3.6-14.6-5.2-22c-1.7-7.4-3.1-14.9-4.7-22.4c-1.6-7.1-3.4-14.1-5-21.2c-1.3-5.8-2.5-11.7-3.8-17.5c-1.6-7-3.2-14-4.8-21
		c-1.4-6.3-2.6-12.6-4-18.9c-1.1-4.8-2.3-9.6-3.4-14.4c-1.4-5.9-2.8-11.8-4.1-17.7c-1.8-7.6-3.5-15.2-5.2-22.8
		c-1.2-5.6-2.3-11.2-3.6-16.8c-1.6-7.3-3.4-14.7-5-22c-1.3-5.6-2.4-11.2-3.7-16.8c-1.6-7-3.6-13.9-5.1-20.9
		c-1.5-7.1-2.9-14.3,0.8-21.3c1.6-2.9,4.2-4.7,7.4-5.4c0.8-0.2,2.2,0.2,2.7,0.8c1.8,2.2,4,4.4,5,7c2.9,7.1,5.4,14.3,8.1,21.5
		c4.9,13.3,9.8,26.6,14.6,39.9c3,8.2,6,16.3,8.9,24.5c3.8,10.8,7.4,21.6,11,32.4c2,6,3.8,12.1,5.9,18.1c1.3,3.7,2.9,7.2,4.2,10.9
		c1,2.7,1.9,5.5,2.9,8.2c2.2,5.9,4.5,11.8,6.6,17.8c2.5,7.4,4.8,15,7.3,22.5c3.3,9.6,6.6,19.2,10,28.8c3,8.5,6,17,9,25.5
		c2.5,7.4,4.7,14.9,7.4,22.2C659.9,1105.1,662.3,1111.1,662.2,1117.7z"/>
	<path class="st0" d="M647.9,519.2c-3.7-0.4-5.9-1.6-7-4.3c-1.2-2.9,0.3-5.2,1.9-7.2c5.7-6.9,12.4-12.7,19.2-18.4
		c11.7-9.8,23.3-19.6,35-29.4c6.1-5.1,12.2-10.1,18.3-15c8.3-6.7,16.8-13.2,25.1-19.9c6.3-5,12.5-10.2,18.8-15.2
		c7-5.5,14-11,21-16.5c7.3-5.8,14.5-11.7,21.8-17.5c4-3.2,8.1-6.1,12.1-9.3c7-5.5,13.9-11,20.9-16.4c5.2-4.1,10.5-8.1,15.8-12.1
		c2.4-1.9,4.8-3.9,7.4-5.5c4.2-2.5,8.9-2.6,13.1-0.4c11.3,6,22.4,12.4,33.6,18.6c2.1,1.2,4.3,2.5,6.5,3.4c3.1,1.2,4.6,3.8,5.9,6.5
		c1,2-0.4,5.7-2.8,7.5c-2.8,2.1-5.8,4-8.9,5.9c-6.5,3.9-13.1,7.7-19.7,11.4c-7.1,4.1-14.4,7.9-21.5,12c-8.3,4.8-16.6,9.8-24.9,14.6
		c-6.7,3.8-13.5,7.4-20.2,11.2c-7.9,4.4-15.7,9-23.6,13.5c-7.8,4.4-15.6,8.6-23.3,13c-10.2,5.8-20.3,11.7-30.5,17.5
		c-7.6,4.3-15.3,8.6-23,12.9c-6.2,3.6-12.3,7.3-18.5,10.9c-6.6,3.8-13.3,7.4-19.9,11.2c-8.5,4.9-16.9,10-25.5,14.7
		C652.7,518.1,649.8,518.5,647.9,519.2z"/>
	<path class="st0" d="M279.1,219.2c1.1-13.2,2.3-26.3,3.4-39.5c0.5-6.5,0.8-13.1,1.3-19.6c1-12.5,2.1-25,3.1-37.6
		c0.3-3.5,0.3-7.1,0.8-10.6c0.2-1.3,1.3-2.4,1.9-3.7c1.1,0.6,2.8,1,3.3,1.9c1.8,3.2,3.5,6.6,4.7,10.1c3,8.5,5.8,17,8.6,25.6
		c3.9,11.8,7.7,23.7,11.6,35.5c3.3,10,6.7,20,10,30c3.5,10.6,7,21.3,10.5,31.9c4.7,14.1,9.4,28.1,14.1,42.2
		c4.1,12.4,8.1,24.9,12.1,37.4c4,12.3,8,24.6,12,36.8c2,6,4.3,11.9,6.3,17.9c2.2,6.6,4.2,13.3,6.4,20c2.3,7,4.7,13.9,7,20.9
		c2.4,7.5,4.8,15.1,7.2,22.6c1.3,4.1,2.6,8.1,3.6,12.3c0.5,2.1,0.5,4.4,0.3,6.5c-0.1,1-1.1,2.4-1.9,2.6c-0.8,0.2-2.1-0.7-3-1.3
		c-0.6-0.4-1.1-1.2-1.4-1.9c-3.2-6-6.4-12-9.6-18c-3-5.4-6-10.8-9-16.2c-6.2-11.3-12.4-22.6-18.5-33.9c-4.8-8.9-9.3-18-14-26.9
		c-4.7-8.8-9.5-17.6-14.1-26.5c-2.4-4.6-4.6-9.3-7-13.9c-4.3-8.3-8.8-16.5-13.1-24.7c-4.1-7.7-8.1-15.5-12.1-23.2
		c-3.5-6.7-6.8-13.4-10.3-20.1c-3.4-6.6-7.1-13.1-10.5-19.7C280.1,230.9,278.7,225.2,279.1,219.2z"/>
	<path class="st0" d="M840.4,924.9c-1.1-0.5-3.5-1.2-5.3-2.6c-4.1-3.2-8-6.8-11.9-10.2c-2.5-2.2-5.1-4.3-7.6-6.6
		c-10.4-9.3-20.9-18.7-31.3-28c-7.1-6.4-14.2-12.7-21.3-19.1c-5.6-5-11.1-9.9-16.7-14.8c-5.3-4.7-10.6-9.3-15.9-14.1
		c-7.1-6.5-14.1-13-21.3-19.5c-8-7.2-16.2-14.2-24.2-21.4c-6.7-6-13.2-12.2-19.8-18.3c-2.8-2.6-5.9-4.9-8.7-7.5
		c-3.7-3.5-7.3-7-10.6-10.8c-1.7-1.9-1.6-4.7,0-6.3c1.3-1.3,3.8-1.5,5.9-1.8c1-0.1,2.3,0.6,3.3,1.1c15.9,8.6,31.8,17.3,47.6,26
		c4.7,2.6,9.3,5.4,14,8c9.1,5.3,18.2,10.5,27.3,15.8c10.8,6.3,21.7,12.6,32.5,18.8c7.7,4.4,15.5,8.8,23.2,13.2
		c11,6.4,22,12.8,33.1,19.2c7.6,4.4,15.3,8.8,22.9,13.2c5.8,3.4,11.5,6.9,17.2,10.5c5.2,3.3,5.6,7.9,1.6,12.6
		c-2.3,2.8-4.3,5.8-6.3,8.8c-3.3,4.9-6.6,9.8-9.9,14.7c-3.2,4.7-6.3,9.4-9.5,13.9C846.9,922.4,845.2,925,840.4,924.9z"/>
	<path class="st0" d="M922.6,663.2c-5.1-0.6-11.2-1.2-17.3-1.9c-8.5-0.9-17-1.6-25.5-2.5c-8.7-0.9-17.3-1.9-26-2.8
		c-5.6-0.6-11.3-1-16.9-1.5c-5.6-0.6-11.1-1.4-16.7-2c-8.1-0.8-16.1-1.5-24.2-2.3c-9.7-1-19.5-2-29.2-3c-5.4-0.5-10.9-0.9-16.3-1.4
		c-5.9-0.6-11.9-1.4-17.8-2c-6.2-0.7-12.5-1.2-18.7-1.8c-6-0.6-11.9-1-17.9-1.7c-2.2-0.3-4.5-0.9-6.6-1.6c-4.4-1.5-5.7-5.3-6.3-9.4
		c-0.1-0.9,0.8-2.7,1.6-3c3-1.3,6.1-2.7,9.2-3.1c10.9-1.4,21.9-2.4,32.8-3.6c4.3-0.5,8.6-1.2,12.9-1.7c4.9-0.6,9.8-0.9,14.7-1.4
		c6.2-0.6,12.5-1.3,18.7-1.9c4.8-0.5,9.6-0.9,14.4-1.3c10.1-0.8,20.1-1.5,30.2-2.4c10.1-0.9,20.2-2,30.4-3
		c5.2-0.5,10.3-0.8,15.5-1.3c12.4-1,24.8-2.1,37.2-3.1c4.9-0.4,9.8-0.6,14.7-0.7c3.4-0.1,6,2.5,6.7,5.8c2,9.2,4.2,18.4,6.2,27.7
		c1.3,5.8,2.6,11.5,3.4,17.4C932.8,660.3,931.2,663.3,922.6,663.2z"/>
	<path class="st0" d="M540.6,459.9c0-1.9-0.4-3.9,0-5.6c2.3-9.5,4.8-18.9,7.2-28.3c2-7.7,4.1-15.5,6.3-23.2
		c4.1-14.9,8.2-29.8,12.3-44.6c3.1-11.2,6.3-22.4,9.5-33.6c2.9-10.1,5.8-20.3,8.7-30.4c2.9-10.3,5.9-20.6,8.8-30.9
		c2.9-10.1,5.8-20.3,8.7-30.4c2.9-10.3,5.9-20.6,8.8-30.9c4.2-14.8,8.5-29.5,12.8-44.3c3.1-10.9,6.2-21.9,9.4-32.8
		c0.6-2,1.6-3.9,2.7-5.6c1.3-2.2,3.6-2.1,5.9-1.9c4.9,0.6,9.9,1,14.8,1.7c4,0.6,8.1,1.4,12,2.6c3.3,1,5,6.2,3.6,10.1
		c-4,10.9-8,21.8-12,32.7c-1.8,5-3.4,10-5.3,14.9c-3,7.8-6.1,15.6-9.1,23.4c-4.2,11-8.3,22-12.5,32.9c-5.3,13.9-10.8,27.8-16,41.7
		c-3.6,9.6-6.9,19.3-10.5,28.9c-3.4,9.1-7.1,18.1-10.6,27.1c-3.3,8.5-6.3,17-9.6,25.5c-3.2,8.3-6.4,16.6-9.6,24.9
		c-3.8,9.7-7.5,19.3-11.3,28.9c-3.7,9.5-7.2,19-10.9,28.5c-1.6,4.2-3.1,8.4-4.8,12.4c-1,2.3-2,4.8-5.3,4.8c-1,0-1.9,0.9-2.9,1.4
		C541.4,460.1,541,460,540.6,459.9z"/>
	<path class="st0" d="M74.6,949.8c1.7-1.6,3.3-3.4,5.2-4.8c10.1-7.2,20.4-14.3,30.6-21.4c6.8-4.8,13.7-9.5,20.6-14.3
		c8.7-6.1,17.4-12.2,26.1-18.3c8.5-5.9,17.1-11.7,25.6-17.6c4.3-3,8.5-6.2,12.9-9.2c6.6-4.5,13.2-8.9,19.8-13.4
		c3.8-2.6,7.7-5.2,11.5-7.8c9-6.2,18-12.4,26.9-18.6c8.3-5.7,16.5-11.5,24.8-17.2c8-5.5,16.2-10.8,24.2-16.3
		c8.9-6,17.6-12.2,26.5-18.2c4-2.7,8.2-4.9,13.4-4.4c2.1,0.2,4.3-0.7,6.4-0.9c0.7-0.1,1.5,0.5,2.2,0.7c-0.3,0.7-0.4,1.6-0.9,2.1
		c-5.9,5.6-11.8,11.1-17.7,16.7c-5.1,4.9-10.2,9.9-15.4,14.7c-4,3.7-8.3,7.1-12.3,10.8c-7.3,6.6-14.3,13.4-21.6,20
		c-9.2,8.3-18.5,16.4-27.7,24.7c-8.7,7.8-17.3,15.8-26,23.6c-5.9,5.3-11.9,10.4-17.8,15.7c-4.1,3.7-8.4,7.3-12.2,11.3
		c-5.2,5.5-11.6,8.5-18.7,10.8c-7.4,2.4-14.7,5.1-22.1,7.6c-6,2-12.1,3.8-18.1,5.9c-5.5,1.9-10.9,4-16.3,5.9
		c-2.4,0.8-4.9,1.5-7.3,2.2c-11.1,3.6-22.2,7.4-33.4,10.8c-2.7,0.8-5.8,0.5-8.7,0.7C75,950.9,74.8,950.4,74.6,949.8z"/>
	<path class="st0" d="M72.6,641c9,0.8,18,1.7,26.9,2.3c8.5,0.6,17.1,0.8,25.7,1.4c9.8,0.6,19.6,1.4,29.4,2.2
		c8.6,0.6,17.2,1.3,25.9,2c1.9,0.1,3.8,0.1,5.7,0.2c10.4,0.7,20.8,1.5,31.3,2.2c13.6,0.9,27.3,1.5,40.9,2.4
		c13.8,0.9,27.5,2.1,41.3,3.2c2.8,0.2,5.9,0.1,8.1,2.5c2.1,2.3,1.7,4.8-1.2,5.7c-2.4,0.8-4.9,0.9-7.4,1.3
		c-7.2,1.2-14.3,2.6-21.5,3.5c-10.5,1.3-21,2.3-31.5,3.3c-11.2,1.1-22.4,2.2-33.6,3.3c-8.1,0.8-16.1,1.5-24.2,2.2
		c-16.1,1.5-32.2,2.9-48.4,4.4c-15.5,1.4-31,2.8-46.5,4.2c-3.3,0.3-6.7,1-10,1c-5.5,0.1-7.9-1.2-10.4-8.1
		c-3.6-10.1-7.2-20.2-10.8-30.3c-2-5.6,0.5-8.9,6.5-8.6c1.3,0.1,2.5,0.1,3.8,0.2C72.6,641.2,72.6,641.1,72.6,641z"/>
	<path class="st0" d="M460.2,980.8c0.3-1.8,0.8-4.7,1.3-7.6c1.4-8.6,2.8-17.2,4.2-25.8c1.2-7.5,2.4-15.1,3.6-22.6
		c1-6.6,2-13.1,3.1-19.7c1.7-10.6,3.4-21.2,5.1-31.7c0.9-6,1.6-12.1,2.6-18.1c1.1-7,2.4-14,3.6-21c0.3-1.5,0.5-3.1,0.6-4.6
		c0.2-2.7,1.3-3.6,4.6-3.7c2.6-0.1,3.5,1,4.2,3.5c1.2,4.5,2.9,8.8,4.3,13.2c3.3,10.8,6.6,21.6,9.8,32.4c3.5,11.8,6.9,23.5,10.4,35.3
		c4.8,16.3,9.7,32.6,14.5,48.9c0.5,1.8,1.1,3.7,1.1,5.6c0,1-0.9,2.5-1.7,2.9c-3,1.3-6.2,2.2-9.3,3.1c-6.9,2.1-13.8,4.1-20.7,6.1
		c-5.3,1.5-10.7,2.9-16,4.4c-6.2,1.7-12.5,3.4-18.7,5.1c-0.5,0.1-1.1,0.2-1.6,0.3C461,987,460,986.1,460.2,980.8z"/>
	<path class="st0" d="M593.4,485.1c0.5-1.2,0.8-2.1,1.3-2.9c6.7-11.5,13.4-22.9,20.2-34.4c2.9-4.9,5.8-9.7,8.7-14.5
		c4.7-8.1,9.3-16.2,14.1-24.2c3.9-6.5,8-12.8,11.9-19.2c4.2-6.9,8.2-13.9,12.4-20.8c3.1-5.2,6.3-10.4,9.5-15.7
		c4.8-7.9,9.5-15.9,14.3-23.8c2.4-4,5.1-7.8,7.5-11.7c1-1.7,1.9-1.9,3.4-0.6c4.7,4.2,9.5,8.2,14.1,12.4c4.4,4,8.8,8.1,13.2,12.2
		c2.1,2,2.1,3.1,0.2,5.3c-9.4,10.5-18.7,21.1-28.1,31.6c-7.3,8.1-14.6,16.2-21.9,24.3c-4.5,5-9,10-13.5,15
		c-8.7,9.7-17.5,19.4-26.2,29.2c-8.9,9.9-17.8,19.9-26.8,29.8c-3.1,3.4-6.5,6.6-9.9,9.7c-0.6,0.6-1.9,0.9-2.6,0.6
		C594.3,487.1,594,485.9,593.4,485.1z"/>
	<path class="st0" d="M278.7,972.5c-2.8-0.9-5.4-1.8-8-2.7c-5.8-2-11.5-4-17.2-6.2c-3.9-1.5-4.2-2.1-1.7-5.3
		c6.7-8.5,13.6-16.8,20.4-25.3c9.3-11.5,18.6-23,28-34.5c7.1-8.7,14.2-17.3,21.3-26c5.7-7,11.2-14.1,16.9-21.1
		c7.9-9.7,16-19.3,23.9-29.1c5.6-6.8,11-13.7,16.6-20.5c0.7-0.8,1.5-1.8,2.4-2.1c1.1-0.3,2.6-0.2,3.4,0.4c0.6,0.5,0.8,2.3,0.4,3.1
		c-2.2,4.3-4.6,8.5-7,12.6c-4.1,6.9-8.2,13.8-12.3,20.6c-4,6.4-8.1,12.8-12.1,19.2c-6.5,10.4-13,20.8-19.5,31.2
		c-8.4,13.5-16.9,27-25.4,40.5c-8.3,13.2-16.5,26.4-24.8,39.5c-0.9,1.4-1.8,2.9-2.9,4.2C280.6,971.8,279.5,972,278.7,972.5z"/>
	<path class="st0" d="M655.2,901.3c-1.4-1.2-3.4-2.1-4.2-3.7c-3-5.4-5.6-11-8.4-16.5c-2.3-4.7-4.4-9.5-6.8-14.2
		c-3.5-7-7.2-13.8-10.7-20.8c-3.3-6.7-6.4-13.6-9.7-20.4c-2.4-4.9-5.1-9.6-7.6-14.5c-2.4-4.8-4.7-9.6-7-14.4
		c-0.8-1.7-1.9-3.3-2.5-5.1c-0.3-0.9,0.4-2.2,0.6-3.3c1.1,0.4,2.4,0.5,3.1,1.2c7,7.2,13.9,14.6,20.7,21.9c7.8,8.3,15.5,16.6,23.2,25
		c6.3,6.9,12.6,13.8,19,20.7c6.5,7.1,13,14.1,19.6,21.2c3.9,4.3,7.9,8.6,11.8,12.9c2,2.2,1.6,3.6-1.4,4.1c-4.9,0.8-9.9,1.4-14.9,2
		c-7.8,1-15.5,2.1-23.3,3.1c-0.4,0-0.7,0.1-1.1,0.1C655.5,900.9,655.3,901.1,655.2,901.3z"/>
	<path class="st0" d="M673.3,575c-2.7,0.2-4.1-0.6-4.8-2.5c-0.7-2,0.5-3.2,2.1-3.9c5.5-2.6,11-5.3,16.6-7.6
		c17.5-7.1,35-14,52.5-20.9c17.5-6.9,35.1-13.6,52.7-20.4c1.9-0.8,3.9-1.4,5.8-2.3c1.9-0.9,3.5-0.3,4.7,1
		c5.6,6.1,11.2,12.1,16.7,18.4c2.4,2.7,1.8,3.9-1.8,4.8c-4.8,1.2-9.5,2.4-14.3,3.5c-7.9,1.9-15.8,3.7-23.7,5.5
		c-8.2,1.8-16.3,3.5-24.5,5.4c-9.2,2.1-18.4,4.5-27.6,6.6c-9.5,2.2-19,4.3-28.5,6.4c-7.8,1.8-15.6,3.7-23.4,5.5
		C674.7,574.7,673.6,574.9,673.3,575z"/>
	<path class="st0" d="M678.8,696c8.3,1.6,16.6,3.2,24.9,4.9c14.7,3,29.4,6.2,44.1,9.3c8.2,1.7,16.3,3.6,24.5,5.4
		c2.3,0.5,4.6,1.1,7,1.3c4.9,0.3,7.5,3,9.3,7.4c3.9,10.1,8.2,20,12.3,30c0.5,1.2,0.8,3.1,0.2,3.8c-0.6,0.7-2.7,0.8-3.7,0.4
		c-4.7-1.9-9.3-4.2-13.9-6.3c-9.1-4.3-18.3-8.6-27.4-12.9c-7.1-3.3-14.1-6.7-21.2-10.1c-12.8-6-25.6-12.1-38.4-18.1
		c-6.5-3.1-13-6.1-19.5-9.3c-1.2-0.6-2-2-3-3c1.3-0.8,2.6-1.6,4-2.4c0.2-0.1,0.5,0,0.8,0C678.7,696.2,678.8,696.1,678.8,696z"/>
	<path class="st0" d="M277.5,370.5c1,0.9,2.1,1.6,2.7,2.5c5.2,7.9,10.4,15.8,15.6,23.7c5.7,8.6,11.4,17.1,17,25.8
		c6.1,9.3,12,18.7,18.1,28c4.1,6.3,8.3,12.4,12.3,18.7c7.9,12.3,15.8,24.6,23.5,37c0.5,0.8,0.1,2.3,0.1,3.4
		c-1.2-0.4-2.8-0.4-3.5-1.2c-6.8-7.8-13.5-15.7-20.2-23.6c-7.5-8.8-15.1-17.7-22.6-26.5c-9.4-11.2-18.9-22.3-28.3-33.5
		c-7.3-8.7-14.5-17.5-21.8-26.2c-2-2.4-4-4.7-6-7.1c-2-2.4-1.9-3.7,0.1-6.2c3.5-4.2,6.8-8.5,10.3-12.7
		C275.6,371.8,276.5,371.3,277.5,370.5z"/>
	<path class="st0" d="M315.3,599.3c-1,0.2-2,0.5-3,0.5c-8.3-0.6-16.5-1.2-24.8-1.9c-11.9-1.1-23.7-2.4-35.6-3.7
		c-8.6-0.9-17.2-2.1-25.8-3c-8.1-0.9-16.3-1.6-24.5-2.4c-3-0.3-6-0.6-8.9-1.2c-0.8-0.2-1.8-1.2-2-2c-1.2-5.5-2.2-11.1-3.2-16.6
		c-0.4-2-0.8-3.9-1.1-5.9c-0.3-2.4,1-3.3,3.1-2.8c3.2,0.7,6.3,1.6,9.5,2.5c8.6,2.5,17.3,5,25.9,7.7c12.3,3.7,24.5,7.6,36.8,11.3
		c15.4,4.7,30.9,9.2,46.3,13.9c2.5,0.8,4.9,1.8,7.4,2.8C315.4,598.6,315.3,598.9,315.3,599.3z"/>
	<path class="st0" d="M323.5,713.7c-2.7,1.7-5.4,3.5-8.1,5.1c-13.7,8.1-27.4,16.2-41.2,24.2c-9.6,5.6-19.2,11.1-28.8,16.6
		c-2.4,1.4-3.5,1-4.5-1.6c-1.3-3.5-2.5-7-3.7-10.5c-0.7-2-0.1-3.4,1.9-4.1c9.7-3.7,19.4-7.3,29.1-11c6.3-2.4,12.6-4.8,18.9-7.2
		c10.6-4.1,21.2-8.2,31.9-12.2c1.3-0.5,2.9-0.3,4.3-0.4C323.3,713,323.4,713.4,323.5,713.7z"/>
</g>
<g>
	<path class="st0" d="M497.9,804.2c-86.8,1.2-162.6-71.4-161.4-161.7c1.1-87,71.9-159.4,162.1-158.6
		c87.6,0.8,158.1,71.3,158.7,159.5C657.8,732.4,585.4,804.5,497.9,804.2z"/>
	<g>
		<path class="st2" d="M499.8,559.4c-0.8,0.1-2.2-0.2-2.9-0.6c-2.9-1.8-3.8-5.5-4.5-8.8c-0.7-3.3-1.7-7-4.8-8.6
			c-1-0.5-2.2-0.7-3.3-0.9c-2.2-0.3-4.4-0.4-6.6-0.3c-0.7,0.1-1.4,0.1-2.1,0.4c-1.4,0.7-1.9,2.4-1.6,3.8c0.3,1.4,1.2,2.7,2.2,3.8
			c3.8,4.7,8.5,8.9,12,13.9c3.5,5,5.9,11.2,4.7,17.1c-0.7,3.5-2.6,6.5-4.4,9.6c-0.4,0.7-0.8,1.5-0.5,2.2c0.4,1,1.7,1.2,2.8,1.2
			c3.1,0.1,6.1,0.1,9.1,0.2c3.1-0.1,6.1-0.1,9.1-0.2c1.1,0,2.4-0.2,2.8-1.2c0.3-0.7-0.1-1.5-0.5-2.2c-1.7-3.1-3.7-6.2-4.4-9.6
			c-1.3-5.9,1.2-12.1,4.7-17.1c3.5-5,8.1-9.2,12-13.9c0.9-1.2,1.8-2.4,2.2-3.8c0.3-1.4-0.3-3.1-1.6-3.8c-0.6-0.3-1.3-0.4-2.1-0.4
			c-2.2-0.1-4.4,0-6.6,0.3c-1.2,0.2-2.3,0.4-3.3,0.9c-3.1,1.6-4.2,5.3-4.8,8.6c-0.7,3.3-1.5,7-4.5,8.8c-0.7,0.4-2.1,0.7-2.9,0.6
			H499.8z"/>
		<path class="st2" d="M394.1,580.3c0.8,3.2,1.2,6.5,1.4,9.8c0.1,3.3,0.3,6.5,1.6,9.5c1.6,3.9,3.1,9.7,7.4,9.8
			c4.2,0.1,6.4-5.4,9.7-7.8c3.3-2.5,7.4-4.5,11.5-3.9c1.1,0.1,2.1,0.5,2.9,1.1c1.6,1.1,2.3,3.1,2.5,5c0.1,1.1,1.1,4.8,0.9,5.9
			c-0.2,1.4-1.1,2.5-2.3,3.1c-7.9,3.5-15.7,7.2-23,11.9c-3.1,2-6.2,4.2-9.9,4.7c-0.3,0-0.7,0.1-1.1,0c-2.6-0.5-4-6-4.1-8.4
			c-0.3-5.7-0.5-11.4-2.4-16.8c-0.9-2.6-2.2-5.1-3.6-7.5c-2.4-4.3-6-8-8.9-12c-0.3-0.5-0.7-1-1-1.6c-0.6-1.3-0.2-2.9,1-3.7
			C380.3,577,391.7,570.6,394.1,580.3z"/>
		<path class="st2" d="M610.2,580.2c-1.9,2.6-4.2,5.1-6.6,7.4c-2.4,2.2-4.8,4.4-6.3,7.4c-1.9,3.7-5.4,8.7-2.8,11.9
			c2.6,3.2,8.2,1.4,12.2,2.4c4.1,0.9,8.2,2.8,10.4,6.3c0.6,0.9,1,1.9,1.1,2.9c0.1,1.9-0.9,3.8-2.3,5.1c-0.8,0.8-2.9,3.9-3.9,4.5
			c-1.2,0.7-2.6,0.8-3.9,0.2c-7.8-3.8-15.6-7.4-23.9-10c-3.5-1.1-7.2-2.1-10-4.6c-0.2-0.2-0.5-0.5-0.7-0.8c-1.3-2.3,2-6.9,3.8-8.6
			c4.2-3.9,8.4-7.7,11.3-12.7c1.4-2.4,2.4-5,3.4-7.6c1.7-4.6,2.2-9.8,3.5-14.5c0.1-0.6,0.3-1.2,0.6-1.8c0.6-1.3,2.1-2,3.5-1.6
			C603.8,567.4,616.1,572.1,610.2,580.2z"/>
		<path class="st2" d="M570.1,604.3c-0.9-6.7-4.1-15-5.9-21.5c-1.6-5.6-1.7-11.7-0.2-17.3c0.6-2.3,1.6-4.7,3.4-6.3
			c0.6-0.6,1.3-1.1,1.4-1.9c0-0.4-0.1-0.7-0.3-1.1c-0.8-1.5-2.2-2.3-3.7-3c-2.9-1.4-5.7-2.5-8.8-3.2c-3.1-0.8-6.2-1.3-9.2-1.6
			c-1.7-0.1-3.3-0.1-4.7,0.8c-0.3,0.2-0.6,0.4-0.8,0.8c-0.4,0.7,0,1.6,0.2,2.4c0.7,2.3,0.4,4.8-0.2,7.2c-1.5,5.6-4.6,10.9-8.8,14.9
			c-4.8,4.6-11.8,10.4-15.9,15.7c-0.5,0.6-0.6,1.6-0.2,2.3c0.5,0.8,1.4,1.2,2.3,1.5c5.6,2.3,11.4,4.2,17.3,5.7
			c0.6,0.1,1.1,0.1,1.6,0c1.8-0.7,1.3-2.9,0.2-4.2c-0.7-0.9-0.9-3.1-0.6-4.3c0.1-0.5,0.7-2.6,1.2-2.8c0.4-0.2,0.8-0.2,1.3-0.2
			l11.6,3.1c0.4,0.2,0.8,0.4,1,0.8c0.3,0.5-0.2,2.5-0.4,3.1c-0.4,1.2-1.8,3.2-3,3.5c-1.1,0.3-2,1.3-2,2.5c0.1,1.4,1.4,2,2.6,2.3
			c5.6,1.6,11.4,2.8,17.1,3.5c0.9,0.1,1.9,0.2,2.7-0.2C569.8,606,570.2,605,570.1,604.3z M552.4,580.2l-8.4-2.3
			c-1.2-0.6-2.2-2-1.8-3.3c0.3-0.8,1.1-1.3,1.7-1.9c2.7-2.2,4.2-5.6,4-9c0-0.5-0.1-1.1,0-1.6c0.3-1.1,1.5-1.6,2.6-1.5
			c0.9,0.1,1.7,0.1,2.5,0.3c0.8,0.2,1.6,0.6,2.3,1c1,0.5,1.8,1.6,1.5,2.6c-0.1,0.5-0.4,1-0.8,1.4c-1.9,2.9-2.3,6.6-1,9.8
			c0.3,0.8,0.7,1.7,0.5,2.5C555.4,579.6,553.8,580.2,552.4,580.2z"/>
		<path class="st2" d="M502.8,748.2c4.6,0,13.5-1.1,17.7-2.6c3.5-1.3,6.6-4.5,7.4-8.5c0.9-4.4-1.8-8.3-3.5-12.4
			c-1.5-3.6-1.7-7.8-1-11.7c0.7-3.9,2.4-7.5,4.5-10.7c1-1.6,2.9-3.9,1.7-5.3c-1.7-1.9-6.9-2.5-9.3-2.7c-3.5-0.2-9.5,2.1-12.7,3.8
			c-0.4,0.2-0.8,0.6-1.1,0.9c-0.3,0.4-0.5,1.1-0.6,1.5c-0.6,3.2,0.1,6.5,1.8,9.1l1.8,2.8c1.9,2.9,3.3,6,4.6,9.4
			c1.3,3.4,1.3,7.3,0.4,10.8c-1.2,4.7-5.2,6.7-9.4,6.8c-1.2,0.1-3.5,0.1-4.7,0c-4.3-0.1-8.2-2.1-9.4-6.8c-0.9-3.6-0.8-7.4,0.4-10.8
			c1.3-3.4,2.2-6.4,4.1-9.4l1.8-2.8c1.7-2.7,2.5-6.3,1.6-9.6c-0.1-0.2-0.1-0.4-0.2-0.5c-0.3-0.6-0.8-1.2-1.3-1.5
			c-3.2-1.8-8.7-4-12.2-3.8c-2.4,0.1-7.6,0.7-9.4,2.7c-1.2,1.4,0.7,3.7,1.7,5.3c2.1,3.2,3.7,6.8,4.5,10.7s0.5,8.1-1,11.7
			c-1.7,4.1-4.4,8-3.5,12.4c0.9,4.1,3.9,7.3,7.4,8.5C489.4,747.1,498.3,748.2,502.8,748.2z"/>
		<path class="st2" d="M434.3,718.3c0.7-0.7,1.7-1.2,2.7-1.5c9.1-2.8,19.5,4.2,27.7-1c4.7-2.9,6.8-9,7.4-14.6c0.2-1.7,0.3-3.4-0.2-5
			c-0.9-2.5-3.4-4-5.9-4.6c-9.1-2.2-27.2-6.5-35.9-10.1c-2.2-0.9-4.4,0.8-4,3.2c1.1,6.8-1.1,18-3.9,24.6c-1.8,4.2-4,8.3-6.6,12.1
			c-1.4,2.1-7.4,8-6.3,9.9c0,0,16.9,4.2,22.5,5.8c0.9,0.2,1.7-0.8,1.3-1.6c-2.2-4.5-2.4-10.1-0.4-14.8
			C433.1,719.9,433.5,719,434.3,718.3z M434.5,707.2c-0.3-0.3-0.4-0.8-0.4-1.2c-0.1-2.5,1.7-3.3,2.8-5.2c1.1-1.7,1.2-4.1,0.2-5.9
			c-0.3-0.6-0.7-1.3-0.3-1.8c0.2-0.2,0.5-0.2,0.8-0.3c2.6-0.2,5.1,0.6,7.7,1.3c3.4,1,6.8,1.9,10.2,3c0.9,0.2,1.8,0.5,2.5,1.2
			c0.7,0.7,1.1,1.8,1.2,2.8c0,1-0.2,2.1-0.4,3.1c-0.2,1-0.5,2.1-1.2,2.8c-1,1-2.6,1.1-4,0.9c-2.1-0.3-4-1.4-6.1-1.9
			c-3.2-0.8-6.7-0.4-9.8,1C436.5,707.4,435.3,708,434.5,707.2z"/>
		<path class="st2" d="M557.2,721.3c0.3-1,0.9-1.9,1.6-2.7c6.5-7,19-6.1,23.5-14.7c2.6-4.9,1.4-11.2-0.8-16.3
			c-0.6-1.6-1.4-3.1-2.7-4.2c-2-1.7-4.9-1.7-7.4-1c-8.9,2.6-26.9,8-36.1,9.2c-2.3,0.3-3.4,2.9-1.9,4.8c4.4,5.4,8.1,16.1,9,23.3
			c0.5,4.6,0.7,9.2,0.3,13.8c-0.1,2.5-2.4,10.7-0.5,11.7c0,0,16.7-4.8,22.4-6.3c0.9-0.2,1.1-1.5,0.3-2c-4.1-2.8-7.1-7.5-7.7-12.6
			C557,723.2,556.9,722.2,557.2,721.3z M551.9,711.6c-0.4-0.1-0.7-0.5-1-0.8c-1.4-2.1-0.2-3.7-0.2-5.9c0.1-2-1.1-4.1-2.8-5.2
			c-0.6-0.3-1.3-0.8-1.1-1.4c0.1-0.3,0.3-0.5,0.5-0.6c2.2-1.5,4.7-2.1,7.3-2.7c3.4-0.9,6.8-1.7,10.3-2.5c0.9-0.2,1.8-0.4,2.7-0.2
			c1,0.2,1.8,1,2.4,1.8c0.6,0.9,0.9,1.9,1.2,2.8c0.3,1,0.6,2.1,0.4,3.1c-0.3,1.4-1.7,2.3-3.1,2.8c-2,0.7-4.2,0.8-6.2,1.4
			c-3.2,0.9-6.1,3-7.9,5.8C553.8,710.7,553,711.8,551.9,711.6z"/>
		<path class="st2" d="M468,569.4c-4-14.9,6.4-30.6-23.8-22.5c-29.8,8-13,16.4-9,31.3c4,14.9-10.2,31.6,23.5,22.6
			C494.5,591.2,472,584.3,468,569.4z M463.1,583.9c0.1,0.6,0.2,1.3-0.2,1.8c-0.4,0.6-1.2,0.9-1.9,1.2c-3.3,1.1-8.9,2.5-12.3,3.3
			c-0.8,0.2-1.6,0.3-2.2-0.1c-0.6-0.3-0.8-0.9-1-1.5c-0.7-2.3-0.8-4.7-0.1-7c0.4-1.6,1.2-3.2,1.5-4.8c0.9-4.3-1.1-8.7-4.4-11.7
			c-1-0.9-2.2-1.8-2.2-3.1c-0.1-1.3,1-2.7,2.5-3.2c2.2-0.8,5.5-1.7,7.8-2.1c1.5-0.3,3.1,0.4,3.7,1.5c0.6,1.2,0,2.6-0.3,3.8
			c-1.4,4.3-0.9,9,2,12.3c1.1,1.2,2.6,2.2,3.7,3.4C461.5,579.5,462.6,581.6,463.1,583.9z"/>
	</g>
</g>
</svg>
