<?xml version="1.0" encoding="utf-8"?>
<!-- Generator: Adobe Illustrator 24.3.0, SVG Export Plug-In . SVG Version: 6.00 Build 0)  -->
<svg version="1.1" id="Layer_1" xmlns="http://www.w3.org/2000/svg" xmlns:xlink="http://www.w3.org/1999/xlink" x="0px" y="0px"
	 viewBox="0 0 989.9 1288.2" style="enable-background:new 0 0 989.9 1288.2;" xml:space="preserve">
<style type="text/css">
	.st0{fill:#FFE422;}
	.st1{fill:#FF9100;}
	.st2{fill:#0030B5;}
</style>
<g>
	<path class="st0" d="M735.3,1069.7c-3.4,0.3-5.9-1-7.4-4c-2.2-4.3-4.4-8.7-6.5-13.1c-3.2-6.8-6.4-13.6-9.6-20.4
		c-4.1-8.7-8.2-17.5-12.3-26.2c-6.1-12.9-12.2-25.8-18.2-38.7c-6.1-13-12.1-26-18.2-39c-6.8-14.6-13.6-29.2-20.5-43.7
		c-5.5-11.6-11.1-23.2-16.5-34.8c-6.5-13.9-12.9-27.9-19.4-41.8c-2.2-4.8-4.7-9.6-6.8-14.5c-0.7-1.7-0.8-3.7-0.9-5.5
		c0-2.2,1.3-3.8,3.4-4c1.7-0.1,4,0.3,5.2,1.5c4.2,4,8.2,8.4,12.1,12.7c6.6,7.3,13.2,14.6,19.8,22c8.1,9.1,16.2,18.3,24.2,27.5
		c13.2,15.1,26.3,30.3,39.4,45.5c8,9.3,16,18.6,24.1,27.8c10.3,11.8,20.6,23.5,30.8,35.3c8.9,10.3,17.8,20.7,26.7,31
		c7.3,8.4,14.6,16.8,21.9,25.2c8.9,10.3,17.9,20.6,26.8,31c1.2,1.4,2.3,2.8,3.2,4.3c2.4,4,1,7.7-3.6,8.7c-4.1,0.9-8.3,1.5-12.6,2.1
		c-7.6,1-15.2,2-22.8,2.9c-4.3,0.5-8.6,0.9-12.9,1.5c-6.8,0.9-13.6,1.9-20.4,2.9c-2.6,0.4-5.2,0.6-7.8,1
		C749.5,1067.9,742.4,1068.8,735.3,1069.7z"/>
	<path class="st0" d="M461.5,1210.1c0.9-11,1.9-22.8,2.8-34.6c0.5-7.4,0.8-14.8,1.3-22.2c0.6-10,1.3-20,2-30
		c0.4-6,0.8-11.9,1.2-17.9c0.4-7.8,0.7-15.5,1.2-23.3c0.6-9.5,1.4-18.9,2-28.4c0.4-5.9,0.8-11.7,1.1-17.6c0.4-6.9,0.8-13.7,1.2-20.6
		c0.7-11.6,1.4-23.1,2.2-34.7c0.7-11.5,1.4-22.9,2.2-34.4c0.7-10.7,1.4-21.5,2.1-32.2c0.4-6.6,0.8-13.2,1.2-19.8
		c0.7-10.7,1.4-21.5,2.1-32.2c0.4-5.5,0.8-11,1.2-16.5c0.4-6.1,0.7-12.3,1.2-18.4c0.1-1.4,1-3.1,2.1-3.9c1-0.8,3-1.2,4.1-0.8
		c1,0.4,2.1,2,2.3,3.3c1.5,11.1,2.9,22.2,4.3,33.3c1.6,12.9,3,25.8,4.6,38.8c0.9,7.1,1.9,14.1,2.8,21.2c0.6,5,1,10.1,1.6,15.1
		c0.7,6.2,1.6,12.3,2.3,18.5c0.7,6.1,1.3,12.2,2,18.3c0.9,7.4,1.9,14.7,2.8,22c0.9,7.4,1.7,14.9,2.6,22.4c0.9,7.2,2,14.3,2.9,21.4
		c0.5,4.2,0.9,8.4,1.4,12.6c1,8.3,1.9,16.7,2.9,25c0.9,7.6,1.7,15.3,2.6,22.9c1,8.4,2,16.8,3,25.3c1.2,10.2,2.3,20.5,3.5,30.7
		c0.5,4.6,0.7,9.2,1.4,13.8c0.6,4.2-0.7,7-4.2,9.4c-7.6,5.2-14.9,10.9-22.4,16.2c-8.5,6-17,12-25.5,17.9c-4.7,3.3-9.3,6.6-14.1,9.6
		c-3.4,2.2-6.6,0.6-7.1-3.4C461.9,1215.1,461.8,1213,461.5,1210.1z"/>
	<path class="st0" d="M594.3,481.2c1.3-3.1,2.1-5.7,3.4-8.1c6-11,12.1-22,18.2-33c6.1-11.1,12.2-22.2,18.4-33.2
		c7.6-13.4,15.3-26.7,22.9-40c5.9-10.4,11.7-21,17.7-31.4c5.6-9.8,11.4-19.5,17-29.3c4.5-7.8,9-15.7,13.4-23.5
		c9-15.8,18.1-31.5,27.1-47.3c8.8-15.5,17.6-31,26.5-46.4c0.7-1.2,1.7-2.4,2.7-3.3c1.8-1.6,3.8-1.6,5.6,0.1
		c6.5,6.2,12.9,12.4,19.4,18.6c8.2,7.8,16.5,15.5,24.5,23.4c7.2,7.1,4.7,7.8,0.2,13.5c-5.4,6.9-11.2,13.4-16.9,20.1
		c-4.9,5.7-9.9,11.3-14.7,17c-5.2,6.1-10.2,12.4-15.4,18.5c-7.1,8.3-14.3,16.6-21.4,24.9c-9.4,11.1-18.8,22.2-28.2,33.2
		c-7.6,8.9-15.2,17.7-22.8,26.5c-5.4,6.4-10.8,12.9-16.2,19.2c-7.8,9.1-15.7,18-23.4,27.1c-12,14.1-23.8,28.3-36,42.3
		c-4.2,4.9-9.1,9.2-13.8,13.7c-1.4,1.3-3.2,2.4-5.1,0.9C596.2,483.8,595.3,482.4,594.3,481.2z"/>
	<path class="st0" d="M488.9,208.5c0,16-0.1,32.1,0,48.1c0.1,24.4,0.4,48.7,0.6,73.1c0.3,36.2,0.7,72.4,1.2,108.7
		c0.1,4,0.6,8-1.6,11.6c-0.8,1.3-1.7,2.7-2.9,3.5c-1.7,1.2-3.8,1.4-4.8-1c-1.5-3.8-2.9-7.6-3.8-11.5c-1.4-6.2-2.4-12.6-3.5-18.9
		c-1.5-8.6-2.9-17.3-4.3-26c-1.8-11.1-3.5-22.1-5.2-33.2c-1.3-8.6-2.4-17.2-3.6-25.7c-1.6-11-3.5-21.9-5.1-32.9
		c-1.2-8.4-2.3-16.8-3.5-25.2c-1.3-9-2.7-18-3.9-27.1c-1.7-12.3-3.2-24.5-5-36.8c-1.6-11.3-3.5-22.5-5-33.8
		c-1.3-9.3-2.3-18.6-3.6-28c-1.2-8.7-2.6-17.3-3.8-26c-1.6-11.1-3.2-22.2-4.6-33.3c-0.8-5.6,0.1-7.1,6.1-8.5
		c7.3-1.7,14.7-3.1,22.1-4.4c6.8-1.2,13.6-2.1,20.4-3.1c1.4-0.2,2.9-0.4,4.3-0.3c2.3,0.2,4.3,1.3,4.8,3.8c1.1,6.4,2.7,12.8,2.9,19.2
		c0.5,13.8,0.1,27.5,0.3,41.3c0.3,22.1,0.8,44.2,1.2,66.3C488.7,208.5,488.8,208.5,488.9,208.5z"/>
	<path class="st0" d="M388.7,798.9c-0.6,1.5-0.9,2.7-1.5,3.8c-7.6,13.2-15.1,26.5-22.9,39.6c-5.1,8.7-10.7,17.1-16,25.8
		c-6.1,9.8-11.9,19.8-18.1,29.6c-8.3,13.2-16.8,26.1-25.1,39.3c-6.4,10.2-12.6,20.7-18.9,31c-5.8,9.5-11.8,18.8-17.7,28.2
		c-6.3,10-12.5,20.1-18.8,30.1c-7.4,11.9-14.8,23.8-22.3,35.7c-8.1,12.8-16.1,25.7-24.2,38.5c-3.3,5.2-5.2,5.9-11.1,3.8
		c-14.9-5.3-29.7-10.7-44.6-16.2c-3.1-1.1-3.8-3.6-1.7-6.2c5.6-7.2,11.4-14.3,17.1-21.4c3.6-4.5,7-9.1,10.6-13.6
		c3.4-4.2,7-8.2,10.4-12.4c5.1-6.3,10.1-12.7,15.3-19c4.3-5.3,8.6-10.5,12.9-15.7c7.3-9,14.6-18.1,22-27.2
		c5.1-6.3,10.4-12.5,15.5-18.8c5.4-6.6,10.6-13.2,16-19.7c12-14.7,24-29.4,36-44.1c6.1-7.4,12.3-14.7,18.3-22.1
		c9.6-11.8,19.2-23.7,28.8-35.6c6.6-8.2,13.1-16.3,19.7-24.5c2.8-3.4,5.6-6.9,8.4-10.2c3-3.5,6.5-4,9.8-1.4
		C387.5,796.9,388,798,388.7,798.9z"/>
	<path class="st0" d="M314.9,607.2c-9.3-1.2-18.6-2.9-27.9-4.4c-4.8-0.8-9.6-1.8-14.4-2.7c-10.2-2-20.4-4-30.6-6
		c-11.1-2.1-22.2-4.1-33.3-6.3c-12.1-2.4-24.1-4.9-36.1-7.3c-8.2-1.6-16.5-3.1-24.8-4.7c-8.2-1.6-16.3-3.4-24.4-5
		c-11.9-2.3-23.8-4.7-35.7-6.9c-4.6-0.9-6.8-3.3-7.3-8c-0.9-9.4-2.1-18.8-3-28.2c-0.9-8.5-1.6-17.1-2.4-25.6
		c-0.4-4.3-0.8-8.6-1.3-12.9c-0.6-5.2,2.6-8,7.4-6c6,2.5,11.8,5.5,17.6,8.4c7.2,3.5,14.5,7,21.7,10.5c8.2,4,16.3,8.1,24.5,12.1
		c6.7,3.2,13.4,6.3,20.1,9.6c11.4,5.6,22.8,11.4,34.3,16.9c12.6,6.1,25.3,11.9,38,18c10.4,5,20.7,10.3,31.1,15.4
		c13.1,6.5,26.3,12.9,39.4,19.4c3.1,1.5,6.3,2.9,9.2,4.7c2,1.2,4.4,2.7,3.6,5.7C319.9,606.9,317.3,607.5,314.9,607.2z"/>
	<path class="st0" d="M910.8,513.5c-1,1.1-1.9,3-3.3,3.5c-6.6,2.5-13.3,4.7-20,6.8c-6,1.9-12.1,3.8-18.1,5.6
		c-9.8,2.9-19.6,5.7-29.4,8.6c-8,2.4-15.9,4.9-23.8,7.3c-9.9,3-19.7,5.9-29.6,8.8c-10.6,3.2-21.1,6.4-31.7,9.5
		c-7.6,2.3-15.3,4.4-22.9,6.7c-13.2,3.9-26.3,7.9-39.4,11.9c-5.2,1.5-10.4,3-15.6,4.5c-3.6,1-6.5-0.9-7.2-4.5c-1.3-7-1-8.5,5.2-12
		c12.4-7,24.9-13.8,37.5-20.6c10-5.4,20.2-10.5,30.3-15.8c13.5-6.9,27-13.8,40.5-20.8c15.1-7.7,30.2-15.5,45.4-23.2
		c9.1-4.6,18.3-9.1,27.4-13.7c5.4-2.7,10.8-5.5,16.2-8.2c4.4-2.2,7.2-1.2,9.9,2.8c3.7,5.7,7.7,11.1,11.6,16.7
		c5.1,7.3,10.3,14.6,15.4,21.9C909.9,510.3,910.1,511.6,910.8,513.5z"/>
	<path class="st0" d="M676.8,694.5c7.2,1,14.7,1.9,22.1,2.9c10.5,1.5,21.1,3.1,31.6,4.8c12.9,2,25.7,4.1,38.6,6.2
		c7.3,1.2,14.7,2.2,22,3.4c13.8,2.2,27.7,4.4,41.5,6.8c9.3,1.6,18.5,3.4,27.7,5c3.2,0.6,6.5,0.7,9.6,1.6c2,0.6,4.3,2,5.3,3.7
		c3.9,7.2,7.5,14.6,11,22c4.9,10.4,9.5,20.8,14.3,31.2c1.6,3.5,3.5,7,4.7,10.6c0.6,1.8,0.7,4.4-0.3,5.8c-0.8,1.1-3.7,1.6-5.3,1.1
		c-6.1-1.9-12.1-4.2-18.1-6.6c-6.9-2.7-13.7-5.6-20.5-8.5c-4.3-1.8-8.5-3.5-12.8-5.3c-12.8-5.4-25.7-10.7-38.5-16.1
		c-11.3-4.8-22.6-9.6-34-14.3c-11.3-4.7-22.7-9.4-34.1-14.1c-10.8-4.5-21.7-8.9-32.5-13.4c-11.1-4.6-22.1-9.4-33.2-14.1
		c-2.1-0.9-4.1-1.9-6.1-2.9c-2.1-1-2.6-3-2-4.8c0.5-1.4,1.8-2.8,3.1-3.5C672.7,695.1,674.7,695,676.8,694.5z"/>
	<path class="st0" d="M370.3,502.5c-0.2,2.2-1.2,3.6-3.1,4.4c-2.2,0.9-4-0.3-5.3-1.8c-2.1-2.4-3.7-5.1-5.7-7.6
		c-10.4-13.1-21-26-31.4-39.2c-8.2-10.4-16.2-21-24.4-31.5c-8.9-11.4-18-22.6-26.8-34.1c-8.6-11.1-17.1-22.4-25.6-33.6
		c-6.2-8.1-12.6-16.1-18.8-24.2c-7.4-9.7-14.7-19.4-22.2-29c-8.6-11-17.3-22-25.9-33c-2.5-3.2-2.9-5.8-0.5-9.2
		c4.3-6.1,8.9-12.1,13.3-18.1c2.7-3.6,5.2-7.4,8-11c2.7-3.5,6-3.3,8.3,0.5c8.3,13.5,16.5,27,24.7,40.5c8.8,14.4,17.6,28.7,26.3,43.1
		c6.1,10.1,12,20.2,18,30.3c6.6,11,13.3,21.9,19.9,32.9c6.5,10.9,12.9,21.8,19.4,32.6c5.3,8.8,10.7,17.6,16,26.4
		c6.6,11,13.1,22.1,19.6,33.1c4.7,7.8,9.5,15.6,14.1,23.4C369.1,499.2,369.6,500.9,370.3,502.5z"/>
	<path class="st0" d="M106,840.2c-3.4-0.1-4.8-2.1-5.7-4.5c-4.2-11.3-8.2-22.6-12.3-33.9c-1.7-4.7-0.6-7.1,4-8.9
		c13.6-5.1,27.2-10.2,40.8-15.3c13.5-5.1,27-10.3,40.5-15.4c9.7-3.6,19.5-7.1,29.2-10.7c13.4-5,26.7-10.2,40.1-15.2
		c9.3-3.5,18.6-6.8,27.9-10.3c4.7-1.8,9.4-3.6,14.2-5.4c9.6-3.6,19.1-7.2,28.7-10.6c2.6-0.9,5.5-2,8.2,0.4c0.8,0.7,2.5,0.4,3.6,0.8
		c0.7,0.2,1.6,0.9,1.6,1.5c0.1,0.5-0.7,1.4-1.3,1.8c-9.7,5.9-19.4,11.8-29.3,17.5c-10.7,6.2-21.5,12.2-32.3,18.3
		c-13.1,7.5-26.1,15.1-39.2,22.7c-11,6.3-22,12.5-33,18.8c-10.1,5.7-20.1,11.4-30.2,17.1c-10.9,6.3-21.7,12.6-32.6,18.9
		c-6.9,4-13.9,7.8-20.8,11.7C107.6,839.9,106.5,840.1,106,840.2z"/>
	<path class="st0" d="M345.9,971.2c0.5-1.2,1.3-3.5,2.4-5.6c4.4-8.2,9-16.2,13.4-24.4c5.4-9.9,10.7-19.9,16.1-29.8
		c7.2-13.2,14.6-26.4,21.9-39.6c5.3-9.6,10.5-19.3,15.9-29c4.6-8.3,9.3-16.6,14-24.8c0.8-1.4,2.1-2.9,3.5-3.5c3.2-1.4,6.5,1.4,6,5.1
		c-1.1,7.8-2.3,15.6-3.6,23.3c-1.6,9.8-3.2,19.6-4.9,29.4c-1.6,9.3-3.4,18.7-5.1,28c-1.2,6.7-2.3,13.3-3.5,20
		c-1.7,9.6-3.4,19.2-5.1,28.8c-2,11.7-4,23.3-6.1,35c-0.3,1.9-0.7,3.7-1.1,5.6c-1,4.4-4.5,6.8-9.1,5.6c-5.8-1.6-11.6-3.4-17.3-5.4
		c-10.5-3.6-21-7.4-31.5-11C347.2,977.1,345.9,975.8,345.9,971.2z"/>
	<path class="st0" d="M423.1,461.1c-0.1,0.8-0.3,1.6-0.4,2.4c-0.4,2.4-1.2,4.4-4,4.6c-2.7,0.2-4.3-1.4-5.4-3.7
		c-1.3-2.5-2.9-4.8-4.3-7.2c-5.4-9.1-10.9-18.1-16.1-27.3c-7.5-13.1-14.8-26.3-22.2-39.4c-5.5-9.8-10.9-19.5-16.4-29.3
		c-1.9-3.4-1.7-6.2,0.9-9.3c3.9-4.5,7.9-8.9,11.9-13.3c3.3-3.6,6.5-7.3,9.8-10.9c5.4-6,10.7-12,16-18c1.6-1.8,3.6-2.4,5.9-1.8
		c2.4,0.6,3.2,2.6,3.5,4.7c1.2,8.4,2.4,16.8,3.6,25.2c1.3,9,2.6,18,3.9,27.1c1,6.9,1.8,13.8,2.7,20.7c1.3,8.8,2.7,17.7,4,26.5
		c0.9,6.5,1.5,13.1,2.5,19.6c1.3,8.9,2.7,17.9,4,26.8C422.9,459.5,423,460.3,423.1,461.1z"/>
	<path class="st0" d="M777,820.1c-0.6,1.7-0.7,2.8-1.3,3.7c-3.4,5.8-6.8,11.5-10.3,17.2c-1.7,2.8-3.1,5.7-4.9,8.4
		c-2.3,3.4-4.6,3.7-7.7,1c-5.9-5.3-11.7-10.8-17.6-16.2c-7.4-6.9-14.8-13.8-22.1-20.7c-8-7.6-15.9-15.3-23.9-22.9
		c-9.5-9.1-18.9-18.1-28.4-27.2c-5.6-5.4-11.3-10.6-17-16c-0.8-0.7-1.3-1.7-1.7-2.7c-0.9-1.9-0.5-4,1-4.9c1.2-0.7,3.5-0.5,4.7,0.2
		c5.3,2.9,10.4,6.2,15.6,9.2c8.8,5.2,17.7,10.1,26.5,15.4c12.9,7.8,25.7,15.8,38.6,23.6c10.9,6.6,21.8,13.1,32.7,19.8
		c4.4,2.7,8.7,5.4,13,8.4C775.5,817.3,776.2,819,777,820.1z"/>
	<path class="st0" d="M594.9,300.2c2.2,0.2,4.3,0.4,6.5,0.6c2.4,0.2,3.7,1.6,3.2,3.8c-0.7,3.4-1.6,6.8-2.8,10.1
		c-4.4,11.9-8.9,23.7-13.4,35.5c-3.9,10.2-7.8,20.4-11.8,30.6c-4,10.2-8,20.3-11.9,30.5c-5.4,14.1-10.7,28.2-16,42.3
		c-1.2,3.1-4,5-7.3,4.7c-0.8-0.1-1.9-1.7-1.9-2.6c0.2-4.1,0.6-8.1,1.3-12.1c2-11.7,4.1-23.5,6.4-35.2c2.2-11.3,4.6-22.5,6.9-33.7
		c1.7-8.5,3.2-17,5-25.5c1.5-7.4,3.4-14.8,4.9-22.2c1-4.5,1.7-9.1,2.6-13.6c0.6-2.8,1.2-5.6,2-8.4c0.7-2.7,2.6-4.1,5.4-4.1
		c7,0,13.9,0,20.9,0C594.9,300.6,594.9,300.4,594.9,300.2z"/>
	<path class="st0" d="M822.9,616.3c9.4-0.7,8,1.2,9.9,8.2c1.6,5.9,2.8,11.9,4,17.9c0.4,1.8,0.5,3.6,0.6,5.4c0,3.2-1,4.4-4.2,4.2
		c-8.3-0.5-16.6-1.2-24.9-1.9c-8.7-0.8-17.5-1.7-26.2-2.5c-4.7-0.4-9.4-0.8-14.1-1.2c-12.2-1.1-24.5-2.1-36.7-3.3
		c-12.4-1.2-24.8-2.7-37.2-4.1c-3.5-0.4-7-0.7-10.5-1.1c-2.6-0.3-3.9-2.2-4.7-4.4c-0.7-1.7-0.3-3.3,1.6-4c1.8-0.6,3.6-1.2,5.5-1.5
		c9-1.1,17.9-2.2,26.9-3.1c9.6-0.9,19.3-1.6,28.9-2.4c9.1-0.8,18.2-1.5,27.2-2.3c7.9-0.7,15.9-1.4,23.8-2c8.3-0.7,16.6-1.4,24.9-2.1
		C819.5,616.2,821.2,616.3,822.9,616.3z"/>
	<path class="st0" d="M228.4,656.5c25.6,0,51.3,0,76.9,0c1.7,0,3.5,0.2,4.9,1c1,0.6,1.7,2.2,1.8,3.5c0.1,0.7-1.2,1.9-2.1,2.2
		c-9.8,2.5-19.6,5.1-29.4,7.3c-9,2-18.1,3.4-27.2,5c-7.4,1.3-14.8,2.5-22.2,3.8c-8.8,1.6-17.6,3.2-26.4,4.8
		c-10.1,1.7-20.1,3.3-30.2,5c-3.7,0.6-7.3,1.4-10.9,2c-5.5,0.9-6.9,0-9-5c-2.9-7.1-5.7-14.3-8.5-21.4c-0.5-1.2-0.7-2.6-0.8-4
		c0-2.4,1.3-3.9,3.7-4.2c1.1-0.1,2.2-0.1,3.3-0.1C177.7,656.4,203,656.4,228.4,656.5C228.4,656.4,228.4,656.4,228.4,656.5z"/>
	<path class="st0" d="M592.8,917.8c-1.2,1.9-2,4.4-3.7,5.6c-5.8,4.1-11.9,7.9-18,11.6c-4.9,3-8.5,1.4-9.5-4.2
		c-2.1-11.9-3.9-23.9-5.9-35.8c-0.9-5.3-1.8-10.5-2.7-15.8c-1.3-8.2-2.5-16.4-3.8-24.6c-1.7-10.4-3.5-20.8-5.2-31.2
		c-0.5-3-0.9-6.1-1.2-9.1c-0.2-2.8,2.8-5.8,6.4-6.4c2.5-0.4,5.3,1.6,6.3,4.5c3.4,9.4,6.8,18.9,10.2,28.3c3,8.5,6,17,9,25.5
		c2.1,6.1,4.2,12.1,6.3,18.2c3.6,10.2,7.1,20.4,10.7,30.6c0.3,0.8,0.3,1.6,0.5,2.4C592.4,917.5,592.6,917.6,592.8,917.8z"/>
	<path class="st0" d="M280.5,833.8c-8.7-1.1-16.8-2.1-24.9-3.1c-4.7-0.6-9.3-1.3-13.9-2.1c-1-0.2-2.4-1.4-2.5-2.3
		c-0.1-1.1,0.7-2.7,1.7-3.3c6.6-4.2,13.3-8.1,20-12.1c14.5-8.5,29-17.1,43.5-25.5c10.6-6.1,21.3-12,31.9-18c3.5-2,7.1-4,10.7-5.9
		c1.8-1,7,1.2,7.4,3.2c0.2,0.9-0.3,2.2-0.9,2.8c-4.4,4.5-8.9,8.9-13.5,13.3c-9.5,8.9-18.9,17.9-28.5,26.7
		c-9.1,8.4-18.3,16.7-27.5,25C282.9,833.3,281.3,833.5,280.5,833.8z"/>
	<path class="st0" d="M245.3,477.5c0-3.4-0.1-6.7,0-10.1c0.1-2.1,0-4.3,2.5-5.2c2.5-1,4.4,0.3,6,1.9c6.7,6.6,13.4,13.2,20.1,19.8
		c16.2,15.8,32.4,31.6,48.6,47.3c3.4,3.3,6.8,6.5,10.1,9.8c0.5,0.5,1.1,1,1.4,1.6c1.1,1.9,2.2,4,0.4,6c-2,2.1-3.9,0.6-5.9-0.5
		c-6.6-3.6-13.2-7.1-19.8-10.6c-18.7-10.1-37.3-20.4-56.2-30.1c-5.3-2.7-7.3-5.9-6.9-11.6c0.4-6.1,0.1-12.3,0.1-18.5
		C245.7,477.5,245.5,477.5,245.3,477.5z"/>
	<path class="st0" d="M745.2,453.6c-1.4,1.7-2.4,3.3-3.7,4.3c-6.5,4.5-13.2,8.9-19.8,13.3c-8.1,5.4-16.1,10.7-24.2,16
		c-8.8,5.8-17.6,11.5-26.3,17.3c-9.3,6.1-18.5,12.3-27.8,18.4c-1.8,1.2-3.9,3-6,0.7c-2.3-2.5-0.2-4.6,1.3-6.2
		c5.4-5.7,10.9-11.4,16.5-16.8c10.4-9.9,20.9-19.8,31.5-29.5c10.8-9.9,21.7-19.7,32.5-29.5c3.5-3.2,4.6-3.3,8.8-0.7
		c4.6,2.8,9.2,5.7,13.7,8.7C743,450.4,743.8,451.9,745.2,453.6z"/>
</g>
<g>
	<path class="st0" d="M496,804.2c-86.8,1.2-162.6-71.4-161.4-161.7c1.1-87,71.9-159.4,162.1-158.6c87.6,0.8,158.1,71.3,158.7,159.5
		C655.9,732.4,583.5,804.5,496,804.2z"/>
	<g>
		<path class="st1" d="M497.9,559.4c-0.8,0.1-2.2-0.2-2.9-0.6c-2.9-1.8-3.8-5.5-4.5-8.8c-0.7-3.3-1.7-7-4.8-8.6
			c-1-0.5-2.2-0.7-3.3-0.9c-2.2-0.3-4.4-0.4-6.6-0.3c-0.7,0.1-1.4,0.1-2.1,0.4c-1.4,0.7-1.9,2.4-1.6,3.8c0.3,1.4,1.2,2.7,2.2,3.8
			c3.8,4.7,8.5,8.9,12,13.9c3.5,5,5.9,11.2,4.7,17.1c-0.7,3.5-2.6,6.5-4.4,9.6c-0.4,0.7-0.8,1.5-0.5,2.2c0.4,1,1.7,1.2,2.8,1.2
			c3.1,0.1,6.1,0.1,9.1,0.2c3.1-0.1,6.1-0.1,9.1-0.2c1.1,0,2.4-0.2,2.8-1.2c0.3-0.7-0.1-1.5-0.5-2.2c-1.7-3.1-3.7-6.2-4.4-9.6
			c-1.3-5.9,1.2-12.1,4.7-17.1c3.5-5,8.1-9.2,12-13.9c0.9-1.2,1.8-2.4,2.2-3.8c0.3-1.4-0.3-3.1-1.6-3.8c-0.6-0.3-1.3-0.4-2.1-0.4
			c-2.2-0.1-4.4,0-6.6,0.3c-1.2,0.2-2.3,0.4-3.3,0.9c-3.1,1.6-4.2,5.3-4.8,8.6c-0.7,3.3-1.5,7-4.5,8.8c-0.7,0.4-2.1,0.7-2.9,0.6
			H497.9z"/>
		<path class="st1" d="M392.2,580.3c0.8,3.2,1.2,6.5,1.4,9.8c0.1,3.3,0.3,6.5,1.6,9.5c1.6,3.9,3.1,9.7,7.4,9.8
			c4.2,0.1,6.4-5.4,9.7-7.8c3.3-2.5,7.4-4.5,11.5-3.9c1.1,0.1,2.1,0.5,2.9,1.1c1.6,1.1,2.3,3.1,2.5,5c0.1,1.1,1.1,4.8,0.9,5.9
			c-0.2,1.4-1.1,2.5-2.3,3.1c-7.9,3.5-15.7,7.2-23,11.9c-3.1,2-6.2,4.2-9.9,4.7c-0.3,0-0.7,0.1-1.1,0c-2.6-0.5-4-6-4.1-8.4
			c-0.3-5.7-0.5-11.4-2.4-16.8c-0.9-2.6-2.2-5.1-3.6-7.5c-2.4-4.3-6-8-8.9-12c-0.3-0.5-0.7-1-1-1.6c-0.6-1.3-0.2-2.9,1-3.7
			C378.3,577,389.8,570.6,392.2,580.3z"/>
		<path class="st1" d="M608.3,580.2c-1.9,2.6-4.2,5.1-6.6,7.4c-2.4,2.2-4.8,4.4-6.3,7.4c-1.9,3.7-5.4,8.7-2.8,11.9
			c2.6,3.2,8.2,1.4,12.2,2.4c4.1,0.9,8.2,2.8,10.4,6.3c0.6,0.9,1,1.9,1.1,2.9c0.1,1.9-0.9,3.8-2.3,5.1c-0.8,0.8-2.9,3.9-3.9,4.5
			c-1.2,0.7-2.6,0.8-3.9,0.2c-7.8-3.8-15.6-7.4-23.9-10c-3.5-1.1-7.2-2.1-10-4.6c-0.2-0.2-0.5-0.5-0.7-0.8c-1.3-2.3,2-6.9,3.8-8.6
			c4.2-3.9,8.4-7.7,11.3-12.7c1.4-2.4,2.4-5,3.4-7.6c1.7-4.6,2.2-9.8,3.5-14.5c0.1-0.6,0.3-1.2,0.6-1.8c0.6-1.3,2.1-2,3.5-1.6
			C601.9,567.4,614.2,572.1,608.3,580.2z"/>
		<path class="st1" d="M568.2,604.3c-0.9-6.7-4.1-15-5.9-21.5c-1.6-5.6-1.7-11.7-0.2-17.3c0.6-2.3,1.6-4.7,3.4-6.3
			c0.6-0.6,1.3-1.1,1.4-1.9c0-0.4-0.1-0.7-0.3-1.1c-0.8-1.5-2.2-2.3-3.7-3c-2.9-1.4-5.7-2.5-8.8-3.2c-3.1-0.8-6.2-1.3-9.2-1.6
			c-1.7-0.1-3.3-0.1-4.7,0.8c-0.3,0.2-0.6,0.4-0.8,0.8c-0.4,0.7,0,1.6,0.2,2.4c0.7,2.3,0.4,4.8-0.2,7.2c-1.5,5.6-4.6,10.9-8.8,14.9
			c-4.8,4.6-11.8,10.4-15.9,15.7c-0.5,0.6-0.6,1.6-0.2,2.3c0.5,0.8,1.4,1.2,2.3,1.5c5.6,2.3,11.4,4.2,17.3,5.7
			c0.6,0.1,1.1,0.1,1.6,0c1.8-0.7,1.3-2.9,0.2-4.2c-0.7-0.9-0.9-3.1-0.6-4.3c0.1-0.5,0.7-2.6,1.2-2.8c0.4-0.2,0.8-0.2,1.3-0.2
			l11.6,3.1c0.4,0.2,0.8,0.4,1,0.8c0.3,0.5-0.2,2.5-0.4,3.1c-0.4,1.2-1.8,3.2-3,3.5c-1.1,0.3-2,1.3-2,2.5c0.1,1.4,1.4,2,2.6,2.3
			c5.6,1.6,11.4,2.8,17.1,3.5c0.9,0.1,1.9,0.2,2.7-0.2C567.9,606,568.3,605,568.2,604.3z M550.5,580.2l-8.4-2.3
			c-1.2-0.6-2.2-2-1.8-3.3c0.3-0.8,1.1-1.3,1.7-1.9c2.7-2.2,4.2-5.6,4-9c0-0.5-0.1-1.1,0-1.6c0.3-1.1,1.5-1.6,2.6-1.5
			c0.9,0.1,1.7,0.1,2.5,0.3s1.6,0.6,2.3,1c1,0.5,1.8,1.6,1.5,2.6c-0.1,0.5-0.4,1-0.8,1.4c-1.9,2.9-2.3,6.6-1,9.8
			c0.3,0.8,0.7,1.7,0.5,2.5C553.5,579.6,551.9,580.2,550.5,580.2z"/>
		<path class="st1" d="M500.9,748.2c4.6,0,13.5-1.1,17.7-2.6c3.5-1.3,6.6-4.5,7.4-8.5c0.9-4.4-1.8-8.3-3.5-12.4
			c-1.5-3.6-1.7-7.8-1-11.7c0.7-3.9,2.4-7.5,4.5-10.7c1-1.6,2.9-3.9,1.7-5.3c-1.7-1.9-6.9-2.5-9.3-2.7c-3.5-0.2-9.5,2.1-12.7,3.8
			c-0.4,0.2-0.8,0.6-1.1,0.9c-0.3,0.4-0.5,1.1-0.6,1.5c-0.6,3.2,0.1,6.5,1.8,9.1l1.8,2.8c1.9,2.9,3.3,6,4.6,9.4
			c1.3,3.4,1.3,7.3,0.4,10.8c-1.2,4.7-5.2,6.7-9.4,6.8c-1.2,0.1-3.5,0.1-4.7,0c-4.3-0.1-8.2-2.1-9.4-6.8c-0.9-3.6-0.8-7.4,0.4-10.8
			s2.2-6.4,4.1-9.4l1.8-2.8c1.7-2.7,2.5-6.3,1.6-9.6c-0.1-0.2-0.1-0.4-0.2-0.5c-0.3-0.6-0.8-1.2-1.3-1.5c-3.2-1.8-8.7-4-12.2-3.8
			c-2.4,0.1-7.6,0.7-9.4,2.7c-1.2,1.4,0.7,3.7,1.7,5.3c2.1,3.2,3.7,6.8,4.5,10.7s0.5,8.1-1,11.7c-1.7,4.1-4.4,8-3.5,12.4
			c0.9,4.1,3.9,7.3,7.4,8.5C487.4,747.1,496.4,748.2,500.9,748.2z"/>
		<path class="st1" d="M432.3,718.3c0.7-0.7,1.7-1.2,2.7-1.5c9.1-2.8,19.5,4.2,27.7-1c4.7-2.9,6.8-9,7.4-14.6c0.2-1.7,0.3-3.4-0.2-5
			c-0.9-2.5-3.4-4-5.9-4.6c-9.1-2.2-27.2-6.5-35.9-10.1c-2.2-0.9-4.4,0.8-4,3.2c1.1,6.8-1.1,18-3.9,24.6c-1.8,4.2-4,8.3-6.6,12.1
			c-1.4,2.1-7.4,8-6.3,9.9c0,0,16.9,4.2,22.5,5.8c0.9,0.2,1.7-0.8,1.3-1.6c-2.2-4.5-2.4-10.1-0.4-14.8
			C431.2,719.9,431.6,719,432.3,718.3z M432.6,707.2c-0.3-0.3-0.4-0.8-0.4-1.2c-0.1-2.5,1.7-3.3,2.8-5.2c1.1-1.7,1.2-4.1,0.2-5.9
			c-0.3-0.6-0.7-1.3-0.3-1.8c0.2-0.2,0.5-0.2,0.8-0.3c2.6-0.2,5.1,0.6,7.7,1.3c3.4,1,6.8,1.9,10.2,3c0.9,0.2,1.8,0.5,2.5,1.2
			c0.7,0.7,1.1,1.8,1.2,2.8c0,1-0.2,2.1-0.4,3.1c-0.2,1-0.5,2.1-1.2,2.8c-1,1-2.6,1.1-4,0.9c-2.1-0.3-4-1.4-6.1-1.9
			c-3.2-0.8-6.7-0.4-9.8,1C434.6,707.4,433.4,708,432.6,707.2z"/>
		<path class="st1" d="M555.3,721.3c0.3-1,0.9-1.9,1.6-2.7c6.5-7,19-6.1,23.5-14.7c2.6-4.9,1.4-11.2-0.8-16.3
			c-0.6-1.6-1.4-3.1-2.7-4.2c-2-1.7-4.9-1.7-7.4-1c-8.9,2.6-26.9,8-36.1,9.2c-2.3,0.3-3.4,2.9-1.9,4.8c4.4,5.4,8.1,16.1,9,23.3
			c0.5,4.6,0.7,9.2,0.3,13.8c-0.1,2.5-2.4,10.7-0.5,11.7c0,0,16.7-4.8,22.4-6.3c0.9-0.2,1.1-1.5,0.3-2c-4.1-2.8-7.1-7.5-7.7-12.6
			C555.1,723.2,555,722.2,555.3,721.3z M550,711.6c-0.4-0.1-0.7-0.5-1-0.8c-1.4-2.1-0.2-3.7-0.2-5.9c0.1-2-1.1-4.1-2.8-5.2
			c-0.6-0.3-1.3-0.8-1.1-1.4c0.1-0.3,0.3-0.5,0.5-0.6c2.2-1.5,4.7-2.1,7.3-2.7c3.4-0.9,6.8-1.7,10.3-2.5c0.9-0.2,1.8-0.4,2.7-0.2
			c1,0.2,1.8,1,2.4,1.8c0.6,0.9,0.9,1.9,1.2,2.8c0.3,1,0.6,2.1,0.4,3.1c-0.3,1.4-1.7,2.3-3.1,2.8c-2,0.7-4.2,0.8-6.2,1.4
			c-3.2,0.9-6.1,3-7.9,5.8C551.8,710.7,551,711.8,550,711.6z"/>
		<path class="st1" d="M466.1,569.4c-4-14.9,6.4-30.6-23.8-22.5c-29.8,8-13,16.4-9,31.3c4,14.9-10.2,31.6,23.5,22.6
			C492.6,591.2,470.1,584.3,466.1,569.4z M461.2,583.9c0.1,0.6,0.2,1.3-0.2,1.8c-0.4,0.6-1.2,0.9-1.9,1.2c-3.3,1.1-8.9,2.5-12.3,3.3
			c-0.8,0.2-1.6,0.3-2.2-0.1c-0.6-0.3-0.8-0.9-1-1.5c-0.7-2.3-0.8-4.7-0.1-7c0.4-1.6,1.2-3.2,1.5-4.8c0.9-4.3-1.1-8.7-4.4-11.7
			c-1-0.9-2.2-1.8-2.2-3.1c-0.1-1.3,1-2.7,2.5-3.2c2.2-0.8,5.5-1.7,7.8-2.1c1.5-0.3,3.1,0.4,3.7,1.5c0.6,1.2,0,2.6-0.3,3.8
			c-1.4,4.3-0.9,9,2,12.3c1.1,1.2,2.6,2.2,3.7,3.4C459.5,579.5,460.7,581.6,461.2,583.9z"/>
	</g>
</g>
</svg>
